G04 #@! TF.GenerationSoftware,KiCad,Pcbnew,(5.1.12)-1*
G04 #@! TF.CreationDate,2024-06-16T18:18:34+02:00*
G04 #@! TF.ProjectId,RAMbow,52414d62-6f77-42e6-9b69-6361645f7063,rev?*
G04 #@! TF.SameCoordinates,Original*
G04 #@! TF.FileFunction,Legend,Top*
G04 #@! TF.FilePolarity,Positive*
%FSLAX46Y46*%
G04 Gerber Fmt 4.6, Leading zero omitted, Abs format (unit mm)*
G04 Created by KiCad (PCBNEW (5.1.12)-1) date 2024-06-16 18:18:34*
%MOMM*%
%LPD*%
G01*
G04 APERTURE LIST*
%ADD10C,0.300000*%
%ADD11C,0.100000*%
%ADD12C,0.500000*%
%ADD13C,0.120000*%
%ADD14C,0.150000*%
%ADD15C,1.600000*%
%ADD16O,1.600000X1.600000*%
%ADD17C,1.700000*%
%ADD18C,3.700000*%
%ADD19C,1.524000*%
%ADD20O,1.400000X1.400000*%
%ADD21C,1.400000*%
%ADD22R,1.400000X1.400000*%
%ADD23R,1.600000X1.600000*%
%ADD24R,1.700000X1.700000*%
%ADD25O,1.700000X1.700000*%
%ADD26C,2.000000*%
%ADD27O,2.000000X2.000000*%
G04 APERTURE END LIST*
D10*
X57554222Y-90329651D02*
X57911365Y-91329651D01*
X58268508Y-90329651D01*
X59625651Y-91329651D02*
X58768508Y-91329651D01*
X59197080Y-91329651D02*
X59197080Y-89829651D01*
X59054222Y-90043937D01*
X58911365Y-90186794D01*
X58768508Y-90258222D01*
X60268508Y-91186794D02*
X60339937Y-91258222D01*
X60268508Y-91329651D01*
X60197080Y-91258222D01*
X60268508Y-91186794D01*
X60268508Y-91329651D01*
X61268508Y-89829651D02*
X61411365Y-89829651D01*
X61554222Y-89901080D01*
X61625651Y-89972508D01*
X61697080Y-90115365D01*
X61768508Y-90401080D01*
X61768508Y-90758222D01*
X61697080Y-91043937D01*
X61625651Y-91186794D01*
X61554222Y-91258222D01*
X61411365Y-91329651D01*
X61268508Y-91329651D01*
X61125651Y-91258222D01*
X61054222Y-91186794D01*
X60982794Y-91043937D01*
X60911365Y-90758222D01*
X60911365Y-90401080D01*
X60982794Y-90115365D01*
X61054222Y-89972508D01*
X61125651Y-89901080D01*
X61268508Y-89829651D01*
D11*
X87637080Y-90012746D02*
X87637080Y-89312746D01*
X87803746Y-89312746D01*
X87903746Y-89346080D01*
X87970413Y-89412746D01*
X88003746Y-89479413D01*
X88037080Y-89612746D01*
X88037080Y-89712746D01*
X88003746Y-89846080D01*
X87970413Y-89912746D01*
X87903746Y-89979413D01*
X87803746Y-90012746D01*
X87637080Y-90012746D01*
X88603746Y-89979413D02*
X88537080Y-90012746D01*
X88403746Y-90012746D01*
X88337080Y-89979413D01*
X88303746Y-89912746D01*
X88303746Y-89646080D01*
X88337080Y-89579413D01*
X88403746Y-89546080D01*
X88537080Y-89546080D01*
X88603746Y-89579413D01*
X88637080Y-89646080D01*
X88637080Y-89712746D01*
X88303746Y-89779413D01*
X88837080Y-89546080D02*
X89103746Y-89546080D01*
X88937080Y-90012746D02*
X88937080Y-89412746D01*
X88970413Y-89346080D01*
X89037080Y-89312746D01*
X89103746Y-89312746D01*
X89637080Y-90012746D02*
X89637080Y-89646080D01*
X89603746Y-89579413D01*
X89537080Y-89546080D01*
X89403746Y-89546080D01*
X89337080Y-89579413D01*
X89637080Y-89979413D02*
X89570413Y-90012746D01*
X89403746Y-90012746D01*
X89337080Y-89979413D01*
X89303746Y-89912746D01*
X89303746Y-89846080D01*
X89337080Y-89779413D01*
X89403746Y-89746080D01*
X89570413Y-89746080D01*
X89637080Y-89712746D01*
X90270413Y-89546080D02*
X90270413Y-90012746D01*
X89970413Y-89546080D02*
X89970413Y-89912746D01*
X90003746Y-89979413D01*
X90070413Y-90012746D01*
X90170413Y-90012746D01*
X90237080Y-89979413D01*
X90270413Y-89946080D01*
X90703746Y-90012746D02*
X90637080Y-89979413D01*
X90603746Y-89912746D01*
X90603746Y-89312746D01*
X90870413Y-89546080D02*
X91137080Y-89546080D01*
X90970413Y-89312746D02*
X90970413Y-89912746D01*
X91003746Y-89979413D01*
X91070413Y-90012746D01*
X91137080Y-90012746D01*
X88470413Y-91096080D02*
X88437080Y-91129413D01*
X88337080Y-91162746D01*
X88270413Y-91162746D01*
X88170413Y-91129413D01*
X88103746Y-91062746D01*
X88070413Y-90996080D01*
X88037080Y-90862746D01*
X88037080Y-90762746D01*
X88070413Y-90629413D01*
X88103746Y-90562746D01*
X88170413Y-90496080D01*
X88270413Y-90462746D01*
X88337080Y-90462746D01*
X88437080Y-90496080D01*
X88470413Y-90529413D01*
X88870413Y-91162746D02*
X88803746Y-91129413D01*
X88770413Y-91062746D01*
X88770413Y-90462746D01*
X89237080Y-91162746D02*
X89170413Y-91129413D01*
X89137080Y-91096080D01*
X89103746Y-91029413D01*
X89103746Y-90829413D01*
X89137080Y-90762746D01*
X89170413Y-90729413D01*
X89237080Y-90696080D01*
X89337080Y-90696080D01*
X89403746Y-90729413D01*
X89437080Y-90762746D01*
X89470413Y-90829413D01*
X89470413Y-91029413D01*
X89437080Y-91096080D01*
X89403746Y-91129413D01*
X89337080Y-91162746D01*
X89237080Y-91162746D01*
X89737080Y-91129413D02*
X89803746Y-91162746D01*
X89937080Y-91162746D01*
X90003746Y-91129413D01*
X90037080Y-91062746D01*
X90037080Y-91029413D01*
X90003746Y-90962746D01*
X89937080Y-90929413D01*
X89837080Y-90929413D01*
X89770413Y-90896080D01*
X89737080Y-90829413D01*
X89737080Y-90796080D01*
X89770413Y-90729413D01*
X89837080Y-90696080D01*
X89937080Y-90696080D01*
X90003746Y-90729413D01*
X90603746Y-91129413D02*
X90537080Y-91162746D01*
X90403746Y-91162746D01*
X90337080Y-91129413D01*
X90303746Y-91062746D01*
X90303746Y-90796080D01*
X90337080Y-90729413D01*
X90403746Y-90696080D01*
X90537080Y-90696080D01*
X90603746Y-90729413D01*
X90637080Y-90796080D01*
X90637080Y-90862746D01*
X90303746Y-90929413D01*
X99683746Y-89896080D02*
X99650413Y-89929413D01*
X99550413Y-89962746D01*
X99483746Y-89962746D01*
X99383746Y-89929413D01*
X99317080Y-89862746D01*
X99283746Y-89796080D01*
X99250413Y-89662746D01*
X99250413Y-89562746D01*
X99283746Y-89429413D01*
X99317080Y-89362746D01*
X99383746Y-89296080D01*
X99483746Y-89262746D01*
X99550413Y-89262746D01*
X99650413Y-89296080D01*
X99683746Y-89329413D01*
X100083746Y-89962746D02*
X100017080Y-89929413D01*
X99983746Y-89862746D01*
X99983746Y-89262746D01*
X100450413Y-89962746D02*
X100383746Y-89929413D01*
X100350413Y-89896080D01*
X100317080Y-89829413D01*
X100317080Y-89629413D01*
X100350413Y-89562746D01*
X100383746Y-89529413D01*
X100450413Y-89496080D01*
X100550413Y-89496080D01*
X100617080Y-89529413D01*
X100650413Y-89562746D01*
X100683746Y-89629413D01*
X100683746Y-89829413D01*
X100650413Y-89896080D01*
X100617080Y-89929413D01*
X100550413Y-89962746D01*
X100450413Y-89962746D01*
X100950413Y-89929413D02*
X101017080Y-89962746D01*
X101150413Y-89962746D01*
X101217080Y-89929413D01*
X101250413Y-89862746D01*
X101250413Y-89829413D01*
X101217080Y-89762746D01*
X101150413Y-89729413D01*
X101050413Y-89729413D01*
X100983746Y-89696080D01*
X100950413Y-89629413D01*
X100950413Y-89596080D01*
X100983746Y-89529413D01*
X101050413Y-89496080D01*
X101150413Y-89496080D01*
X101217080Y-89529413D01*
X101817080Y-89929413D02*
X101750413Y-89962746D01*
X101617080Y-89962746D01*
X101550413Y-89929413D01*
X101517080Y-89862746D01*
X101517080Y-89596080D01*
X101550413Y-89529413D01*
X101617080Y-89496080D01*
X101750413Y-89496080D01*
X101817080Y-89529413D01*
X101850413Y-89596080D01*
X101850413Y-89662746D01*
X101517080Y-89729413D01*
X102650413Y-89762746D02*
X102983746Y-89762746D01*
X102583746Y-89962746D02*
X102817080Y-89262746D01*
X103050413Y-89962746D01*
X99500413Y-90412746D02*
X99633746Y-90412746D01*
X99700413Y-90446080D01*
X99767080Y-90512746D01*
X99800413Y-90646080D01*
X99800413Y-90879413D01*
X99767080Y-91012746D01*
X99700413Y-91079413D01*
X99633746Y-91112746D01*
X99500413Y-91112746D01*
X99433746Y-91079413D01*
X99367080Y-91012746D01*
X99333746Y-90879413D01*
X99333746Y-90646080D01*
X99367080Y-90512746D01*
X99433746Y-90446080D01*
X99500413Y-90412746D01*
X100100413Y-90646080D02*
X100100413Y-91346080D01*
X100100413Y-90679413D02*
X100167080Y-90646080D01*
X100300413Y-90646080D01*
X100367080Y-90679413D01*
X100400413Y-90712746D01*
X100433746Y-90779413D01*
X100433746Y-90979413D01*
X100400413Y-91046080D01*
X100367080Y-91079413D01*
X100300413Y-91112746D01*
X100167080Y-91112746D01*
X100100413Y-91079413D01*
X101000413Y-91079413D02*
X100933746Y-91112746D01*
X100800413Y-91112746D01*
X100733746Y-91079413D01*
X100700413Y-91012746D01*
X100700413Y-90746080D01*
X100733746Y-90679413D01*
X100800413Y-90646080D01*
X100933746Y-90646080D01*
X101000413Y-90679413D01*
X101033746Y-90746080D01*
X101033746Y-90812746D01*
X100700413Y-90879413D01*
X101333746Y-90646080D02*
X101333746Y-91112746D01*
X101333746Y-90712746D02*
X101367080Y-90679413D01*
X101433746Y-90646080D01*
X101533746Y-90646080D01*
X101600413Y-90679413D01*
X101633746Y-90746080D01*
X101633746Y-91112746D01*
X102733746Y-90746080D02*
X102833746Y-90779413D01*
X102867080Y-90812746D01*
X102900413Y-90879413D01*
X102900413Y-90979413D01*
X102867080Y-91046080D01*
X102833746Y-91079413D01*
X102767080Y-91112746D01*
X102500413Y-91112746D01*
X102500413Y-90412746D01*
X102733746Y-90412746D01*
X102800413Y-90446080D01*
X102833746Y-90479413D01*
X102867080Y-90546080D01*
X102867080Y-90612746D01*
X102833746Y-90679413D01*
X102800413Y-90712746D01*
X102733746Y-90746080D01*
X102500413Y-90746080D01*
D10*
X47677883Y-91438222D02*
X48052883Y-88438222D01*
X47910026Y-89581080D02*
X48213597Y-89438222D01*
X48785026Y-89438222D01*
X49052883Y-89581080D01*
X49177883Y-89723937D01*
X49285026Y-90009651D01*
X49177883Y-90866794D01*
X48999312Y-91152508D01*
X48838597Y-91295365D01*
X48535026Y-91438222D01*
X47963597Y-91438222D01*
X47695740Y-91295365D01*
X50820740Y-91438222D02*
X50552883Y-91295365D01*
X50427883Y-91152508D01*
X50320740Y-90866794D01*
X50427883Y-90009651D01*
X50606455Y-89723937D01*
X50767169Y-89581080D01*
X51070740Y-89438222D01*
X51499312Y-89438222D01*
X51767169Y-89581080D01*
X51892169Y-89723937D01*
X51999312Y-90009651D01*
X51892169Y-90866794D01*
X51713597Y-91152508D01*
X51552883Y-91295365D01*
X51249312Y-91438222D01*
X50820740Y-91438222D01*
X53070740Y-89438222D02*
X53392169Y-91438222D01*
X54142169Y-90009651D01*
X54535026Y-91438222D01*
X55356455Y-89438222D01*
X36348508Y-94709651D02*
X36348508Y-93209651D01*
X36991365Y-94709651D02*
X36991365Y-93923937D01*
X36919937Y-93781080D01*
X36777080Y-93709651D01*
X36562794Y-93709651D01*
X36419937Y-93781080D01*
X36348508Y-93852508D01*
X37491365Y-93709651D02*
X38062794Y-93709651D01*
X37705651Y-93209651D02*
X37705651Y-94495365D01*
X37777080Y-94638222D01*
X37919937Y-94709651D01*
X38062794Y-94709651D01*
X38348508Y-93709651D02*
X38919937Y-93709651D01*
X38562794Y-93209651D02*
X38562794Y-94495365D01*
X38634222Y-94638222D01*
X38777080Y-94709651D01*
X38919937Y-94709651D01*
X39419937Y-93709651D02*
X39419937Y-95209651D01*
X39419937Y-93781080D02*
X39562794Y-93709651D01*
X39848508Y-93709651D01*
X39991365Y-93781080D01*
X40062794Y-93852508D01*
X40134222Y-93995365D01*
X40134222Y-94423937D01*
X40062794Y-94566794D01*
X39991365Y-94638222D01*
X39848508Y-94709651D01*
X39562794Y-94709651D01*
X39419937Y-94638222D01*
X40705651Y-94638222D02*
X40848508Y-94709651D01*
X41134222Y-94709651D01*
X41277080Y-94638222D01*
X41348508Y-94495365D01*
X41348508Y-94423937D01*
X41277080Y-94281080D01*
X41134222Y-94209651D01*
X40919937Y-94209651D01*
X40777080Y-94138222D01*
X40705651Y-93995365D01*
X40705651Y-93923937D01*
X40777080Y-93781080D01*
X40919937Y-93709651D01*
X41134222Y-93709651D01*
X41277080Y-93781080D01*
X41991365Y-94566794D02*
X42062794Y-94638222D01*
X41991365Y-94709651D01*
X41919937Y-94638222D01*
X41991365Y-94566794D01*
X41991365Y-94709651D01*
X41991365Y-93781080D02*
X42062794Y-93852508D01*
X41991365Y-93923937D01*
X41919937Y-93852508D01*
X41991365Y-93781080D01*
X41991365Y-93923937D01*
X43777080Y-93138222D02*
X42491365Y-95066794D01*
X45348508Y-93138222D02*
X44062794Y-95066794D01*
X46491365Y-93709651D02*
X46491365Y-94923937D01*
X46419937Y-95066794D01*
X46348508Y-95138222D01*
X46205651Y-95209651D01*
X45991365Y-95209651D01*
X45848508Y-95138222D01*
X46491365Y-94638222D02*
X46348508Y-94709651D01*
X46062794Y-94709651D01*
X45919937Y-94638222D01*
X45848508Y-94566794D01*
X45777080Y-94423937D01*
X45777080Y-93995365D01*
X45848508Y-93852508D01*
X45919937Y-93781080D01*
X46062794Y-93709651D01*
X46348508Y-93709651D01*
X46491365Y-93781080D01*
X47205651Y-94709651D02*
X47205651Y-93709651D01*
X47205651Y-93209651D02*
X47134222Y-93281080D01*
X47205651Y-93352508D01*
X47277080Y-93281080D01*
X47205651Y-93209651D01*
X47205651Y-93352508D01*
X47705651Y-93709651D02*
X48277080Y-93709651D01*
X47919937Y-93209651D02*
X47919937Y-94495365D01*
X47991365Y-94638222D01*
X48134222Y-94709651D01*
X48277080Y-94709651D01*
X48777080Y-94709651D02*
X48777080Y-93209651D01*
X49419937Y-94709651D02*
X49419937Y-93923937D01*
X49348508Y-93781080D01*
X49205651Y-93709651D01*
X48991365Y-93709651D01*
X48848508Y-93781080D01*
X48777080Y-93852508D01*
X50777080Y-93709651D02*
X50777080Y-94709651D01*
X50134222Y-93709651D02*
X50134222Y-94495365D01*
X50205651Y-94638222D01*
X50348508Y-94709651D01*
X50562794Y-94709651D01*
X50705651Y-94638222D01*
X50777080Y-94566794D01*
X51491365Y-94709651D02*
X51491365Y-93209651D01*
X51491365Y-93781080D02*
X51634222Y-93709651D01*
X51919937Y-93709651D01*
X52062794Y-93781080D01*
X52134222Y-93852508D01*
X52205651Y-93995365D01*
X52205651Y-94423937D01*
X52134222Y-94566794D01*
X52062794Y-94638222D01*
X51919937Y-94709651D01*
X51634222Y-94709651D01*
X51491365Y-94638222D01*
X52848508Y-94566794D02*
X52919937Y-94638222D01*
X52848508Y-94709651D01*
X52777080Y-94638222D01*
X52848508Y-94566794D01*
X52848508Y-94709651D01*
X54205651Y-94638222D02*
X54062794Y-94709651D01*
X53777080Y-94709651D01*
X53634222Y-94638222D01*
X53562794Y-94566794D01*
X53491365Y-94423937D01*
X53491365Y-93995365D01*
X53562794Y-93852508D01*
X53634222Y-93781080D01*
X53777080Y-93709651D01*
X54062794Y-93709651D01*
X54205651Y-93781080D01*
X55062794Y-94709651D02*
X54919937Y-94638222D01*
X54848508Y-94566794D01*
X54777080Y-94423937D01*
X54777080Y-93995365D01*
X54848508Y-93852508D01*
X54919937Y-93781080D01*
X55062794Y-93709651D01*
X55277080Y-93709651D01*
X55419937Y-93781080D01*
X55491365Y-93852508D01*
X55562794Y-93995365D01*
X55562794Y-94423937D01*
X55491365Y-94566794D01*
X55419937Y-94638222D01*
X55277080Y-94709651D01*
X55062794Y-94709651D01*
X56205651Y-94709651D02*
X56205651Y-93709651D01*
X56205651Y-93852508D02*
X56277080Y-93781080D01*
X56419937Y-93709651D01*
X56634222Y-93709651D01*
X56777080Y-93781080D01*
X56848508Y-93923937D01*
X56848508Y-94709651D01*
X56848508Y-93923937D02*
X56919937Y-93781080D01*
X57062794Y-93709651D01*
X57277080Y-93709651D01*
X57419937Y-93781080D01*
X57491365Y-93923937D01*
X57491365Y-94709651D01*
X59277080Y-93138222D02*
X57991365Y-95066794D01*
X59777080Y-93709651D02*
X59777080Y-94709651D01*
X59777080Y-93852508D02*
X59848508Y-93781080D01*
X59991365Y-93709651D01*
X60205651Y-93709651D01*
X60348508Y-93781080D01*
X60419937Y-93923937D01*
X60419937Y-94709651D01*
X61777080Y-94709651D02*
X61777080Y-93923937D01*
X61705651Y-93781080D01*
X61562794Y-93709651D01*
X61277080Y-93709651D01*
X61134222Y-93781080D01*
X61777080Y-94638222D02*
X61634222Y-94709651D01*
X61277080Y-94709651D01*
X61134222Y-94638222D01*
X61062794Y-94495365D01*
X61062794Y-94352508D01*
X61134222Y-94209651D01*
X61277080Y-94138222D01*
X61634222Y-94138222D01*
X61777080Y-94066794D01*
X63277080Y-94709651D02*
X62419937Y-94709651D01*
X62848508Y-94709651D02*
X62848508Y-93209651D01*
X62705651Y-93423937D01*
X62562794Y-93566794D01*
X62419937Y-93638222D01*
X64205651Y-93209651D02*
X64348508Y-93209651D01*
X64491365Y-93281080D01*
X64562794Y-93352508D01*
X64634222Y-93495365D01*
X64705651Y-93781080D01*
X64705651Y-94138222D01*
X64634222Y-94423937D01*
X64562794Y-94566794D01*
X64491365Y-94638222D01*
X64348508Y-94709651D01*
X64205651Y-94709651D01*
X64062794Y-94638222D01*
X63991365Y-94566794D01*
X63919937Y-94423937D01*
X63848508Y-94138222D01*
X63848508Y-93781080D01*
X63919937Y-93495365D01*
X63991365Y-93352508D01*
X64062794Y-93281080D01*
X64205651Y-93209651D01*
X65205651Y-93209651D02*
X66134222Y-93209651D01*
X65634222Y-93781080D01*
X65848508Y-93781080D01*
X65991365Y-93852508D01*
X66062794Y-93923937D01*
X66134222Y-94066794D01*
X66134222Y-94423937D01*
X66062794Y-94566794D01*
X65991365Y-94638222D01*
X65848508Y-94709651D01*
X65419937Y-94709651D01*
X65277080Y-94638222D01*
X65205651Y-94566794D01*
X67848508Y-93138222D02*
X66562794Y-95066794D01*
X68348508Y-94709651D02*
X68348508Y-93709651D01*
X68348508Y-93995365D02*
X68419937Y-93852508D01*
X68491365Y-93781080D01*
X68634222Y-93709651D01*
X68777080Y-93709651D01*
X69919937Y-94709651D02*
X69919937Y-93923937D01*
X69848508Y-93781080D01*
X69705651Y-93709651D01*
X69419937Y-93709651D01*
X69277080Y-93781080D01*
X69919937Y-94638222D02*
X69777080Y-94709651D01*
X69419937Y-94709651D01*
X69277080Y-94638222D01*
X69205651Y-94495365D01*
X69205651Y-94352508D01*
X69277080Y-94209651D01*
X69419937Y-94138222D01*
X69777080Y-94138222D01*
X69919937Y-94066794D01*
X70634222Y-94709651D02*
X70634222Y-93709651D01*
X70634222Y-93852508D02*
X70705651Y-93781080D01*
X70848508Y-93709651D01*
X71062794Y-93709651D01*
X71205651Y-93781080D01*
X71277080Y-93923937D01*
X71277080Y-94709651D01*
X71277080Y-93923937D02*
X71348508Y-93781080D01*
X71491365Y-93709651D01*
X71705651Y-93709651D01*
X71848508Y-93781080D01*
X71919937Y-93923937D01*
X71919937Y-94709651D01*
X72634222Y-94709651D02*
X72634222Y-93209651D01*
X72634222Y-93781080D02*
X72777080Y-93709651D01*
X73062794Y-93709651D01*
X73205651Y-93781080D01*
X73277080Y-93852508D01*
X73348508Y-93995365D01*
X73348508Y-94423937D01*
X73277080Y-94566794D01*
X73205651Y-94638222D01*
X73062794Y-94709651D01*
X72777080Y-94709651D01*
X72634222Y-94638222D01*
X74205651Y-94709651D02*
X74062794Y-94638222D01*
X73991365Y-94566794D01*
X73919937Y-94423937D01*
X73919937Y-93995365D01*
X73991365Y-93852508D01*
X74062794Y-93781080D01*
X74205651Y-93709651D01*
X74419937Y-93709651D01*
X74562794Y-93781080D01*
X74634222Y-93852508D01*
X74705651Y-93995365D01*
X74705651Y-94423937D01*
X74634222Y-94566794D01*
X74562794Y-94638222D01*
X74419937Y-94709651D01*
X74205651Y-94709651D01*
X75205651Y-93709651D02*
X75491365Y-94709651D01*
X75777080Y-93995365D01*
X76062794Y-94709651D01*
X76348508Y-93709651D01*
D12*
X38495175Y-91430603D02*
X37161841Y-89525841D01*
X36209460Y-91430603D02*
X36209460Y-87430603D01*
X37733270Y-87430603D01*
X38114222Y-87621080D01*
X38304699Y-87811556D01*
X38495175Y-88192508D01*
X38495175Y-88763937D01*
X38304699Y-89144889D01*
X38114222Y-89335365D01*
X37733270Y-89525841D01*
X36209460Y-89525841D01*
X40018984Y-90287746D02*
X41923746Y-90287746D01*
X39638032Y-91430603D02*
X40971365Y-87430603D01*
X42304699Y-91430603D01*
X43638032Y-91430603D02*
X43638032Y-87430603D01*
X44971365Y-90287746D01*
X46304699Y-87430603D01*
X46304699Y-91430603D01*
D13*
X122547080Y-97681080D02*
X115807080Y-97681080D01*
X115807080Y-97681080D02*
X115807080Y-109921080D01*
X115807080Y-109921080D02*
X122547080Y-109921080D01*
X122547080Y-109921080D02*
X122547080Y-97681080D01*
X119177080Y-94841080D02*
X119177080Y-97681080D01*
X119177080Y-112761080D02*
X119177080Y-109921080D01*
D14*
X44306520Y-96540780D02*
X43707080Y-96441720D01*
X44707840Y-96639840D02*
X44306520Y-96540780D01*
X45208220Y-96942100D02*
X44707840Y-96639840D01*
X45706060Y-97439940D02*
X45208220Y-96942100D01*
X46008320Y-97940320D02*
X45706060Y-97439940D01*
X46206440Y-98542300D02*
X46008320Y-97940320D01*
X46206440Y-99141740D02*
X46206440Y-98542300D01*
X46107380Y-99741180D02*
X46206440Y-99141740D01*
X45706060Y-100442220D02*
X46107380Y-99741180D01*
X45208220Y-100940060D02*
X45706060Y-100442220D01*
X44606240Y-101242320D02*
X45208220Y-100940060D01*
X44006800Y-101440440D02*
X44606240Y-101242320D01*
X43206700Y-101440440D02*
X44006800Y-101440440D01*
X42508200Y-101140720D02*
X43206700Y-101440440D01*
X42007820Y-100741940D02*
X42508200Y-101140720D01*
X41405840Y-100040900D02*
X42007820Y-100741940D01*
X41207720Y-99240800D02*
X41405840Y-100040900D01*
X41207720Y-98641360D02*
X41207720Y-99240800D01*
X41306780Y-98140980D02*
X41207720Y-98641360D01*
X41507440Y-97742200D02*
X41306780Y-98140980D01*
X42007820Y-97140220D02*
X41507440Y-97742200D01*
X42508200Y-96741440D02*
X42007820Y-97140220D01*
X43006040Y-96540780D02*
X42508200Y-96741440D01*
X43608020Y-96441720D02*
X43006040Y-96540780D01*
X43707080Y-96441720D02*
X43608020Y-96441720D01*
X43457080Y-97791080D02*
X43707080Y-97741080D01*
X43207080Y-97991080D02*
X43457080Y-97791080D01*
X43057080Y-98491080D02*
X43207080Y-97991080D01*
X42957080Y-98991080D02*
X43057080Y-98491080D01*
X43057080Y-99541080D02*
X42957080Y-98991080D01*
X43207080Y-99941080D02*
X43057080Y-99541080D01*
X43457080Y-100191080D02*
X43207080Y-99941080D01*
X43757080Y-100241080D02*
X43457080Y-100191080D01*
X44057080Y-100041080D02*
X43757080Y-100241080D01*
X44207080Y-99791080D02*
X44057080Y-100041080D01*
X44407080Y-99341080D02*
X44207080Y-99791080D01*
X44407080Y-98991080D02*
X44407080Y-99341080D01*
X44407080Y-98541080D02*
X44407080Y-98991080D01*
X44257080Y-98141080D02*
X44407080Y-98541080D01*
X44007080Y-97841080D02*
X44257080Y-98141080D01*
X43707080Y-97741080D02*
X44007080Y-97841080D01*
X38456520Y-96490780D02*
X37857080Y-96391720D01*
X38857840Y-96589840D02*
X38456520Y-96490780D01*
X39358220Y-96892100D02*
X38857840Y-96589840D01*
X39856060Y-97389940D02*
X39358220Y-96892100D01*
X40158320Y-97890320D02*
X39856060Y-97389940D01*
X40356440Y-98492300D02*
X40158320Y-97890320D01*
X40356440Y-99091740D02*
X40356440Y-98492300D01*
X40257380Y-99691180D02*
X40356440Y-99091740D01*
X39856060Y-100392220D02*
X40257380Y-99691180D01*
X39358220Y-100890060D02*
X39856060Y-100392220D01*
X38756240Y-101192320D02*
X39358220Y-100890060D01*
X38156800Y-101390440D02*
X38756240Y-101192320D01*
X37356700Y-101390440D02*
X38156800Y-101390440D01*
X36658200Y-101090720D02*
X37356700Y-101390440D01*
X36157820Y-100691940D02*
X36658200Y-101090720D01*
X35555840Y-99990900D02*
X36157820Y-100691940D01*
X35357720Y-99190800D02*
X35555840Y-99990900D01*
X35357720Y-98591360D02*
X35357720Y-99190800D01*
X35456780Y-98090980D02*
X35357720Y-98591360D01*
X35657440Y-97692200D02*
X35456780Y-98090980D01*
X36157820Y-97090220D02*
X35657440Y-97692200D01*
X36658200Y-96691440D02*
X36157820Y-97090220D01*
X37156040Y-96490780D02*
X36658200Y-96691440D01*
X37758020Y-96391720D02*
X37156040Y-96490780D01*
X37857080Y-96391720D02*
X37758020Y-96391720D01*
X37257640Y-99891840D02*
X37458300Y-99691180D01*
X36856320Y-99891840D02*
X37257640Y-99891840D01*
X36556600Y-99790240D02*
X36856320Y-99891840D01*
X36355940Y-99490520D02*
X36556600Y-99790240D01*
X36256880Y-98990140D02*
X36355940Y-99490520D01*
X36256880Y-98591360D02*
X36256880Y-98990140D01*
X36355940Y-98190040D02*
X36256880Y-98591360D01*
X36658200Y-97991920D02*
X36355940Y-98190040D01*
X37056980Y-97890320D02*
X36658200Y-97991920D01*
X37356700Y-97991920D02*
X37056980Y-97890320D01*
X37458300Y-98090980D02*
X37356700Y-97991920D01*
X39358220Y-99891840D02*
X39457280Y-99691180D01*
X39055960Y-99891840D02*
X39358220Y-99891840D01*
X38857840Y-99891840D02*
X39055960Y-99891840D01*
X38456520Y-99691180D02*
X38857840Y-99891840D01*
X38255860Y-99289860D02*
X38456520Y-99691180D01*
X38255860Y-98891080D02*
X38255860Y-99289860D01*
X38357460Y-98390700D02*
X38255860Y-98891080D01*
X38558120Y-97991920D02*
X38357460Y-98390700D01*
X38857840Y-97890320D02*
X38558120Y-97991920D01*
X39157560Y-97890320D02*
X38857840Y-97890320D01*
X39358220Y-97991920D02*
X39157560Y-97890320D01*
X39457280Y-98090980D02*
X39358220Y-97991920D01*
X49057080Y-98391080D02*
X49407080Y-98291080D01*
X48707080Y-98291080D02*
X49057080Y-98391080D01*
X48507080Y-97991080D02*
X48707080Y-98291080D01*
X48407080Y-97691080D02*
X48507080Y-97991080D01*
X48507080Y-97241080D02*
X48407080Y-97691080D01*
X48757080Y-96941080D02*
X48507080Y-97241080D01*
X49107080Y-96891080D02*
X48757080Y-96941080D01*
X49407080Y-97041080D02*
X49107080Y-96891080D01*
X50657080Y-98391080D02*
X50907080Y-98241080D01*
X50357080Y-98341080D02*
X50657080Y-98391080D01*
X50057080Y-98041080D02*
X50357080Y-98341080D01*
X49957080Y-97641080D02*
X50057080Y-98041080D01*
X50007080Y-97241080D02*
X49957080Y-97641080D01*
X50357080Y-96891080D02*
X50007080Y-97241080D01*
X50757080Y-96941080D02*
X50357080Y-96891080D01*
X51007080Y-97041080D02*
X50757080Y-96941080D01*
X51507080Y-97841080D02*
X52757080Y-97841080D01*
X54007080Y-97641080D02*
X53507080Y-97641080D01*
X54257080Y-97541080D02*
X54007080Y-97641080D01*
X54307080Y-97291080D02*
X54257080Y-97541080D01*
X54307080Y-97091080D02*
X54307080Y-97291080D01*
X54107080Y-96891080D02*
X54307080Y-97091080D01*
X53507080Y-96891080D02*
X54107080Y-96891080D01*
X53507080Y-98391080D02*
X53507080Y-96891080D01*
X55257080Y-96891080D02*
X55107080Y-96891080D01*
X55607080Y-96991080D02*
X55257080Y-96891080D01*
X55757080Y-97241080D02*
X55607080Y-96991080D01*
X55857080Y-97641080D02*
X55757080Y-97241080D01*
X55807080Y-97991080D02*
X55857080Y-97641080D01*
X55607080Y-98291080D02*
X55807080Y-97991080D01*
X55307080Y-98391080D02*
X55607080Y-98291080D01*
X55007080Y-98391080D02*
X55307080Y-98391080D01*
X55007080Y-96891080D02*
X55007080Y-98391080D01*
X57407080Y-98791080D02*
X58757080Y-96791080D01*
X61007080Y-97691080D02*
X60557080Y-97691080D01*
X61207080Y-97541080D02*
X61007080Y-97691080D01*
X61307080Y-97291080D02*
X61207080Y-97541080D01*
X61207080Y-96991080D02*
X61307080Y-97291080D01*
X60957080Y-96891080D02*
X61207080Y-96991080D01*
X60457080Y-96891080D02*
X60957080Y-96891080D01*
X60457080Y-98391080D02*
X60457080Y-96891080D01*
X62257080Y-98391080D02*
X62607080Y-98291080D01*
X62057080Y-98341080D02*
X62257080Y-98391080D01*
X61907080Y-98191080D02*
X62057080Y-98341080D01*
X61907080Y-97841080D02*
X61907080Y-98191080D01*
X61907080Y-97441080D02*
X61907080Y-97841080D01*
X62607080Y-97391080D02*
X62607080Y-98391080D01*
X63707080Y-97391080D02*
X63407080Y-97391080D01*
X63957080Y-97491080D02*
X63707080Y-97391080D01*
X64057080Y-97841080D02*
X63957080Y-97491080D01*
X63957080Y-98241080D02*
X64057080Y-97841080D01*
X63707080Y-98391080D02*
X63957080Y-98241080D01*
X63307080Y-98391080D02*
X63707080Y-98391080D01*
X63357080Y-96891080D02*
X63307080Y-98391080D01*
X64707080Y-98241080D02*
X64907080Y-98391080D01*
X64707080Y-96941080D02*
X64707080Y-98241080D01*
X65507080Y-97041080D02*
X65457080Y-97041080D01*
X65507080Y-96941080D02*
X65507080Y-97041080D01*
X65507080Y-97391080D02*
X65507080Y-98341080D01*
X66607080Y-98391080D02*
X66857080Y-98341080D01*
X66307080Y-98341080D02*
X66607080Y-98391080D01*
X66157080Y-98091080D02*
X66307080Y-98341080D01*
X66157080Y-97741080D02*
X66157080Y-98091080D01*
X66307080Y-97441080D02*
X66157080Y-97741080D01*
X66657080Y-97391080D02*
X66307080Y-97441080D01*
X66907080Y-97491080D02*
X66657080Y-97391080D01*
X69207080Y-96941080D02*
X68707080Y-96891080D01*
X69457080Y-97191080D02*
X69207080Y-96941080D01*
X69557080Y-97691080D02*
X69457080Y-97191080D01*
X69457080Y-98141080D02*
X69557080Y-97691080D01*
X69107080Y-98391080D02*
X69457080Y-98141080D01*
X68707080Y-98391080D02*
X69107080Y-98391080D01*
X68707080Y-96891080D02*
X68707080Y-98391080D01*
X70857080Y-97591080D02*
X70657080Y-97441080D01*
X70907080Y-97741080D02*
X70857080Y-97591080D01*
X70907080Y-98091080D02*
X70907080Y-97741080D01*
X70707080Y-98341080D02*
X70907080Y-98091080D01*
X70407080Y-98391080D02*
X70707080Y-98341080D01*
X70157080Y-98141080D02*
X70407080Y-98391080D01*
X70157080Y-97791080D02*
X70157080Y-98141080D01*
X70307080Y-97491080D02*
X70157080Y-97791080D01*
X70557080Y-97391080D02*
X70307080Y-97491080D01*
X71607080Y-98441080D02*
X71607080Y-97391080D01*
X71957080Y-97441080D02*
X71707080Y-97491080D01*
X72157080Y-97491080D02*
X71957080Y-97441080D01*
X72257080Y-97591080D02*
X72157080Y-97491080D01*
X72257080Y-98441080D02*
X72257080Y-97591080D01*
X72507080Y-97441080D02*
X72307080Y-97541080D01*
X72757080Y-97441080D02*
X72507080Y-97441080D01*
X72857080Y-97541080D02*
X72757080Y-97441080D01*
X72907080Y-97741080D02*
X72857080Y-97541080D01*
X72907080Y-98491080D02*
X72907080Y-97741080D01*
X74257080Y-97591080D02*
X74307080Y-98441080D01*
X74107080Y-97391080D02*
X74257080Y-97591080D01*
X73757080Y-97391080D02*
X74107080Y-97391080D01*
X73607080Y-97491080D02*
X73757080Y-97391080D01*
X73807080Y-98391080D02*
X74207080Y-98341080D01*
X73607080Y-98291080D02*
X73807080Y-98391080D01*
X73607080Y-98041080D02*
X73607080Y-98291080D01*
X73757080Y-97891080D02*
X73607080Y-98041080D01*
X74057080Y-97891080D02*
X73757080Y-97891080D01*
X75007080Y-96891080D02*
X75007080Y-96991080D01*
X75007080Y-97441080D02*
X75007080Y-98391080D01*
X75757080Y-97441080D02*
X75757080Y-98341080D01*
X76157080Y-97441080D02*
X75807080Y-97491080D01*
X76307080Y-97491080D02*
X76157080Y-97441080D01*
X76407080Y-97691080D02*
X76307080Y-97491080D01*
X76457080Y-98391080D02*
X76407080Y-97691080D01*
X47757080Y-99491080D02*
X47757080Y-100991080D01*
X48307080Y-100041080D02*
X47907080Y-100041080D01*
X48407080Y-100241080D02*
X48307080Y-100041080D01*
X48457080Y-101091080D02*
X48407080Y-100241080D01*
X49307080Y-101041080D02*
X49507080Y-101041080D01*
X49157080Y-100891080D02*
X49307080Y-101041080D01*
X49157080Y-99491080D02*
X49157080Y-100891080D01*
X48807080Y-99991080D02*
X49407080Y-99991080D01*
X50307080Y-100991080D02*
X50407080Y-100991080D01*
X50057080Y-100891080D02*
X50307080Y-100991080D01*
X50057080Y-99491080D02*
X50057080Y-100891080D01*
X50407080Y-99991080D02*
X49907080Y-99991080D01*
X50907080Y-101541080D02*
X50907080Y-99991080D01*
X51357080Y-99991080D02*
X51007080Y-100091080D01*
X51607080Y-100141080D02*
X51357080Y-99991080D01*
X51657080Y-100491080D02*
X51607080Y-100141080D01*
X51557080Y-100791080D02*
X51657080Y-100491080D01*
X51307080Y-100991080D02*
X51557080Y-100791080D01*
X50957080Y-100991080D02*
X51307080Y-100991080D01*
X52257080Y-100041080D02*
X52257080Y-100141080D01*
X52307080Y-100841080D02*
X52257080Y-100991080D01*
X52757080Y-101391080D02*
X54057080Y-99441080D01*
X54357080Y-101391080D02*
X55657080Y-99391080D01*
X56507080Y-100991080D02*
X56807080Y-100891080D01*
X56207080Y-100841080D02*
X56507080Y-100991080D01*
X56107080Y-100441080D02*
X56207080Y-100841080D01*
X56307080Y-100041080D02*
X56107080Y-100441080D01*
X56607080Y-99991080D02*
X56307080Y-100041080D01*
X56857080Y-100091080D02*
X56607080Y-99991080D01*
X57457080Y-100991080D02*
X57457080Y-99941080D01*
X57757080Y-100041080D02*
X57557080Y-100191080D01*
X58007080Y-99991080D02*
X57757080Y-100041080D01*
X59107080Y-100291080D02*
X58457080Y-100541080D01*
X59107080Y-100191080D02*
X59107080Y-100291080D01*
X58907080Y-99991080D02*
X59107080Y-100191080D01*
X58657080Y-99991080D02*
X58907080Y-99991080D01*
X58457080Y-100091080D02*
X58657080Y-99991080D01*
X58357080Y-100341080D02*
X58457080Y-100091080D01*
X58407080Y-100691080D02*
X58357080Y-100341080D01*
X58507080Y-100991080D02*
X58407080Y-100691080D01*
X58757080Y-100991080D02*
X58507080Y-100991080D01*
X59057080Y-100941080D02*
X58757080Y-100991080D01*
X59807080Y-100491080D02*
X60307080Y-100441080D01*
X59707080Y-100641080D02*
X59807080Y-100491080D01*
X59757080Y-100891080D02*
X59707080Y-100641080D01*
X59907080Y-100991080D02*
X59757080Y-100891080D01*
X60407080Y-100991080D02*
X59907080Y-100991080D01*
X60407080Y-101041080D02*
X60407080Y-100991080D01*
X60407080Y-100191080D02*
X60407080Y-101041080D01*
X60257080Y-99991080D02*
X60407080Y-100191080D01*
X59857080Y-99991080D02*
X60257080Y-99991080D01*
X59707080Y-100041080D02*
X59857080Y-99991080D01*
X61307080Y-100941080D02*
X61457080Y-100991080D01*
X61157080Y-100791080D02*
X61307080Y-100941080D01*
X61157080Y-99541080D02*
X61157080Y-100791080D01*
X60857080Y-99991080D02*
X61507080Y-99991080D01*
X62007080Y-99441080D02*
X62007080Y-99591080D01*
X62007080Y-99991080D02*
X62007080Y-100991080D01*
X62957080Y-100991080D02*
X63307080Y-99991080D01*
X62557080Y-99941080D02*
X62957080Y-100991080D01*
X64657080Y-100291080D02*
X63907080Y-100541080D01*
X64607080Y-100191080D02*
X64657080Y-100291080D01*
X64407080Y-99991080D02*
X64607080Y-100191080D01*
X64057080Y-99991080D02*
X64407080Y-99991080D01*
X63807080Y-100091080D02*
X64057080Y-99991080D01*
X63807080Y-100441080D02*
X63807080Y-100091080D01*
X63857080Y-100791080D02*
X63807080Y-100441080D01*
X64057080Y-100991080D02*
X63857080Y-100791080D01*
X64307080Y-100991080D02*
X64057080Y-100991080D01*
X64557080Y-100941080D02*
X64307080Y-100991080D01*
X65607080Y-100991080D02*
X65807080Y-100891080D01*
X65307080Y-100941080D02*
X65607080Y-100991080D01*
X65157080Y-100841080D02*
X65307080Y-100941080D01*
X65107080Y-100591080D02*
X65157080Y-100841080D01*
X65207080Y-100191080D02*
X65107080Y-100591080D01*
X65407080Y-99991080D02*
X65207080Y-100191080D01*
X65657080Y-99991080D02*
X65407080Y-99991080D01*
X65907080Y-100091080D02*
X65657080Y-99991080D01*
X67207080Y-100191080D02*
X67007080Y-100041080D01*
X67257080Y-100491080D02*
X67207080Y-100191080D01*
X67157080Y-100791080D02*
X67257080Y-100491080D01*
X66957080Y-100941080D02*
X67157080Y-100791080D01*
X66707080Y-100991080D02*
X66957080Y-100941080D01*
X66457080Y-100891080D02*
X66707080Y-100991080D01*
X66357080Y-100391080D02*
X66457080Y-100891080D01*
X66657080Y-100041080D02*
X66357080Y-100391080D01*
X66857080Y-100041080D02*
X66657080Y-100041080D01*
X67907080Y-101041080D02*
X67907080Y-99991080D01*
X68357080Y-100041080D02*
X67957080Y-100091080D01*
X68507080Y-100191080D02*
X68357080Y-100041080D01*
X68507080Y-101041080D02*
X68507080Y-100191080D01*
X68857080Y-99991080D02*
X68557080Y-100091080D01*
X69057080Y-100041080D02*
X68857080Y-99991080D01*
X69207080Y-100191080D02*
X69057080Y-100041080D01*
X69207080Y-101091080D02*
X69207080Y-100191080D01*
X69907080Y-101041080D02*
X69907080Y-100041080D01*
X70157080Y-100041080D02*
X70007080Y-100091080D01*
X70407080Y-99991080D02*
X70157080Y-100041080D01*
X70607080Y-100141080D02*
X70407080Y-99991080D01*
X70607080Y-101091080D02*
X70607080Y-100141080D01*
X70807080Y-100041080D02*
X70657080Y-100141080D01*
X71057080Y-99991080D02*
X70807080Y-100041080D01*
X71207080Y-100141080D02*
X71057080Y-99991080D01*
X71257080Y-101041080D02*
X71207080Y-100141080D01*
X72707080Y-100441080D02*
X72657080Y-100191080D01*
X72657080Y-100641080D02*
X72707080Y-100441080D01*
X72557080Y-100891080D02*
X72657080Y-100641080D01*
X72307080Y-100991080D02*
X72557080Y-100891080D01*
X72057080Y-100941080D02*
X72307080Y-100991080D01*
X71907080Y-100741080D02*
X72057080Y-100941080D01*
X71857080Y-100541080D02*
X71907080Y-100741080D01*
X71907080Y-100241080D02*
X71857080Y-100541080D01*
X72007080Y-100041080D02*
X71907080Y-100241080D01*
X72207080Y-99991080D02*
X72007080Y-100041080D01*
X72457080Y-99991080D02*
X72207080Y-99991080D01*
X72607080Y-100091080D02*
X72457080Y-99991080D01*
X73307080Y-101041080D02*
X73307080Y-99991080D01*
X73657080Y-100041080D02*
X73357080Y-100141080D01*
X73857080Y-100041080D02*
X73657080Y-100041080D01*
X74007080Y-100241080D02*
X73857080Y-100041080D01*
X73957080Y-101091080D02*
X74007080Y-100241080D01*
X74757080Y-101041080D02*
X74657080Y-100941080D01*
X75007080Y-100991080D02*
X74757080Y-101041080D01*
X75257080Y-100841080D02*
X75007080Y-100991080D01*
X75207080Y-100591080D02*
X75257080Y-100841080D01*
X74957080Y-100491080D02*
X75207080Y-100591080D01*
X74657080Y-100341080D02*
X74957080Y-100491080D01*
X74657080Y-100091080D02*
X74657080Y-100341080D01*
X74907080Y-99941080D02*
X74657080Y-100091080D01*
X75207080Y-100041080D02*
X74907080Y-99941080D01*
X75907080Y-100841080D02*
X75907080Y-100991080D01*
X77407080Y-100291080D02*
X77207080Y-100041080D01*
X77407080Y-100541080D02*
X77407080Y-100291080D01*
X77307080Y-100891080D02*
X77407080Y-100541080D01*
X77007080Y-101041080D02*
X77307080Y-100891080D01*
X76707080Y-100841080D02*
X77007080Y-101041080D01*
X76607080Y-100541080D02*
X76707080Y-100841080D01*
X76607080Y-100191080D02*
X76607080Y-100541080D01*
X76857080Y-99991080D02*
X76607080Y-100191080D01*
X77157080Y-99991080D02*
X76857080Y-99991080D01*
X78007080Y-99991080D02*
X78007080Y-101041080D01*
X78357080Y-99991080D02*
X78107080Y-100141080D01*
X78507080Y-99991080D02*
X78357080Y-99991080D01*
X79957080Y-101091080D02*
X79957080Y-99941080D01*
X79807080Y-101391080D02*
X79957080Y-101091080D01*
X79507080Y-101491080D02*
X79807080Y-101391080D01*
X79257080Y-101391080D02*
X79507080Y-101491080D01*
X79607080Y-100941080D02*
X79857080Y-100941080D01*
X79407080Y-100841080D02*
X79607080Y-100941080D01*
X79207080Y-100541080D02*
X79407080Y-100841080D01*
X79257080Y-100141080D02*
X79207080Y-100541080D01*
X79507080Y-99991080D02*
X79257080Y-100141080D01*
X79857080Y-100041080D02*
X79507080Y-99991080D01*
X80457080Y-101341080D02*
X81757080Y-99291080D01*
X44257080Y-98141080D02*
X43207080Y-99691080D01*
D13*
X237977080Y-69331080D02*
X240817080Y-69331080D01*
X240817080Y-69331080D02*
X240817080Y-65291080D01*
X240817080Y-65291080D02*
X237977080Y-65291080D01*
X237977080Y-65291080D02*
X237977080Y-69331080D01*
X239397080Y-70021080D02*
X239397080Y-69331080D01*
X239397080Y-64601080D02*
X239397080Y-65291080D01*
X237977080Y-79641080D02*
X240817080Y-79641080D01*
X240817080Y-79641080D02*
X240817080Y-75601080D01*
X240817080Y-75601080D02*
X237977080Y-75601080D01*
X237977080Y-75601080D02*
X237977080Y-79641080D01*
X239397080Y-80331080D02*
X239397080Y-79641080D01*
X239397080Y-74911080D02*
X239397080Y-75601080D01*
X239397080Y-54291080D02*
X239397080Y-54981080D01*
X239397080Y-59711080D02*
X239397080Y-59021080D01*
X237977080Y-54981080D02*
X237977080Y-59021080D01*
X240817080Y-54981080D02*
X237977080Y-54981080D01*
X240817080Y-59021080D02*
X240817080Y-54981080D01*
X237977080Y-59021080D02*
X240817080Y-59021080D01*
X239397080Y-85221080D02*
X239397080Y-85911080D01*
X239397080Y-90641080D02*
X239397080Y-89951080D01*
X237977080Y-85911080D02*
X237977080Y-89951080D01*
X240817080Y-85911080D02*
X237977080Y-85911080D01*
X240817080Y-89951080D02*
X240817080Y-85911080D01*
X237977080Y-89951080D02*
X240817080Y-89951080D01*
X237977080Y-100261080D02*
X240817080Y-100261080D01*
X240817080Y-100261080D02*
X240817080Y-96221080D01*
X240817080Y-96221080D02*
X237977080Y-96221080D01*
X237977080Y-96221080D02*
X237977080Y-100261080D01*
X239397080Y-100951080D02*
X239397080Y-100261080D01*
X239397080Y-95531080D02*
X239397080Y-96221080D01*
X239397080Y-105841080D02*
X239397080Y-106531080D01*
X239397080Y-111261080D02*
X239397080Y-110571080D01*
X237977080Y-106531080D02*
X237977080Y-110571080D01*
X240817080Y-106531080D02*
X237977080Y-106531080D01*
X240817080Y-110571080D02*
X240817080Y-106531080D01*
X237977080Y-110571080D02*
X240817080Y-110571080D01*
X209227080Y-59021080D02*
X212067080Y-59021080D01*
X212067080Y-59021080D02*
X212067080Y-54981080D01*
X212067080Y-54981080D02*
X209227080Y-54981080D01*
X209227080Y-54981080D02*
X209227080Y-59021080D01*
X210647080Y-59711080D02*
X210647080Y-59021080D01*
X210647080Y-54291080D02*
X210647080Y-54981080D01*
X210647080Y-65091080D02*
X210647080Y-65781080D01*
X210647080Y-70511080D02*
X210647080Y-69821080D01*
X209227080Y-65781080D02*
X209227080Y-69821080D01*
X212067080Y-65781080D02*
X209227080Y-65781080D01*
X212067080Y-69821080D02*
X212067080Y-65781080D01*
X209227080Y-69821080D02*
X212067080Y-69821080D01*
X210647080Y-75591080D02*
X210647080Y-76281080D01*
X210647080Y-81011080D02*
X210647080Y-80321080D01*
X209227080Y-76281080D02*
X209227080Y-80321080D01*
X212067080Y-76281080D02*
X209227080Y-76281080D01*
X212067080Y-80321080D02*
X212067080Y-76281080D01*
X209227080Y-80321080D02*
X212067080Y-80321080D01*
X29767080Y-54341080D02*
X29767080Y-55991080D01*
X47667080Y-54341080D02*
X29767080Y-54341080D01*
X47667080Y-59641080D02*
X47667080Y-54341080D01*
X29767080Y-59641080D02*
X47667080Y-59641080D01*
X29767080Y-57991080D02*
X29767080Y-59641080D01*
X29767080Y-55991080D02*
G75*
G02*
X29767080Y-57991080I0J-1000000D01*
G01*
X187117080Y-57991080D02*
X187117080Y-59641080D01*
X187117080Y-59641080D02*
X207557080Y-59641080D01*
X207557080Y-59641080D02*
X207557080Y-54341080D01*
X207557080Y-54341080D02*
X187117080Y-54341080D01*
X187117080Y-54341080D02*
X187117080Y-55991080D01*
X187117080Y-55991080D02*
G75*
G02*
X187117080Y-57991080I0J-1000000D01*
G01*
X99067080Y-75641080D02*
X99067080Y-77291080D01*
X119507080Y-75641080D02*
X99067080Y-75641080D01*
X119507080Y-80941080D02*
X119507080Y-75641080D01*
X99067080Y-80941080D02*
X119507080Y-80941080D01*
X99067080Y-79291080D02*
X99067080Y-80941080D01*
X99067080Y-77291080D02*
G75*
G02*
X99067080Y-79291080I0J-1000000D01*
G01*
X53017080Y-68616080D02*
X53017080Y-70266080D01*
X53017080Y-70266080D02*
X70917080Y-70266080D01*
X70917080Y-70266080D02*
X70917080Y-64966080D01*
X70917080Y-64966080D02*
X53017080Y-64966080D01*
X53017080Y-64966080D02*
X53017080Y-66616080D01*
X53017080Y-66616080D02*
G75*
G02*
X53017080Y-68616080I0J-1000000D01*
G01*
X75767080Y-79291080D02*
X75767080Y-80941080D01*
X75767080Y-80941080D02*
X93667080Y-80941080D01*
X93667080Y-80941080D02*
X93667080Y-75641080D01*
X93667080Y-75641080D02*
X75767080Y-75641080D01*
X75767080Y-75641080D02*
X75767080Y-77291080D01*
X75767080Y-77291080D02*
G75*
G02*
X75767080Y-79291080I0J-1000000D01*
G01*
X155817080Y-64966080D02*
X155817080Y-66616080D01*
X181337080Y-64966080D02*
X155817080Y-64966080D01*
X181337080Y-70266080D02*
X181337080Y-64966080D01*
X155817080Y-70266080D02*
X181337080Y-70266080D01*
X155817080Y-68616080D02*
X155817080Y-70266080D01*
X155817080Y-66616080D02*
G75*
G02*
X155817080Y-68616080I0J-1000000D01*
G01*
X187117080Y-64991080D02*
X187117080Y-66641080D01*
X207557080Y-64991080D02*
X187117080Y-64991080D01*
X207557080Y-70291080D02*
X207557080Y-64991080D01*
X187117080Y-70291080D02*
X207557080Y-70291080D01*
X187117080Y-68641080D02*
X187117080Y-70291080D01*
X187117080Y-66641080D02*
G75*
G02*
X187117080Y-68641080I0J-1000000D01*
G01*
X242067080Y-57991080D02*
X242067080Y-59641080D01*
X242067080Y-59641080D02*
X265047080Y-59641080D01*
X265047080Y-59641080D02*
X265047080Y-54341080D01*
X265047080Y-54341080D02*
X242067080Y-54341080D01*
X242067080Y-54341080D02*
X242067080Y-55991080D01*
X242067080Y-55991080D02*
G75*
G02*
X242067080Y-57991080I0J-1000000D01*
G01*
X242067080Y-64641080D02*
X242067080Y-66291080D01*
X265047080Y-64641080D02*
X242067080Y-64641080D01*
X265047080Y-69941080D02*
X265047080Y-64641080D01*
X242067080Y-69941080D02*
X265047080Y-69941080D01*
X242067080Y-68291080D02*
X242067080Y-69941080D01*
X242067080Y-66291080D02*
G75*
G02*
X242067080Y-68291080I0J-1000000D01*
G01*
X242067080Y-78591080D02*
X242067080Y-80241080D01*
X242067080Y-80241080D02*
X265047080Y-80241080D01*
X265047080Y-80241080D02*
X265047080Y-74941080D01*
X265047080Y-74941080D02*
X242067080Y-74941080D01*
X242067080Y-74941080D02*
X242067080Y-76591080D01*
X242067080Y-76591080D02*
G75*
G02*
X242067080Y-78591080I0J-1000000D01*
G01*
X242067080Y-85241080D02*
X242067080Y-86891080D01*
X265047080Y-85241080D02*
X242067080Y-85241080D01*
X265047080Y-90541080D02*
X265047080Y-85241080D01*
X242067080Y-90541080D02*
X265047080Y-90541080D01*
X242067080Y-88891080D02*
X242067080Y-90541080D01*
X242067080Y-86891080D02*
G75*
G02*
X242067080Y-88891080I0J-1000000D01*
G01*
X242067080Y-99191080D02*
X242067080Y-100841080D01*
X242067080Y-100841080D02*
X265047080Y-100841080D01*
X265047080Y-100841080D02*
X265047080Y-95541080D01*
X265047080Y-95541080D02*
X242067080Y-95541080D01*
X242067080Y-95541080D02*
X242067080Y-97191080D01*
X242067080Y-97191080D02*
G75*
G02*
X242067080Y-99191080I0J-1000000D01*
G01*
X242067080Y-109491080D02*
X242067080Y-111141080D01*
X242067080Y-111141080D02*
X265047080Y-111141080D01*
X265047080Y-111141080D02*
X265047080Y-105841080D01*
X265047080Y-105841080D02*
X242067080Y-105841080D01*
X242067080Y-105841080D02*
X242067080Y-107491080D01*
X242067080Y-107491080D02*
G75*
G02*
X242067080Y-109491080I0J-1000000D01*
G01*
X213317080Y-54341080D02*
X213317080Y-55991080D01*
X236297080Y-54341080D02*
X213317080Y-54341080D01*
X236297080Y-59641080D02*
X236297080Y-54341080D01*
X213317080Y-59641080D02*
X236297080Y-59641080D01*
X213317080Y-57991080D02*
X213317080Y-59641080D01*
X213317080Y-55991080D02*
G75*
G02*
X213317080Y-57991080I0J-1000000D01*
G01*
X213317080Y-64841080D02*
X213317080Y-66491080D01*
X236297080Y-64841080D02*
X213317080Y-64841080D01*
X236297080Y-70141080D02*
X236297080Y-64841080D01*
X213317080Y-70141080D02*
X236297080Y-70141080D01*
X213317080Y-68491080D02*
X213317080Y-70141080D01*
X213317080Y-66491080D02*
G75*
G02*
X213317080Y-68491080I0J-1000000D01*
G01*
X213317080Y-78991080D02*
X213317080Y-80641080D01*
X213317080Y-80641080D02*
X236297080Y-80641080D01*
X236297080Y-80641080D02*
X236297080Y-75341080D01*
X236297080Y-75341080D02*
X213317080Y-75341080D01*
X213317080Y-75341080D02*
X213317080Y-76991080D01*
X213317080Y-76991080D02*
G75*
G02*
X213317080Y-78991080I0J-1000000D01*
G01*
X92507080Y-91491080D02*
X95167080Y-91491080D01*
X92507080Y-88891080D02*
X92507080Y-91491080D01*
X95167080Y-88891080D02*
X95167080Y-91491080D01*
X92507080Y-88891080D02*
X95167080Y-88891080D01*
X92507080Y-87621080D02*
X92507080Y-86291080D01*
X92507080Y-86291080D02*
X93837080Y-86291080D01*
X130433330Y-73741080D02*
X133173330Y-73741080D01*
X133173330Y-73741080D02*
X133173330Y-67201080D01*
X133173330Y-67201080D02*
X130433330Y-67201080D01*
X130433330Y-67201080D02*
X130433330Y-73741080D01*
X131803330Y-74511080D02*
X131803330Y-73741080D01*
X131803330Y-66431080D02*
X131803330Y-67201080D01*
X134709580Y-66431080D02*
X134709580Y-67201080D01*
X134709580Y-74511080D02*
X134709580Y-73741080D01*
X133339580Y-67201080D02*
X133339580Y-73741080D01*
X136079580Y-67201080D02*
X133339580Y-67201080D01*
X136079580Y-73741080D02*
X136079580Y-67201080D01*
X133339580Y-73741080D02*
X136079580Y-73741080D01*
X137615830Y-52961080D02*
X137615830Y-53731080D01*
X137615830Y-61041080D02*
X137615830Y-60271080D01*
X136245830Y-53731080D02*
X136245830Y-60271080D01*
X138985830Y-53731080D02*
X136245830Y-53731080D01*
X138985830Y-60271080D02*
X138985830Y-53731080D01*
X136245830Y-60271080D02*
X138985830Y-60271080D01*
X139152080Y-60271080D02*
X141892080Y-60271080D01*
X141892080Y-60271080D02*
X141892080Y-53731080D01*
X141892080Y-53731080D02*
X139152080Y-53731080D01*
X139152080Y-53731080D02*
X139152080Y-60271080D01*
X140522080Y-61041080D02*
X140522080Y-60271080D01*
X140522080Y-52961080D02*
X140522080Y-53731080D01*
X143428330Y-52961080D02*
X143428330Y-53731080D01*
X143428330Y-61041080D02*
X143428330Y-60271080D01*
X142058330Y-53731080D02*
X142058330Y-60271080D01*
X144798330Y-53731080D02*
X142058330Y-53731080D01*
X144798330Y-60271080D02*
X144798330Y-53731080D01*
X142058330Y-60271080D02*
X144798330Y-60271080D01*
X127207080Y-81676080D02*
X127207080Y-84476080D01*
X127207080Y-84476080D02*
X152947080Y-84476080D01*
X152947080Y-84476080D02*
X152947080Y-81676080D01*
X152947080Y-81676080D02*
X127207080Y-81676080D01*
X129917080Y-81676080D02*
X129917080Y-84476080D01*
X29817080Y-64966080D02*
X29817080Y-66616080D01*
X47717080Y-64966080D02*
X29817080Y-64966080D01*
X47717080Y-70266080D02*
X47717080Y-64966080D01*
X29817080Y-70266080D02*
X47717080Y-70266080D01*
X29817080Y-68616080D02*
X29817080Y-70266080D01*
X29817080Y-66616080D02*
G75*
G02*
X29817080Y-68616080I0J-1000000D01*
G01*
X113827080Y-104837080D02*
X113827080Y-106777080D01*
X113827080Y-112757080D02*
X113827080Y-110817080D01*
X112407080Y-106777080D02*
X112407080Y-110817080D01*
X115247080Y-106777080D02*
X112407080Y-106777080D01*
X115247080Y-110817080D02*
X115247080Y-106777080D01*
X112407080Y-110817080D02*
X115247080Y-110817080D01*
X128783080Y-112597080D02*
X128783080Y-110657080D01*
X128783080Y-104677080D02*
X128783080Y-106617080D01*
X130203080Y-110657080D02*
X130203080Y-106617080D01*
X127363080Y-110657080D02*
X130203080Y-110657080D01*
X127363080Y-106617080D02*
X127363080Y-110657080D01*
X130203080Y-106617080D02*
X127363080Y-106617080D01*
X183227080Y-69821080D02*
X186067080Y-69821080D01*
X186067080Y-69821080D02*
X186067080Y-65781080D01*
X186067080Y-65781080D02*
X183227080Y-65781080D01*
X183227080Y-65781080D02*
X183227080Y-69821080D01*
X184647080Y-71761080D02*
X184647080Y-69821080D01*
X184647080Y-63841080D02*
X184647080Y-65781080D01*
X96147080Y-63591080D02*
X96147080Y-65531080D01*
X96147080Y-71511080D02*
X96147080Y-69571080D01*
X94727080Y-65531080D02*
X94727080Y-69571080D01*
X97567080Y-65531080D02*
X94727080Y-65531080D01*
X97567080Y-69571080D02*
X97567080Y-65531080D01*
X94727080Y-69571080D02*
X97567080Y-69571080D01*
X50147080Y-64341080D02*
X50147080Y-66281080D01*
X50147080Y-72261080D02*
X50147080Y-70321080D01*
X48727080Y-66281080D02*
X48727080Y-70321080D01*
X51567080Y-66281080D02*
X48727080Y-66281080D01*
X51567080Y-70321080D02*
X51567080Y-66281080D01*
X48727080Y-70321080D02*
X51567080Y-70321080D01*
X71727080Y-69946080D02*
X74567080Y-69946080D01*
X74567080Y-69946080D02*
X74567080Y-65906080D01*
X74567080Y-65906080D02*
X71727080Y-65906080D01*
X71727080Y-65906080D02*
X71727080Y-69946080D01*
X73147080Y-71886080D02*
X73147080Y-69946080D01*
X73147080Y-63966080D02*
X73147080Y-65906080D01*
X150727080Y-72321080D02*
X153567080Y-72321080D01*
X153567080Y-72321080D02*
X153567080Y-68281080D01*
X153567080Y-68281080D02*
X150727080Y-68281080D01*
X150727080Y-68281080D02*
X150727080Y-72321080D01*
X152147080Y-74261080D02*
X152147080Y-72321080D01*
X152147080Y-66341080D02*
X152147080Y-68281080D01*
X29767080Y-79191080D02*
X29767080Y-80841080D01*
X29767080Y-80841080D02*
X47667080Y-80841080D01*
X47667080Y-80841080D02*
X47667080Y-75541080D01*
X47667080Y-75541080D02*
X29767080Y-75541080D01*
X29767080Y-75541080D02*
X29767080Y-77191080D01*
X29767080Y-77191080D02*
G75*
G02*
X29767080Y-79191080I0J-1000000D01*
G01*
X155817080Y-57991080D02*
X155817080Y-59641080D01*
X155817080Y-59641080D02*
X181337080Y-59641080D01*
X181337080Y-59641080D02*
X181337080Y-54341080D01*
X181337080Y-54341080D02*
X155817080Y-54341080D01*
X155817080Y-54341080D02*
X155817080Y-55991080D01*
X155817080Y-55991080D02*
G75*
G02*
X155817080Y-57991080I0J-1000000D01*
G01*
X155817080Y-75591080D02*
X155817080Y-77241080D01*
X181337080Y-75591080D02*
X155817080Y-75591080D01*
X181337080Y-80891080D02*
X181337080Y-75591080D01*
X155817080Y-80891080D02*
X181337080Y-80891080D01*
X155817080Y-79241080D02*
X155817080Y-80891080D01*
X155817080Y-77241080D02*
G75*
G02*
X155817080Y-79241080I0J-1000000D01*
G01*
X52867080Y-54341080D02*
X52867080Y-55991080D01*
X70767080Y-54341080D02*
X52867080Y-54341080D01*
X70767080Y-59641080D02*
X70767080Y-54341080D01*
X52867080Y-59641080D02*
X70767080Y-59641080D01*
X52867080Y-57991080D02*
X52867080Y-59641080D01*
X52867080Y-55991080D02*
G75*
G02*
X52867080Y-57991080I0J-1000000D01*
G01*
X75667080Y-57941080D02*
X75667080Y-59591080D01*
X75667080Y-59591080D02*
X93567080Y-59591080D01*
X93567080Y-59591080D02*
X93567080Y-54291080D01*
X93567080Y-54291080D02*
X75667080Y-54291080D01*
X75667080Y-54291080D02*
X75667080Y-55941080D01*
X75667080Y-55941080D02*
G75*
G02*
X75667080Y-57941080I0J-1000000D01*
G01*
X75733746Y-64966080D02*
X75733746Y-66616080D01*
X93633746Y-64966080D02*
X75733746Y-64966080D01*
X93633746Y-70266080D02*
X93633746Y-64966080D01*
X75733746Y-70266080D02*
X93633746Y-70266080D01*
X75733746Y-68616080D02*
X75733746Y-70266080D01*
X75733746Y-66616080D02*
G75*
G02*
X75733746Y-68616080I0J-1000000D01*
G01*
X52917080Y-79291080D02*
X52917080Y-80941080D01*
X52917080Y-80941080D02*
X70817080Y-80941080D01*
X70817080Y-80941080D02*
X70817080Y-75641080D01*
X70817080Y-75641080D02*
X52917080Y-75641080D01*
X52917080Y-75641080D02*
X52917080Y-77291080D01*
X52917080Y-77291080D02*
G75*
G02*
X52917080Y-79291080I0J-1000000D01*
G01*
X187017080Y-75441080D02*
X187017080Y-77091080D01*
X204917080Y-75441080D02*
X187017080Y-75441080D01*
X204917080Y-80741080D02*
X204917080Y-75441080D01*
X187017080Y-80741080D02*
X204917080Y-80741080D01*
X187017080Y-79091080D02*
X187017080Y-80741080D01*
X187017080Y-77091080D02*
G75*
G02*
X187017080Y-79091080I0J-1000000D01*
G01*
X122207080Y-106291080D02*
X126447080Y-106291080D01*
X126447080Y-106291080D02*
X126447080Y-96551080D01*
X126447080Y-96551080D02*
X122207080Y-96551080D01*
X122207080Y-96551080D02*
X122207080Y-106291080D01*
X124327080Y-107801080D02*
X124327080Y-106291080D01*
X124327080Y-95041080D02*
X124327080Y-96551080D01*
X128897080Y-66431080D02*
X128897080Y-67201080D01*
X128897080Y-74511080D02*
X128897080Y-73741080D01*
X127527080Y-67201080D02*
X127527080Y-73741080D01*
X130267080Y-67201080D02*
X127527080Y-67201080D01*
X130267080Y-73741080D02*
X130267080Y-67201080D01*
X127527080Y-73741080D02*
X130267080Y-73741080D01*
X137615830Y-66431080D02*
X137615830Y-67201080D01*
X137615830Y-74511080D02*
X137615830Y-73741080D01*
X136245830Y-67201080D02*
X136245830Y-73741080D01*
X138985830Y-67201080D02*
X136245830Y-67201080D01*
X138985830Y-73741080D02*
X138985830Y-67201080D01*
X136245830Y-73741080D02*
X138985830Y-73741080D01*
X139152080Y-73741080D02*
X141892080Y-73741080D01*
X141892080Y-73741080D02*
X141892080Y-67201080D01*
X141892080Y-67201080D02*
X139152080Y-67201080D01*
X139152080Y-67201080D02*
X139152080Y-73741080D01*
X140522080Y-74511080D02*
X140522080Y-73741080D01*
X140522080Y-66431080D02*
X140522080Y-67201080D01*
X142058330Y-73741080D02*
X144798330Y-73741080D01*
X144798330Y-73741080D02*
X144798330Y-67201080D01*
X144798330Y-67201080D02*
X142058330Y-67201080D01*
X142058330Y-67201080D02*
X142058330Y-73741080D01*
X143428330Y-74511080D02*
X143428330Y-73741080D01*
X143428330Y-66431080D02*
X143428330Y-67201080D01*
X146334580Y-66431080D02*
X146334580Y-67201080D01*
X146334580Y-74511080D02*
X146334580Y-73741080D01*
X144964580Y-67201080D02*
X144964580Y-73741080D01*
X147704580Y-67201080D02*
X144964580Y-67201080D01*
X147704580Y-73741080D02*
X147704580Y-67201080D01*
X144964580Y-73741080D02*
X147704580Y-73741080D01*
X149240830Y-66431080D02*
X149240830Y-67201080D01*
X149240830Y-74511080D02*
X149240830Y-73741080D01*
X147870830Y-67201080D02*
X147870830Y-73741080D01*
X150610830Y-67201080D02*
X147870830Y-67201080D01*
X150610830Y-73741080D02*
X150610830Y-67201080D01*
X147870830Y-73741080D02*
X150610830Y-73741080D01*
X128897080Y-52961080D02*
X128897080Y-53731080D01*
X128897080Y-61041080D02*
X128897080Y-60271080D01*
X127527080Y-53731080D02*
X127527080Y-60271080D01*
X130267080Y-53731080D02*
X127527080Y-53731080D01*
X130267080Y-60271080D02*
X130267080Y-53731080D01*
X127527080Y-60271080D02*
X130267080Y-60271080D01*
X130433330Y-60271080D02*
X133173330Y-60271080D01*
X133173330Y-60271080D02*
X133173330Y-53731080D01*
X133173330Y-53731080D02*
X130433330Y-53731080D01*
X130433330Y-53731080D02*
X130433330Y-60271080D01*
X131803330Y-61041080D02*
X131803330Y-60271080D01*
X131803330Y-52961080D02*
X131803330Y-53731080D01*
X133339580Y-60271080D02*
X136079580Y-60271080D01*
X136079580Y-60271080D02*
X136079580Y-53731080D01*
X136079580Y-53731080D02*
X133339580Y-53731080D01*
X133339580Y-53731080D02*
X133339580Y-60271080D01*
X134709580Y-61041080D02*
X134709580Y-60271080D01*
X134709580Y-52961080D02*
X134709580Y-53731080D01*
X144964580Y-60271080D02*
X147704580Y-60271080D01*
X147704580Y-60271080D02*
X147704580Y-53731080D01*
X147704580Y-53731080D02*
X144964580Y-53731080D01*
X144964580Y-53731080D02*
X144964580Y-60271080D01*
X146334580Y-61041080D02*
X146334580Y-60271080D01*
X146334580Y-52961080D02*
X146334580Y-53731080D01*
X147870830Y-60271080D02*
X150610830Y-60271080D01*
X150610830Y-60271080D02*
X150610830Y-53731080D01*
X150610830Y-53731080D02*
X147870830Y-53731080D01*
X147870830Y-53731080D02*
X147870830Y-60271080D01*
X149240830Y-61041080D02*
X149240830Y-60271080D01*
X149240830Y-52961080D02*
X149240830Y-53731080D01*
X152157080Y-61051080D02*
X152157080Y-60281080D01*
X152157080Y-52971080D02*
X152157080Y-53741080D01*
X153527080Y-60281080D02*
X153527080Y-53741080D01*
X150787080Y-60281080D02*
X153527080Y-60281080D01*
X150787080Y-53741080D02*
X150787080Y-60281080D01*
X153527080Y-53741080D02*
X150787080Y-53741080D01*
X129867080Y-77551080D02*
X129867080Y-80351080D01*
X152897080Y-77551080D02*
X127157080Y-77551080D01*
X152897080Y-80351080D02*
X152897080Y-77551080D01*
X127157080Y-80351080D02*
X152897080Y-80351080D01*
X127157080Y-77551080D02*
X127157080Y-80351080D01*
X127257080Y-85801080D02*
X127257080Y-88601080D01*
X127257080Y-88601080D02*
X152997080Y-88601080D01*
X152997080Y-88601080D02*
X152997080Y-85801080D01*
X152997080Y-85801080D02*
X127257080Y-85801080D01*
X129967080Y-85801080D02*
X129967080Y-88601080D01*
X166087080Y-86971080D02*
X166087080Y-92431080D01*
X217007080Y-86971080D02*
X166087080Y-86971080D01*
X217007080Y-99891080D02*
X217007080Y-86971080D01*
X166087080Y-99891080D02*
X217007080Y-99891080D01*
X166087080Y-94431080D02*
X166087080Y-99891080D01*
X166087080Y-92431080D02*
G75*
G02*
X166087080Y-94431080I0J-1000000D01*
G01*
X99067080Y-64966080D02*
X99067080Y-66616080D01*
X124587080Y-64966080D02*
X99067080Y-64966080D01*
X124587080Y-70266080D02*
X124587080Y-64966080D01*
X99067080Y-70266080D02*
X124587080Y-70266080D01*
X99067080Y-68616080D02*
X99067080Y-70266080D01*
X99067080Y-66616080D02*
G75*
G02*
X99067080Y-68616080I0J-1000000D01*
G01*
X99067080Y-57991080D02*
X99067080Y-59641080D01*
X99067080Y-59641080D02*
X124587080Y-59641080D01*
X124587080Y-59641080D02*
X124587080Y-54341080D01*
X124587080Y-54341080D02*
X99067080Y-54341080D01*
X99067080Y-54341080D02*
X99067080Y-55991080D01*
X99067080Y-55991080D02*
G75*
G02*
X99067080Y-57991080I0J-1000000D01*
G01*
X95237080Y-91491080D02*
X97897080Y-91491080D01*
X95237080Y-88891080D02*
X95237080Y-91491080D01*
X97897080Y-88891080D02*
X97897080Y-91491080D01*
X95237080Y-88891080D02*
X97897080Y-88891080D01*
X95237080Y-87621080D02*
X95237080Y-86291080D01*
X95237080Y-86291080D02*
X96567080Y-86291080D01*
X162247080Y-96161080D02*
X162247080Y-95471080D01*
X162247080Y-90741080D02*
X162247080Y-91431080D01*
X163667080Y-95471080D02*
X163667080Y-91431080D01*
X160827080Y-95471080D02*
X163667080Y-95471080D01*
X160827080Y-91431080D02*
X160827080Y-95471080D01*
X163667080Y-91431080D02*
X160827080Y-91431080D01*
D14*
X119564222Y-104453937D02*
X119611841Y-104501556D01*
X119659460Y-104644413D01*
X119659460Y-104739651D01*
X119611841Y-104882508D01*
X119516603Y-104977746D01*
X119421365Y-105025365D01*
X119230889Y-105072984D01*
X119088032Y-105072984D01*
X118897556Y-105025365D01*
X118802318Y-104977746D01*
X118707080Y-104882508D01*
X118659460Y-104739651D01*
X118659460Y-104644413D01*
X118707080Y-104501556D01*
X118754699Y-104453937D01*
X119659460Y-103501556D02*
X119659460Y-104072984D01*
X119659460Y-103787270D02*
X118659460Y-103787270D01*
X118802318Y-103882508D01*
X118897556Y-103977746D01*
X118945175Y-104072984D01*
X118659460Y-103168222D02*
X118659460Y-102501556D01*
X119659460Y-102930127D01*
X116019937Y-94602984D02*
X116019937Y-93079175D01*
X116781841Y-93841080D02*
X115258032Y-93841080D01*
X164113746Y-106943460D02*
X164113746Y-107657746D01*
X164066127Y-107800603D01*
X163970889Y-107895841D01*
X163828032Y-107943460D01*
X163732794Y-107943460D01*
X164542318Y-107038699D02*
X164589937Y-106991080D01*
X164685175Y-106943460D01*
X164923270Y-106943460D01*
X165018508Y-106991080D01*
X165066127Y-107038699D01*
X165113746Y-107133937D01*
X165113746Y-107229175D01*
X165066127Y-107372032D01*
X164494699Y-107943460D01*
X165113746Y-107943460D01*
X239804222Y-67477746D02*
X239851841Y-67525365D01*
X239899460Y-67668222D01*
X239899460Y-67763460D01*
X239851841Y-67906318D01*
X239756603Y-68001556D01*
X239661365Y-68049175D01*
X239470889Y-68096794D01*
X239328032Y-68096794D01*
X239137556Y-68049175D01*
X239042318Y-68001556D01*
X238947080Y-67906318D01*
X238899460Y-67763460D01*
X238899460Y-67668222D01*
X238947080Y-67525365D01*
X238994699Y-67477746D01*
X239899460Y-66525365D02*
X239899460Y-67096794D01*
X239899460Y-66811080D02*
X238899460Y-66811080D01*
X239042318Y-66906318D01*
X239137556Y-67001556D01*
X239185175Y-67096794D01*
X239704222Y-77867746D02*
X239751841Y-77915365D01*
X239799460Y-78058222D01*
X239799460Y-78153460D01*
X239751841Y-78296318D01*
X239656603Y-78391556D01*
X239561365Y-78439175D01*
X239370889Y-78486794D01*
X239228032Y-78486794D01*
X239037556Y-78439175D01*
X238942318Y-78391556D01*
X238847080Y-78296318D01*
X238799460Y-78153460D01*
X238799460Y-78058222D01*
X238847080Y-77915365D01*
X238894699Y-77867746D01*
X238894699Y-77486794D02*
X238847080Y-77439175D01*
X238799460Y-77343937D01*
X238799460Y-77105841D01*
X238847080Y-77010603D01*
X238894699Y-76962984D01*
X238989937Y-76915365D01*
X239085175Y-76915365D01*
X239228032Y-76962984D01*
X239799460Y-77534413D01*
X239799460Y-76915365D01*
X239804222Y-57167746D02*
X239851841Y-57215365D01*
X239899460Y-57358222D01*
X239899460Y-57453460D01*
X239851841Y-57596318D01*
X239756603Y-57691556D01*
X239661365Y-57739175D01*
X239470889Y-57786794D01*
X239328032Y-57786794D01*
X239137556Y-57739175D01*
X239042318Y-57691556D01*
X238947080Y-57596318D01*
X238899460Y-57453460D01*
X238899460Y-57358222D01*
X238947080Y-57215365D01*
X238994699Y-57167746D01*
X238899460Y-56834413D02*
X238899460Y-56215365D01*
X239280413Y-56548699D01*
X239280413Y-56405841D01*
X239328032Y-56310603D01*
X239375651Y-56262984D01*
X239470889Y-56215365D01*
X239708984Y-56215365D01*
X239804222Y-56262984D01*
X239851841Y-56310603D01*
X239899460Y-56405841D01*
X239899460Y-56691556D01*
X239851841Y-56786794D01*
X239804222Y-56834413D01*
X237334222Y-88097746D02*
X237381841Y-88145365D01*
X237429460Y-88288222D01*
X237429460Y-88383460D01*
X237381841Y-88526318D01*
X237286603Y-88621556D01*
X237191365Y-88669175D01*
X237000889Y-88716794D01*
X236858032Y-88716794D01*
X236667556Y-88669175D01*
X236572318Y-88621556D01*
X236477080Y-88526318D01*
X236429460Y-88383460D01*
X236429460Y-88288222D01*
X236477080Y-88145365D01*
X236524699Y-88097746D01*
X236762794Y-87240603D02*
X237429460Y-87240603D01*
X236381841Y-87478699D02*
X237096127Y-87716794D01*
X237096127Y-87097746D01*
X237334222Y-98407746D02*
X237381841Y-98455365D01*
X237429460Y-98598222D01*
X237429460Y-98693460D01*
X237381841Y-98836318D01*
X237286603Y-98931556D01*
X237191365Y-98979175D01*
X237000889Y-99026794D01*
X236858032Y-99026794D01*
X236667556Y-98979175D01*
X236572318Y-98931556D01*
X236477080Y-98836318D01*
X236429460Y-98693460D01*
X236429460Y-98598222D01*
X236477080Y-98455365D01*
X236524699Y-98407746D01*
X236429460Y-97502984D02*
X236429460Y-97979175D01*
X236905651Y-98026794D01*
X236858032Y-97979175D01*
X236810413Y-97883937D01*
X236810413Y-97645841D01*
X236858032Y-97550603D01*
X236905651Y-97502984D01*
X237000889Y-97455365D01*
X237238984Y-97455365D01*
X237334222Y-97502984D01*
X237381841Y-97550603D01*
X237429460Y-97645841D01*
X237429460Y-97883937D01*
X237381841Y-97979175D01*
X237334222Y-98026794D01*
X237334222Y-108717746D02*
X237381841Y-108765365D01*
X237429460Y-108908222D01*
X237429460Y-109003460D01*
X237381841Y-109146318D01*
X237286603Y-109241556D01*
X237191365Y-109289175D01*
X237000889Y-109336794D01*
X236858032Y-109336794D01*
X236667556Y-109289175D01*
X236572318Y-109241556D01*
X236477080Y-109146318D01*
X236429460Y-109003460D01*
X236429460Y-108908222D01*
X236477080Y-108765365D01*
X236524699Y-108717746D01*
X236429460Y-107860603D02*
X236429460Y-108051080D01*
X236477080Y-108146318D01*
X236524699Y-108193937D01*
X236667556Y-108289175D01*
X236858032Y-108336794D01*
X237238984Y-108336794D01*
X237334222Y-108289175D01*
X237381841Y-108241556D01*
X237429460Y-108146318D01*
X237429460Y-107955841D01*
X237381841Y-107860603D01*
X237334222Y-107812984D01*
X237238984Y-107765365D01*
X237000889Y-107765365D01*
X236905651Y-107812984D01*
X236858032Y-107860603D01*
X236810413Y-107955841D01*
X236810413Y-108146318D01*
X236858032Y-108241556D01*
X236905651Y-108289175D01*
X237000889Y-108336794D01*
X211104222Y-57267746D02*
X211151841Y-57315365D01*
X211199460Y-57458222D01*
X211199460Y-57553460D01*
X211151841Y-57696318D01*
X211056603Y-57791556D01*
X210961365Y-57839175D01*
X210770889Y-57886794D01*
X210628032Y-57886794D01*
X210437556Y-57839175D01*
X210342318Y-57791556D01*
X210247080Y-57696318D01*
X210199460Y-57553460D01*
X210199460Y-57458222D01*
X210247080Y-57315365D01*
X210294699Y-57267746D01*
X210199460Y-56934413D02*
X210199460Y-56267746D01*
X211199460Y-56696318D01*
X211004222Y-67967746D02*
X211051841Y-68015365D01*
X211099460Y-68158222D01*
X211099460Y-68253460D01*
X211051841Y-68396318D01*
X210956603Y-68491556D01*
X210861365Y-68539175D01*
X210670889Y-68586794D01*
X210528032Y-68586794D01*
X210337556Y-68539175D01*
X210242318Y-68491556D01*
X210147080Y-68396318D01*
X210099460Y-68253460D01*
X210099460Y-68158222D01*
X210147080Y-68015365D01*
X210194699Y-67967746D01*
X210528032Y-67396318D02*
X210480413Y-67491556D01*
X210432794Y-67539175D01*
X210337556Y-67586794D01*
X210289937Y-67586794D01*
X210194699Y-67539175D01*
X210147080Y-67491556D01*
X210099460Y-67396318D01*
X210099460Y-67205841D01*
X210147080Y-67110603D01*
X210194699Y-67062984D01*
X210289937Y-67015365D01*
X210337556Y-67015365D01*
X210432794Y-67062984D01*
X210480413Y-67110603D01*
X210528032Y-67205841D01*
X210528032Y-67396318D01*
X210575651Y-67491556D01*
X210623270Y-67539175D01*
X210718508Y-67586794D01*
X210908984Y-67586794D01*
X211004222Y-67539175D01*
X211051841Y-67491556D01*
X211099460Y-67396318D01*
X211099460Y-67205841D01*
X211051841Y-67110603D01*
X211004222Y-67062984D01*
X210908984Y-67015365D01*
X210718508Y-67015365D01*
X210623270Y-67062984D01*
X210575651Y-67110603D01*
X210528032Y-67205841D01*
X211104222Y-78367746D02*
X211151841Y-78415365D01*
X211199460Y-78558222D01*
X211199460Y-78653460D01*
X211151841Y-78796318D01*
X211056603Y-78891556D01*
X210961365Y-78939175D01*
X210770889Y-78986794D01*
X210628032Y-78986794D01*
X210437556Y-78939175D01*
X210342318Y-78891556D01*
X210247080Y-78796318D01*
X210199460Y-78653460D01*
X210199460Y-78558222D01*
X210247080Y-78415365D01*
X210294699Y-78367746D01*
X211199460Y-77891556D02*
X211199460Y-77701080D01*
X211151841Y-77605841D01*
X211104222Y-77558222D01*
X210961365Y-77462984D01*
X210770889Y-77415365D01*
X210389937Y-77415365D01*
X210294699Y-77462984D01*
X210247080Y-77510603D01*
X210199460Y-77605841D01*
X210199460Y-77796318D01*
X210247080Y-77891556D01*
X210294699Y-77939175D01*
X210389937Y-77986794D01*
X210628032Y-77986794D01*
X210723270Y-77939175D01*
X210770889Y-77891556D01*
X210818508Y-77796318D01*
X210818508Y-77605841D01*
X210770889Y-77510603D01*
X210723270Y-77462984D01*
X210628032Y-77415365D01*
X28695651Y-57681556D02*
X28695651Y-57348222D01*
X29219460Y-57205365D02*
X29219460Y-57681556D01*
X28219460Y-57681556D01*
X28219460Y-57205365D01*
X29219460Y-56252984D02*
X29219460Y-56824413D01*
X29219460Y-56538699D02*
X28219460Y-56538699D01*
X28362318Y-56633937D01*
X28457556Y-56729175D01*
X28505175Y-56824413D01*
X186045651Y-57681556D02*
X186045651Y-57348222D01*
X186569460Y-57205365D02*
X186569460Y-57681556D01*
X185569460Y-57681556D01*
X185569460Y-57205365D01*
X185664699Y-56824413D02*
X185617080Y-56776794D01*
X185569460Y-56681556D01*
X185569460Y-56443460D01*
X185617080Y-56348222D01*
X185664699Y-56300603D01*
X185759937Y-56252984D01*
X185855175Y-56252984D01*
X185998032Y-56300603D01*
X186569460Y-56872032D01*
X186569460Y-56252984D01*
X97995651Y-78981556D02*
X97995651Y-78648222D01*
X98519460Y-78505365D02*
X98519460Y-78981556D01*
X97519460Y-78981556D01*
X97519460Y-78505365D01*
X97519460Y-78172032D02*
X97519460Y-77552984D01*
X97900413Y-77886318D01*
X97900413Y-77743460D01*
X97948032Y-77648222D01*
X97995651Y-77600603D01*
X98090889Y-77552984D01*
X98328984Y-77552984D01*
X98424222Y-77600603D01*
X98471841Y-77648222D01*
X98519460Y-77743460D01*
X98519460Y-78029175D01*
X98471841Y-78124413D01*
X98424222Y-78172032D01*
X55405651Y-68827746D02*
X55405651Y-68494413D01*
X55929460Y-68351556D02*
X55929460Y-68827746D01*
X54929460Y-68827746D01*
X54929460Y-68351556D01*
X55929460Y-67399175D02*
X55929460Y-67970603D01*
X55929460Y-67684889D02*
X54929460Y-67684889D01*
X55072318Y-67780127D01*
X55167556Y-67875365D01*
X55215175Y-67970603D01*
X54929460Y-66780127D02*
X54929460Y-66684889D01*
X54977080Y-66589651D01*
X55024699Y-66542032D01*
X55119937Y-66494413D01*
X55310413Y-66446794D01*
X55548508Y-66446794D01*
X55738984Y-66494413D01*
X55834222Y-66542032D01*
X55881841Y-66589651D01*
X55929460Y-66684889D01*
X55929460Y-66780127D01*
X55881841Y-66875365D01*
X55834222Y-66922984D01*
X55738984Y-66970603D01*
X55548508Y-67018222D01*
X55310413Y-67018222D01*
X55119937Y-66970603D01*
X55024699Y-66922984D01*
X54977080Y-66875365D01*
X54929460Y-66780127D01*
X74695651Y-79457746D02*
X74695651Y-79124413D01*
X75219460Y-78981556D02*
X75219460Y-79457746D01*
X74219460Y-79457746D01*
X74219460Y-78981556D01*
X75219460Y-78029175D02*
X75219460Y-78600603D01*
X75219460Y-78314889D02*
X74219460Y-78314889D01*
X74362318Y-78410127D01*
X74457556Y-78505365D01*
X74505175Y-78600603D01*
X75219460Y-77076794D02*
X75219460Y-77648222D01*
X75219460Y-77362508D02*
X74219460Y-77362508D01*
X74362318Y-77457746D01*
X74457556Y-77552984D01*
X74505175Y-77648222D01*
X154745651Y-68782746D02*
X154745651Y-68449413D01*
X155269460Y-68306556D02*
X155269460Y-68782746D01*
X154269460Y-68782746D01*
X154269460Y-68306556D01*
X155269460Y-67354175D02*
X155269460Y-67925603D01*
X155269460Y-67639889D02*
X154269460Y-67639889D01*
X154412318Y-67735127D01*
X154507556Y-67830365D01*
X154555175Y-67925603D01*
X154602794Y-66497032D02*
X155269460Y-66497032D01*
X154221841Y-66735127D02*
X154936127Y-66973222D01*
X154936127Y-66354175D01*
X189155651Y-68777746D02*
X189155651Y-68444413D01*
X189679460Y-68301556D02*
X189679460Y-68777746D01*
X188679460Y-68777746D01*
X188679460Y-68301556D01*
X189679460Y-67349175D02*
X189679460Y-67920603D01*
X189679460Y-67634889D02*
X188679460Y-67634889D01*
X188822318Y-67730127D01*
X188917556Y-67825365D01*
X188965175Y-67920603D01*
X188679460Y-66444413D02*
X188679460Y-66920603D01*
X189155651Y-66968222D01*
X189108032Y-66920603D01*
X189060413Y-66825365D01*
X189060413Y-66587270D01*
X189108032Y-66492032D01*
X189155651Y-66444413D01*
X189250889Y-66396794D01*
X189488984Y-66396794D01*
X189584222Y-66444413D01*
X189631841Y-66492032D01*
X189679460Y-66587270D01*
X189679460Y-66825365D01*
X189631841Y-66920603D01*
X189584222Y-66968222D01*
X244175651Y-58067746D02*
X244175651Y-57734413D01*
X244699460Y-57591556D02*
X244699460Y-58067746D01*
X243699460Y-58067746D01*
X243699460Y-57591556D01*
X244699460Y-56639175D02*
X244699460Y-57210603D01*
X244699460Y-56924889D02*
X243699460Y-56924889D01*
X243842318Y-57020127D01*
X243937556Y-57115365D01*
X243985175Y-57210603D01*
X243699460Y-55782032D02*
X243699460Y-55972508D01*
X243747080Y-56067746D01*
X243794699Y-56115365D01*
X243937556Y-56210603D01*
X244128032Y-56258222D01*
X244508984Y-56258222D01*
X244604222Y-56210603D01*
X244651841Y-56162984D01*
X244699460Y-56067746D01*
X244699460Y-55877270D01*
X244651841Y-55782032D01*
X244604222Y-55734413D01*
X244508984Y-55686794D01*
X244270889Y-55686794D01*
X244175651Y-55734413D01*
X244128032Y-55782032D01*
X244080413Y-55877270D01*
X244080413Y-56067746D01*
X244128032Y-56162984D01*
X244175651Y-56210603D01*
X244270889Y-56258222D01*
X244275651Y-68567746D02*
X244275651Y-68234413D01*
X244799460Y-68091556D02*
X244799460Y-68567746D01*
X243799460Y-68567746D01*
X243799460Y-68091556D01*
X244799460Y-67139175D02*
X244799460Y-67710603D01*
X244799460Y-67424889D02*
X243799460Y-67424889D01*
X243942318Y-67520127D01*
X244037556Y-67615365D01*
X244085175Y-67710603D01*
X243799460Y-66805841D02*
X243799460Y-66139175D01*
X244799460Y-66567746D01*
X244275651Y-78867746D02*
X244275651Y-78534413D01*
X244799460Y-78391556D02*
X244799460Y-78867746D01*
X243799460Y-78867746D01*
X243799460Y-78391556D01*
X244799460Y-77439175D02*
X244799460Y-78010603D01*
X244799460Y-77724889D02*
X243799460Y-77724889D01*
X243942318Y-77820127D01*
X244037556Y-77915365D01*
X244085175Y-78010603D01*
X244228032Y-76867746D02*
X244180413Y-76962984D01*
X244132794Y-77010603D01*
X244037556Y-77058222D01*
X243989937Y-77058222D01*
X243894699Y-77010603D01*
X243847080Y-76962984D01*
X243799460Y-76867746D01*
X243799460Y-76677270D01*
X243847080Y-76582032D01*
X243894699Y-76534413D01*
X243989937Y-76486794D01*
X244037556Y-76486794D01*
X244132794Y-76534413D01*
X244180413Y-76582032D01*
X244228032Y-76677270D01*
X244228032Y-76867746D01*
X244275651Y-76962984D01*
X244323270Y-77010603D01*
X244418508Y-77058222D01*
X244608984Y-77058222D01*
X244704222Y-77010603D01*
X244751841Y-76962984D01*
X244799460Y-76867746D01*
X244799460Y-76677270D01*
X244751841Y-76582032D01*
X244704222Y-76534413D01*
X244608984Y-76486794D01*
X244418508Y-76486794D01*
X244323270Y-76534413D01*
X244275651Y-76582032D01*
X244228032Y-76677270D01*
X244175651Y-89057746D02*
X244175651Y-88724413D01*
X244699460Y-88581556D02*
X244699460Y-89057746D01*
X243699460Y-89057746D01*
X243699460Y-88581556D01*
X244699460Y-87629175D02*
X244699460Y-88200603D01*
X244699460Y-87914889D02*
X243699460Y-87914889D01*
X243842318Y-88010127D01*
X243937556Y-88105365D01*
X243985175Y-88200603D01*
X244699460Y-87152984D02*
X244699460Y-86962508D01*
X244651841Y-86867270D01*
X244604222Y-86819651D01*
X244461365Y-86724413D01*
X244270889Y-86676794D01*
X243889937Y-86676794D01*
X243794699Y-86724413D01*
X243747080Y-86772032D01*
X243699460Y-86867270D01*
X243699460Y-87057746D01*
X243747080Y-87152984D01*
X243794699Y-87200603D01*
X243889937Y-87248222D01*
X244128032Y-87248222D01*
X244223270Y-87200603D01*
X244270889Y-87152984D01*
X244318508Y-87057746D01*
X244318508Y-86867270D01*
X244270889Y-86772032D01*
X244223270Y-86724413D01*
X244128032Y-86676794D01*
X244175651Y-99567746D02*
X244175651Y-99234413D01*
X244699460Y-99091556D02*
X244699460Y-99567746D01*
X243699460Y-99567746D01*
X243699460Y-99091556D01*
X243794699Y-98710603D02*
X243747080Y-98662984D01*
X243699460Y-98567746D01*
X243699460Y-98329651D01*
X243747080Y-98234413D01*
X243794699Y-98186794D01*
X243889937Y-98139175D01*
X243985175Y-98139175D01*
X244128032Y-98186794D01*
X244699460Y-98758222D01*
X244699460Y-98139175D01*
X243699460Y-97520127D02*
X243699460Y-97424889D01*
X243747080Y-97329651D01*
X243794699Y-97282032D01*
X243889937Y-97234413D01*
X244080413Y-97186794D01*
X244318508Y-97186794D01*
X244508984Y-97234413D01*
X244604222Y-97282032D01*
X244651841Y-97329651D01*
X244699460Y-97424889D01*
X244699460Y-97520127D01*
X244651841Y-97615365D01*
X244604222Y-97662984D01*
X244508984Y-97710603D01*
X244318508Y-97758222D01*
X244080413Y-97758222D01*
X243889937Y-97710603D01*
X243794699Y-97662984D01*
X243747080Y-97615365D01*
X243699460Y-97520127D01*
X244175651Y-109657746D02*
X244175651Y-109324413D01*
X244699460Y-109181556D02*
X244699460Y-109657746D01*
X243699460Y-109657746D01*
X243699460Y-109181556D01*
X243794699Y-108800603D02*
X243747080Y-108752984D01*
X243699460Y-108657746D01*
X243699460Y-108419651D01*
X243747080Y-108324413D01*
X243794699Y-108276794D01*
X243889937Y-108229175D01*
X243985175Y-108229175D01*
X244128032Y-108276794D01*
X244699460Y-108848222D01*
X244699460Y-108229175D01*
X244699460Y-107276794D02*
X244699460Y-107848222D01*
X244699460Y-107562508D02*
X243699460Y-107562508D01*
X243842318Y-107657746D01*
X243937556Y-107752984D01*
X243985175Y-107848222D01*
X215475651Y-58067746D02*
X215475651Y-57734413D01*
X215999460Y-57591556D02*
X215999460Y-58067746D01*
X214999460Y-58067746D01*
X214999460Y-57591556D01*
X215094699Y-57210603D02*
X215047080Y-57162984D01*
X214999460Y-57067746D01*
X214999460Y-56829651D01*
X215047080Y-56734413D01*
X215094699Y-56686794D01*
X215189937Y-56639175D01*
X215285175Y-56639175D01*
X215428032Y-56686794D01*
X215999460Y-57258222D01*
X215999460Y-56639175D01*
X215094699Y-56258222D02*
X215047080Y-56210603D01*
X214999460Y-56115365D01*
X214999460Y-55877270D01*
X215047080Y-55782032D01*
X215094699Y-55734413D01*
X215189937Y-55686794D01*
X215285175Y-55686794D01*
X215428032Y-55734413D01*
X215999460Y-56305841D01*
X215999460Y-55686794D01*
X215575651Y-68657746D02*
X215575651Y-68324413D01*
X216099460Y-68181556D02*
X216099460Y-68657746D01*
X215099460Y-68657746D01*
X215099460Y-68181556D01*
X215194699Y-67800603D02*
X215147080Y-67752984D01*
X215099460Y-67657746D01*
X215099460Y-67419651D01*
X215147080Y-67324413D01*
X215194699Y-67276794D01*
X215289937Y-67229175D01*
X215385175Y-67229175D01*
X215528032Y-67276794D01*
X216099460Y-67848222D01*
X216099460Y-67229175D01*
X215099460Y-66895841D02*
X215099460Y-66276794D01*
X215480413Y-66610127D01*
X215480413Y-66467270D01*
X215528032Y-66372032D01*
X215575651Y-66324413D01*
X215670889Y-66276794D01*
X215908984Y-66276794D01*
X216004222Y-66324413D01*
X216051841Y-66372032D01*
X216099460Y-66467270D01*
X216099460Y-66752984D01*
X216051841Y-66848222D01*
X216004222Y-66895841D01*
X215475651Y-79157746D02*
X215475651Y-78824413D01*
X215999460Y-78681556D02*
X215999460Y-79157746D01*
X214999460Y-79157746D01*
X214999460Y-78681556D01*
X215094699Y-78300603D02*
X215047080Y-78252984D01*
X214999460Y-78157746D01*
X214999460Y-77919651D01*
X215047080Y-77824413D01*
X215094699Y-77776794D01*
X215189937Y-77729175D01*
X215285175Y-77729175D01*
X215428032Y-77776794D01*
X215999460Y-78348222D01*
X215999460Y-77729175D01*
X215332794Y-76872032D02*
X215999460Y-76872032D01*
X214951841Y-77110127D02*
X215666127Y-77348222D01*
X215666127Y-76729175D01*
X88413746Y-86723460D02*
X88413746Y-87437746D01*
X88366127Y-87580603D01*
X88270889Y-87675841D01*
X88128032Y-87723460D01*
X88032794Y-87723460D01*
X88889937Y-87723460D02*
X88889937Y-86723460D01*
X89270889Y-86723460D01*
X89366127Y-86771080D01*
X89413746Y-86818699D01*
X89461365Y-86913937D01*
X89461365Y-87056794D01*
X89413746Y-87152032D01*
X89366127Y-87199651D01*
X89270889Y-87247270D01*
X88889937Y-87247270D01*
X90413746Y-87723460D02*
X89842318Y-87723460D01*
X90128032Y-87723460D02*
X90128032Y-86723460D01*
X90032794Y-86866318D01*
X89937556Y-86961556D01*
X89842318Y-87009175D01*
X132249460Y-70657746D02*
X131773270Y-70991080D01*
X132249460Y-71229175D02*
X131249460Y-71229175D01*
X131249460Y-70848222D01*
X131297080Y-70752984D01*
X131344699Y-70705365D01*
X131439937Y-70657746D01*
X131582794Y-70657746D01*
X131678032Y-70705365D01*
X131725651Y-70752984D01*
X131773270Y-70848222D01*
X131773270Y-71229175D01*
X131344699Y-70276794D02*
X131297080Y-70229175D01*
X131249460Y-70133937D01*
X131249460Y-69895841D01*
X131297080Y-69800603D01*
X131344699Y-69752984D01*
X131439937Y-69705365D01*
X131535175Y-69705365D01*
X131678032Y-69752984D01*
X132249460Y-70324413D01*
X132249460Y-69705365D01*
X135169460Y-70647746D02*
X134693270Y-70981080D01*
X135169460Y-71219175D02*
X134169460Y-71219175D01*
X134169460Y-70838222D01*
X134217080Y-70742984D01*
X134264699Y-70695365D01*
X134359937Y-70647746D01*
X134502794Y-70647746D01*
X134598032Y-70695365D01*
X134645651Y-70742984D01*
X134693270Y-70838222D01*
X134693270Y-71219175D01*
X134169460Y-70314413D02*
X134169460Y-69695365D01*
X134550413Y-70028699D01*
X134550413Y-69885841D01*
X134598032Y-69790603D01*
X134645651Y-69742984D01*
X134740889Y-69695365D01*
X134978984Y-69695365D01*
X135074222Y-69742984D01*
X135121841Y-69790603D01*
X135169460Y-69885841D01*
X135169460Y-70171556D01*
X135121841Y-70266794D01*
X135074222Y-70314413D01*
X138099460Y-57613937D02*
X137623270Y-57947270D01*
X138099460Y-58185365D02*
X137099460Y-58185365D01*
X137099460Y-57804413D01*
X137147080Y-57709175D01*
X137194699Y-57661556D01*
X137289937Y-57613937D01*
X137432794Y-57613937D01*
X137528032Y-57661556D01*
X137575651Y-57709175D01*
X137623270Y-57804413D01*
X137623270Y-58185365D01*
X138099460Y-56661556D02*
X138099460Y-57232984D01*
X138099460Y-56947270D02*
X137099460Y-56947270D01*
X137242318Y-57042508D01*
X137337556Y-57137746D01*
X137385175Y-57232984D01*
X137194699Y-56280603D02*
X137147080Y-56232984D01*
X137099460Y-56137746D01*
X137099460Y-55899651D01*
X137147080Y-55804413D01*
X137194699Y-55756794D01*
X137289937Y-55709175D01*
X137385175Y-55709175D01*
X137528032Y-55756794D01*
X138099460Y-56328222D01*
X138099460Y-55709175D01*
X141059460Y-57703937D02*
X140583270Y-58037270D01*
X141059460Y-58275365D02*
X140059460Y-58275365D01*
X140059460Y-57894413D01*
X140107080Y-57799175D01*
X140154699Y-57751556D01*
X140249937Y-57703937D01*
X140392794Y-57703937D01*
X140488032Y-57751556D01*
X140535651Y-57799175D01*
X140583270Y-57894413D01*
X140583270Y-58275365D01*
X141059460Y-56751556D02*
X141059460Y-57322984D01*
X141059460Y-57037270D02*
X140059460Y-57037270D01*
X140202318Y-57132508D01*
X140297556Y-57227746D01*
X140345175Y-57322984D01*
X140059460Y-56418222D02*
X140059460Y-55799175D01*
X140440413Y-56132508D01*
X140440413Y-55989651D01*
X140488032Y-55894413D01*
X140535651Y-55846794D01*
X140630889Y-55799175D01*
X140868984Y-55799175D01*
X140964222Y-55846794D01*
X141011841Y-55894413D01*
X141059460Y-55989651D01*
X141059460Y-56275365D01*
X141011841Y-56370603D01*
X140964222Y-56418222D01*
X143819460Y-57563937D02*
X143343270Y-57897270D01*
X143819460Y-58135365D02*
X142819460Y-58135365D01*
X142819460Y-57754413D01*
X142867080Y-57659175D01*
X142914699Y-57611556D01*
X143009937Y-57563937D01*
X143152794Y-57563937D01*
X143248032Y-57611556D01*
X143295651Y-57659175D01*
X143343270Y-57754413D01*
X143343270Y-58135365D01*
X143819460Y-56611556D02*
X143819460Y-57182984D01*
X143819460Y-56897270D02*
X142819460Y-56897270D01*
X142962318Y-56992508D01*
X143057556Y-57087746D01*
X143105175Y-57182984D01*
X143152794Y-55754413D02*
X143819460Y-55754413D01*
X142771841Y-55992508D02*
X143486127Y-56230603D01*
X143486127Y-55611556D01*
X123306603Y-83533460D02*
X122973270Y-83057270D01*
X122735175Y-83533460D02*
X122735175Y-82533460D01*
X123116127Y-82533460D01*
X123211365Y-82581080D01*
X123258984Y-82628699D01*
X123306603Y-82723937D01*
X123306603Y-82866794D01*
X123258984Y-82962032D01*
X123211365Y-83009651D01*
X123116127Y-83057270D01*
X122735175Y-83057270D01*
X123735175Y-83533460D02*
X123735175Y-82533460D01*
X124306603Y-83533460D01*
X124306603Y-82533460D01*
X124735175Y-82628699D02*
X124782794Y-82581080D01*
X124878032Y-82533460D01*
X125116127Y-82533460D01*
X125211365Y-82581080D01*
X125258984Y-82628699D01*
X125306603Y-82723937D01*
X125306603Y-82819175D01*
X125258984Y-82962032D01*
X124687556Y-83533460D01*
X125306603Y-83533460D01*
X28745651Y-68782746D02*
X28745651Y-68449413D01*
X29269460Y-68306556D02*
X29269460Y-68782746D01*
X28269460Y-68782746D01*
X28269460Y-68306556D01*
X28364699Y-67925603D02*
X28317080Y-67877984D01*
X28269460Y-67782746D01*
X28269460Y-67544651D01*
X28317080Y-67449413D01*
X28364699Y-67401794D01*
X28459937Y-67354175D01*
X28555175Y-67354175D01*
X28698032Y-67401794D01*
X29269460Y-67973222D01*
X29269460Y-67354175D01*
X28269460Y-66449413D02*
X28269460Y-66925603D01*
X28745651Y-66973222D01*
X28698032Y-66925603D01*
X28650413Y-66830365D01*
X28650413Y-66592270D01*
X28698032Y-66497032D01*
X28745651Y-66449413D01*
X28840889Y-66401794D01*
X29078984Y-66401794D01*
X29174222Y-66449413D01*
X29221841Y-66497032D01*
X29269460Y-66592270D01*
X29269460Y-66830365D01*
X29221841Y-66925603D01*
X29174222Y-66973222D01*
X111764222Y-109439937D02*
X111811841Y-109487556D01*
X111859460Y-109630413D01*
X111859460Y-109725651D01*
X111811841Y-109868508D01*
X111716603Y-109963746D01*
X111621365Y-110011365D01*
X111430889Y-110058984D01*
X111288032Y-110058984D01*
X111097556Y-110011365D01*
X111002318Y-109963746D01*
X110907080Y-109868508D01*
X110859460Y-109725651D01*
X110859460Y-109630413D01*
X110907080Y-109487556D01*
X110954699Y-109439937D01*
X111859460Y-108487556D02*
X111859460Y-109058984D01*
X111859460Y-108773270D02*
X110859460Y-108773270D01*
X111002318Y-108868508D01*
X111097556Y-108963746D01*
X111145175Y-109058984D01*
X110859460Y-107868508D02*
X110859460Y-107773270D01*
X110907080Y-107678032D01*
X110954699Y-107630413D01*
X111049937Y-107582794D01*
X111240413Y-107535175D01*
X111478508Y-107535175D01*
X111668984Y-107582794D01*
X111764222Y-107630413D01*
X111811841Y-107678032D01*
X111859460Y-107773270D01*
X111859460Y-107868508D01*
X111811841Y-107963746D01*
X111764222Y-108011365D01*
X111668984Y-108058984D01*
X111478508Y-108106603D01*
X111240413Y-108106603D01*
X111049937Y-108058984D01*
X110954699Y-108011365D01*
X110907080Y-107963746D01*
X110859460Y-107868508D01*
X131560222Y-109279937D02*
X131607841Y-109327556D01*
X131655460Y-109470413D01*
X131655460Y-109565651D01*
X131607841Y-109708508D01*
X131512603Y-109803746D01*
X131417365Y-109851365D01*
X131226889Y-109898984D01*
X131084032Y-109898984D01*
X130893556Y-109851365D01*
X130798318Y-109803746D01*
X130703080Y-109708508D01*
X130655460Y-109565651D01*
X130655460Y-109470413D01*
X130703080Y-109327556D01*
X130750699Y-109279937D01*
X131655460Y-108327556D02*
X131655460Y-108898984D01*
X131655460Y-108613270D02*
X130655460Y-108613270D01*
X130798318Y-108708508D01*
X130893556Y-108803746D01*
X130941175Y-108898984D01*
X131655460Y-107375175D02*
X131655460Y-107946603D01*
X131655460Y-107660889D02*
X130655460Y-107660889D01*
X130798318Y-107756127D01*
X130893556Y-107851365D01*
X130941175Y-107946603D01*
X185044222Y-68453937D02*
X185091841Y-68501556D01*
X185139460Y-68644413D01*
X185139460Y-68739651D01*
X185091841Y-68882508D01*
X184996603Y-68977746D01*
X184901365Y-69025365D01*
X184710889Y-69072984D01*
X184568032Y-69072984D01*
X184377556Y-69025365D01*
X184282318Y-68977746D01*
X184187080Y-68882508D01*
X184139460Y-68739651D01*
X184139460Y-68644413D01*
X184187080Y-68501556D01*
X184234699Y-68453937D01*
X185139460Y-67501556D02*
X185139460Y-68072984D01*
X185139460Y-67787270D02*
X184139460Y-67787270D01*
X184282318Y-67882508D01*
X184377556Y-67977746D01*
X184425175Y-68072984D01*
X184234699Y-67120603D02*
X184187080Y-67072984D01*
X184139460Y-66977746D01*
X184139460Y-66739651D01*
X184187080Y-66644413D01*
X184234699Y-66596794D01*
X184329937Y-66549175D01*
X184425175Y-66549175D01*
X184568032Y-66596794D01*
X185139460Y-67168222D01*
X185139460Y-66549175D01*
X96624222Y-68123937D02*
X96671841Y-68171556D01*
X96719460Y-68314413D01*
X96719460Y-68409651D01*
X96671841Y-68552508D01*
X96576603Y-68647746D01*
X96481365Y-68695365D01*
X96290889Y-68742984D01*
X96148032Y-68742984D01*
X95957556Y-68695365D01*
X95862318Y-68647746D01*
X95767080Y-68552508D01*
X95719460Y-68409651D01*
X95719460Y-68314413D01*
X95767080Y-68171556D01*
X95814699Y-68123937D01*
X96719460Y-67171556D02*
X96719460Y-67742984D01*
X96719460Y-67457270D02*
X95719460Y-67457270D01*
X95862318Y-67552508D01*
X95957556Y-67647746D01*
X96005175Y-67742984D01*
X95719460Y-66838222D02*
X95719460Y-66219175D01*
X96100413Y-66552508D01*
X96100413Y-66409651D01*
X96148032Y-66314413D01*
X96195651Y-66266794D01*
X96290889Y-66219175D01*
X96528984Y-66219175D01*
X96624222Y-66266794D01*
X96671841Y-66314413D01*
X96719460Y-66409651D01*
X96719460Y-66695365D01*
X96671841Y-66790603D01*
X96624222Y-66838222D01*
X50414222Y-68883937D02*
X50461841Y-68931556D01*
X50509460Y-69074413D01*
X50509460Y-69169651D01*
X50461841Y-69312508D01*
X50366603Y-69407746D01*
X50271365Y-69455365D01*
X50080889Y-69502984D01*
X49938032Y-69502984D01*
X49747556Y-69455365D01*
X49652318Y-69407746D01*
X49557080Y-69312508D01*
X49509460Y-69169651D01*
X49509460Y-69074413D01*
X49557080Y-68931556D01*
X49604699Y-68883937D01*
X50509460Y-67931556D02*
X50509460Y-68502984D01*
X50509460Y-68217270D02*
X49509460Y-68217270D01*
X49652318Y-68312508D01*
X49747556Y-68407746D01*
X49795175Y-68502984D01*
X49842794Y-67074413D02*
X50509460Y-67074413D01*
X49461841Y-67312508D02*
X50176127Y-67550603D01*
X50176127Y-66931556D01*
X73614222Y-68663937D02*
X73661841Y-68711556D01*
X73709460Y-68854413D01*
X73709460Y-68949651D01*
X73661841Y-69092508D01*
X73566603Y-69187746D01*
X73471365Y-69235365D01*
X73280889Y-69282984D01*
X73138032Y-69282984D01*
X72947556Y-69235365D01*
X72852318Y-69187746D01*
X72757080Y-69092508D01*
X72709460Y-68949651D01*
X72709460Y-68854413D01*
X72757080Y-68711556D01*
X72804699Y-68663937D01*
X73709460Y-67711556D02*
X73709460Y-68282984D01*
X73709460Y-67997270D02*
X72709460Y-67997270D01*
X72852318Y-68092508D01*
X72947556Y-68187746D01*
X72995175Y-68282984D01*
X72709460Y-66806794D02*
X72709460Y-67282984D01*
X73185651Y-67330603D01*
X73138032Y-67282984D01*
X73090413Y-67187746D01*
X73090413Y-66949651D01*
X73138032Y-66854413D01*
X73185651Y-66806794D01*
X73280889Y-66759175D01*
X73518984Y-66759175D01*
X73614222Y-66806794D01*
X73661841Y-66854413D01*
X73709460Y-66949651D01*
X73709460Y-67187746D01*
X73661841Y-67282984D01*
X73614222Y-67330603D01*
X152514222Y-71003937D02*
X152561841Y-71051556D01*
X152609460Y-71194413D01*
X152609460Y-71289651D01*
X152561841Y-71432508D01*
X152466603Y-71527746D01*
X152371365Y-71575365D01*
X152180889Y-71622984D01*
X152038032Y-71622984D01*
X151847556Y-71575365D01*
X151752318Y-71527746D01*
X151657080Y-71432508D01*
X151609460Y-71289651D01*
X151609460Y-71194413D01*
X151657080Y-71051556D01*
X151704699Y-71003937D01*
X152609460Y-70051556D02*
X152609460Y-70622984D01*
X152609460Y-70337270D02*
X151609460Y-70337270D01*
X151752318Y-70432508D01*
X151847556Y-70527746D01*
X151895175Y-70622984D01*
X151609460Y-69194413D02*
X151609460Y-69384889D01*
X151657080Y-69480127D01*
X151704699Y-69527746D01*
X151847556Y-69622984D01*
X152038032Y-69670603D01*
X152418984Y-69670603D01*
X152514222Y-69622984D01*
X152561841Y-69575365D01*
X152609460Y-69480127D01*
X152609460Y-69289651D01*
X152561841Y-69194413D01*
X152514222Y-69146794D01*
X152418984Y-69099175D01*
X152180889Y-69099175D01*
X152085651Y-69146794D01*
X152038032Y-69194413D01*
X151990413Y-69289651D01*
X151990413Y-69480127D01*
X152038032Y-69575365D01*
X152085651Y-69622984D01*
X152180889Y-69670603D01*
X28695651Y-78881556D02*
X28695651Y-78548222D01*
X29219460Y-78405365D02*
X29219460Y-78881556D01*
X28219460Y-78881556D01*
X28219460Y-78405365D01*
X28552794Y-77548222D02*
X29219460Y-77548222D01*
X28171841Y-77786318D02*
X28886127Y-78024413D01*
X28886127Y-77405365D01*
X154745651Y-57681556D02*
X154745651Y-57348222D01*
X155269460Y-57205365D02*
X155269460Y-57681556D01*
X154269460Y-57681556D01*
X154269460Y-57205365D01*
X154269460Y-56300603D02*
X154269460Y-56776794D01*
X154745651Y-56824413D01*
X154698032Y-56776794D01*
X154650413Y-56681556D01*
X154650413Y-56443460D01*
X154698032Y-56348222D01*
X154745651Y-56300603D01*
X154840889Y-56252984D01*
X155078984Y-56252984D01*
X155174222Y-56300603D01*
X155221841Y-56348222D01*
X155269460Y-56443460D01*
X155269460Y-56681556D01*
X155221841Y-56776794D01*
X155174222Y-56824413D01*
X154745651Y-78931556D02*
X154745651Y-78598222D01*
X155269460Y-78455365D02*
X155269460Y-78931556D01*
X154269460Y-78931556D01*
X154269460Y-78455365D01*
X154269460Y-77598222D02*
X154269460Y-77788699D01*
X154317080Y-77883937D01*
X154364699Y-77931556D01*
X154507556Y-78026794D01*
X154698032Y-78074413D01*
X155078984Y-78074413D01*
X155174222Y-78026794D01*
X155221841Y-77979175D01*
X155269460Y-77883937D01*
X155269460Y-77693460D01*
X155221841Y-77598222D01*
X155174222Y-77550603D01*
X155078984Y-77502984D01*
X154840889Y-77502984D01*
X154745651Y-77550603D01*
X154698032Y-77598222D01*
X154650413Y-77693460D01*
X154650413Y-77883937D01*
X154698032Y-77979175D01*
X154745651Y-78026794D01*
X154840889Y-78074413D01*
X51795651Y-57681556D02*
X51795651Y-57348222D01*
X52319460Y-57205365D02*
X52319460Y-57681556D01*
X51319460Y-57681556D01*
X51319460Y-57205365D01*
X51319460Y-56872032D02*
X51319460Y-56205365D01*
X52319460Y-56633937D01*
X74595651Y-57631556D02*
X74595651Y-57298222D01*
X75119460Y-57155365D02*
X75119460Y-57631556D01*
X74119460Y-57631556D01*
X74119460Y-57155365D01*
X74548032Y-56583937D02*
X74500413Y-56679175D01*
X74452794Y-56726794D01*
X74357556Y-56774413D01*
X74309937Y-56774413D01*
X74214699Y-56726794D01*
X74167080Y-56679175D01*
X74119460Y-56583937D01*
X74119460Y-56393460D01*
X74167080Y-56298222D01*
X74214699Y-56250603D01*
X74309937Y-56202984D01*
X74357556Y-56202984D01*
X74452794Y-56250603D01*
X74500413Y-56298222D01*
X74548032Y-56393460D01*
X74548032Y-56583937D01*
X74595651Y-56679175D01*
X74643270Y-56726794D01*
X74738508Y-56774413D01*
X74928984Y-56774413D01*
X75024222Y-56726794D01*
X75071841Y-56679175D01*
X75119460Y-56583937D01*
X75119460Y-56393460D01*
X75071841Y-56298222D01*
X75024222Y-56250603D01*
X74928984Y-56202984D01*
X74738508Y-56202984D01*
X74643270Y-56250603D01*
X74595651Y-56298222D01*
X74548032Y-56393460D01*
X77905651Y-68261556D02*
X77905651Y-67928222D01*
X78429460Y-67785365D02*
X78429460Y-68261556D01*
X77429460Y-68261556D01*
X77429460Y-67785365D01*
X78429460Y-67309175D02*
X78429460Y-67118699D01*
X78381841Y-67023460D01*
X78334222Y-66975841D01*
X78191365Y-66880603D01*
X78000889Y-66832984D01*
X77619937Y-66832984D01*
X77524699Y-66880603D01*
X77477080Y-66928222D01*
X77429460Y-67023460D01*
X77429460Y-67213937D01*
X77477080Y-67309175D01*
X77524699Y-67356794D01*
X77619937Y-67404413D01*
X77858032Y-67404413D01*
X77953270Y-67356794D01*
X78000889Y-67309175D01*
X78048508Y-67213937D01*
X78048508Y-67023460D01*
X78000889Y-66928222D01*
X77953270Y-66880603D01*
X77858032Y-66832984D01*
X51845651Y-79457746D02*
X51845651Y-79124413D01*
X52369460Y-78981556D02*
X52369460Y-79457746D01*
X51369460Y-79457746D01*
X51369460Y-78981556D01*
X52369460Y-78029175D02*
X52369460Y-78600603D01*
X52369460Y-78314889D02*
X51369460Y-78314889D01*
X51512318Y-78410127D01*
X51607556Y-78505365D01*
X51655175Y-78600603D01*
X51464699Y-77648222D02*
X51417080Y-77600603D01*
X51369460Y-77505365D01*
X51369460Y-77267270D01*
X51417080Y-77172032D01*
X51464699Y-77124413D01*
X51559937Y-77076794D01*
X51655175Y-77076794D01*
X51798032Y-77124413D01*
X52369460Y-77695841D01*
X52369460Y-77076794D01*
X185945651Y-79257746D02*
X185945651Y-78924413D01*
X186469460Y-78781556D02*
X186469460Y-79257746D01*
X185469460Y-79257746D01*
X185469460Y-78781556D01*
X186469460Y-77829175D02*
X186469460Y-78400603D01*
X186469460Y-78114889D02*
X185469460Y-78114889D01*
X185612318Y-78210127D01*
X185707556Y-78305365D01*
X185755175Y-78400603D01*
X185469460Y-77495841D02*
X185469460Y-76876794D01*
X185850413Y-77210127D01*
X185850413Y-77067270D01*
X185898032Y-76972032D01*
X185945651Y-76924413D01*
X186040889Y-76876794D01*
X186278984Y-76876794D01*
X186374222Y-76924413D01*
X186421841Y-76972032D01*
X186469460Y-77067270D01*
X186469460Y-77352984D01*
X186421841Y-77448222D01*
X186374222Y-77495841D01*
X124275651Y-102274413D02*
X124275651Y-102607746D01*
X124799460Y-102607746D02*
X123799460Y-102607746D01*
X123799460Y-102131556D01*
X124275651Y-101417270D02*
X124323270Y-101274413D01*
X124370889Y-101226794D01*
X124466127Y-101179175D01*
X124608984Y-101179175D01*
X124704222Y-101226794D01*
X124751841Y-101274413D01*
X124799460Y-101369651D01*
X124799460Y-101750603D01*
X123799460Y-101750603D01*
X123799460Y-101417270D01*
X123847080Y-101322032D01*
X123894699Y-101274413D01*
X123989937Y-101226794D01*
X124085175Y-101226794D01*
X124180413Y-101274413D01*
X124228032Y-101322032D01*
X124275651Y-101417270D01*
X124275651Y-101750603D01*
X124799460Y-100226794D02*
X124799460Y-100798222D01*
X124799460Y-100512508D02*
X123799460Y-100512508D01*
X123942318Y-100607746D01*
X124037556Y-100702984D01*
X124085175Y-100798222D01*
X129349460Y-70617746D02*
X128873270Y-70951080D01*
X129349460Y-71189175D02*
X128349460Y-71189175D01*
X128349460Y-70808222D01*
X128397080Y-70712984D01*
X128444699Y-70665365D01*
X128539937Y-70617746D01*
X128682794Y-70617746D01*
X128778032Y-70665365D01*
X128825651Y-70712984D01*
X128873270Y-70808222D01*
X128873270Y-71189175D01*
X129349460Y-69665365D02*
X129349460Y-70236794D01*
X129349460Y-69951080D02*
X128349460Y-69951080D01*
X128492318Y-70046318D01*
X128587556Y-70141556D01*
X128635175Y-70236794D01*
X138069460Y-70647746D02*
X137593270Y-70981080D01*
X138069460Y-71219175D02*
X137069460Y-71219175D01*
X137069460Y-70838222D01*
X137117080Y-70742984D01*
X137164699Y-70695365D01*
X137259937Y-70647746D01*
X137402794Y-70647746D01*
X137498032Y-70695365D01*
X137545651Y-70742984D01*
X137593270Y-70838222D01*
X137593270Y-71219175D01*
X137402794Y-69790603D02*
X138069460Y-69790603D01*
X137021841Y-70028699D02*
X137736127Y-70266794D01*
X137736127Y-69647746D01*
X140969460Y-70637746D02*
X140493270Y-70971080D01*
X140969460Y-71209175D02*
X139969460Y-71209175D01*
X139969460Y-70828222D01*
X140017080Y-70732984D01*
X140064699Y-70685365D01*
X140159937Y-70637746D01*
X140302794Y-70637746D01*
X140398032Y-70685365D01*
X140445651Y-70732984D01*
X140493270Y-70828222D01*
X140493270Y-71209175D01*
X139969460Y-69732984D02*
X139969460Y-70209175D01*
X140445651Y-70256794D01*
X140398032Y-70209175D01*
X140350413Y-70113937D01*
X140350413Y-69875841D01*
X140398032Y-69780603D01*
X140445651Y-69732984D01*
X140540889Y-69685365D01*
X140778984Y-69685365D01*
X140874222Y-69732984D01*
X140921841Y-69780603D01*
X140969460Y-69875841D01*
X140969460Y-70113937D01*
X140921841Y-70209175D01*
X140874222Y-70256794D01*
X143889460Y-70627746D02*
X143413270Y-70961080D01*
X143889460Y-71199175D02*
X142889460Y-71199175D01*
X142889460Y-70818222D01*
X142937080Y-70722984D01*
X142984699Y-70675365D01*
X143079937Y-70627746D01*
X143222794Y-70627746D01*
X143318032Y-70675365D01*
X143365651Y-70722984D01*
X143413270Y-70818222D01*
X143413270Y-71199175D01*
X142889460Y-69770603D02*
X142889460Y-69961080D01*
X142937080Y-70056318D01*
X142984699Y-70103937D01*
X143127556Y-70199175D01*
X143318032Y-70246794D01*
X143698984Y-70246794D01*
X143794222Y-70199175D01*
X143841841Y-70151556D01*
X143889460Y-70056318D01*
X143889460Y-69865841D01*
X143841841Y-69770603D01*
X143794222Y-69722984D01*
X143698984Y-69675365D01*
X143460889Y-69675365D01*
X143365651Y-69722984D01*
X143318032Y-69770603D01*
X143270413Y-69865841D01*
X143270413Y-70056318D01*
X143318032Y-70151556D01*
X143365651Y-70199175D01*
X143460889Y-70246794D01*
X146799460Y-70667746D02*
X146323270Y-71001080D01*
X146799460Y-71239175D02*
X145799460Y-71239175D01*
X145799460Y-70858222D01*
X145847080Y-70762984D01*
X145894699Y-70715365D01*
X145989937Y-70667746D01*
X146132794Y-70667746D01*
X146228032Y-70715365D01*
X146275651Y-70762984D01*
X146323270Y-70858222D01*
X146323270Y-71239175D01*
X145799460Y-70334413D02*
X145799460Y-69667746D01*
X146799460Y-70096318D01*
X149689460Y-70627746D02*
X149213270Y-70961080D01*
X149689460Y-71199175D02*
X148689460Y-71199175D01*
X148689460Y-70818222D01*
X148737080Y-70722984D01*
X148784699Y-70675365D01*
X148879937Y-70627746D01*
X149022794Y-70627746D01*
X149118032Y-70675365D01*
X149165651Y-70722984D01*
X149213270Y-70818222D01*
X149213270Y-71199175D01*
X149118032Y-70056318D02*
X149070413Y-70151556D01*
X149022794Y-70199175D01*
X148927556Y-70246794D01*
X148879937Y-70246794D01*
X148784699Y-70199175D01*
X148737080Y-70151556D01*
X148689460Y-70056318D01*
X148689460Y-69865841D01*
X148737080Y-69770603D01*
X148784699Y-69722984D01*
X148879937Y-69675365D01*
X148927556Y-69675365D01*
X149022794Y-69722984D01*
X149070413Y-69770603D01*
X149118032Y-69865841D01*
X149118032Y-70056318D01*
X149165651Y-70151556D01*
X149213270Y-70199175D01*
X149308508Y-70246794D01*
X149498984Y-70246794D01*
X149594222Y-70199175D01*
X149641841Y-70151556D01*
X149689460Y-70056318D01*
X149689460Y-69865841D01*
X149641841Y-69770603D01*
X149594222Y-69722984D01*
X149498984Y-69675365D01*
X149308508Y-69675365D01*
X149213270Y-69722984D01*
X149165651Y-69770603D01*
X149118032Y-69865841D01*
X129329460Y-57157746D02*
X128853270Y-57491080D01*
X129329460Y-57729175D02*
X128329460Y-57729175D01*
X128329460Y-57348222D01*
X128377080Y-57252984D01*
X128424699Y-57205365D01*
X128519937Y-57157746D01*
X128662794Y-57157746D01*
X128758032Y-57205365D01*
X128805651Y-57252984D01*
X128853270Y-57348222D01*
X128853270Y-57729175D01*
X129329460Y-56681556D02*
X129329460Y-56491080D01*
X129281841Y-56395841D01*
X129234222Y-56348222D01*
X129091365Y-56252984D01*
X128900889Y-56205365D01*
X128519937Y-56205365D01*
X128424699Y-56252984D01*
X128377080Y-56300603D01*
X128329460Y-56395841D01*
X128329460Y-56586318D01*
X128377080Y-56681556D01*
X128424699Y-56729175D01*
X128519937Y-56776794D01*
X128758032Y-56776794D01*
X128853270Y-56729175D01*
X128900889Y-56681556D01*
X128948508Y-56586318D01*
X128948508Y-56395841D01*
X128900889Y-56300603D01*
X128853270Y-56252984D01*
X128758032Y-56205365D01*
X132269460Y-57633937D02*
X131793270Y-57967270D01*
X132269460Y-58205365D02*
X131269460Y-58205365D01*
X131269460Y-57824413D01*
X131317080Y-57729175D01*
X131364699Y-57681556D01*
X131459937Y-57633937D01*
X131602794Y-57633937D01*
X131698032Y-57681556D01*
X131745651Y-57729175D01*
X131793270Y-57824413D01*
X131793270Y-58205365D01*
X132269460Y-56681556D02*
X132269460Y-57252984D01*
X132269460Y-56967270D02*
X131269460Y-56967270D01*
X131412318Y-57062508D01*
X131507556Y-57157746D01*
X131555175Y-57252984D01*
X131269460Y-56062508D02*
X131269460Y-55967270D01*
X131317080Y-55872032D01*
X131364699Y-55824413D01*
X131459937Y-55776794D01*
X131650413Y-55729175D01*
X131888508Y-55729175D01*
X132078984Y-55776794D01*
X132174222Y-55824413D01*
X132221841Y-55872032D01*
X132269460Y-55967270D01*
X132269460Y-56062508D01*
X132221841Y-56157746D01*
X132174222Y-56205365D01*
X132078984Y-56252984D01*
X131888508Y-56300603D01*
X131650413Y-56300603D01*
X131459937Y-56252984D01*
X131364699Y-56205365D01*
X131317080Y-56157746D01*
X131269460Y-56062508D01*
X135139460Y-57633937D02*
X134663270Y-57967270D01*
X135139460Y-58205365D02*
X134139460Y-58205365D01*
X134139460Y-57824413D01*
X134187080Y-57729175D01*
X134234699Y-57681556D01*
X134329937Y-57633937D01*
X134472794Y-57633937D01*
X134568032Y-57681556D01*
X134615651Y-57729175D01*
X134663270Y-57824413D01*
X134663270Y-58205365D01*
X135139460Y-56681556D02*
X135139460Y-57252984D01*
X135139460Y-56967270D02*
X134139460Y-56967270D01*
X134282318Y-57062508D01*
X134377556Y-57157746D01*
X134425175Y-57252984D01*
X135139460Y-55729175D02*
X135139460Y-56300603D01*
X135139460Y-56014889D02*
X134139460Y-56014889D01*
X134282318Y-56110127D01*
X134377556Y-56205365D01*
X134425175Y-56300603D01*
X146869460Y-57583937D02*
X146393270Y-57917270D01*
X146869460Y-58155365D02*
X145869460Y-58155365D01*
X145869460Y-57774413D01*
X145917080Y-57679175D01*
X145964699Y-57631556D01*
X146059937Y-57583937D01*
X146202794Y-57583937D01*
X146298032Y-57631556D01*
X146345651Y-57679175D01*
X146393270Y-57774413D01*
X146393270Y-58155365D01*
X146869460Y-56631556D02*
X146869460Y-57202984D01*
X146869460Y-56917270D02*
X145869460Y-56917270D01*
X146012318Y-57012508D01*
X146107556Y-57107746D01*
X146155175Y-57202984D01*
X145869460Y-55726794D02*
X145869460Y-56202984D01*
X146345651Y-56250603D01*
X146298032Y-56202984D01*
X146250413Y-56107746D01*
X146250413Y-55869651D01*
X146298032Y-55774413D01*
X146345651Y-55726794D01*
X146440889Y-55679175D01*
X146678984Y-55679175D01*
X146774222Y-55726794D01*
X146821841Y-55774413D01*
X146869460Y-55869651D01*
X146869460Y-56107746D01*
X146821841Y-56202984D01*
X146774222Y-56250603D01*
X149709460Y-57583937D02*
X149233270Y-57917270D01*
X149709460Y-58155365D02*
X148709460Y-58155365D01*
X148709460Y-57774413D01*
X148757080Y-57679175D01*
X148804699Y-57631556D01*
X148899937Y-57583937D01*
X149042794Y-57583937D01*
X149138032Y-57631556D01*
X149185651Y-57679175D01*
X149233270Y-57774413D01*
X149233270Y-58155365D01*
X149709460Y-56631556D02*
X149709460Y-57202984D01*
X149709460Y-56917270D02*
X148709460Y-56917270D01*
X148852318Y-57012508D01*
X148947556Y-57107746D01*
X148995175Y-57202984D01*
X148709460Y-55774413D02*
X148709460Y-55964889D01*
X148757080Y-56060127D01*
X148804699Y-56107746D01*
X148947556Y-56202984D01*
X149138032Y-56250603D01*
X149518984Y-56250603D01*
X149614222Y-56202984D01*
X149661841Y-56155365D01*
X149709460Y-56060127D01*
X149709460Y-55869651D01*
X149661841Y-55774413D01*
X149614222Y-55726794D01*
X149518984Y-55679175D01*
X149280889Y-55679175D01*
X149185651Y-55726794D01*
X149138032Y-55774413D01*
X149090413Y-55869651D01*
X149090413Y-56060127D01*
X149138032Y-56155365D01*
X149185651Y-56202984D01*
X149280889Y-56250603D01*
X152709460Y-57603937D02*
X152233270Y-57937270D01*
X152709460Y-58175365D02*
X151709460Y-58175365D01*
X151709460Y-57794413D01*
X151757080Y-57699175D01*
X151804699Y-57651556D01*
X151899937Y-57603937D01*
X152042794Y-57603937D01*
X152138032Y-57651556D01*
X152185651Y-57699175D01*
X152233270Y-57794413D01*
X152233270Y-58175365D01*
X152709460Y-56651556D02*
X152709460Y-57222984D01*
X152709460Y-56937270D02*
X151709460Y-56937270D01*
X151852318Y-57032508D01*
X151947556Y-57127746D01*
X151995175Y-57222984D01*
X151709460Y-56318222D02*
X151709460Y-55651556D01*
X152709460Y-56080127D01*
X123326603Y-79413460D02*
X122993270Y-78937270D01*
X122755175Y-79413460D02*
X122755175Y-78413460D01*
X123136127Y-78413460D01*
X123231365Y-78461080D01*
X123278984Y-78508699D01*
X123326603Y-78603937D01*
X123326603Y-78746794D01*
X123278984Y-78842032D01*
X123231365Y-78889651D01*
X123136127Y-78937270D01*
X122755175Y-78937270D01*
X123755175Y-79413460D02*
X123755175Y-78413460D01*
X124326603Y-79413460D01*
X124326603Y-78413460D01*
X125326603Y-79413460D02*
X124755175Y-79413460D01*
X125040889Y-79413460D02*
X125040889Y-78413460D01*
X124945651Y-78556318D01*
X124850413Y-78651556D01*
X124755175Y-78699175D01*
X123296603Y-87683460D02*
X122963270Y-87207270D01*
X122725175Y-87683460D02*
X122725175Y-86683460D01*
X123106127Y-86683460D01*
X123201365Y-86731080D01*
X123248984Y-86778699D01*
X123296603Y-86873937D01*
X123296603Y-87016794D01*
X123248984Y-87112032D01*
X123201365Y-87159651D01*
X123106127Y-87207270D01*
X122725175Y-87207270D01*
X123725175Y-87683460D02*
X123725175Y-86683460D01*
X124296603Y-87683460D01*
X124296603Y-86683460D01*
X124677556Y-86683460D02*
X125296603Y-86683460D01*
X124963270Y-87064413D01*
X125106127Y-87064413D01*
X125201365Y-87112032D01*
X125248984Y-87159651D01*
X125296603Y-87254889D01*
X125296603Y-87492984D01*
X125248984Y-87588222D01*
X125201365Y-87635841D01*
X125106127Y-87683460D01*
X124820413Y-87683460D01*
X124725175Y-87635841D01*
X124677556Y-87588222D01*
X165015651Y-94597746D02*
X165015651Y-94264413D01*
X165539460Y-94121556D02*
X165539460Y-94597746D01*
X164539460Y-94597746D01*
X164539460Y-94121556D01*
X164634699Y-93740603D02*
X164587080Y-93692984D01*
X164539460Y-93597746D01*
X164539460Y-93359651D01*
X164587080Y-93264413D01*
X164634699Y-93216794D01*
X164729937Y-93169175D01*
X164825175Y-93169175D01*
X164968032Y-93216794D01*
X165539460Y-93788222D01*
X165539460Y-93169175D01*
X164539460Y-92312032D02*
X164539460Y-92502508D01*
X164587080Y-92597746D01*
X164634699Y-92645365D01*
X164777556Y-92740603D01*
X164968032Y-92788222D01*
X165348984Y-92788222D01*
X165444222Y-92740603D01*
X165491841Y-92692984D01*
X165539460Y-92597746D01*
X165539460Y-92407270D01*
X165491841Y-92312032D01*
X165444222Y-92264413D01*
X165348984Y-92216794D01*
X165110889Y-92216794D01*
X165015651Y-92264413D01*
X164968032Y-92312032D01*
X164920413Y-92407270D01*
X164920413Y-92597746D01*
X164968032Y-92692984D01*
X165015651Y-92740603D01*
X165110889Y-92788222D01*
X101175651Y-68707746D02*
X101175651Y-68374413D01*
X101699460Y-68231556D02*
X101699460Y-68707746D01*
X100699460Y-68707746D01*
X100699460Y-68231556D01*
X100794699Y-67850603D02*
X100747080Y-67802984D01*
X100699460Y-67707746D01*
X100699460Y-67469651D01*
X100747080Y-67374413D01*
X100794699Y-67326794D01*
X100889937Y-67279175D01*
X100985175Y-67279175D01*
X101128032Y-67326794D01*
X101699460Y-67898222D01*
X101699460Y-67279175D01*
X100699460Y-66945841D02*
X100699460Y-66279175D01*
X101699460Y-66707746D01*
X97995651Y-58157746D02*
X97995651Y-57824413D01*
X98519460Y-57681556D02*
X98519460Y-58157746D01*
X97519460Y-58157746D01*
X97519460Y-57681556D01*
X97614699Y-57300603D02*
X97567080Y-57252984D01*
X97519460Y-57157746D01*
X97519460Y-56919651D01*
X97567080Y-56824413D01*
X97614699Y-56776794D01*
X97709937Y-56729175D01*
X97805175Y-56729175D01*
X97948032Y-56776794D01*
X98519460Y-57348222D01*
X98519460Y-56729175D01*
X97948032Y-56157746D02*
X97900413Y-56252984D01*
X97852794Y-56300603D01*
X97757556Y-56348222D01*
X97709937Y-56348222D01*
X97614699Y-56300603D01*
X97567080Y-56252984D01*
X97519460Y-56157746D01*
X97519460Y-55967270D01*
X97567080Y-55872032D01*
X97614699Y-55824413D01*
X97709937Y-55776794D01*
X97757556Y-55776794D01*
X97852794Y-55824413D01*
X97900413Y-55872032D01*
X97948032Y-55967270D01*
X97948032Y-56157746D01*
X97995651Y-56252984D01*
X98043270Y-56300603D01*
X98138508Y-56348222D01*
X98328984Y-56348222D01*
X98424222Y-56300603D01*
X98471841Y-56252984D01*
X98519460Y-56157746D01*
X98519460Y-55967270D01*
X98471841Y-55872032D01*
X98424222Y-55824413D01*
X98328984Y-55776794D01*
X98138508Y-55776794D01*
X98043270Y-55824413D01*
X97995651Y-55872032D01*
X97948032Y-55967270D01*
X100073746Y-86593460D02*
X100073746Y-87307746D01*
X100026127Y-87450603D01*
X99930889Y-87545841D01*
X99788032Y-87593460D01*
X99692794Y-87593460D01*
X100549937Y-87593460D02*
X100549937Y-86593460D01*
X100930889Y-86593460D01*
X101026127Y-86641080D01*
X101073746Y-86688699D01*
X101121365Y-86783937D01*
X101121365Y-86926794D01*
X101073746Y-87022032D01*
X101026127Y-87069651D01*
X100930889Y-87117270D01*
X100549937Y-87117270D01*
X101502318Y-86688699D02*
X101549937Y-86641080D01*
X101645175Y-86593460D01*
X101883270Y-86593460D01*
X101978508Y-86641080D01*
X102026127Y-86688699D01*
X102073746Y-86783937D01*
X102073746Y-86879175D01*
X102026127Y-87022032D01*
X101454699Y-87593460D01*
X102073746Y-87593460D01*
X159904222Y-94083937D02*
X159951841Y-94131556D01*
X159999460Y-94274413D01*
X159999460Y-94369651D01*
X159951841Y-94512508D01*
X159856603Y-94607746D01*
X159761365Y-94655365D01*
X159570889Y-94702984D01*
X159428032Y-94702984D01*
X159237556Y-94655365D01*
X159142318Y-94607746D01*
X159047080Y-94512508D01*
X158999460Y-94369651D01*
X158999460Y-94274413D01*
X159047080Y-94131556D01*
X159094699Y-94083937D01*
X159999460Y-93131556D02*
X159999460Y-93702984D01*
X159999460Y-93417270D02*
X158999460Y-93417270D01*
X159142318Y-93512508D01*
X159237556Y-93607746D01*
X159285175Y-93702984D01*
X159428032Y-92560127D02*
X159380413Y-92655365D01*
X159332794Y-92702984D01*
X159237556Y-92750603D01*
X159189937Y-92750603D01*
X159094699Y-92702984D01*
X159047080Y-92655365D01*
X158999460Y-92560127D01*
X158999460Y-92369651D01*
X159047080Y-92274413D01*
X159094699Y-92226794D01*
X159189937Y-92179175D01*
X159237556Y-92179175D01*
X159332794Y-92226794D01*
X159380413Y-92274413D01*
X159428032Y-92369651D01*
X159428032Y-92560127D01*
X159475651Y-92655365D01*
X159523270Y-92702984D01*
X159618508Y-92750603D01*
X159808984Y-92750603D01*
X159904222Y-92702984D01*
X159951841Y-92655365D01*
X159999460Y-92560127D01*
X159999460Y-92369651D01*
X159951841Y-92274413D01*
X159904222Y-92226794D01*
X159808984Y-92179175D01*
X159618508Y-92179175D01*
X159523270Y-92226794D01*
X159475651Y-92274413D01*
X159428032Y-92369651D01*
%LPC*%
D15*
X119177080Y-93801080D03*
D16*
X119177080Y-113801080D03*
G36*
G01*
X166817080Y-104801080D02*
X168017080Y-104801080D01*
G75*
G02*
X168267080Y-105051080I0J-250000D01*
G01*
X168267080Y-106251080D01*
G75*
G02*
X168017080Y-106501080I-250000J0D01*
G01*
X166817080Y-106501080D01*
G75*
G02*
X166567080Y-106251080I0J250000D01*
G01*
X166567080Y-105051080D01*
G75*
G02*
X166817080Y-104801080I250000J0D01*
G01*
G37*
D17*
X169957080Y-105651080D03*
X172497080Y-105651080D03*
X175037080Y-105651080D03*
X177577080Y-105651080D03*
X180117080Y-105651080D03*
X182657080Y-105651080D03*
X185197080Y-105651080D03*
X187737080Y-105651080D03*
X190277080Y-105651080D03*
X192817080Y-105651080D03*
X195357080Y-105651080D03*
X197897080Y-105651080D03*
X200437080Y-105651080D03*
X202977080Y-105651080D03*
X205517080Y-105651080D03*
X208057080Y-105651080D03*
X210597080Y-105651080D03*
X213137080Y-105651080D03*
X215677080Y-105651080D03*
X167417080Y-108191080D03*
X169957080Y-108191080D03*
X172497080Y-108191080D03*
X175037080Y-108191080D03*
X177577080Y-108191080D03*
X180117080Y-108191080D03*
X182657080Y-108191080D03*
X185197080Y-108191080D03*
X187737080Y-108191080D03*
X190277080Y-108191080D03*
X192817080Y-108191080D03*
X195357080Y-108191080D03*
X197897080Y-108191080D03*
X200437080Y-108191080D03*
X202977080Y-108191080D03*
X205517080Y-108191080D03*
X208057080Y-108191080D03*
X210597080Y-108191080D03*
X213137080Y-108191080D03*
X215677080Y-108191080D03*
D18*
X270347080Y-50901080D03*
X26347080Y-114901080D03*
X270347080Y-114901080D03*
X270347080Y-50901080D03*
D19*
X37851080Y-111831080D03*
X37851080Y-109291080D03*
X40391080Y-111831080D03*
X40391080Y-109291080D03*
X42931080Y-111831080D03*
X42931080Y-109291080D03*
X45471080Y-111831080D03*
X45471080Y-109291080D03*
X48011080Y-111831080D03*
X48011080Y-109291080D03*
X50551080Y-111831080D03*
X50551080Y-109291080D03*
X53091080Y-111831080D03*
X53091080Y-109291080D03*
X55631080Y-111831080D03*
X55631080Y-109291080D03*
X58171080Y-111831080D03*
X58171080Y-109291080D03*
X60711080Y-111831080D03*
X60711080Y-109291080D03*
X63251080Y-111831080D03*
X63251080Y-109291080D03*
X65791080Y-111831080D03*
X65791080Y-109291080D03*
X68331080Y-111831080D03*
X68331080Y-109291080D03*
X70871080Y-111831080D03*
X70871080Y-109291080D03*
X73411080Y-111831080D03*
X73411080Y-109291080D03*
X75951080Y-111831080D03*
X75951080Y-109291080D03*
X78491080Y-111831080D03*
X78491080Y-109291080D03*
X81031080Y-111831080D03*
X81031080Y-109291080D03*
X83571080Y-111831080D03*
X83571080Y-109291080D03*
X86111080Y-111831080D03*
X86111080Y-109291080D03*
X88651080Y-111831080D03*
X88651080Y-109291080D03*
X91191080Y-111831080D03*
X91191080Y-109291080D03*
X93731080Y-111831080D03*
X93731080Y-109291080D03*
X96271080Y-111831080D03*
X96271080Y-109291080D03*
X98811080Y-111831080D03*
X98811080Y-109291080D03*
X101351080Y-111831080D03*
X101351080Y-109291080D03*
D20*
X239397080Y-63561080D03*
D21*
X239397080Y-71061080D03*
D20*
X239397080Y-73871080D03*
D21*
X239397080Y-81371080D03*
X239397080Y-60751080D03*
D20*
X239397080Y-53251080D03*
D21*
X239397080Y-91681080D03*
D20*
X239397080Y-84181080D03*
X239397080Y-94491080D03*
D21*
X239397080Y-101991080D03*
X239397080Y-112301080D03*
D20*
X239397080Y-104801080D03*
X210647080Y-53251080D03*
D21*
X210647080Y-60751080D03*
X210647080Y-71551080D03*
D20*
X210647080Y-64051080D03*
D21*
X210647080Y-82051080D03*
D20*
X210647080Y-74551080D03*
D22*
X31097080Y-60801080D03*
D20*
X46337080Y-53181080D03*
X33637080Y-60801080D03*
X43797080Y-53181080D03*
X36177080Y-60801080D03*
X41257080Y-53181080D03*
X38717080Y-60801080D03*
X38717080Y-53181080D03*
X41257080Y-60801080D03*
X36177080Y-53181080D03*
X43797080Y-60801080D03*
X33637080Y-53181080D03*
X46337080Y-60801080D03*
X31097080Y-53181080D03*
X188447080Y-53181080D03*
X206227080Y-60801080D03*
X190987080Y-53181080D03*
X203687080Y-60801080D03*
X193527080Y-53181080D03*
X201147080Y-60801080D03*
X196067080Y-53181080D03*
X198607080Y-60801080D03*
X198607080Y-53181080D03*
X196067080Y-60801080D03*
X201147080Y-53181080D03*
X193527080Y-60801080D03*
X203687080Y-53181080D03*
X190987080Y-60801080D03*
X206227080Y-53181080D03*
D22*
X188447080Y-60801080D03*
X100397080Y-82101080D03*
D20*
X118177080Y-74481080D03*
X102937080Y-82101080D03*
X115637080Y-74481080D03*
X105477080Y-82101080D03*
X113097080Y-74481080D03*
X108017080Y-82101080D03*
X110557080Y-74481080D03*
X110557080Y-82101080D03*
X108017080Y-74481080D03*
X113097080Y-82101080D03*
X105477080Y-74481080D03*
X115637080Y-82101080D03*
X102937080Y-74481080D03*
X118177080Y-82101080D03*
X100397080Y-74481080D03*
X54347080Y-63806080D03*
X69587080Y-71426080D03*
X56887080Y-63806080D03*
X67047080Y-71426080D03*
X59427080Y-63806080D03*
X64507080Y-71426080D03*
X61967080Y-63806080D03*
X61967080Y-71426080D03*
X64507080Y-63806080D03*
X59427080Y-71426080D03*
X67047080Y-63806080D03*
X56887080Y-71426080D03*
X69587080Y-63806080D03*
D22*
X54347080Y-71426080D03*
D20*
X77097080Y-74481080D03*
X92337080Y-82101080D03*
X79637080Y-74481080D03*
X89797080Y-82101080D03*
X82177080Y-74481080D03*
X87257080Y-82101080D03*
X84717080Y-74481080D03*
X84717080Y-82101080D03*
X87257080Y-74481080D03*
X82177080Y-82101080D03*
X89797080Y-74481080D03*
X79637080Y-82101080D03*
X92337080Y-74481080D03*
D22*
X77097080Y-82101080D03*
X157147080Y-71426080D03*
D20*
X180007080Y-63806080D03*
X159687080Y-71426080D03*
X177467080Y-63806080D03*
X162227080Y-71426080D03*
X174927080Y-63806080D03*
X164767080Y-71426080D03*
X172387080Y-63806080D03*
X167307080Y-71426080D03*
X169847080Y-63806080D03*
X169847080Y-71426080D03*
X167307080Y-63806080D03*
X172387080Y-71426080D03*
X164767080Y-63806080D03*
X174927080Y-71426080D03*
X162227080Y-63806080D03*
X177467080Y-71426080D03*
X159687080Y-63806080D03*
X180007080Y-71426080D03*
X157147080Y-63806080D03*
D22*
X188447080Y-71451080D03*
D20*
X206227080Y-63831080D03*
X190987080Y-71451080D03*
X203687080Y-63831080D03*
X193527080Y-71451080D03*
X201147080Y-63831080D03*
X196067080Y-71451080D03*
X198607080Y-63831080D03*
X198607080Y-71451080D03*
X196067080Y-63831080D03*
X201147080Y-71451080D03*
X193527080Y-63831080D03*
X203687080Y-71451080D03*
X190987080Y-63831080D03*
X206227080Y-71451080D03*
X188447080Y-63831080D03*
D23*
X243397080Y-60801080D03*
D16*
X263717080Y-53181080D03*
X245937080Y-60801080D03*
X261177080Y-53181080D03*
X248477080Y-60801080D03*
X258637080Y-53181080D03*
X251017080Y-60801080D03*
X256097080Y-53181080D03*
X253557080Y-60801080D03*
X253557080Y-53181080D03*
X256097080Y-60801080D03*
X251017080Y-53181080D03*
X258637080Y-60801080D03*
X248477080Y-53181080D03*
X261177080Y-60801080D03*
X245937080Y-53181080D03*
X263717080Y-60801080D03*
X243397080Y-53181080D03*
X243397080Y-63481080D03*
X263717080Y-71101080D03*
X245937080Y-63481080D03*
X261177080Y-71101080D03*
X248477080Y-63481080D03*
X258637080Y-71101080D03*
X251017080Y-63481080D03*
X256097080Y-71101080D03*
X253557080Y-63481080D03*
X253557080Y-71101080D03*
X256097080Y-63481080D03*
X251017080Y-71101080D03*
X258637080Y-63481080D03*
X248477080Y-71101080D03*
X261177080Y-63481080D03*
X245937080Y-71101080D03*
X263717080Y-63481080D03*
D23*
X243397080Y-71101080D03*
X243397080Y-81401080D03*
D16*
X263717080Y-73781080D03*
X245937080Y-81401080D03*
X261177080Y-73781080D03*
X248477080Y-81401080D03*
X258637080Y-73781080D03*
X251017080Y-81401080D03*
X256097080Y-73781080D03*
X253557080Y-81401080D03*
X253557080Y-73781080D03*
X256097080Y-81401080D03*
X251017080Y-73781080D03*
X258637080Y-81401080D03*
X248477080Y-73781080D03*
X261177080Y-81401080D03*
X245937080Y-73781080D03*
X263717080Y-81401080D03*
X243397080Y-73781080D03*
X243397080Y-84081080D03*
X263717080Y-91701080D03*
X245937080Y-84081080D03*
X261177080Y-91701080D03*
X248477080Y-84081080D03*
X258637080Y-91701080D03*
X251017080Y-84081080D03*
X256097080Y-91701080D03*
X253557080Y-84081080D03*
X253557080Y-91701080D03*
X256097080Y-84081080D03*
X251017080Y-91701080D03*
X258637080Y-84081080D03*
X248477080Y-91701080D03*
X261177080Y-84081080D03*
X245937080Y-91701080D03*
X263717080Y-84081080D03*
D23*
X243397080Y-91701080D03*
X243397080Y-102001080D03*
D16*
X263717080Y-94381080D03*
X245937080Y-102001080D03*
X261177080Y-94381080D03*
X248477080Y-102001080D03*
X258637080Y-94381080D03*
X251017080Y-102001080D03*
X256097080Y-94381080D03*
X253557080Y-102001080D03*
X253557080Y-94381080D03*
X256097080Y-102001080D03*
X251017080Y-94381080D03*
X258637080Y-102001080D03*
X248477080Y-94381080D03*
X261177080Y-102001080D03*
X245937080Y-94381080D03*
X263717080Y-102001080D03*
X243397080Y-94381080D03*
D23*
X243397080Y-112301080D03*
D16*
X263717080Y-104681080D03*
X245937080Y-112301080D03*
X261177080Y-104681080D03*
X248477080Y-112301080D03*
X258637080Y-104681080D03*
X251017080Y-112301080D03*
X256097080Y-104681080D03*
X253557080Y-112301080D03*
X253557080Y-104681080D03*
X256097080Y-112301080D03*
X251017080Y-104681080D03*
X258637080Y-112301080D03*
X248477080Y-104681080D03*
X261177080Y-112301080D03*
X245937080Y-104681080D03*
X263717080Y-112301080D03*
X243397080Y-104681080D03*
X214647080Y-53181080D03*
X234967080Y-60801080D03*
X217187080Y-53181080D03*
X232427080Y-60801080D03*
X219727080Y-53181080D03*
X229887080Y-60801080D03*
X222267080Y-53181080D03*
X227347080Y-60801080D03*
X224807080Y-53181080D03*
X224807080Y-60801080D03*
X227347080Y-53181080D03*
X222267080Y-60801080D03*
X229887080Y-53181080D03*
X219727080Y-60801080D03*
X232427080Y-53181080D03*
X217187080Y-60801080D03*
X234967080Y-53181080D03*
D23*
X214647080Y-60801080D03*
D16*
X214647080Y-63681080D03*
X234967080Y-71301080D03*
X217187080Y-63681080D03*
X232427080Y-71301080D03*
X219727080Y-63681080D03*
X229887080Y-71301080D03*
X222267080Y-63681080D03*
X227347080Y-71301080D03*
X224807080Y-63681080D03*
X224807080Y-71301080D03*
X227347080Y-63681080D03*
X222267080Y-71301080D03*
X229887080Y-63681080D03*
X219727080Y-71301080D03*
X232427080Y-63681080D03*
X217187080Y-71301080D03*
X234967080Y-63681080D03*
D23*
X214647080Y-71301080D03*
X214647080Y-81801080D03*
D16*
X234967080Y-74181080D03*
X217187080Y-81801080D03*
X232427080Y-74181080D03*
X219727080Y-81801080D03*
X229887080Y-74181080D03*
X222267080Y-81801080D03*
X227347080Y-74181080D03*
X224807080Y-81801080D03*
X224807080Y-74181080D03*
X227347080Y-81801080D03*
X222267080Y-74181080D03*
X229887080Y-81801080D03*
X219727080Y-74181080D03*
X232427080Y-81801080D03*
X217187080Y-74181080D03*
X234967080Y-81801080D03*
X214647080Y-74181080D03*
D24*
X93837080Y-87621080D03*
D25*
X93837080Y-90161080D03*
D20*
X131803330Y-65391080D03*
D21*
X131803330Y-75551080D03*
X134709580Y-75551080D03*
D20*
X134709580Y-65391080D03*
D21*
X137615830Y-62081080D03*
D20*
X137615830Y-51921080D03*
X140522080Y-51921080D03*
D21*
X140522080Y-62081080D03*
X143428330Y-62081080D03*
D20*
X143428330Y-51921080D03*
D23*
X128647080Y-83076080D03*
D16*
X131187080Y-83076080D03*
X133727080Y-83076080D03*
X136267080Y-83076080D03*
X138807080Y-83076080D03*
X141347080Y-83076080D03*
X143887080Y-83076080D03*
X146427080Y-83076080D03*
X148967080Y-83076080D03*
X151507080Y-83076080D03*
D22*
X31147080Y-71426080D03*
D20*
X46387080Y-63806080D03*
X33687080Y-71426080D03*
X43847080Y-63806080D03*
X36227080Y-71426080D03*
X41307080Y-63806080D03*
X38767080Y-71426080D03*
X38767080Y-63806080D03*
X41307080Y-71426080D03*
X36227080Y-63806080D03*
X43847080Y-71426080D03*
X33687080Y-63806080D03*
X46387080Y-71426080D03*
X31147080Y-63806080D03*
D21*
X113827080Y-113797080D03*
D20*
X113827080Y-103797080D03*
D21*
X128783080Y-103637080D03*
D20*
X128783080Y-113637080D03*
X184647080Y-62801080D03*
D21*
X184647080Y-72801080D03*
X96147080Y-72551080D03*
D20*
X96147080Y-62551080D03*
D21*
X50147080Y-73301080D03*
D20*
X50147080Y-63301080D03*
X73147080Y-62926080D03*
D21*
X73147080Y-72926080D03*
D20*
X152147080Y-65301080D03*
D21*
X152147080Y-75301080D03*
D20*
X31097080Y-74381080D03*
X46337080Y-82001080D03*
X33637080Y-74381080D03*
X43797080Y-82001080D03*
X36177080Y-74381080D03*
X41257080Y-82001080D03*
X38717080Y-74381080D03*
X38717080Y-82001080D03*
X41257080Y-74381080D03*
X36177080Y-82001080D03*
X43797080Y-74381080D03*
X33637080Y-82001080D03*
X46337080Y-74381080D03*
D22*
X31097080Y-82001080D03*
D20*
X157147080Y-53181080D03*
X180007080Y-60801080D03*
X159687080Y-53181080D03*
X177467080Y-60801080D03*
X162227080Y-53181080D03*
X174927080Y-60801080D03*
X164767080Y-53181080D03*
X172387080Y-60801080D03*
X167307080Y-53181080D03*
X169847080Y-60801080D03*
X169847080Y-53181080D03*
X167307080Y-60801080D03*
X172387080Y-53181080D03*
X164767080Y-60801080D03*
X174927080Y-53181080D03*
X162227080Y-60801080D03*
X177467080Y-53181080D03*
X159687080Y-60801080D03*
X180007080Y-53181080D03*
D22*
X157147080Y-60801080D03*
X157147080Y-82051080D03*
D20*
X180007080Y-74431080D03*
X159687080Y-82051080D03*
X177467080Y-74431080D03*
X162227080Y-82051080D03*
X174927080Y-74431080D03*
X164767080Y-82051080D03*
X172387080Y-74431080D03*
X167307080Y-82051080D03*
X169847080Y-74431080D03*
X169847080Y-82051080D03*
X167307080Y-74431080D03*
X172387080Y-82051080D03*
X164767080Y-74431080D03*
X174927080Y-82051080D03*
X162227080Y-74431080D03*
X177467080Y-82051080D03*
X159687080Y-74431080D03*
X180007080Y-82051080D03*
X157147080Y-74431080D03*
D22*
X54197080Y-60801080D03*
D20*
X69437080Y-53181080D03*
X56737080Y-60801080D03*
X66897080Y-53181080D03*
X59277080Y-60801080D03*
X64357080Y-53181080D03*
X61817080Y-60801080D03*
X61817080Y-53181080D03*
X64357080Y-60801080D03*
X59277080Y-53181080D03*
X66897080Y-60801080D03*
X56737080Y-53181080D03*
X69437080Y-60801080D03*
X54197080Y-53181080D03*
X76997080Y-53131080D03*
X92237080Y-60751080D03*
X79537080Y-53131080D03*
X89697080Y-60751080D03*
X82077080Y-53131080D03*
X87157080Y-60751080D03*
X84617080Y-53131080D03*
X84617080Y-60751080D03*
X87157080Y-53131080D03*
X82077080Y-60751080D03*
X89697080Y-53131080D03*
X79537080Y-60751080D03*
X92237080Y-53131080D03*
D22*
X76997080Y-60751080D03*
X77063746Y-71426080D03*
D20*
X92303746Y-63806080D03*
X79603746Y-71426080D03*
X89763746Y-63806080D03*
X82143746Y-71426080D03*
X87223746Y-63806080D03*
X84683746Y-71426080D03*
X84683746Y-63806080D03*
X87223746Y-71426080D03*
X82143746Y-63806080D03*
X89763746Y-71426080D03*
X79603746Y-63806080D03*
X92303746Y-71426080D03*
X77063746Y-63806080D03*
X54247080Y-74481080D03*
X69487080Y-82101080D03*
X56787080Y-74481080D03*
X66947080Y-82101080D03*
X59327080Y-74481080D03*
X64407080Y-82101080D03*
X61867080Y-74481080D03*
X61867080Y-82101080D03*
X64407080Y-74481080D03*
X59327080Y-82101080D03*
X66947080Y-74481080D03*
X56787080Y-82101080D03*
X69487080Y-74481080D03*
D22*
X54247080Y-82101080D03*
X188347080Y-81901080D03*
D20*
X203587080Y-74281080D03*
X190887080Y-81901080D03*
X201047080Y-74281080D03*
X193427080Y-81901080D03*
X198507080Y-74281080D03*
X195967080Y-81901080D03*
X195967080Y-74281080D03*
X198507080Y-81901080D03*
X193427080Y-74281080D03*
X201047080Y-81901080D03*
X190887080Y-74281080D03*
X203587080Y-81901080D03*
X188347080Y-74281080D03*
D26*
X124327080Y-109041080D03*
D27*
X124327080Y-93801080D03*
D21*
X128897080Y-75551080D03*
D20*
X128897080Y-65391080D03*
D21*
X137615830Y-75551080D03*
D20*
X137615830Y-65391080D03*
X140522080Y-65391080D03*
D21*
X140522080Y-75551080D03*
D20*
X143428330Y-65391080D03*
D21*
X143428330Y-75551080D03*
X146334580Y-75551080D03*
D20*
X146334580Y-65391080D03*
D21*
X149240830Y-75551080D03*
D20*
X149240830Y-65391080D03*
D21*
X128897080Y-62081080D03*
D20*
X128897080Y-51921080D03*
X131803330Y-51921080D03*
D21*
X131803330Y-62081080D03*
D20*
X134709580Y-51921080D03*
D21*
X134709580Y-62081080D03*
D20*
X146334580Y-51921080D03*
D21*
X146334580Y-62081080D03*
D20*
X149240830Y-51921080D03*
D21*
X149240830Y-62081080D03*
X152157080Y-51931080D03*
D20*
X152157080Y-62091080D03*
D16*
X151457080Y-78951080D03*
X148917080Y-78951080D03*
X146377080Y-78951080D03*
X143837080Y-78951080D03*
X141297080Y-78951080D03*
X138757080Y-78951080D03*
X136217080Y-78951080D03*
X133677080Y-78951080D03*
X131137080Y-78951080D03*
D23*
X128597080Y-78951080D03*
X128697080Y-87201080D03*
D16*
X131237080Y-87201080D03*
X133777080Y-87201080D03*
X136317080Y-87201080D03*
X138857080Y-87201080D03*
X141397080Y-87201080D03*
X143937080Y-87201080D03*
X146477080Y-87201080D03*
X149017080Y-87201080D03*
X151557080Y-87201080D03*
D23*
X167417080Y-101051080D03*
D16*
X215677080Y-85811080D03*
X169957080Y-101051080D03*
X213137080Y-85811080D03*
X172497080Y-101051080D03*
X210597080Y-85811080D03*
X175037080Y-101051080D03*
X208057080Y-85811080D03*
X177577080Y-101051080D03*
X205517080Y-85811080D03*
X180117080Y-101051080D03*
X202977080Y-85811080D03*
X182657080Y-101051080D03*
X200437080Y-85811080D03*
X185197080Y-101051080D03*
X197897080Y-85811080D03*
X187737080Y-101051080D03*
X195357080Y-85811080D03*
X190277080Y-101051080D03*
X192817080Y-85811080D03*
X192817080Y-101051080D03*
X190277080Y-85811080D03*
X195357080Y-101051080D03*
X187737080Y-85811080D03*
X197897080Y-101051080D03*
X185197080Y-85811080D03*
X200437080Y-101051080D03*
X182657080Y-85811080D03*
X202977080Y-101051080D03*
X180117080Y-85811080D03*
X205517080Y-101051080D03*
X177577080Y-85811080D03*
X208057080Y-101051080D03*
X175037080Y-85811080D03*
X210597080Y-101051080D03*
X172497080Y-85811080D03*
X213137080Y-101051080D03*
X169957080Y-85811080D03*
X215677080Y-101051080D03*
X167417080Y-85811080D03*
D22*
X100397080Y-71426080D03*
D20*
X123257080Y-63806080D03*
X102937080Y-71426080D03*
X120717080Y-63806080D03*
X105477080Y-71426080D03*
X118177080Y-63806080D03*
X108017080Y-71426080D03*
X115637080Y-63806080D03*
X110557080Y-71426080D03*
X113097080Y-63806080D03*
X113097080Y-71426080D03*
X110557080Y-63806080D03*
X115637080Y-71426080D03*
X108017080Y-63806080D03*
X118177080Y-71426080D03*
X105477080Y-63806080D03*
X120717080Y-71426080D03*
X102937080Y-63806080D03*
X123257080Y-71426080D03*
X100397080Y-63806080D03*
X100397080Y-53181080D03*
X123257080Y-60801080D03*
X102937080Y-53181080D03*
X120717080Y-60801080D03*
X105477080Y-53181080D03*
X118177080Y-60801080D03*
X108017080Y-53181080D03*
X115637080Y-60801080D03*
X110557080Y-53181080D03*
X113097080Y-60801080D03*
X113097080Y-53181080D03*
X110557080Y-60801080D03*
X115637080Y-53181080D03*
X108017080Y-60801080D03*
X118177080Y-53181080D03*
X105477080Y-60801080D03*
X120717080Y-53181080D03*
X102937080Y-60801080D03*
X123257080Y-53181080D03*
D22*
X100397080Y-60801080D03*
D24*
X96567080Y-87621080D03*
D25*
X96567080Y-90161080D03*
D21*
X162247080Y-89701080D03*
D20*
X162247080Y-97201080D03*
M02*
