G04 #@! TF.GenerationSoftware,KiCad,Pcbnew,(5.1.12)-1*
G04 #@! TF.CreationDate,2024-06-16T18:18:34+02:00*
G04 #@! TF.ProjectId,RAMbow,52414d62-6f77-42e6-9b69-6361645f7063,rev?*
G04 #@! TF.SameCoordinates,Original*
G04 #@! TF.FileFunction,Copper,L4,Bot*
G04 #@! TF.FilePolarity,Positive*
%FSLAX46Y46*%
G04 Gerber Fmt 4.6, Leading zero omitted, Abs format (unit mm)*
G04 Created by KiCad (PCBNEW (5.1.12)-1) date 2024-06-16 18:18:34*
%MOMM*%
%LPD*%
G01*
G04 APERTURE LIST*
G04 #@! TA.AperFunction,ComponentPad*
%ADD10C,1.600000*%
G04 #@! TD*
G04 #@! TA.AperFunction,ComponentPad*
%ADD11O,1.600000X1.600000*%
G04 #@! TD*
G04 #@! TA.AperFunction,ComponentPad*
%ADD12C,1.700000*%
G04 #@! TD*
G04 #@! TA.AperFunction,ComponentPad*
%ADD13C,1.524000*%
G04 #@! TD*
G04 #@! TA.AperFunction,ComponentPad*
%ADD14O,1.400000X1.400000*%
G04 #@! TD*
G04 #@! TA.AperFunction,ComponentPad*
%ADD15C,1.400000*%
G04 #@! TD*
G04 #@! TA.AperFunction,ComponentPad*
%ADD16R,1.400000X1.400000*%
G04 #@! TD*
G04 #@! TA.AperFunction,ComponentPad*
%ADD17R,1.600000X1.600000*%
G04 #@! TD*
G04 #@! TA.AperFunction,ComponentPad*
%ADD18R,1.700000X1.700000*%
G04 #@! TD*
G04 #@! TA.AperFunction,ComponentPad*
%ADD19O,1.700000X1.700000*%
G04 #@! TD*
G04 #@! TA.AperFunction,ComponentPad*
%ADD20C,2.000000*%
G04 #@! TD*
G04 #@! TA.AperFunction,ComponentPad*
%ADD21O,2.000000X2.000000*%
G04 #@! TD*
G04 #@! TA.AperFunction,ViaPad*
%ADD22C,0.800000*%
G04 #@! TD*
G04 #@! TA.AperFunction,Conductor*
%ADD23C,1.000000*%
G04 #@! TD*
G04 #@! TA.AperFunction,Conductor*
%ADD24C,0.250000*%
G04 #@! TD*
G04 APERTURE END LIST*
D10*
X119177080Y-93801080D03*
D11*
X119177080Y-113801080D03*
G04 #@! TA.AperFunction,ComponentPad*
G36*
G01*
X166817080Y-104801080D02*
X168017080Y-104801080D01*
G75*
G02*
X168267080Y-105051080I0J-250000D01*
G01*
X168267080Y-106251080D01*
G75*
G02*
X168017080Y-106501080I-250000J0D01*
G01*
X166817080Y-106501080D01*
G75*
G02*
X166567080Y-106251080I0J250000D01*
G01*
X166567080Y-105051080D01*
G75*
G02*
X166817080Y-104801080I250000J0D01*
G01*
G37*
G04 #@! TD.AperFunction*
D12*
X169957080Y-105651080D03*
X172497080Y-105651080D03*
X175037080Y-105651080D03*
X177577080Y-105651080D03*
X180117080Y-105651080D03*
X182657080Y-105651080D03*
X185197080Y-105651080D03*
X187737080Y-105651080D03*
X190277080Y-105651080D03*
X192817080Y-105651080D03*
X195357080Y-105651080D03*
X197897080Y-105651080D03*
X200437080Y-105651080D03*
X202977080Y-105651080D03*
X205517080Y-105651080D03*
X208057080Y-105651080D03*
X210597080Y-105651080D03*
X213137080Y-105651080D03*
X215677080Y-105651080D03*
X167417080Y-108191080D03*
X169957080Y-108191080D03*
X172497080Y-108191080D03*
X175037080Y-108191080D03*
X177577080Y-108191080D03*
X180117080Y-108191080D03*
X182657080Y-108191080D03*
X185197080Y-108191080D03*
X187737080Y-108191080D03*
X190277080Y-108191080D03*
X192817080Y-108191080D03*
X195357080Y-108191080D03*
X197897080Y-108191080D03*
X200437080Y-108191080D03*
X202977080Y-108191080D03*
X205517080Y-108191080D03*
X208057080Y-108191080D03*
X210597080Y-108191080D03*
X213137080Y-108191080D03*
X215677080Y-108191080D03*
D13*
X37851080Y-111831080D03*
X37851080Y-109291080D03*
X40391080Y-111831080D03*
X40391080Y-109291080D03*
X42931080Y-111831080D03*
X42931080Y-109291080D03*
X45471080Y-111831080D03*
X45471080Y-109291080D03*
X48011080Y-111831080D03*
X48011080Y-109291080D03*
X50551080Y-111831080D03*
X50551080Y-109291080D03*
X53091080Y-111831080D03*
X53091080Y-109291080D03*
X55631080Y-111831080D03*
X55631080Y-109291080D03*
X58171080Y-111831080D03*
X58171080Y-109291080D03*
X60711080Y-111831080D03*
X60711080Y-109291080D03*
X63251080Y-111831080D03*
X63251080Y-109291080D03*
X65791080Y-111831080D03*
X65791080Y-109291080D03*
X68331080Y-111831080D03*
X68331080Y-109291080D03*
X70871080Y-111831080D03*
X70871080Y-109291080D03*
X73411080Y-111831080D03*
X73411080Y-109291080D03*
X75951080Y-111831080D03*
X75951080Y-109291080D03*
X78491080Y-111831080D03*
X78491080Y-109291080D03*
X81031080Y-111831080D03*
X81031080Y-109291080D03*
X83571080Y-111831080D03*
X83571080Y-109291080D03*
X86111080Y-111831080D03*
X86111080Y-109291080D03*
X88651080Y-111831080D03*
X88651080Y-109291080D03*
X91191080Y-111831080D03*
X91191080Y-109291080D03*
X93731080Y-111831080D03*
X93731080Y-109291080D03*
X96271080Y-111831080D03*
X96271080Y-109291080D03*
X98811080Y-111831080D03*
X98811080Y-109291080D03*
X101351080Y-111831080D03*
X101351080Y-109291080D03*
D14*
X239397080Y-63561080D03*
D15*
X239397080Y-71061080D03*
D14*
X239397080Y-73871080D03*
D15*
X239397080Y-81371080D03*
X239397080Y-60751080D03*
D14*
X239397080Y-53251080D03*
D15*
X239397080Y-91681080D03*
D14*
X239397080Y-84181080D03*
X239397080Y-94491080D03*
D15*
X239397080Y-101991080D03*
X239397080Y-112301080D03*
D14*
X239397080Y-104801080D03*
X210647080Y-53251080D03*
D15*
X210647080Y-60751080D03*
X210647080Y-71551080D03*
D14*
X210647080Y-64051080D03*
D15*
X210647080Y-82051080D03*
D14*
X210647080Y-74551080D03*
D16*
X31097080Y-60801080D03*
D14*
X46337080Y-53181080D03*
X33637080Y-60801080D03*
X43797080Y-53181080D03*
X36177080Y-60801080D03*
X41257080Y-53181080D03*
X38717080Y-60801080D03*
X38717080Y-53181080D03*
X41257080Y-60801080D03*
X36177080Y-53181080D03*
X43797080Y-60801080D03*
X33637080Y-53181080D03*
X46337080Y-60801080D03*
X31097080Y-53181080D03*
X188447080Y-53181080D03*
X206227080Y-60801080D03*
X190987080Y-53181080D03*
X203687080Y-60801080D03*
X193527080Y-53181080D03*
X201147080Y-60801080D03*
X196067080Y-53181080D03*
X198607080Y-60801080D03*
X198607080Y-53181080D03*
X196067080Y-60801080D03*
X201147080Y-53181080D03*
X193527080Y-60801080D03*
X203687080Y-53181080D03*
X190987080Y-60801080D03*
X206227080Y-53181080D03*
D16*
X188447080Y-60801080D03*
X100397080Y-82101080D03*
D14*
X118177080Y-74481080D03*
X102937080Y-82101080D03*
X115637080Y-74481080D03*
X105477080Y-82101080D03*
X113097080Y-74481080D03*
X108017080Y-82101080D03*
X110557080Y-74481080D03*
X110557080Y-82101080D03*
X108017080Y-74481080D03*
X113097080Y-82101080D03*
X105477080Y-74481080D03*
X115637080Y-82101080D03*
X102937080Y-74481080D03*
X118177080Y-82101080D03*
X100397080Y-74481080D03*
X54347080Y-63806080D03*
X69587080Y-71426080D03*
X56887080Y-63806080D03*
X67047080Y-71426080D03*
X59427080Y-63806080D03*
X64507080Y-71426080D03*
X61967080Y-63806080D03*
X61967080Y-71426080D03*
X64507080Y-63806080D03*
X59427080Y-71426080D03*
X67047080Y-63806080D03*
X56887080Y-71426080D03*
X69587080Y-63806080D03*
D16*
X54347080Y-71426080D03*
D14*
X77097080Y-74481080D03*
X92337080Y-82101080D03*
X79637080Y-74481080D03*
X89797080Y-82101080D03*
X82177080Y-74481080D03*
X87257080Y-82101080D03*
X84717080Y-74481080D03*
X84717080Y-82101080D03*
X87257080Y-74481080D03*
X82177080Y-82101080D03*
X89797080Y-74481080D03*
X79637080Y-82101080D03*
X92337080Y-74481080D03*
D16*
X77097080Y-82101080D03*
X157147080Y-71426080D03*
D14*
X180007080Y-63806080D03*
X159687080Y-71426080D03*
X177467080Y-63806080D03*
X162227080Y-71426080D03*
X174927080Y-63806080D03*
X164767080Y-71426080D03*
X172387080Y-63806080D03*
X167307080Y-71426080D03*
X169847080Y-63806080D03*
X169847080Y-71426080D03*
X167307080Y-63806080D03*
X172387080Y-71426080D03*
X164767080Y-63806080D03*
X174927080Y-71426080D03*
X162227080Y-63806080D03*
X177467080Y-71426080D03*
X159687080Y-63806080D03*
X180007080Y-71426080D03*
X157147080Y-63806080D03*
D16*
X188447080Y-71451080D03*
D14*
X206227080Y-63831080D03*
X190987080Y-71451080D03*
X203687080Y-63831080D03*
X193527080Y-71451080D03*
X201147080Y-63831080D03*
X196067080Y-71451080D03*
X198607080Y-63831080D03*
X198607080Y-71451080D03*
X196067080Y-63831080D03*
X201147080Y-71451080D03*
X193527080Y-63831080D03*
X203687080Y-71451080D03*
X190987080Y-63831080D03*
X206227080Y-71451080D03*
X188447080Y-63831080D03*
D17*
X243397080Y-60801080D03*
D11*
X263717080Y-53181080D03*
X245937080Y-60801080D03*
X261177080Y-53181080D03*
X248477080Y-60801080D03*
X258637080Y-53181080D03*
X251017080Y-60801080D03*
X256097080Y-53181080D03*
X253557080Y-60801080D03*
X253557080Y-53181080D03*
X256097080Y-60801080D03*
X251017080Y-53181080D03*
X258637080Y-60801080D03*
X248477080Y-53181080D03*
X261177080Y-60801080D03*
X245937080Y-53181080D03*
X263717080Y-60801080D03*
X243397080Y-53181080D03*
X243397080Y-63481080D03*
X263717080Y-71101080D03*
X245937080Y-63481080D03*
X261177080Y-71101080D03*
X248477080Y-63481080D03*
X258637080Y-71101080D03*
X251017080Y-63481080D03*
X256097080Y-71101080D03*
X253557080Y-63481080D03*
X253557080Y-71101080D03*
X256097080Y-63481080D03*
X251017080Y-71101080D03*
X258637080Y-63481080D03*
X248477080Y-71101080D03*
X261177080Y-63481080D03*
X245937080Y-71101080D03*
X263717080Y-63481080D03*
D17*
X243397080Y-71101080D03*
X243397080Y-81401080D03*
D11*
X263717080Y-73781080D03*
X245937080Y-81401080D03*
X261177080Y-73781080D03*
X248477080Y-81401080D03*
X258637080Y-73781080D03*
X251017080Y-81401080D03*
X256097080Y-73781080D03*
X253557080Y-81401080D03*
X253557080Y-73781080D03*
X256097080Y-81401080D03*
X251017080Y-73781080D03*
X258637080Y-81401080D03*
X248477080Y-73781080D03*
X261177080Y-81401080D03*
X245937080Y-73781080D03*
X263717080Y-81401080D03*
X243397080Y-73781080D03*
X243397080Y-84081080D03*
X263717080Y-91701080D03*
X245937080Y-84081080D03*
X261177080Y-91701080D03*
X248477080Y-84081080D03*
X258637080Y-91701080D03*
X251017080Y-84081080D03*
X256097080Y-91701080D03*
X253557080Y-84081080D03*
X253557080Y-91701080D03*
X256097080Y-84081080D03*
X251017080Y-91701080D03*
X258637080Y-84081080D03*
X248477080Y-91701080D03*
X261177080Y-84081080D03*
X245937080Y-91701080D03*
X263717080Y-84081080D03*
D17*
X243397080Y-91701080D03*
X243397080Y-102001080D03*
D11*
X263717080Y-94381080D03*
X245937080Y-102001080D03*
X261177080Y-94381080D03*
X248477080Y-102001080D03*
X258637080Y-94381080D03*
X251017080Y-102001080D03*
X256097080Y-94381080D03*
X253557080Y-102001080D03*
X253557080Y-94381080D03*
X256097080Y-102001080D03*
X251017080Y-94381080D03*
X258637080Y-102001080D03*
X248477080Y-94381080D03*
X261177080Y-102001080D03*
X245937080Y-94381080D03*
X263717080Y-102001080D03*
X243397080Y-94381080D03*
D17*
X243397080Y-112301080D03*
D11*
X263717080Y-104681080D03*
X245937080Y-112301080D03*
X261177080Y-104681080D03*
X248477080Y-112301080D03*
X258637080Y-104681080D03*
X251017080Y-112301080D03*
X256097080Y-104681080D03*
X253557080Y-112301080D03*
X253557080Y-104681080D03*
X256097080Y-112301080D03*
X251017080Y-104681080D03*
X258637080Y-112301080D03*
X248477080Y-104681080D03*
X261177080Y-112301080D03*
X245937080Y-104681080D03*
X263717080Y-112301080D03*
X243397080Y-104681080D03*
X214647080Y-53181080D03*
X234967080Y-60801080D03*
X217187080Y-53181080D03*
X232427080Y-60801080D03*
X219727080Y-53181080D03*
X229887080Y-60801080D03*
X222267080Y-53181080D03*
X227347080Y-60801080D03*
X224807080Y-53181080D03*
X224807080Y-60801080D03*
X227347080Y-53181080D03*
X222267080Y-60801080D03*
X229887080Y-53181080D03*
X219727080Y-60801080D03*
X232427080Y-53181080D03*
X217187080Y-60801080D03*
X234967080Y-53181080D03*
D17*
X214647080Y-60801080D03*
D11*
X214647080Y-63681080D03*
X234967080Y-71301080D03*
X217187080Y-63681080D03*
X232427080Y-71301080D03*
X219727080Y-63681080D03*
X229887080Y-71301080D03*
X222267080Y-63681080D03*
X227347080Y-71301080D03*
X224807080Y-63681080D03*
X224807080Y-71301080D03*
X227347080Y-63681080D03*
X222267080Y-71301080D03*
X229887080Y-63681080D03*
X219727080Y-71301080D03*
X232427080Y-63681080D03*
X217187080Y-71301080D03*
X234967080Y-63681080D03*
D17*
X214647080Y-71301080D03*
X214647080Y-81801080D03*
D11*
X234967080Y-74181080D03*
X217187080Y-81801080D03*
X232427080Y-74181080D03*
X219727080Y-81801080D03*
X229887080Y-74181080D03*
X222267080Y-81801080D03*
X227347080Y-74181080D03*
X224807080Y-81801080D03*
X224807080Y-74181080D03*
X227347080Y-81801080D03*
X222267080Y-74181080D03*
X229887080Y-81801080D03*
X219727080Y-74181080D03*
X232427080Y-81801080D03*
X217187080Y-74181080D03*
X234967080Y-81801080D03*
X214647080Y-74181080D03*
D18*
X93837080Y-87621080D03*
D19*
X93837080Y-90161080D03*
D14*
X131803330Y-65391080D03*
D15*
X131803330Y-75551080D03*
X134709580Y-75551080D03*
D14*
X134709580Y-65391080D03*
D15*
X137615830Y-62081080D03*
D14*
X137615830Y-51921080D03*
X140522080Y-51921080D03*
D15*
X140522080Y-62081080D03*
X143428330Y-62081080D03*
D14*
X143428330Y-51921080D03*
D17*
X128647080Y-83076080D03*
D11*
X131187080Y-83076080D03*
X133727080Y-83076080D03*
X136267080Y-83076080D03*
X138807080Y-83076080D03*
X141347080Y-83076080D03*
X143887080Y-83076080D03*
X146427080Y-83076080D03*
X148967080Y-83076080D03*
X151507080Y-83076080D03*
D16*
X31147080Y-71426080D03*
D14*
X46387080Y-63806080D03*
X33687080Y-71426080D03*
X43847080Y-63806080D03*
X36227080Y-71426080D03*
X41307080Y-63806080D03*
X38767080Y-71426080D03*
X38767080Y-63806080D03*
X41307080Y-71426080D03*
X36227080Y-63806080D03*
X43847080Y-71426080D03*
X33687080Y-63806080D03*
X46387080Y-71426080D03*
X31147080Y-63806080D03*
D15*
X113827080Y-113797080D03*
D14*
X113827080Y-103797080D03*
D15*
X128783080Y-103637080D03*
D14*
X128783080Y-113637080D03*
X184647080Y-62801080D03*
D15*
X184647080Y-72801080D03*
X96147080Y-72551080D03*
D14*
X96147080Y-62551080D03*
D15*
X50147080Y-73301080D03*
D14*
X50147080Y-63301080D03*
X73147080Y-62926080D03*
D15*
X73147080Y-72926080D03*
D14*
X152147080Y-65301080D03*
D15*
X152147080Y-75301080D03*
D14*
X31097080Y-74381080D03*
X46337080Y-82001080D03*
X33637080Y-74381080D03*
X43797080Y-82001080D03*
X36177080Y-74381080D03*
X41257080Y-82001080D03*
X38717080Y-74381080D03*
X38717080Y-82001080D03*
X41257080Y-74381080D03*
X36177080Y-82001080D03*
X43797080Y-74381080D03*
X33637080Y-82001080D03*
X46337080Y-74381080D03*
D16*
X31097080Y-82001080D03*
D14*
X157147080Y-53181080D03*
X180007080Y-60801080D03*
X159687080Y-53181080D03*
X177467080Y-60801080D03*
X162227080Y-53181080D03*
X174927080Y-60801080D03*
X164767080Y-53181080D03*
X172387080Y-60801080D03*
X167307080Y-53181080D03*
X169847080Y-60801080D03*
X169847080Y-53181080D03*
X167307080Y-60801080D03*
X172387080Y-53181080D03*
X164767080Y-60801080D03*
X174927080Y-53181080D03*
X162227080Y-60801080D03*
X177467080Y-53181080D03*
X159687080Y-60801080D03*
X180007080Y-53181080D03*
D16*
X157147080Y-60801080D03*
X157147080Y-82051080D03*
D14*
X180007080Y-74431080D03*
X159687080Y-82051080D03*
X177467080Y-74431080D03*
X162227080Y-82051080D03*
X174927080Y-74431080D03*
X164767080Y-82051080D03*
X172387080Y-74431080D03*
X167307080Y-82051080D03*
X169847080Y-74431080D03*
X169847080Y-82051080D03*
X167307080Y-74431080D03*
X172387080Y-82051080D03*
X164767080Y-74431080D03*
X174927080Y-82051080D03*
X162227080Y-74431080D03*
X177467080Y-82051080D03*
X159687080Y-74431080D03*
X180007080Y-82051080D03*
X157147080Y-74431080D03*
D16*
X54197080Y-60801080D03*
D14*
X69437080Y-53181080D03*
X56737080Y-60801080D03*
X66897080Y-53181080D03*
X59277080Y-60801080D03*
X64357080Y-53181080D03*
X61817080Y-60801080D03*
X61817080Y-53181080D03*
X64357080Y-60801080D03*
X59277080Y-53181080D03*
X66897080Y-60801080D03*
X56737080Y-53181080D03*
X69437080Y-60801080D03*
X54197080Y-53181080D03*
X76997080Y-53131080D03*
X92237080Y-60751080D03*
X79537080Y-53131080D03*
X89697080Y-60751080D03*
X82077080Y-53131080D03*
X87157080Y-60751080D03*
X84617080Y-53131080D03*
X84617080Y-60751080D03*
X87157080Y-53131080D03*
X82077080Y-60751080D03*
X89697080Y-53131080D03*
X79537080Y-60751080D03*
X92237080Y-53131080D03*
D16*
X76997080Y-60751080D03*
X77063746Y-71426080D03*
D14*
X92303746Y-63806080D03*
X79603746Y-71426080D03*
X89763746Y-63806080D03*
X82143746Y-71426080D03*
X87223746Y-63806080D03*
X84683746Y-71426080D03*
X84683746Y-63806080D03*
X87223746Y-71426080D03*
X82143746Y-63806080D03*
X89763746Y-71426080D03*
X79603746Y-63806080D03*
X92303746Y-71426080D03*
X77063746Y-63806080D03*
X54247080Y-74481080D03*
X69487080Y-82101080D03*
X56787080Y-74481080D03*
X66947080Y-82101080D03*
X59327080Y-74481080D03*
X64407080Y-82101080D03*
X61867080Y-74481080D03*
X61867080Y-82101080D03*
X64407080Y-74481080D03*
X59327080Y-82101080D03*
X66947080Y-74481080D03*
X56787080Y-82101080D03*
X69487080Y-74481080D03*
D16*
X54247080Y-82101080D03*
X188347080Y-81901080D03*
D14*
X203587080Y-74281080D03*
X190887080Y-81901080D03*
X201047080Y-74281080D03*
X193427080Y-81901080D03*
X198507080Y-74281080D03*
X195967080Y-81901080D03*
X195967080Y-74281080D03*
X198507080Y-81901080D03*
X193427080Y-74281080D03*
X201047080Y-81901080D03*
X190887080Y-74281080D03*
X203587080Y-81901080D03*
X188347080Y-74281080D03*
D20*
X124327080Y-109041080D03*
D21*
X124327080Y-93801080D03*
D15*
X128897080Y-75551080D03*
D14*
X128897080Y-65391080D03*
D15*
X137615830Y-75551080D03*
D14*
X137615830Y-65391080D03*
X140522080Y-65391080D03*
D15*
X140522080Y-75551080D03*
D14*
X143428330Y-65391080D03*
D15*
X143428330Y-75551080D03*
X146334580Y-75551080D03*
D14*
X146334580Y-65391080D03*
D15*
X149240830Y-75551080D03*
D14*
X149240830Y-65391080D03*
D15*
X128897080Y-62081080D03*
D14*
X128897080Y-51921080D03*
X131803330Y-51921080D03*
D15*
X131803330Y-62081080D03*
D14*
X134709580Y-51921080D03*
D15*
X134709580Y-62081080D03*
D14*
X146334580Y-51921080D03*
D15*
X146334580Y-62081080D03*
D14*
X149240830Y-51921080D03*
D15*
X149240830Y-62081080D03*
X152157080Y-51931080D03*
D14*
X152157080Y-62091080D03*
D11*
X151457080Y-78951080D03*
X148917080Y-78951080D03*
X146377080Y-78951080D03*
X143837080Y-78951080D03*
X141297080Y-78951080D03*
X138757080Y-78951080D03*
X136217080Y-78951080D03*
X133677080Y-78951080D03*
X131137080Y-78951080D03*
D17*
X128597080Y-78951080D03*
X128697080Y-87201080D03*
D11*
X131237080Y-87201080D03*
X133777080Y-87201080D03*
X136317080Y-87201080D03*
X138857080Y-87201080D03*
X141397080Y-87201080D03*
X143937080Y-87201080D03*
X146477080Y-87201080D03*
X149017080Y-87201080D03*
X151557080Y-87201080D03*
D17*
X167417080Y-101051080D03*
D11*
X215677080Y-85811080D03*
X169957080Y-101051080D03*
X213137080Y-85811080D03*
X172497080Y-101051080D03*
X210597080Y-85811080D03*
X175037080Y-101051080D03*
X208057080Y-85811080D03*
X177577080Y-101051080D03*
X205517080Y-85811080D03*
X180117080Y-101051080D03*
X202977080Y-85811080D03*
X182657080Y-101051080D03*
X200437080Y-85811080D03*
X185197080Y-101051080D03*
X197897080Y-85811080D03*
X187737080Y-101051080D03*
X195357080Y-85811080D03*
X190277080Y-101051080D03*
X192817080Y-85811080D03*
X192817080Y-101051080D03*
X190277080Y-85811080D03*
X195357080Y-101051080D03*
X187737080Y-85811080D03*
X197897080Y-101051080D03*
X185197080Y-85811080D03*
X200437080Y-101051080D03*
X182657080Y-85811080D03*
X202977080Y-101051080D03*
X180117080Y-85811080D03*
X205517080Y-101051080D03*
X177577080Y-85811080D03*
X208057080Y-101051080D03*
X175037080Y-85811080D03*
X210597080Y-101051080D03*
X172497080Y-85811080D03*
X213137080Y-101051080D03*
X169957080Y-85811080D03*
X215677080Y-101051080D03*
X167417080Y-85811080D03*
D16*
X100397080Y-71426080D03*
D14*
X123257080Y-63806080D03*
X102937080Y-71426080D03*
X120717080Y-63806080D03*
X105477080Y-71426080D03*
X118177080Y-63806080D03*
X108017080Y-71426080D03*
X115637080Y-63806080D03*
X110557080Y-71426080D03*
X113097080Y-63806080D03*
X113097080Y-71426080D03*
X110557080Y-63806080D03*
X115637080Y-71426080D03*
X108017080Y-63806080D03*
X118177080Y-71426080D03*
X105477080Y-63806080D03*
X120717080Y-71426080D03*
X102937080Y-63806080D03*
X123257080Y-71426080D03*
X100397080Y-63806080D03*
X100397080Y-53181080D03*
X123257080Y-60801080D03*
X102937080Y-53181080D03*
X120717080Y-60801080D03*
X105477080Y-53181080D03*
X118177080Y-60801080D03*
X108017080Y-53181080D03*
X115637080Y-60801080D03*
X110557080Y-53181080D03*
X113097080Y-60801080D03*
X113097080Y-53181080D03*
X110557080Y-60801080D03*
X115637080Y-53181080D03*
X108017080Y-60801080D03*
X118177080Y-53181080D03*
X105477080Y-60801080D03*
X120717080Y-53181080D03*
X102937080Y-60801080D03*
X123257080Y-53181080D03*
D16*
X100397080Y-60801080D03*
D18*
X96567080Y-87621080D03*
D19*
X96567080Y-90161080D03*
D15*
X162247080Y-89701080D03*
D14*
X162247080Y-97201080D03*
D22*
X37851080Y-106177080D03*
X40391080Y-106177080D03*
X212747080Y-80051080D03*
X148427080Y-95031080D03*
X73967080Y-93881080D03*
X228647080Y-55726070D03*
X149537080Y-57421080D03*
X236697080Y-112451080D03*
X231917080Y-57576080D03*
X133197080Y-49076090D03*
X231147080Y-56851080D03*
X150607080Y-57471080D03*
X131697080Y-49601080D03*
X234797080Y-90351080D03*
X137637082Y-91881080D03*
X235697080Y-91321080D03*
X140257080Y-92571080D03*
X224567080Y-88481080D03*
X147697080Y-91901078D03*
X219747080Y-58826070D03*
X52817080Y-76421080D03*
X79357080Y-76471080D03*
X240347080Y-78101080D03*
X168667082Y-88381080D03*
X143797080Y-89876070D03*
X73067080Y-88891080D03*
X110597080Y-69001080D03*
X120717076Y-68401084D03*
X113147080Y-68101080D03*
X195047080Y-67251080D03*
X73157080Y-104331080D03*
X64797080Y-99871080D03*
X54097080Y-100731080D03*
X54217080Y-87741080D03*
X75737080Y-89641078D03*
X173197080Y-87931080D03*
X211847080Y-79226090D03*
X147707080Y-94221080D03*
X74877080Y-92006070D03*
X141397080Y-93671080D03*
X97477080Y-63951080D03*
X88197080Y-93401080D03*
X195297080Y-91901080D03*
X131047080Y-102701080D03*
X59297080Y-86251080D03*
X57747080Y-107271080D03*
X66787080Y-66681080D03*
X31067080Y-66841080D03*
X86487080Y-96821080D03*
X87237080Y-83701080D03*
X96267080Y-75701080D03*
X95747080Y-83731080D03*
X91087080Y-99681080D03*
X87397080Y-107891080D03*
X87487080Y-88491080D03*
X39947080Y-84941080D03*
X240347080Y-79151080D03*
X171367080Y-88251080D03*
X145727080Y-92961080D03*
X75857080Y-93151080D03*
X139117080Y-92871080D03*
X88537080Y-92211080D03*
X96197080Y-64282759D03*
X155197080Y-86201080D03*
X154917078Y-89641080D03*
X124007080Y-51431080D03*
X80907080Y-76461080D03*
X156547080Y-85876080D03*
X154884740Y-82488740D03*
X126197080Y-62151080D03*
X144897080Y-52976080D03*
X142697080Y-89326080D03*
X115677082Y-86521080D03*
X116477080Y-106326080D03*
X101457080Y-106861080D03*
X79437080Y-106811080D03*
X113157080Y-77926080D03*
X47217082Y-78071078D03*
X117537080Y-103671080D03*
X101527080Y-105711080D03*
X79777080Y-105651078D03*
X110507080Y-79921080D03*
X50147080Y-78131080D03*
X139047080Y-53451080D03*
X117747080Y-77901080D03*
X141947080Y-52901080D03*
X108097080Y-78401080D03*
X105467080Y-79781080D03*
X52267080Y-78871080D03*
X103077080Y-110421080D03*
X53257080Y-79831080D03*
X160997080Y-65001080D03*
X146334580Y-68713580D03*
X108947080Y-68951080D03*
X154747080Y-62451080D03*
X154817080Y-54661080D03*
X64617080Y-65651080D03*
X49977080Y-55781080D03*
X194067080Y-114931080D03*
X60657080Y-68001080D03*
X192247080Y-66501080D03*
X154897080Y-76151080D03*
X176147080Y-66351080D03*
X154897080Y-66901074D03*
X126377080Y-79521080D03*
X166967080Y-56621080D03*
X217027080Y-113531080D03*
X49177080Y-57631080D03*
X218247080Y-114551080D03*
X48277080Y-56801080D03*
X172397080Y-66801080D03*
X136217080Y-67901080D03*
X241747080Y-76401080D03*
X136997080Y-92806070D03*
X88467080Y-90641080D03*
X94897080Y-64181080D03*
X240947080Y-75551080D03*
X88529539Y-88798411D03*
X77187080Y-105931080D03*
X40157080Y-98461080D03*
X187647080Y-92001080D03*
X107647080Y-102051080D03*
X107597080Y-84551080D03*
X153847080Y-60801080D03*
X146747080Y-56776080D03*
X37547080Y-56651080D03*
X156197080Y-89951080D03*
X134234420Y-90738420D03*
X143617080Y-102021080D03*
X185097080Y-91201080D03*
X105747080Y-102751080D03*
X105797080Y-85351080D03*
X180047080Y-48976080D03*
X75157080Y-104561080D03*
X41747080Y-97261080D03*
X153537080Y-113871080D03*
X158697080Y-107101080D03*
X159497080Y-106351080D03*
X164897080Y-98151080D03*
X165047080Y-96121080D03*
X166097080Y-95476090D03*
X177237080Y-91931080D03*
X180087080Y-91061080D03*
X182607080Y-90271080D03*
X157697080Y-107651080D03*
X78207080Y-104071080D03*
X63337080Y-49361080D03*
X61887080Y-106701080D03*
X61907080Y-99831080D03*
X41787080Y-98511080D03*
X215917080Y-113301080D03*
X212847080Y-82051080D03*
X218247080Y-115651080D03*
X77077080Y-87111080D03*
X30707080Y-51341080D03*
X54377080Y-66021080D03*
X28639801Y-79717208D03*
X186297080Y-49401080D03*
X94102070Y-54271080D03*
X46307080Y-79061080D03*
X80837080Y-83231080D03*
X103057080Y-66171080D03*
X74387080Y-60026080D03*
X71837080Y-82651080D03*
X92937080Y-80271080D03*
X86037080Y-69281080D03*
X83467080Y-87471080D03*
X52287080Y-66801080D03*
X52102090Y-75301080D03*
X150647080Y-74701080D03*
X61967080Y-68681080D03*
X106597080Y-68651080D03*
X106997080Y-76376080D03*
X73127080Y-64751080D03*
X68297080Y-57751080D03*
X143457080Y-57571080D03*
X137647080Y-59401080D03*
X71147080Y-59301080D03*
X54227080Y-80571080D03*
X57997080Y-58346070D03*
X140527080Y-58341080D03*
X223687080Y-87556070D03*
X134297080Y-91951080D03*
X130334420Y-49938420D03*
X153897080Y-76801080D03*
X154797080Y-79751078D03*
X46247080Y-76801080D03*
X45187080Y-68421080D03*
X52207080Y-54801080D03*
X128747080Y-108051080D03*
X110797080Y-107051080D03*
X116237080Y-87471080D03*
X123217080Y-87471080D03*
X118397080Y-106326080D03*
X109227080Y-105651080D03*
X109627080Y-104601080D03*
X104197080Y-102351080D03*
X98397080Y-62151080D03*
D23*
X70871080Y-111831080D02*
X68331080Y-111831080D01*
X70871080Y-111831080D02*
X70871080Y-109291080D01*
X124327080Y-93801080D02*
X124327080Y-99943080D01*
X124327080Y-99943080D02*
X126497080Y-102113080D01*
X126751080Y-103637080D02*
X126497080Y-103891080D01*
X128783080Y-103637080D02*
X126751080Y-103637080D01*
X126497080Y-102113080D02*
X126497080Y-103891080D01*
X81031080Y-114305080D02*
X81031080Y-111831080D01*
X105669080Y-114559080D02*
X81285080Y-114559080D01*
X110241080Y-109987080D02*
X105669080Y-114559080D01*
X121671080Y-109987080D02*
X110241080Y-109987080D01*
X122941080Y-111257080D02*
X121671080Y-109987080D01*
X125481080Y-111257080D02*
X122941080Y-111257080D01*
X126497080Y-110241080D02*
X125481080Y-111257080D01*
X126497080Y-103891080D02*
X126497080Y-110241080D01*
X70871080Y-112273080D02*
X70871080Y-111831080D01*
X73157080Y-114559080D02*
X70871080Y-112273080D01*
X81031080Y-114559080D02*
X73157080Y-114559080D01*
X115321080Y-107447080D02*
X113827080Y-105953080D01*
X113827080Y-105953080D02*
X113827080Y-103797080D01*
X122687080Y-107447080D02*
X115321080Y-107447080D01*
X124281080Y-109041080D02*
X122687080Y-107447080D01*
X124327080Y-109041080D02*
X124281080Y-109041080D01*
X101351080Y-109291080D02*
X101351080Y-111831080D01*
X37851080Y-109291080D02*
X37851080Y-111831080D01*
X37851080Y-111831080D02*
X40391080Y-111831080D01*
X37851080Y-109291080D02*
X37851080Y-106177080D01*
D24*
X247197080Y-54461080D02*
X247197080Y-62201080D01*
X247197080Y-80951080D02*
X247197080Y-82024670D01*
X247197080Y-91151080D02*
X247197080Y-92324670D01*
X247147080Y-101301080D02*
X247147080Y-102574670D01*
X247197080Y-70451080D02*
X247197080Y-72501080D01*
X218447080Y-62401080D02*
X219727080Y-63681080D01*
X218447080Y-54461080D02*
X218447080Y-62401080D01*
X219727080Y-53181080D02*
X218447080Y-54461080D01*
X248477080Y-73781080D02*
X248477080Y-79671080D01*
X247197080Y-62201080D02*
X248477080Y-63481080D01*
X248477080Y-79671080D02*
X247197080Y-80951080D01*
X247197080Y-72501080D02*
X248477080Y-73781080D01*
X248477080Y-84081080D02*
X248477080Y-89871080D01*
X248477080Y-93604670D02*
X248477080Y-94381080D01*
X248497080Y-63501080D02*
X248497080Y-69151080D01*
X248477080Y-63481080D02*
X248497080Y-63501080D01*
X248497080Y-69151080D02*
X247197080Y-70451080D01*
X247147080Y-102574670D02*
X248477080Y-103904670D01*
X248477080Y-103904670D02*
X248477080Y-104681080D01*
X247197080Y-82024670D02*
X248477080Y-83304670D01*
X248477080Y-99971080D02*
X247147080Y-101301080D01*
X248477080Y-94381080D02*
X248477080Y-99971080D01*
X248477080Y-53181080D02*
X247197080Y-54461080D01*
X247197080Y-92324670D02*
X248477080Y-93604670D01*
X248477080Y-83304670D02*
X248477080Y-84081080D01*
X248477080Y-89871080D02*
X247197080Y-91151080D01*
X219727080Y-73681080D02*
X219727080Y-74181080D01*
X218437080Y-72391080D02*
X219727080Y-73681080D01*
X218437080Y-70761080D02*
X218437080Y-72391080D01*
X219727080Y-69471080D02*
X218437080Y-70761080D01*
X219727080Y-63681080D02*
X219727080Y-69471080D01*
X217187080Y-63681080D02*
X217187080Y-65561080D01*
X214647080Y-68101080D02*
X214647080Y-71301080D01*
X217187080Y-65561080D02*
X214647080Y-68101080D01*
X212747080Y-73201080D02*
X212747080Y-80051080D01*
X214647080Y-71301080D02*
X212747080Y-73201080D01*
X151557080Y-87201080D02*
X151557080Y-91901080D01*
X151557080Y-91901080D02*
X148427080Y-95031080D01*
X82967080Y-93881080D02*
X73967080Y-93881080D01*
X84597080Y-92251080D02*
X82967080Y-93881080D01*
X84597080Y-84221080D02*
X84597080Y-92251080D01*
X86017080Y-82801080D02*
X84597080Y-84221080D01*
X86017080Y-72759414D02*
X86017080Y-82801080D01*
X84683746Y-71426080D02*
X86017080Y-72759414D01*
X228597080Y-72891080D02*
X229887080Y-74181080D01*
X228597080Y-70801080D02*
X228597080Y-72891080D01*
X229887080Y-69511080D02*
X228597080Y-70801080D01*
X229887080Y-63681080D02*
X229887080Y-69511080D01*
X257347080Y-62191080D02*
X258637080Y-63481080D01*
X257347080Y-54471080D02*
X257347080Y-62191080D01*
X258637080Y-53181080D02*
X257347080Y-54471080D01*
X257397080Y-72541080D02*
X258637080Y-73781080D01*
X257397080Y-70451080D02*
X257397080Y-72541080D01*
X258637080Y-69211080D02*
X257397080Y-70451080D01*
X258637080Y-63481080D02*
X258637080Y-69211080D01*
X257347080Y-82791080D02*
X258637080Y-84081080D01*
X257347080Y-80851080D02*
X257347080Y-82791080D01*
X258637080Y-79561080D02*
X257347080Y-80851080D01*
X258637080Y-73781080D02*
X258637080Y-79561080D01*
X257397080Y-93141080D02*
X258637080Y-94381080D01*
X257397080Y-91201080D02*
X257397080Y-93141080D01*
X258637080Y-89961080D02*
X257397080Y-91201080D01*
X258637080Y-84081080D02*
X258637080Y-89961080D01*
X257397080Y-103441080D02*
X258637080Y-104681080D01*
X257397080Y-101351080D02*
X257397080Y-103441080D01*
X258637080Y-100111080D02*
X257397080Y-101351080D01*
X258637080Y-94381080D02*
X258637080Y-100111080D01*
X229897080Y-53191080D02*
X229887080Y-53181080D01*
X229887080Y-63681080D02*
X228647080Y-62441080D01*
X228647080Y-62441080D02*
X228647080Y-55726070D01*
X229887080Y-53181080D02*
X228647080Y-54421080D01*
X228647080Y-54421080D02*
X228647080Y-55726070D01*
X147917080Y-59041080D02*
X149537080Y-57421080D01*
X147917080Y-62656080D02*
X147917080Y-59041080D01*
X146772080Y-63801080D02*
X147917080Y-62656080D01*
X146017080Y-63801080D02*
X146772080Y-63801080D01*
X144947080Y-64871080D02*
X146017080Y-63801080D01*
X144947080Y-66201080D02*
X144947080Y-64871080D01*
X143428330Y-67719830D02*
X144947080Y-66201080D01*
X143428330Y-75551080D02*
X143428330Y-67719830D01*
X233747080Y-69981080D02*
X232427080Y-71301080D01*
X233747080Y-63151080D02*
X233747080Y-69981080D01*
X232427080Y-61831080D02*
X233747080Y-63151080D01*
X232427080Y-60801080D02*
X232427080Y-61831080D01*
X233697080Y-80531080D02*
X232427080Y-81801080D01*
X233697080Y-73551080D02*
X233697080Y-80531080D01*
X232427080Y-72281080D02*
X233697080Y-73551080D01*
X232427080Y-71301080D02*
X232427080Y-72281080D01*
X262447080Y-69831080D02*
X261177080Y-71101080D01*
X262447080Y-62901080D02*
X262447080Y-69831080D01*
X261197080Y-61651080D02*
X262447080Y-62901080D01*
X261197080Y-60821080D02*
X261197080Y-61651080D01*
X261177080Y-60801080D02*
X261197080Y-60821080D01*
X262447080Y-80131080D02*
X261177080Y-81401080D01*
X262447080Y-73151080D02*
X262447080Y-80131080D01*
X261177080Y-71881080D02*
X262447080Y-73151080D01*
X261177080Y-71101080D02*
X261177080Y-71881080D01*
X262447080Y-90431080D02*
X261177080Y-91701080D01*
X262447080Y-83401080D02*
X262447080Y-90431080D01*
X261177080Y-82131080D02*
X262447080Y-83401080D01*
X261177080Y-81401080D02*
X261177080Y-82131080D01*
X262447080Y-93801080D02*
X262447080Y-100731080D01*
X262447080Y-100731080D02*
X261177080Y-102001080D01*
X261177080Y-92531080D02*
X262447080Y-93801080D01*
X261177080Y-91701080D02*
X261177080Y-92531080D01*
X262447080Y-111031080D02*
X261177080Y-112301080D01*
X262447080Y-104051080D02*
X262447080Y-111031080D01*
X261177080Y-102781080D02*
X262447080Y-104051080D01*
X261177080Y-102001080D02*
X261177080Y-102781080D01*
X236697080Y-87401080D02*
X236697080Y-112451080D01*
X232427080Y-83131080D02*
X236697080Y-87401080D01*
X232427080Y-81801080D02*
X232427080Y-83131080D01*
X232397080Y-60771080D02*
X232427080Y-60801080D01*
X232427080Y-58086080D02*
X231917080Y-57576080D01*
X232427080Y-60801080D02*
X232427080Y-58086080D01*
X233697080Y-62411080D02*
X234967080Y-63681080D01*
X233697080Y-54451080D02*
X233697080Y-62411080D01*
X234967080Y-53181080D02*
X233697080Y-54451080D01*
X233697080Y-72911080D02*
X234967080Y-74181080D01*
X233697080Y-70701080D02*
X233697080Y-72911080D01*
X234967080Y-69431080D02*
X233697080Y-70701080D01*
X234967080Y-63681080D02*
X234967080Y-69431080D01*
X262447080Y-62211080D02*
X263717080Y-63481080D01*
X262447080Y-54451080D02*
X262447080Y-62211080D01*
X263717080Y-53181080D02*
X262447080Y-54451080D01*
X262447080Y-72511080D02*
X263717080Y-73781080D01*
X262447080Y-70551080D02*
X262447080Y-72511080D01*
X263717080Y-69281080D02*
X262447080Y-70551080D01*
X263717080Y-63481080D02*
X263717080Y-69281080D01*
X263717080Y-73781080D02*
X263717080Y-79531080D01*
X263717080Y-79531080D02*
X262447080Y-80801080D01*
X262447080Y-80801080D02*
X262447080Y-82764670D01*
X262447080Y-82764670D02*
X263717080Y-84034670D01*
X263717080Y-84034670D02*
X263717080Y-84081080D01*
X262447080Y-93111080D02*
X263717080Y-94381080D01*
X262447080Y-91151080D02*
X262447080Y-93111080D01*
X263717080Y-89881080D02*
X262447080Y-91151080D01*
X263717080Y-84081080D02*
X263717080Y-89881080D01*
X262447080Y-103411080D02*
X263717080Y-104681080D01*
X262447080Y-101367490D02*
X262447080Y-103411080D01*
X263717080Y-100097490D02*
X262447080Y-101367490D01*
X263717080Y-94381080D02*
X263717080Y-100097490D01*
X134709580Y-62081080D02*
X134709580Y-60983580D01*
X134709580Y-60983580D02*
X133197080Y-59471080D01*
X133197080Y-59471080D02*
X133197080Y-49076090D01*
X231147080Y-62401080D02*
X232427080Y-63681080D01*
X232427080Y-53181080D02*
X231147080Y-54461080D01*
X231147080Y-72901080D02*
X232427080Y-74181080D01*
X232427080Y-69471080D02*
X231147080Y-70751080D01*
X231147080Y-70751080D02*
X231147080Y-72901080D01*
X232427080Y-63681080D02*
X232427080Y-69471080D01*
X259947080Y-62251080D02*
X261177080Y-63481080D01*
X259947080Y-54411080D02*
X259947080Y-62251080D01*
X261177080Y-53181080D02*
X259947080Y-54411080D01*
X259897080Y-72501080D02*
X261177080Y-73781080D01*
X259897080Y-70551080D02*
X259897080Y-72501080D01*
X261177080Y-69271080D02*
X259897080Y-70551080D01*
X261177080Y-63481080D02*
X261177080Y-69271080D01*
X259947080Y-82851080D02*
X261177080Y-84081080D01*
X259947080Y-80727490D02*
X259947080Y-82851080D01*
X261177080Y-79497490D02*
X259947080Y-80727490D01*
X261177080Y-73781080D02*
X261177080Y-79497490D01*
X259897080Y-93101080D02*
X261177080Y-94381080D01*
X259897080Y-91151080D02*
X259897080Y-93101080D01*
X261177080Y-89871080D02*
X259897080Y-91151080D01*
X261177080Y-84081080D02*
X261177080Y-89871080D01*
X259897080Y-101377490D02*
X259897080Y-103401080D01*
X261177080Y-100097490D02*
X259897080Y-101377490D01*
X259897080Y-103401080D02*
X261177080Y-104681080D01*
X261177080Y-94381080D02*
X261177080Y-100097490D01*
X231147080Y-56851080D02*
X231147080Y-62401080D01*
X231147080Y-54461080D02*
X231147080Y-56851080D01*
X150607080Y-73091080D02*
X150607080Y-57471080D01*
X149240830Y-74457330D02*
X150607080Y-73091080D01*
X149240830Y-75551080D02*
X149240830Y-74457330D01*
X226097080Y-62431080D02*
X227347080Y-63681080D01*
X226097080Y-54431080D02*
X226097080Y-62431080D01*
X227347080Y-53181080D02*
X226097080Y-54431080D01*
X226047080Y-72881080D02*
X227347080Y-74181080D01*
X226047080Y-70851080D02*
X226047080Y-72881080D01*
X227347080Y-69551080D02*
X226047080Y-70851080D01*
X227347080Y-63681080D02*
X227347080Y-69551080D01*
X254847080Y-62231080D02*
X256097080Y-63481080D01*
X254847080Y-54431080D02*
X254847080Y-62231080D01*
X256097080Y-53181080D02*
X254847080Y-54431080D01*
X254847080Y-72531080D02*
X256097080Y-73781080D01*
X254847080Y-70501080D02*
X254847080Y-72531080D01*
X256097080Y-69251080D02*
X254847080Y-70501080D01*
X256097080Y-63481080D02*
X256097080Y-69251080D01*
X254847080Y-80751080D02*
X254847080Y-82831080D01*
X254847080Y-82831080D02*
X256097080Y-84081080D01*
X256097080Y-79501080D02*
X254847080Y-80751080D01*
X256097080Y-73781080D02*
X256097080Y-79501080D01*
X256097080Y-84081080D02*
X256097080Y-89851080D01*
X254847080Y-93064670D02*
X256097080Y-94314670D01*
X256097080Y-89851080D02*
X254847080Y-91101080D01*
X254847080Y-91101080D02*
X254847080Y-93064670D01*
X256097080Y-94314670D02*
X256097080Y-94381080D01*
X256097080Y-104664670D02*
X256097080Y-104681080D01*
X254847080Y-101401080D02*
X254847080Y-103414670D01*
X256097080Y-94381080D02*
X256097080Y-100151080D01*
X256097080Y-100151080D02*
X254847080Y-101401080D01*
X254847080Y-103414670D02*
X256097080Y-104664670D01*
X130667080Y-50631080D02*
X131697080Y-49601080D01*
X130667080Y-60944830D02*
X130667080Y-50631080D01*
X131803330Y-62081080D02*
X130667080Y-60944830D01*
X228597080Y-70051080D02*
X227347080Y-71301080D01*
X228597080Y-63101080D02*
X228597080Y-70051080D01*
X227347080Y-61851080D02*
X228597080Y-63101080D01*
X227347080Y-60801080D02*
X227347080Y-61851080D01*
X228597080Y-73551080D02*
X228597080Y-80551080D01*
X228597080Y-80551080D02*
X227347080Y-81801080D01*
X227347080Y-72301080D02*
X228597080Y-73551080D01*
X227347080Y-71301080D02*
X227347080Y-72301080D01*
X257397080Y-69801080D02*
X256097080Y-71101080D01*
X257397080Y-62951080D02*
X257397080Y-69801080D01*
X256097080Y-61651080D02*
X257397080Y-62951080D01*
X256097080Y-60801080D02*
X256097080Y-61651080D01*
X257347080Y-80151080D02*
X256097080Y-81401080D01*
X257347080Y-73151080D02*
X257347080Y-80151080D01*
X256097080Y-71901080D02*
X257347080Y-73151080D01*
X256097080Y-71101080D02*
X256097080Y-71901080D01*
X257397080Y-90401080D02*
X256097080Y-91701080D01*
X257397080Y-83501080D02*
X257397080Y-90401080D01*
X256097080Y-82201080D02*
X257397080Y-83501080D01*
X256097080Y-81401080D02*
X256097080Y-82201080D01*
X257397080Y-100701080D02*
X256097080Y-102001080D01*
X256097080Y-92551080D02*
X257397080Y-93851080D01*
X257397080Y-93851080D02*
X257397080Y-100701080D01*
X256097080Y-91701080D02*
X256097080Y-92551080D01*
X257397080Y-111001080D02*
X256097080Y-112301080D01*
X257397080Y-104101080D02*
X257397080Y-111001080D01*
X256097080Y-102801080D02*
X257397080Y-104101080D01*
X256097080Y-102001080D02*
X256097080Y-102801080D01*
X137467080Y-91711078D02*
X137637082Y-91881080D01*
X137467080Y-75699830D02*
X137467080Y-91711078D01*
X137615830Y-75551080D02*
X137467080Y-75699830D01*
X230177080Y-83361080D02*
X234797080Y-87981080D01*
X228927080Y-83361080D02*
X230177080Y-83361080D01*
X234797080Y-87981080D02*
X234797080Y-90351080D01*
X227367080Y-81801080D02*
X228927080Y-83361080D01*
X227347080Y-81801080D02*
X227367080Y-81801080D01*
X231147080Y-70041080D02*
X229887080Y-71301080D01*
X231147080Y-63101080D02*
X231147080Y-70041080D01*
X229887080Y-61841080D02*
X231147080Y-63101080D01*
X229887080Y-60801080D02*
X229887080Y-61841080D01*
X231147080Y-80541080D02*
X229887080Y-81801080D01*
X229887080Y-72291080D02*
X231147080Y-73551080D01*
X231147080Y-73551080D02*
X231147080Y-80541080D01*
X229887080Y-71301080D02*
X229887080Y-72291080D01*
X259897080Y-69841080D02*
X258637080Y-71101080D01*
X259897080Y-62851080D02*
X259897080Y-69841080D01*
X258637080Y-61591080D02*
X259897080Y-62851080D01*
X258637080Y-60801080D02*
X258637080Y-61591080D01*
X259897080Y-80141080D02*
X258637080Y-81401080D01*
X259897080Y-73151080D02*
X259897080Y-80141080D01*
X258637080Y-71891080D02*
X259897080Y-73151080D01*
X258637080Y-71101080D02*
X258637080Y-71891080D01*
X259897080Y-90441080D02*
X258637080Y-91701080D01*
X259897080Y-83451080D02*
X259897080Y-90441080D01*
X258637080Y-82191080D02*
X259897080Y-83451080D01*
X258637080Y-81401080D02*
X258637080Y-82191080D01*
X259947080Y-100691080D02*
X258637080Y-102001080D01*
X259947080Y-93801080D02*
X259947080Y-100691080D01*
X258637080Y-92491080D02*
X259947080Y-93801080D01*
X258637080Y-91701080D02*
X258637080Y-92491080D01*
X259897080Y-111041080D02*
X258637080Y-112301080D01*
X259897080Y-104101080D02*
X259897080Y-111041080D01*
X258637080Y-102841080D02*
X259897080Y-104101080D01*
X258637080Y-102001080D02*
X258637080Y-102841080D01*
X229887080Y-81801080D02*
X235697080Y-87611080D01*
X235697080Y-87611080D02*
X235697080Y-91321080D01*
X140522080Y-75551080D02*
X140157080Y-75916080D01*
X140157080Y-75916080D02*
X140157080Y-92471080D01*
X140157080Y-92471080D02*
X140257080Y-92571080D01*
X226097080Y-63101080D02*
X226097080Y-70011080D01*
X226097080Y-70011080D02*
X224807080Y-71301080D01*
X224807080Y-61811080D02*
X226097080Y-63101080D01*
X224807080Y-60801080D02*
X224807080Y-61811080D01*
X226097080Y-80511080D02*
X224807080Y-81801080D01*
X226097080Y-73601080D02*
X226097080Y-80511080D01*
X224807080Y-72311080D02*
X226097080Y-73601080D01*
X224807080Y-71301080D02*
X224807080Y-72311080D01*
X254847080Y-69811080D02*
X253557080Y-71101080D01*
X254847080Y-62867490D02*
X254847080Y-69811080D01*
X253557080Y-61577490D02*
X254847080Y-62867490D01*
X253557080Y-60801080D02*
X253557080Y-61577490D01*
X254847080Y-80111080D02*
X253557080Y-81401080D01*
X254847080Y-73201080D02*
X254847080Y-80111080D01*
X253557080Y-71911080D02*
X254847080Y-73201080D01*
X253557080Y-71101080D02*
X253557080Y-71911080D01*
X254847080Y-90411080D02*
X253557080Y-91701080D01*
X254847080Y-83501080D02*
X254847080Y-90411080D01*
X253557080Y-82211080D02*
X254847080Y-83501080D01*
X253557080Y-81401080D02*
X253557080Y-82211080D01*
X254847080Y-100711080D02*
X253557080Y-102001080D01*
X254847080Y-93701080D02*
X254847080Y-100711080D01*
X253557080Y-92411080D02*
X254847080Y-93701080D01*
X253557080Y-91701080D02*
X253557080Y-92411080D01*
X254847080Y-111011080D02*
X253557080Y-112301080D01*
X254847080Y-104051080D02*
X254847080Y-111011080D01*
X253557080Y-102761080D02*
X254847080Y-104051080D01*
X253557080Y-102001080D02*
X253557080Y-102761080D01*
X224567080Y-82041080D02*
X224807080Y-81801080D01*
X224567080Y-88481080D02*
X224567080Y-82041080D01*
X147677080Y-91881078D02*
X147697080Y-91901078D01*
X147677080Y-78471080D02*
X147677080Y-91881078D01*
X146334580Y-77128580D02*
X147677080Y-78471080D01*
X146334580Y-75551080D02*
X146334580Y-77128580D01*
X220997080Y-70031080D02*
X219727080Y-71301080D01*
X220997080Y-63051080D02*
X220997080Y-70031080D01*
X219727080Y-61781080D02*
X220997080Y-63051080D01*
X219727080Y-60801080D02*
X219727080Y-61781080D01*
X220997080Y-80531080D02*
X219727080Y-81801080D01*
X220997080Y-73551080D02*
X220997080Y-80531080D01*
X219727080Y-72281080D02*
X220997080Y-73551080D01*
X219727080Y-71301080D02*
X219727080Y-72281080D01*
X248477080Y-71101080D02*
X248477080Y-71681080D01*
X248477080Y-70521080D02*
X248477080Y-71101080D01*
X249747080Y-62901080D02*
X249747080Y-69831080D01*
X248477080Y-61631080D02*
X249747080Y-62901080D01*
X249747080Y-69831080D02*
X248477080Y-71101080D01*
X248477080Y-60801080D02*
X248477080Y-61631080D01*
X249747080Y-90431080D02*
X248477080Y-91701080D01*
X249747080Y-83301080D02*
X249747080Y-90431080D01*
X248477080Y-82031080D02*
X249747080Y-83301080D01*
X248477080Y-81401080D02*
X248477080Y-82031080D01*
X249747080Y-100731080D02*
X248477080Y-102001080D01*
X249747080Y-93801080D02*
X249747080Y-100731080D01*
X248477080Y-92531080D02*
X249747080Y-93801080D01*
X248477080Y-91701080D02*
X248477080Y-92531080D01*
X249747080Y-111031080D02*
X248477080Y-112301080D01*
X248477080Y-102731080D02*
X249747080Y-104001080D01*
X249747080Y-104001080D02*
X249747080Y-111031080D01*
X248477080Y-102001080D02*
X248477080Y-102731080D01*
X249747080Y-80131080D02*
X248477080Y-81401080D01*
X249747080Y-73221080D02*
X249747080Y-80131080D01*
X248477080Y-71951080D02*
X249747080Y-73221080D01*
X248477080Y-71101080D02*
X248477080Y-71951080D01*
X219727080Y-58846070D02*
X219747080Y-58826070D01*
X219727080Y-60801080D02*
X219727080Y-58846070D01*
X245937080Y-70444670D02*
X245937080Y-71101080D01*
X247247080Y-69134670D02*
X245937080Y-70444670D01*
X247247080Y-62951080D02*
X247247080Y-69134670D01*
X245937080Y-61641080D02*
X247247080Y-62951080D01*
X245937080Y-60801080D02*
X245937080Y-61641080D01*
X247197080Y-80141080D02*
X245937080Y-81401080D01*
X247197080Y-73151080D02*
X247197080Y-80141080D01*
X245937080Y-71891080D02*
X247197080Y-73151080D01*
X245937080Y-71101080D02*
X245937080Y-71891080D01*
X247197080Y-90441080D02*
X245937080Y-91701080D01*
X247197080Y-82661080D02*
X247197080Y-90441080D01*
X245937080Y-81401080D02*
X247197080Y-82661080D01*
X245937080Y-101761080D02*
X245937080Y-102001080D01*
X247352079Y-100346081D02*
X245937080Y-101761080D01*
X247352079Y-93116079D02*
X247352079Y-100346081D01*
X245937080Y-91701080D02*
X247352079Y-93116079D01*
X247247080Y-110991080D02*
X245937080Y-112301080D01*
X247247080Y-103311080D02*
X247247080Y-110991080D01*
X245937080Y-102001080D02*
X247247080Y-103311080D01*
X218447080Y-70041080D02*
X217187080Y-71301080D01*
X218447080Y-63051080D02*
X218447080Y-70041080D01*
X217187080Y-61791080D02*
X218447080Y-63051080D01*
X217187080Y-60801080D02*
X217187080Y-61791080D01*
X218447080Y-80541080D02*
X217187080Y-81801080D01*
X218447080Y-73426080D02*
X218447080Y-80541080D01*
X217187080Y-72166080D02*
X218447080Y-73426080D01*
X217187080Y-71301080D02*
X217187080Y-72166080D01*
X52877080Y-76361080D02*
X52817080Y-76421080D01*
X52877080Y-72896080D02*
X52877080Y-76361080D01*
X54347080Y-71426080D02*
X52877080Y-72896080D01*
X78937080Y-84541080D02*
X81667080Y-84541080D01*
X82177080Y-84031080D02*
X82177080Y-82101080D01*
X78417080Y-84021080D02*
X78937080Y-84541080D01*
X81667080Y-84541080D02*
X82177080Y-84031080D01*
X78417080Y-77411080D02*
X78417080Y-84021080D01*
X79357080Y-76471080D02*
X78417080Y-77411080D01*
X243397080Y-99301080D02*
X243397080Y-102001080D01*
X245937080Y-96761080D02*
X243397080Y-99301080D01*
X245937080Y-94381080D02*
X245937080Y-96761080D01*
X240347080Y-78101080D02*
X241847080Y-79601080D01*
X241847080Y-79601080D02*
X241847080Y-92651080D01*
X241847080Y-92651080D02*
X242297080Y-93101080D01*
X242297080Y-93101080D02*
X245097080Y-93101080D01*
X245937080Y-93941080D02*
X245937080Y-94381080D01*
X245097080Y-93101080D02*
X245937080Y-93941080D01*
X169847080Y-82051080D02*
X168667082Y-83231078D01*
X168667082Y-83231078D02*
X168667082Y-88381080D01*
X143937080Y-89736070D02*
X143797080Y-89876070D01*
X143937080Y-87201080D02*
X143937080Y-89736070D01*
X79603746Y-63806080D02*
X74417080Y-68992746D01*
X74417080Y-73471080D02*
X73067080Y-74821080D01*
X74417080Y-68992746D02*
X74417080Y-73471080D01*
X73067080Y-74821080D02*
X73067080Y-88891080D01*
X187027080Y-62221080D02*
X187027080Y-70031080D01*
X187027080Y-70031080D02*
X188447080Y-71451080D01*
X188447080Y-60801080D02*
X187027080Y-62221080D01*
X61977080Y-111181080D02*
X60711080Y-109915080D01*
X61977080Y-112631080D02*
X61977080Y-111181080D01*
X62657080Y-113311080D02*
X61977080Y-112631080D01*
X63847080Y-113311080D02*
X62657080Y-113311080D01*
X64517080Y-108051080D02*
X64517080Y-112641080D01*
X70117080Y-102451080D02*
X64517080Y-108051080D01*
X64517080Y-112641080D02*
X63847080Y-113311080D01*
X100397080Y-101911080D02*
X99857080Y-102451080D01*
X60711080Y-109915080D02*
X60711080Y-109291080D01*
X99857080Y-102451080D02*
X70117080Y-102451080D01*
X100397080Y-82101080D02*
X100397080Y-101911080D01*
X103847080Y-70516080D02*
X102937080Y-71426080D01*
X103847080Y-65651080D02*
X103847080Y-70516080D01*
X103397080Y-65201080D02*
X103847080Y-65651080D01*
X102227080Y-65201080D02*
X103397080Y-65201080D01*
X101617080Y-64591080D02*
X102227080Y-65201080D01*
X101617080Y-62021080D02*
X101617080Y-64591080D01*
X100397080Y-60801080D02*
X101617080Y-62021080D01*
X110557080Y-71426080D02*
X110557080Y-69041080D01*
X110557080Y-69041080D02*
X110597080Y-69001080D01*
X109197080Y-67601080D02*
X110597080Y-69001080D01*
X107297080Y-67601080D02*
X109197080Y-67601080D01*
X104297080Y-64601080D02*
X107297080Y-67601080D01*
X104297080Y-62161080D02*
X104297080Y-64601080D01*
X102937080Y-60801080D02*
X104297080Y-62161080D01*
X120717080Y-68401080D02*
X120717080Y-68401080D01*
X120717080Y-71426080D02*
X120717080Y-68401080D01*
X120717080Y-68401080D02*
X120717076Y-68401084D01*
X111347080Y-67301080D02*
X119617072Y-67301080D01*
X119617072Y-67301080D02*
X120717076Y-68401084D01*
X109247080Y-65201080D02*
X111347080Y-67301080D01*
X109247080Y-62031080D02*
X109247080Y-65201080D01*
X108017080Y-60801080D02*
X109247080Y-62031080D01*
X113147080Y-71376080D02*
X113097080Y-71426080D01*
X113147080Y-68101080D02*
X113147080Y-71376080D01*
X199697080Y-67251080D02*
X195047080Y-67251080D01*
X201147080Y-68701080D02*
X199697080Y-67251080D01*
X201147080Y-71451080D02*
X201147080Y-68701080D01*
X110547080Y-68101080D02*
X113147080Y-68101080D01*
X106757080Y-64311080D02*
X110547080Y-68101080D01*
X106757080Y-62081080D02*
X106757080Y-64311080D01*
X105477080Y-60801080D02*
X106757080Y-62081080D01*
X72887080Y-104521080D02*
X72887080Y-104521080D01*
X64797080Y-82491080D02*
X64407080Y-82101080D01*
X64797080Y-99871080D02*
X64797080Y-82491080D01*
X74037080Y-110541080D02*
X72817080Y-110541080D01*
X75047080Y-113161080D02*
X74687080Y-112801080D01*
X72097080Y-109821080D02*
X72097080Y-105391080D01*
X72817080Y-110541080D02*
X72097080Y-109821080D01*
X78987080Y-113161080D02*
X75047080Y-113161080D01*
X79777080Y-112371080D02*
X78987080Y-113161080D01*
X74687080Y-112801080D02*
X74687080Y-111191080D01*
X79777080Y-111181080D02*
X79777080Y-112371080D01*
X74687080Y-111191080D02*
X74037080Y-110541080D01*
X80327080Y-110631080D02*
X79777080Y-111181080D01*
X72097080Y-105391080D02*
X73157080Y-104331080D01*
X82371080Y-110631080D02*
X80327080Y-110631080D01*
X83571080Y-111831080D02*
X82371080Y-110631080D01*
X54097080Y-100731080D02*
X54097080Y-87861080D01*
X54097080Y-87861080D02*
X54217080Y-87741080D01*
X54247080Y-82101080D02*
X54247080Y-87711080D01*
X54247080Y-87711080D02*
X54217080Y-87741080D01*
X79637080Y-74481080D02*
X75737080Y-78381080D01*
X75737080Y-78381080D02*
X75737080Y-89641078D01*
X217187080Y-53181080D02*
X217187080Y-55461080D01*
X214647080Y-58001080D02*
X214647080Y-60801080D01*
X217187080Y-55461080D02*
X214647080Y-58001080D01*
X174927080Y-82051080D02*
X173627079Y-83351081D01*
X173627079Y-83351081D02*
X173627079Y-87501081D01*
X173627079Y-87501081D02*
X173197080Y-87931080D01*
X214647080Y-60801080D02*
X211847080Y-63601080D01*
X211847080Y-63601080D02*
X211847080Y-79226090D01*
X149017080Y-87201080D02*
X149017080Y-92911080D01*
X149017080Y-92911080D02*
X147707080Y-94221080D01*
X74877080Y-74851080D02*
X74877080Y-92006070D01*
X76877080Y-72851080D02*
X74877080Y-74851080D01*
X78178746Y-72851080D02*
X76877080Y-72851080D01*
X79603746Y-71426080D02*
X78178746Y-72851080D01*
X243397080Y-89251080D02*
X243397080Y-91701080D01*
X245937080Y-86711080D02*
X243397080Y-89251080D01*
X245937080Y-84081080D02*
X245937080Y-86711080D01*
X141397080Y-87201080D02*
X141397080Y-93671080D01*
X91087080Y-91076765D02*
X88762765Y-93401080D01*
X92777080Y-85801080D02*
X91087080Y-87491080D01*
X97477080Y-84771080D02*
X96447080Y-85801080D01*
X97477080Y-63951080D02*
X97477080Y-84771080D01*
X96447080Y-85801080D02*
X92777080Y-85801080D01*
X91087080Y-87491080D02*
X91087080Y-91076765D01*
X88762765Y-93401080D02*
X88197080Y-93401080D01*
X194232079Y-83636081D02*
X194232079Y-87636079D01*
X195967080Y-81901080D02*
X194232079Y-83636081D01*
X195297080Y-88701080D02*
X195297080Y-91901080D01*
X194232079Y-87636079D02*
X195297080Y-88701080D01*
X132497080Y-84386080D02*
X131187080Y-83076080D01*
X132497080Y-101251080D02*
X132497080Y-84386080D01*
X131047080Y-102701080D02*
X132497080Y-101251080D01*
X57997080Y-75811080D02*
X59327080Y-74481080D01*
X57997080Y-84951080D02*
X57997080Y-75811080D01*
X59297080Y-86251080D02*
X57997080Y-84951080D01*
X198397080Y-74391080D02*
X198507080Y-74281080D01*
X198397080Y-76651080D02*
X198397080Y-74391080D01*
X195897080Y-79151080D02*
X198397080Y-76651080D01*
X195897080Y-81831080D02*
X195897080Y-79151080D01*
X195967080Y-81901080D02*
X195897080Y-81831080D01*
X57747080Y-107271080D02*
X57747080Y-107271080D01*
X55507080Y-81201080D02*
X55507080Y-105031080D01*
X55507080Y-105031080D02*
X57747080Y-107271080D01*
X56787080Y-79921080D02*
X55507080Y-81201080D01*
X56787080Y-74481080D02*
X56787080Y-79921080D01*
X68072081Y-67966081D02*
X66787080Y-66681080D01*
X68072081Y-73356079D02*
X68072081Y-67966081D01*
X66947080Y-74481080D02*
X68072081Y-73356079D01*
X29627080Y-89261080D02*
X29627080Y-68281080D01*
X39257080Y-98891080D02*
X29627080Y-89261080D01*
X29627080Y-68281080D02*
X31067080Y-66841080D01*
X39257080Y-108157080D02*
X39257080Y-98891080D01*
X40391080Y-109291080D02*
X39257080Y-108157080D01*
X96267080Y-83211080D02*
X95747080Y-83731080D01*
X96267080Y-75701080D02*
X96267080Y-83211080D01*
X85557080Y-85381080D02*
X87237080Y-83701080D01*
X85557080Y-95891080D02*
X85557080Y-85381080D01*
X86487080Y-96821080D02*
X85557080Y-95891080D01*
X87397080Y-110577080D02*
X88651080Y-111831080D01*
X87397080Y-107891080D02*
X87397080Y-110577080D01*
X87687080Y-96281080D02*
X91087080Y-99681080D01*
X87687080Y-96241080D02*
X87687080Y-96281080D01*
X87002079Y-95556079D02*
X87687080Y-96241080D01*
X87002079Y-88976081D02*
X87002079Y-95556079D01*
X87962081Y-88016079D02*
X87487080Y-88491080D01*
X87962081Y-82556081D02*
X87962081Y-88016079D01*
X87507080Y-82101080D02*
X87962081Y-82556081D01*
X87257080Y-82101080D02*
X87507080Y-82101080D01*
X87487080Y-88491080D02*
X87002079Y-88976081D01*
X39357080Y-84351080D02*
X39947080Y-84941080D01*
X33457080Y-84351080D02*
X39357080Y-84351080D01*
X32367080Y-83261080D02*
X33457080Y-84351080D01*
X32367080Y-62071080D02*
X32367080Y-83261080D01*
X31097080Y-60801080D02*
X32367080Y-62071080D01*
X243347080Y-112251080D02*
X243397080Y-112301080D01*
X243347080Y-110101080D02*
X243347080Y-112251080D01*
X245937080Y-107511080D02*
X243347080Y-110101080D01*
X245937080Y-104681080D02*
X245937080Y-107511080D01*
X241397070Y-80201070D02*
X241397070Y-102401070D01*
X240347080Y-79151080D02*
X241397070Y-80201070D01*
X241397070Y-102401070D02*
X242447080Y-103451080D01*
X242447080Y-103451080D02*
X245547080Y-103451080D01*
X245937080Y-103841080D02*
X245937080Y-104681080D01*
X245547080Y-103451080D02*
X245937080Y-103841080D01*
X172387080Y-82051080D02*
X171367080Y-83071080D01*
X171367080Y-83071080D02*
X171367080Y-88251080D01*
X146477080Y-87201080D02*
X146477080Y-92211080D01*
X146477080Y-92211080D02*
X145727080Y-92961080D01*
X73872078Y-89213074D02*
X73882082Y-89223078D01*
X73882082Y-92086080D02*
X74947082Y-93151080D01*
X74947082Y-93151080D02*
X75857080Y-93151080D01*
X73872078Y-74936082D02*
X73872078Y-89213074D01*
X77063746Y-71744414D02*
X73872078Y-74936082D01*
X77063746Y-71426080D02*
X77063746Y-71744414D01*
X73882082Y-89223078D02*
X73882082Y-92086080D01*
X243397080Y-78551080D02*
X243397080Y-81401080D01*
X245937080Y-76011080D02*
X243397080Y-78551080D01*
X245937080Y-73781080D02*
X245937080Y-76011080D01*
X138857080Y-87201080D02*
X138857080Y-92611080D01*
X138857080Y-92611080D02*
X139117080Y-92871080D01*
X95047080Y-82511080D02*
X95047080Y-65432759D01*
X88537080Y-92211080D02*
X90317080Y-90431080D01*
X90317080Y-90431080D02*
X90317080Y-87241080D01*
X90317080Y-87241080D02*
X95047080Y-82511080D01*
X95047080Y-65432759D02*
X96197080Y-64282759D01*
X214647080Y-79151080D02*
X214647080Y-81801080D01*
X217187080Y-76611080D02*
X214647080Y-79151080D01*
X217187080Y-74181080D02*
X217187080Y-76611080D01*
X155197080Y-86201080D02*
X155197080Y-89361078D01*
X155197080Y-89361078D02*
X154917078Y-89641080D01*
X124977079Y-52401079D02*
X124007080Y-51431080D01*
X131237080Y-87201080D02*
X129667080Y-85631080D01*
X129667080Y-85631080D02*
X126777080Y-85631080D01*
X126777080Y-85631080D02*
X124977079Y-83831079D01*
X124977079Y-83831079D02*
X124977079Y-52401079D01*
X65687080Y-70066080D02*
X67047080Y-71426080D01*
X65687080Y-52141080D02*
X65687080Y-70066080D01*
X66377080Y-51451080D02*
X65687080Y-52141080D01*
X77857080Y-51451080D02*
X66377080Y-51451080D01*
X79537080Y-53131080D02*
X77857080Y-51451080D01*
X80907080Y-61921080D02*
X80907080Y-76461080D01*
X82077080Y-60751080D02*
X80907080Y-61921080D01*
X62127080Y-60801080D02*
X61817080Y-60801080D01*
X64017080Y-62051080D02*
X63377080Y-62051080D01*
X64507080Y-62541080D02*
X64017080Y-62051080D01*
X63377080Y-62051080D02*
X62127080Y-60801080D01*
X64507080Y-63806080D02*
X64507080Y-62541080D01*
X193427080Y-80921080D02*
X196747080Y-77601080D01*
X196747080Y-75061080D02*
X195967080Y-74281080D01*
X196747080Y-77601080D02*
X196747080Y-75061080D01*
X193427080Y-81901080D02*
X193427080Y-80921080D01*
X156547080Y-85876080D02*
X154884740Y-84213740D01*
X154884740Y-84213740D02*
X154884740Y-82488740D01*
X156947080Y-78674080D02*
X152545080Y-83076080D01*
X156947080Y-76751080D02*
X156947080Y-78674080D01*
X155397080Y-69801080D02*
X155397080Y-75201080D01*
X152545080Y-83076080D02*
X151507080Y-83076080D01*
X155747080Y-69451080D02*
X155397080Y-69801080D01*
X155747080Y-52451080D02*
X155747080Y-69451080D01*
X155397080Y-75201080D02*
X156947080Y-76751080D01*
X151647089Y-48351089D02*
X155747080Y-52451080D01*
X129497071Y-48351089D02*
X151647089Y-48351089D01*
X126197080Y-51651080D02*
X129497071Y-48351089D01*
X126197080Y-62151080D02*
X126197080Y-51651080D01*
X142247080Y-77361080D02*
X143837080Y-78951080D01*
X142247080Y-66572330D02*
X142247080Y-77361080D01*
X143428330Y-65391080D02*
X142247080Y-66572330D01*
X144897080Y-63922330D02*
X143428330Y-65391080D01*
X144897080Y-52976080D02*
X144897080Y-63922330D01*
X115637080Y-82101080D02*
X115637080Y-86481078D01*
X115637080Y-86481078D02*
X115677082Y-86521080D01*
X142637080Y-89266080D02*
X142697080Y-89326080D01*
X142637080Y-80151080D02*
X142637080Y-89266080D01*
X143837080Y-78951080D02*
X142637080Y-80151080D01*
X113097080Y-74481080D02*
X113097080Y-75921080D01*
X116962081Y-87819081D02*
X116477080Y-88304082D01*
X116477080Y-88304082D02*
X116477080Y-106326080D01*
X116962081Y-79786081D02*
X116962081Y-87819081D01*
X113097080Y-75921080D02*
X116962081Y-79786081D01*
X79487080Y-106861080D02*
X79437080Y-106811080D01*
X101457080Y-106861080D02*
X79487080Y-106861080D01*
X113097080Y-77986080D02*
X113157080Y-77926080D01*
X113097080Y-82101080D02*
X113097080Y-77986080D01*
X47617081Y-78471077D02*
X47217082Y-78071078D01*
X47617081Y-102541079D02*
X47617081Y-78471077D01*
X41647080Y-108511080D02*
X47617081Y-102541079D01*
X41647080Y-113211080D02*
X41647080Y-108511080D01*
X42317080Y-113881080D02*
X41647080Y-113211080D01*
X49907080Y-113881080D02*
X42317080Y-113881080D01*
X50551080Y-113237080D02*
X49907080Y-113881080D01*
X50551080Y-111831080D02*
X50551080Y-113237080D01*
X115637080Y-74481080D02*
X115637080Y-77581080D01*
X115637080Y-77581080D02*
X121487080Y-83431080D01*
X121487080Y-83431080D02*
X121487080Y-93831080D01*
X117537080Y-97781080D02*
X117537080Y-103671080D01*
X121487080Y-93831080D02*
X117537080Y-97781080D01*
X79837082Y-105711080D02*
X79777080Y-105651078D01*
X101527080Y-105711080D02*
X79837082Y-105711080D01*
X110557080Y-79971080D02*
X110507080Y-79921080D01*
X110557080Y-82101080D02*
X110557080Y-79971080D01*
X50557080Y-78541080D02*
X50147080Y-78131080D01*
X50557080Y-109285080D02*
X50557080Y-78541080D01*
X50551080Y-109291080D02*
X50557080Y-109285080D01*
X138847080Y-78861080D02*
X138757080Y-78951080D01*
X138847080Y-66622330D02*
X138847080Y-78861080D01*
X137615830Y-65391080D02*
X138847080Y-66622330D01*
X139047080Y-63959830D02*
X137615830Y-65391080D01*
X139047080Y-53451080D02*
X139047080Y-63959830D01*
X118177080Y-77471080D02*
X117747080Y-77901080D01*
X118177080Y-74481080D02*
X118177080Y-77471080D01*
X141747080Y-66616080D02*
X140522080Y-65391080D01*
X141747080Y-78501080D02*
X141747080Y-66616080D01*
X141297080Y-78951080D02*
X141747080Y-78501080D01*
X141947080Y-63966080D02*
X140522080Y-65391080D01*
X141947080Y-52901080D02*
X141947080Y-63966080D01*
X108097080Y-82021080D02*
X108017080Y-82101080D01*
X108097080Y-78401080D02*
X108097080Y-82021080D01*
X105477080Y-77021080D02*
X105477080Y-74481080D01*
X104217080Y-78281080D02*
X105477080Y-77021080D01*
X56901080Y-110561080D02*
X58747080Y-110561080D01*
X66197070Y-113761090D02*
X67097080Y-112861080D01*
X71127080Y-103221080D02*
X104617080Y-103221080D01*
X104217080Y-85951080D02*
X104217080Y-78281080D01*
X58747080Y-110561080D02*
X59497080Y-111311080D01*
X67097080Y-107251080D02*
X71127080Y-103221080D01*
X59497080Y-111311080D02*
X59497080Y-112711080D01*
X59497080Y-112711080D02*
X60547090Y-113761090D01*
X55631080Y-111831080D02*
X56901080Y-110561080D01*
X67097080Y-112861080D02*
X67097080Y-107251080D01*
X60547090Y-113761090D02*
X66197070Y-113761090D01*
X104617080Y-103221080D02*
X104947079Y-102891081D01*
X104947079Y-102891081D02*
X104947079Y-86681079D01*
X104947079Y-86681079D02*
X104217080Y-85951080D01*
X105477080Y-79791080D02*
X105467080Y-79781080D01*
X105477080Y-82101080D02*
X105477080Y-79791080D01*
X52267080Y-104621080D02*
X52267080Y-78871080D01*
X55631080Y-107985080D02*
X52267080Y-104621080D01*
X55631080Y-109291080D02*
X55631080Y-107985080D01*
X105617080Y-110421080D02*
X103077080Y-110421080D01*
X106647080Y-109391080D02*
X105617080Y-110421080D01*
X106647080Y-78121080D02*
X106647080Y-109391080D01*
X108017080Y-76751080D02*
X106647080Y-78121080D01*
X108017080Y-74481080D02*
X108017080Y-76751080D01*
X58171080Y-109291080D02*
X52857081Y-103977081D01*
X52857081Y-103977081D02*
X52857081Y-80231079D01*
X52857081Y-80231079D02*
X53257080Y-79831080D01*
X145097080Y-81866080D02*
X143887080Y-83076080D01*
X145097080Y-73601080D02*
X145097080Y-81866080D01*
X146334580Y-72363580D02*
X145097080Y-73601080D01*
X146334580Y-65391080D02*
X146334580Y-68713580D01*
X162227080Y-53181080D02*
X160997080Y-54411080D01*
X160997080Y-54411080D02*
X160997080Y-65001080D01*
X146334580Y-68713580D02*
X146334580Y-72363580D01*
X110557080Y-73811080D02*
X110557080Y-74481080D01*
X109277080Y-72531080D02*
X110557080Y-73811080D01*
X109277080Y-69281080D02*
X109277080Y-72531080D01*
X108947080Y-68951080D02*
X109277080Y-69281080D01*
X154747080Y-54731080D02*
X154817080Y-54661080D01*
X154747080Y-62451080D02*
X154747080Y-54731080D01*
X153497080Y-63701080D02*
X154747080Y-62451080D01*
X153497080Y-75801080D02*
X153497080Y-63701080D01*
X151457080Y-77841080D02*
X153497080Y-75801080D01*
X151457080Y-78951080D02*
X151457080Y-77841080D01*
X63251080Y-111831080D02*
X63251080Y-111415080D01*
X62017080Y-110181080D02*
X62017080Y-108701080D01*
X65717080Y-70881080D02*
X64617080Y-69781080D01*
X65717080Y-105001080D02*
X65717080Y-70881080D01*
X62017080Y-108701080D02*
X65717080Y-105001080D01*
X63251080Y-111415080D02*
X62017080Y-110181080D01*
X64617080Y-69781080D02*
X64617080Y-65651080D01*
X49977080Y-60851080D02*
X49977080Y-55781080D01*
X51377080Y-62251080D02*
X49977080Y-60851080D01*
X51827080Y-108521080D02*
X51377080Y-108071080D01*
X51827080Y-112661080D02*
X51827080Y-108521080D01*
X52317080Y-113151080D02*
X51827080Y-112661080D01*
X56851080Y-113151080D02*
X52317080Y-113151080D01*
X58171080Y-111831080D02*
X56851080Y-113151080D01*
X51377080Y-108071080D02*
X51377080Y-62251080D01*
X192147080Y-68151080D02*
X192147080Y-84251080D01*
X194067080Y-88964670D02*
X194067080Y-114931080D01*
X193527080Y-60801080D02*
X194747080Y-62021080D01*
X191547080Y-86444670D02*
X194067080Y-88964670D01*
X192147080Y-84251080D02*
X191547080Y-84851080D01*
X191547080Y-84851080D02*
X191547080Y-86444670D01*
X194747080Y-62021080D02*
X194747080Y-65551080D01*
X194747080Y-65551080D02*
X192147080Y-68151080D01*
X193527080Y-53181080D02*
X192247080Y-54461080D01*
X192247080Y-54461080D02*
X192247080Y-66501080D01*
X60657080Y-107291080D02*
X60657080Y-68001080D01*
X59427080Y-108521080D02*
X60657080Y-107291080D01*
X59427080Y-110547080D02*
X59427080Y-108521080D01*
X60711080Y-111831080D02*
X59427080Y-110547080D01*
X176147080Y-62121080D02*
X176147080Y-66351080D01*
X177467080Y-60801080D02*
X176147080Y-62121080D01*
X154897080Y-76151080D02*
X154897080Y-66901074D01*
X128897080Y-51921080D02*
X126927080Y-53891080D01*
X126927080Y-53891080D02*
X126927080Y-78971080D01*
X126927080Y-78971080D02*
X126377080Y-79521080D01*
X149240830Y-73427330D02*
X149240830Y-65391080D01*
X147707080Y-74961080D02*
X149240830Y-73427330D01*
X147707080Y-77741080D02*
X147707080Y-74961080D01*
X148917080Y-78951080D02*
X147707080Y-77741080D01*
X167307080Y-63806080D02*
X166037080Y-62536080D01*
X166037080Y-62536080D02*
X166037080Y-57551080D01*
X166037080Y-57551080D02*
X166967080Y-56621080D01*
X217027080Y-111461080D02*
X217027080Y-113531080D01*
X216887080Y-84031080D02*
X218247080Y-85391080D01*
X210777080Y-84031080D02*
X216887080Y-84031080D01*
X208897080Y-82151080D02*
X210777080Y-84031080D01*
X208897080Y-67601080D02*
X208897080Y-82151080D01*
X207397080Y-66101080D02*
X208897080Y-67601080D01*
X201397080Y-66101080D02*
X207397080Y-66101080D01*
X218247080Y-85391080D02*
X218247080Y-110241080D01*
X199897080Y-64601080D02*
X201397080Y-66101080D01*
X199897080Y-62091080D02*
X199897080Y-64601080D01*
X218247080Y-110241080D02*
X217027080Y-111461080D01*
X198607080Y-60801080D02*
X199897080Y-62091080D01*
X48917080Y-57891080D02*
X49177080Y-57631080D01*
X48917080Y-107671080D02*
X48917080Y-57891080D01*
X49277080Y-108031080D02*
X48917080Y-107671080D01*
X49277080Y-112701080D02*
X49277080Y-108031080D01*
X48707080Y-113271080D02*
X49277080Y-112701080D01*
X44607080Y-113271080D02*
X48707080Y-113271080D01*
X44197080Y-112861080D02*
X44607080Y-113271080D01*
X44197080Y-110557080D02*
X44197080Y-112861080D01*
X42931080Y-109291080D02*
X44197080Y-110557080D01*
X218847080Y-85091080D02*
X218847080Y-113951080D01*
X201147080Y-60801080D02*
X202397080Y-62051080D01*
X209397080Y-67314670D02*
X209397080Y-79951080D01*
X202397080Y-62051080D02*
X202397080Y-64751080D01*
X218847080Y-113951080D02*
X218247080Y-114551080D01*
X202397080Y-64751080D02*
X203147070Y-65501070D01*
X207583481Y-65501071D02*
X209397080Y-67314670D01*
X203147070Y-65501070D02*
X207583481Y-65501071D01*
X209397080Y-79951080D02*
X210097080Y-80651080D01*
X211947080Y-81601080D02*
X211947080Y-82801080D01*
X210097080Y-80651080D02*
X210997080Y-80651080D01*
X210997080Y-80651080D02*
X211947080Y-81601080D01*
X211947080Y-82801080D02*
X212717080Y-83571080D01*
X217327080Y-83571080D02*
X218847080Y-85091080D01*
X212717080Y-83571080D02*
X217327080Y-83571080D01*
X48277080Y-106511080D02*
X48277080Y-56801080D01*
X46757080Y-110577080D02*
X46757080Y-108031080D01*
X46757080Y-108031080D02*
X48277080Y-106511080D01*
X48011080Y-111831080D02*
X46757080Y-110577080D01*
X172387080Y-66791080D02*
X172397080Y-66801080D01*
X172387080Y-63806080D02*
X172387080Y-66791080D01*
X135297080Y-63401080D02*
X136217080Y-64321080D01*
X134147080Y-63401080D02*
X135297080Y-63401080D01*
X133257080Y-62511080D02*
X134147080Y-63401080D01*
X131803330Y-59377330D02*
X133257080Y-60831080D01*
X131803330Y-51921080D02*
X131803330Y-59377330D01*
X133257080Y-60831080D02*
X133257080Y-62511080D01*
X136217080Y-64321080D02*
X136217080Y-67901080D01*
X136217080Y-78951080D02*
X136217080Y-67901080D01*
X243397080Y-68351080D02*
X243397080Y-71101080D01*
X245937080Y-65811080D02*
X243397080Y-68351080D01*
X245937080Y-63481080D02*
X245937080Y-65811080D01*
X136317080Y-87201080D02*
X136317080Y-92126070D01*
X136317080Y-92126070D02*
X136997080Y-92806070D01*
X88467080Y-90641080D02*
X89437080Y-89671080D01*
X94577081Y-64501079D02*
X94897080Y-64181080D01*
X89437080Y-89671080D02*
X89437080Y-87151080D01*
X89437080Y-87151080D02*
X94577081Y-82011079D01*
X94577081Y-82011079D02*
X94577081Y-64501079D01*
X242047080Y-76101080D02*
X241747080Y-76401080D01*
X242047080Y-72451080D02*
X242047080Y-76101080D01*
X243397080Y-71101080D02*
X242047080Y-72451080D01*
X243397080Y-58001080D02*
X243397080Y-60801080D01*
X245937080Y-55461080D02*
X243397080Y-58001080D01*
X245937080Y-53181080D02*
X245937080Y-55461080D01*
X240947080Y-63251080D02*
X240947080Y-75551080D01*
X243397080Y-60801080D02*
X240947080Y-63251080D01*
X89763746Y-63806080D02*
X88529539Y-65040287D01*
X88529539Y-65040287D02*
X88529539Y-88798411D01*
X77187080Y-110527080D02*
X77187080Y-105931080D01*
X78491080Y-111831080D02*
X77187080Y-110527080D01*
X31097080Y-89401080D02*
X40157080Y-98461080D01*
X31097080Y-82001080D02*
X31097080Y-89401080D01*
X107647080Y-84601080D02*
X107597080Y-84551080D01*
X107647080Y-102051080D02*
X107647080Y-84601080D01*
X186497080Y-86474670D02*
X187647080Y-87624670D01*
X182397080Y-70901080D02*
X182397080Y-80851080D01*
X186497080Y-84951080D02*
X186497080Y-86474670D01*
X180947070Y-69451070D02*
X182397080Y-70901080D01*
X174847070Y-69451070D02*
X180947070Y-69451070D01*
X173747080Y-68351080D02*
X174847070Y-69451070D01*
X173747080Y-61981080D02*
X173747080Y-68351080D01*
X187647080Y-87624670D02*
X187647080Y-92001080D01*
X182397080Y-80851080D02*
X186497080Y-84951080D01*
X174927080Y-60801080D02*
X173747080Y-61981080D01*
X37547080Y-80631080D02*
X36177080Y-82001080D01*
X37547080Y-56651080D02*
X37547080Y-80631080D01*
X151447080Y-55601080D02*
X147922080Y-55601080D01*
X152797080Y-56951080D02*
X151447080Y-55601080D01*
X152797080Y-60151080D02*
X152797080Y-56951080D01*
X153447080Y-60801080D02*
X152797080Y-60151080D01*
X147922080Y-55601080D02*
X146747080Y-56776080D01*
X153847080Y-60801080D02*
X153447080Y-60801080D01*
X143287080Y-102021080D02*
X143617080Y-102021080D01*
X133572079Y-92306079D02*
X143287080Y-102021080D01*
X133572079Y-91400761D02*
X133572079Y-92306079D01*
X134234420Y-90738420D02*
X133572079Y-91400761D01*
X156197080Y-88001080D02*
X156197080Y-89951080D01*
X157272081Y-86926079D02*
X156197080Y-88001080D01*
X158347080Y-78701080D02*
X155697080Y-81351080D01*
X157272081Y-85326081D02*
X157272081Y-86926079D01*
X155697080Y-81351080D02*
X155697080Y-83751080D01*
X158347080Y-74001080D02*
X158347080Y-78701080D01*
X159097080Y-73251080D02*
X158347080Y-74001080D01*
X162277080Y-73251080D02*
X159097080Y-73251080D01*
X155697080Y-83751080D02*
X157272081Y-85326081D01*
X163527080Y-72001080D02*
X162277080Y-73251080D01*
X163527080Y-62041080D02*
X163527080Y-72001080D01*
X164767080Y-60801080D02*
X163527080Y-62041080D01*
X105747080Y-85401080D02*
X105797080Y-85351080D01*
X105747080Y-102751080D02*
X105747080Y-85401080D01*
X185097080Y-87614670D02*
X185097080Y-91201080D01*
X181877080Y-81031080D02*
X183947080Y-83101080D01*
X181877080Y-71131080D02*
X181877080Y-81031080D01*
X183947080Y-83101080D02*
X183947080Y-86464670D01*
X180647080Y-69901080D02*
X181877080Y-71131080D01*
X172047080Y-69901080D02*
X180647080Y-69901080D01*
X171097080Y-68951080D02*
X172047080Y-69901080D01*
X183947080Y-86464670D02*
X185097080Y-87614670D01*
X171097080Y-62051080D02*
X171097080Y-68951080D01*
X169847080Y-60801080D02*
X171097080Y-62051080D01*
X180007080Y-49016080D02*
X180047080Y-48976080D01*
X180007080Y-53181080D02*
X180007080Y-49016080D01*
X159687080Y-53181080D02*
X159687080Y-56311080D01*
X157147080Y-58851080D02*
X157147080Y-60801080D01*
X159687080Y-56311080D02*
X157147080Y-58851080D01*
X157147080Y-60801080D02*
X157147080Y-61651080D01*
X157147080Y-61651080D02*
X158097080Y-62601080D01*
X158097080Y-62601080D02*
X159297080Y-62601080D01*
X159687080Y-62991080D02*
X159687080Y-63806080D01*
X159297080Y-62601080D02*
X159687080Y-62991080D01*
X159687080Y-63806080D02*
X159687080Y-66511080D01*
X157147080Y-69051080D02*
X157147080Y-71426080D01*
X159687080Y-66511080D02*
X157147080Y-69051080D01*
X74877080Y-104581080D02*
X74877080Y-104581080D01*
X41257080Y-60801080D02*
X40027080Y-62031080D01*
X40027080Y-62031080D02*
X40027080Y-83571080D01*
X40027080Y-83571080D02*
X41747080Y-85291080D01*
X41747080Y-85291080D02*
X41747080Y-97261080D01*
X74717080Y-105001080D02*
X75157080Y-104561080D01*
X74717080Y-110171080D02*
X74717080Y-105001080D01*
X75951080Y-111405080D02*
X74717080Y-110171080D01*
X75951080Y-111831080D02*
X75951080Y-111405080D01*
X157147080Y-71426080D02*
X155997080Y-72576080D01*
X157597080Y-78751080D02*
X153537080Y-82811080D01*
X155997080Y-74976080D02*
X157597080Y-76576080D01*
X155997080Y-72576080D02*
X155997080Y-74976080D01*
X157597080Y-76576080D02*
X157597080Y-78751080D01*
X153537080Y-82811080D02*
X153537080Y-113871080D01*
X158547080Y-106951080D02*
X158697080Y-107101080D01*
X162227080Y-75731080D02*
X158547080Y-79411080D01*
X158547080Y-79411080D02*
X158547080Y-106951080D01*
X162227080Y-74431080D02*
X162227080Y-75731080D01*
X160747080Y-78451080D02*
X160747080Y-105101080D01*
X164767080Y-74431080D02*
X160747080Y-78451080D01*
X160747080Y-105101080D02*
X159497080Y-106351080D01*
X163597080Y-96851080D02*
X164897080Y-98151080D01*
X167307080Y-74431080D02*
X163597080Y-78141080D01*
X163597080Y-78141080D02*
X163597080Y-96851080D01*
X166047080Y-82751080D02*
X165047080Y-83751080D01*
X166047080Y-81651080D02*
X166047080Y-82751080D01*
X169847080Y-77851080D02*
X166047080Y-81651080D01*
X165047080Y-83751080D02*
X165047080Y-96121080D01*
X169847080Y-74431080D02*
X169847080Y-77851080D01*
X166097080Y-85001080D02*
X166097080Y-95476090D01*
X168597080Y-82501080D02*
X166097080Y-85001080D01*
X168597080Y-79851080D02*
X168597080Y-82501080D01*
X172387080Y-76061080D02*
X168597080Y-79851080D01*
X172387080Y-74431080D02*
X172387080Y-76061080D01*
X177237080Y-87374670D02*
X177237080Y-91931080D01*
X176327080Y-86464670D02*
X177237080Y-87374670D01*
X176327080Y-75831080D02*
X176327080Y-86464670D01*
X174927080Y-74431080D02*
X176327080Y-75831080D01*
X180087080Y-87684670D02*
X180087080Y-91061080D01*
X178877080Y-86474670D02*
X180087080Y-87684670D01*
X178877080Y-75841080D02*
X178877080Y-86474670D01*
X177467080Y-74431080D02*
X178877080Y-75841080D01*
X182607080Y-87664670D02*
X182607080Y-90271080D01*
X181407080Y-86464670D02*
X182607080Y-87664670D01*
X181407080Y-75831080D02*
X181407080Y-86464670D01*
X180007080Y-74431080D02*
X181407080Y-75831080D01*
X157147080Y-82051080D02*
X157747080Y-82651080D01*
X157747080Y-107601080D02*
X157697080Y-107651080D01*
X157747080Y-82651080D02*
X157747080Y-107601080D01*
X78357080Y-104081080D02*
X78357080Y-104081080D01*
X63107080Y-49591080D02*
X63337080Y-49361080D01*
X63107080Y-59551080D02*
X63107080Y-49591080D01*
X64357080Y-60801080D02*
X63107080Y-59551080D01*
X79089079Y-107536081D02*
X78207080Y-106654082D01*
X81392081Y-107536081D02*
X79089079Y-107536081D01*
X78207080Y-106654082D02*
X78207080Y-104071080D01*
X82247080Y-109781080D02*
X82247080Y-108391080D01*
X83057080Y-110591080D02*
X82247080Y-109781080D01*
X82247080Y-108391080D02*
X81392081Y-107536081D01*
X84871080Y-110591080D02*
X83057080Y-110591080D01*
X86111080Y-111831080D02*
X84871080Y-110591080D01*
X61887080Y-99851080D02*
X61907080Y-99831080D01*
X61887080Y-106701080D02*
X61887080Y-99851080D01*
X43797080Y-53181080D02*
X42487080Y-54491080D01*
X42487080Y-54491080D02*
X42487080Y-97811080D01*
X42487080Y-97811080D02*
X41787080Y-98511080D01*
X217577080Y-109871080D02*
X215917080Y-111531080D01*
X215917080Y-111531080D02*
X215917080Y-113301080D01*
X217577080Y-85711080D02*
X217577080Y-109871080D01*
X216367080Y-84501080D02*
X217577080Y-85711080D01*
X210247080Y-84501080D02*
X216367080Y-84501080D01*
X203587080Y-77841080D02*
X210247080Y-84501080D01*
X203587080Y-74281080D02*
X203587080Y-77841080D01*
X219447080Y-114451080D02*
X218247080Y-115651080D01*
X219447080Y-84791080D02*
X219447080Y-114451080D01*
X217777080Y-83121080D02*
X219447080Y-84791080D01*
X213351395Y-83121080D02*
X217777080Y-83121080D01*
X212847080Y-82616765D02*
X213351395Y-83121080D01*
X212847080Y-82051080D02*
X212847080Y-82616765D01*
X77097080Y-87091080D02*
X77077080Y-87111080D01*
X77097080Y-82101080D02*
X77097080Y-87091080D01*
X46337080Y-53181080D02*
X48957080Y-53181080D01*
X48957080Y-53181080D02*
X52197080Y-56421080D01*
X52197080Y-63841080D02*
X54377080Y-66021080D01*
X52197080Y-56421080D02*
X52197080Y-63841080D01*
X28637080Y-79714487D02*
X28639801Y-79717208D01*
X28637080Y-53411080D02*
X28637080Y-79714487D01*
X30707080Y-51341080D02*
X28637080Y-53411080D01*
X190887080Y-74281080D02*
X189147080Y-76021080D01*
X189147080Y-81101080D02*
X188347080Y-81901080D01*
X189147080Y-76021080D02*
X189147080Y-81101080D01*
X186297080Y-71951080D02*
X186297080Y-49401080D01*
X187097080Y-72751080D02*
X186297080Y-71951080D01*
X189357080Y-72751080D02*
X187097080Y-72751080D01*
X190887080Y-74281080D02*
X189357080Y-72751080D01*
X94102070Y-62786090D02*
X94102070Y-54271080D01*
X93507080Y-63381080D02*
X94102070Y-62786090D01*
X92337080Y-74481080D02*
X93507080Y-73311080D01*
X93507080Y-73311080D02*
X93507080Y-63381080D01*
X37507080Y-51851080D02*
X36177080Y-53181080D01*
X44427080Y-51851080D02*
X37507080Y-51851080D01*
X45087080Y-52511080D02*
X44427080Y-51851080D01*
X47527080Y-76594082D02*
X47527080Y-56021080D01*
X45087080Y-53581080D02*
X45087080Y-52511080D01*
X46307080Y-77814082D02*
X47527080Y-76594082D01*
X47527080Y-56021080D02*
X45087080Y-53581080D01*
X46307080Y-79061080D02*
X46307080Y-77814082D01*
X80837080Y-81491080D02*
X80837080Y-83231080D01*
X82177080Y-80151080D02*
X80837080Y-81491080D01*
X82177080Y-74481080D02*
X82177080Y-80151080D01*
X189717080Y-62561080D02*
X190987080Y-63831080D01*
X189717080Y-54451080D02*
X189717080Y-62561080D01*
X190987080Y-53181080D02*
X189717080Y-54451080D01*
X101737080Y-73281080D02*
X101737080Y-67491080D01*
X101737080Y-67491080D02*
X103057080Y-66171080D01*
X102937080Y-74481080D02*
X101737080Y-73281080D01*
X71837080Y-70936336D02*
X71837080Y-82651080D01*
X74387080Y-68386336D02*
X71837080Y-70936336D01*
X74387080Y-60026080D02*
X74387080Y-68386336D01*
X91077080Y-78411080D02*
X92937080Y-80271080D01*
X91077080Y-62131080D02*
X91077080Y-78411080D01*
X89697080Y-60751080D02*
X91077080Y-62131080D01*
X93427080Y-62682746D02*
X92303746Y-63806080D01*
X93427080Y-58161080D02*
X93427080Y-62682746D01*
X92597080Y-57331080D02*
X93427080Y-58161080D01*
X84217080Y-57331080D02*
X92597080Y-57331080D01*
X82077080Y-55191080D02*
X84217080Y-57331080D01*
X82077080Y-53131080D02*
X82077080Y-55191080D01*
X87223746Y-71426080D02*
X86037080Y-70239414D01*
X86037080Y-70239414D02*
X86037080Y-69281080D01*
X85967080Y-69211080D02*
X86037080Y-69281080D01*
X85967080Y-61941080D02*
X85967080Y-69211080D01*
X87157080Y-60751080D02*
X85967080Y-61941080D01*
X83467080Y-61901080D02*
X84617080Y-60751080D01*
X83467080Y-87471080D02*
X83467080Y-61901080D01*
X52287080Y-75116090D02*
X52102090Y-75301080D01*
X52287080Y-66801080D02*
X52287080Y-75116090D01*
X61967080Y-63806080D02*
X61967080Y-68681080D01*
X61967080Y-68681080D02*
X61967080Y-71426080D01*
X150797080Y-74851080D02*
X150647080Y-74701080D01*
X150797080Y-77051080D02*
X150797080Y-74851080D01*
X150197080Y-77651080D02*
X150797080Y-77051080D01*
X150197080Y-80751080D02*
X150197080Y-77651080D01*
X148967080Y-81981080D02*
X150197080Y-80751080D01*
X148967080Y-83076080D02*
X148967080Y-81981080D01*
X106697080Y-76076080D02*
X106997080Y-76376080D01*
X106697080Y-68751080D02*
X106697080Y-76076080D01*
X106597080Y-68651080D02*
X106697080Y-68751080D01*
X71887080Y-63511080D02*
X73127080Y-64751080D01*
X89797080Y-82101080D02*
X90902079Y-80996081D01*
X80757080Y-52731080D02*
X80757080Y-54571080D01*
X90902079Y-80996081D02*
X93262079Y-80996081D01*
X93262079Y-80996081D02*
X94077080Y-80181080D01*
X94077080Y-80181080D02*
X94077080Y-63761080D01*
X94827080Y-63011080D02*
X94827080Y-53638078D01*
X71887080Y-59361080D02*
X71887080Y-63511080D01*
X93130082Y-51941080D02*
X81547080Y-51941080D01*
X94827080Y-53638078D02*
X93130082Y-51941080D01*
X77977080Y-57351080D02*
X73897080Y-57351080D01*
X94077080Y-63761080D02*
X94827080Y-63011080D01*
X80757080Y-54571080D02*
X77977080Y-57351080D01*
X81547080Y-51941080D02*
X80757080Y-52731080D01*
X73897080Y-57351080D02*
X71887080Y-59361080D01*
X152157080Y-62091080D02*
X152157080Y-57061080D01*
X152157080Y-57061080D02*
X151297080Y-56201080D01*
X151297080Y-56201080D02*
X148647080Y-56201080D01*
X148647080Y-56201080D02*
X147097080Y-57751080D01*
X147097080Y-57751080D02*
X146197080Y-57751080D01*
X146197080Y-57751080D02*
X145797080Y-57351080D01*
X145797080Y-57351080D02*
X145797080Y-54451080D01*
X145797080Y-54451080D02*
X147747080Y-52501080D01*
X147747080Y-52501080D02*
X147747080Y-51301080D01*
X147747080Y-51301080D02*
X146947080Y-50501080D01*
X146947080Y-50501080D02*
X143797080Y-50501080D01*
X143428330Y-50869830D02*
X143428330Y-51921080D01*
X143797080Y-50501080D02*
X143428330Y-50869830D01*
X70777080Y-72191080D02*
X70777080Y-60231080D01*
X69837080Y-73131080D02*
X70777080Y-72191080D01*
X69027080Y-73131080D02*
X69837080Y-73131080D01*
X68207080Y-73951080D02*
X69027080Y-73131080D01*
X68207080Y-80841080D02*
X68207080Y-73951080D01*
X70777080Y-60231080D02*
X68297080Y-57751080D01*
X66947080Y-82101080D02*
X68207080Y-80841080D01*
X143428330Y-51921080D02*
X143428330Y-57542330D01*
X143428330Y-57542330D02*
X143457080Y-57571080D01*
X137615830Y-59369830D02*
X137647080Y-59401080D01*
X137615830Y-51921080D02*
X137615830Y-59369830D01*
X71267091Y-59421091D02*
X71267091Y-72701069D01*
X71267091Y-72701069D02*
X69487080Y-74481080D01*
X71147080Y-59301080D02*
X71267091Y-59421091D01*
X140522080Y-51226080D02*
X140522080Y-51921080D01*
X147447080Y-49901080D02*
X141847080Y-49901080D01*
X149240830Y-51694830D02*
X147447080Y-49901080D01*
X141847080Y-49901080D02*
X140522080Y-51226080D01*
X149240830Y-51921080D02*
X149240830Y-51694830D01*
X57431395Y-58346070D02*
X57997080Y-58346070D01*
X55587080Y-60190385D02*
X57431395Y-58346070D01*
X55587080Y-79211080D02*
X55587080Y-60190385D01*
X54227080Y-80571080D02*
X55587080Y-79211080D01*
X140522080Y-58336080D02*
X140527080Y-58341080D01*
X140522080Y-51921080D02*
X140522080Y-58336080D01*
X223547080Y-62421080D02*
X224807080Y-63681080D01*
X223547080Y-54441080D02*
X223547080Y-62421080D01*
X224807080Y-53181080D02*
X223547080Y-54441080D01*
X223547080Y-72921080D02*
X224807080Y-74181080D01*
X223547080Y-70601080D02*
X223547080Y-72921080D01*
X224807080Y-69341080D02*
X223547080Y-70601080D01*
X224807080Y-63681080D02*
X224807080Y-69341080D01*
X252297080Y-62221080D02*
X253557080Y-63481080D01*
X252297080Y-54441080D02*
X252297080Y-62221080D01*
X253557080Y-53181080D02*
X252297080Y-54441080D01*
X252297080Y-72521080D02*
X253557080Y-73781080D01*
X252297080Y-70651080D02*
X252297080Y-72521080D01*
X253557080Y-69391080D02*
X252297080Y-70651080D01*
X253557080Y-63481080D02*
X253557080Y-69391080D01*
X252297080Y-82821080D02*
X253557080Y-84081080D01*
X253557080Y-79541080D02*
X252297080Y-80801080D01*
X252297080Y-80801080D02*
X252297080Y-82821080D01*
X253557080Y-73781080D02*
X253557080Y-79541080D01*
X252297080Y-93121080D02*
X253557080Y-94381080D01*
X252297080Y-91201080D02*
X252297080Y-93121080D01*
X253557080Y-89941080D02*
X252297080Y-91201080D01*
X253557080Y-84081080D02*
X253557080Y-89941080D01*
X252297080Y-103421080D02*
X253557080Y-104681080D01*
X252297080Y-95641080D02*
X252297080Y-103421080D01*
X253557080Y-94381080D02*
X252297080Y-95641080D01*
X135047082Y-76878531D02*
X135047082Y-91201078D01*
X134709580Y-76541029D02*
X135047082Y-76878531D01*
X134709580Y-75551080D02*
X134709580Y-76541029D01*
X135047082Y-91201078D02*
X134297080Y-91951080D01*
X223487080Y-87356070D02*
X223687080Y-87556070D01*
X223487080Y-75501080D02*
X223487080Y-87356070D01*
X224807080Y-74181080D02*
X223487080Y-75501080D01*
X220997080Y-62411080D02*
X222267080Y-63681080D01*
X220997080Y-54451080D02*
X220997080Y-62411080D01*
X222267080Y-53181080D02*
X220997080Y-54451080D01*
X220997080Y-72911080D02*
X222267080Y-74181080D01*
X220997080Y-70701080D02*
X220997080Y-72911080D01*
X222267080Y-69431080D02*
X220997080Y-70701080D01*
X222267080Y-63681080D02*
X222267080Y-69431080D01*
X249747080Y-54451080D02*
X249747080Y-62211080D01*
X249747080Y-62211080D02*
X251017080Y-63481080D01*
X251017080Y-53181080D02*
X249747080Y-54451080D01*
X249747080Y-72511080D02*
X251017080Y-73781080D01*
X249747080Y-70551080D02*
X249747080Y-72511080D01*
X251017080Y-69281080D02*
X249747080Y-70551080D01*
X251017080Y-63481080D02*
X251017080Y-69281080D01*
X249747080Y-82664670D02*
X251017080Y-83934670D01*
X249747080Y-80767490D02*
X249747080Y-82664670D01*
X251017080Y-73781080D02*
X251017080Y-79497490D01*
X251017080Y-83934670D02*
X251017080Y-84081080D01*
X251017080Y-79497490D02*
X249747080Y-80767490D01*
X249747080Y-93111080D02*
X251017080Y-94381080D01*
X249747080Y-91151080D02*
X249747080Y-93111080D01*
X251017080Y-89881080D02*
X249747080Y-91151080D01*
X251017080Y-84081080D02*
X251017080Y-89881080D01*
X249747080Y-103364670D02*
X251017080Y-104634670D01*
X251017080Y-94381080D02*
X251017080Y-100231080D01*
X251017080Y-100231080D02*
X249747080Y-101501080D01*
X249747080Y-101501080D02*
X249747080Y-103364670D01*
X251017080Y-104634670D02*
X251017080Y-104681080D01*
X130017080Y-50255760D02*
X130334420Y-49938420D01*
X130017080Y-63604830D02*
X130017080Y-50255760D01*
X131803330Y-65391080D02*
X130017080Y-63604830D01*
X61867080Y-77021080D02*
X61867080Y-82101080D01*
X64407080Y-74481080D02*
X61867080Y-77021080D01*
X63287080Y-73361080D02*
X64407080Y-74481080D01*
X63287080Y-63191080D02*
X63287080Y-73361080D01*
X62147080Y-62051080D02*
X63287080Y-63191080D01*
X60527080Y-62051080D02*
X62147080Y-62051080D01*
X59277080Y-60801080D02*
X60527080Y-62051080D01*
X133097080Y-67003580D02*
X134709580Y-65391080D01*
X133097080Y-78371080D02*
X133097080Y-67003580D01*
X133677080Y-78951080D02*
X133097080Y-78371080D01*
X131137080Y-76217330D02*
X131803330Y-75551080D01*
X131137080Y-78951080D02*
X131137080Y-76217330D01*
X153897080Y-76801080D02*
X153897080Y-78851078D01*
X153897080Y-78851078D02*
X154797080Y-79751078D01*
X33637080Y-82001080D02*
X33637080Y-80211080D01*
X36177080Y-77671080D02*
X36177080Y-74381080D01*
X36177080Y-74381080D02*
X36177080Y-73481080D01*
X36177080Y-73481080D02*
X35647080Y-72951080D01*
X35647080Y-72951080D02*
X33997080Y-72951080D01*
X33687080Y-72641080D02*
X33687080Y-71426080D01*
X33997080Y-72951080D02*
X33687080Y-72641080D01*
X33637080Y-80211080D02*
X36177080Y-77671080D01*
X45027080Y-68581080D02*
X45187080Y-68421080D01*
X45027080Y-75581080D02*
X45027080Y-68581080D01*
X46247080Y-76801080D02*
X45027080Y-75581080D01*
X54197080Y-56791080D02*
X52207080Y-54801080D01*
X54197080Y-60801080D02*
X54197080Y-56791080D01*
X216977080Y-106891080D02*
X215677080Y-108191080D01*
X216977080Y-87111080D02*
X216977080Y-106891080D01*
X215677080Y-85811080D02*
X216977080Y-87111080D01*
X169957080Y-105651080D02*
X169957080Y-101051080D01*
X214387080Y-87061080D02*
X213137080Y-85811080D01*
X214387080Y-106941080D02*
X214387080Y-87061080D01*
X213137080Y-108191080D02*
X214387080Y-106941080D01*
X172497080Y-105651080D02*
X172497080Y-101051080D01*
X211867080Y-87081080D02*
X210597080Y-85811080D01*
X211867080Y-106921080D02*
X211867080Y-87081080D01*
X210597080Y-108191080D02*
X211867080Y-106921080D01*
X175037080Y-105651080D02*
X175037080Y-101051080D01*
X209317080Y-87071080D02*
X208057080Y-85811080D01*
X209317080Y-106931080D02*
X209317080Y-87071080D01*
X208057080Y-108191080D02*
X209317080Y-106931080D01*
X177577080Y-105651080D02*
X177577080Y-101051080D01*
X206767080Y-87061080D02*
X205517080Y-85811080D01*
X206767080Y-106941080D02*
X206767080Y-87061080D01*
X205517080Y-108191080D02*
X206767080Y-106941080D01*
X124497080Y-65046080D02*
X123257080Y-63806080D01*
X130097080Y-96251080D02*
X124497080Y-90651080D01*
X124497080Y-90651080D02*
X124497080Y-65046080D01*
X128747080Y-105351080D02*
X130097080Y-104001080D01*
X130097080Y-104001080D02*
X130097080Y-96251080D01*
X128747080Y-108051080D02*
X128747080Y-105351080D01*
X180117080Y-105651080D02*
X180117080Y-101051080D01*
X204227080Y-87061080D02*
X202977080Y-85811080D01*
X204227080Y-106941080D02*
X204227080Y-87061080D01*
X202977080Y-108191080D02*
X204227080Y-106941080D01*
X182657080Y-105651080D02*
X182657080Y-101051080D01*
X201717080Y-106911080D02*
X200437080Y-108191080D01*
X201717080Y-87091080D02*
X201717080Y-106911080D01*
X200437080Y-85811080D02*
X201717080Y-87091080D01*
X185197080Y-105651080D02*
X185197080Y-101051080D01*
X199147080Y-87061080D02*
X197897080Y-85811080D01*
X199147080Y-106941080D02*
X199147080Y-87061080D01*
X197897080Y-108191080D02*
X199147080Y-106941080D01*
X112247090Y-91461070D02*
X116237080Y-87471080D01*
X112247090Y-105601070D02*
X112247090Y-91461070D01*
X110797080Y-107051080D02*
X112247090Y-105601070D01*
X111747080Y-61991080D02*
X110557080Y-60801080D01*
X111747080Y-64463080D02*
X111747080Y-61991080D01*
X112635080Y-65351080D02*
X111747080Y-64463080D01*
X118897080Y-65351080D02*
X112635080Y-65351080D01*
X122027080Y-68481080D02*
X118897080Y-65351080D01*
X122027080Y-72131080D02*
X122027080Y-68481080D01*
X123217080Y-73321080D02*
X122027080Y-72131080D01*
X123217080Y-87471080D02*
X123217080Y-73321080D01*
X187737080Y-105651080D02*
X187737080Y-101051080D01*
X196637080Y-87091080D02*
X195357080Y-85811080D01*
X196637080Y-106911080D02*
X196637080Y-87091080D01*
X195357080Y-108191080D02*
X196637080Y-106911080D01*
X190277080Y-105651080D02*
X190277080Y-101051080D01*
X192817080Y-105651080D02*
X192817080Y-101051080D01*
X191547080Y-87081080D02*
X190277080Y-85811080D01*
X191547080Y-106921080D02*
X191547080Y-87081080D01*
X190277080Y-108191080D02*
X191547080Y-106921080D01*
X195357080Y-105651080D02*
X195357080Y-101051080D01*
X189007080Y-87081080D02*
X187737080Y-85811080D01*
X189007080Y-106921080D02*
X189007080Y-87081080D01*
X187737080Y-108191080D02*
X189007080Y-106921080D01*
X197897080Y-105651080D02*
X197897080Y-101051080D01*
X186372081Y-86986081D02*
X185197080Y-85811080D01*
X186372081Y-107016079D02*
X186372081Y-86986081D01*
X185197080Y-108191080D02*
X186372081Y-107016079D01*
X200437080Y-105651080D02*
X200437080Y-101051080D01*
X183917080Y-87071080D02*
X182657080Y-85811080D01*
X183917080Y-106931080D02*
X183917080Y-87071080D01*
X182657080Y-108191080D02*
X183917080Y-106931080D01*
X202977080Y-105651080D02*
X202977080Y-101051080D01*
X181377080Y-87071080D02*
X180117080Y-85811080D01*
X181377080Y-106931080D02*
X181377080Y-87071080D01*
X180117080Y-108191080D02*
X181377080Y-106931080D01*
X118177080Y-72471080D02*
X118177080Y-71426080D01*
X122217080Y-76511080D02*
X118177080Y-72471080D01*
X122217080Y-94181080D02*
X122217080Y-76511080D01*
X118397080Y-98001080D02*
X122217080Y-94181080D01*
X118397080Y-106326080D02*
X118397080Y-98001080D01*
X205517080Y-105651080D02*
X205517080Y-101051080D01*
X178837080Y-87071080D02*
X177577080Y-85811080D01*
X178837080Y-106931080D02*
X178837080Y-87071080D01*
X177577080Y-108191080D02*
X178837080Y-106931080D01*
X109792765Y-105651080D02*
X109227080Y-105651080D01*
X112947080Y-72851080D02*
X111797080Y-74001080D01*
X111797080Y-74001080D02*
X111797080Y-103646765D01*
X115637080Y-71426080D02*
X114212080Y-72851080D01*
X114212080Y-72851080D02*
X112947080Y-72851080D01*
X111797080Y-103646765D02*
X109792765Y-105651080D01*
X208057080Y-105651080D02*
X208057080Y-101051080D01*
X109227081Y-104201081D02*
X109627080Y-104601080D01*
X109227081Y-73631081D02*
X109227081Y-104201081D01*
X108017080Y-71426080D02*
X108017080Y-72421080D01*
X108017080Y-72421080D02*
X109227081Y-73631081D01*
X176287080Y-87061080D02*
X175037080Y-85811080D01*
X176287080Y-106941080D02*
X176287080Y-87061080D01*
X175037080Y-108191080D02*
X176287080Y-106941080D01*
X210597080Y-105651080D02*
X210597080Y-101051080D01*
X173767080Y-106921080D02*
X172497080Y-108191080D01*
X173767080Y-100451080D02*
X173767080Y-106921080D01*
X172472079Y-99156079D02*
X173767080Y-100451080D01*
X172472079Y-85836081D02*
X172472079Y-99156079D01*
X172497080Y-85811080D02*
X172472079Y-85836081D01*
X104197080Y-75971080D02*
X104197080Y-72706080D01*
X104197080Y-72706080D02*
X105477080Y-71426080D01*
X101637080Y-78531080D02*
X104197080Y-75971080D01*
X101637080Y-84331080D02*
X101637080Y-78531080D01*
X104197080Y-86891080D02*
X101637080Y-84331080D01*
X104197080Y-102351080D02*
X104197080Y-86891080D01*
X213137080Y-105651080D02*
X213137080Y-101051080D01*
X171237080Y-100461080D02*
X171237080Y-106911080D01*
X169957080Y-99181080D02*
X171237080Y-100461080D01*
X171237080Y-106911080D02*
X169957080Y-108191080D01*
X169957080Y-85811080D02*
X169957080Y-99181080D01*
X98397080Y-88331080D02*
X98397080Y-62151080D01*
X96525080Y-90203080D02*
X98397080Y-88331080D01*
X96525080Y-90805080D02*
X96525080Y-90203080D01*
M02*
