M48
; DRILL file {KiCad (5.1.12)-1} date 06/16/24 18:18:31
; FORMAT={-:-/ absolute / metric / decimal}
; #@! TF.CreationDate,2024-06-16T18:18:31+02:00
; #@! TF.GenerationSoftware,Kicad,Pcbnew,(5.1.12)-1
; #@! TF.FileFunction,Plated,1,4,PTH
FMAT,2
METRIC
T1C0.400
T2C0.800
T3C1.000
T4C1.016
%
G90
G05
T1
X28.64Y-79.717
X30.707Y-51.341
X31.067Y-66.841
X37.547Y-56.651
X37.851Y-106.177
X39.947Y-84.941
X40.157Y-98.461
X40.391Y-106.177
X41.747Y-97.261
X41.787Y-98.511
X45.187Y-68.421
X46.247Y-76.801
X46.307Y-79.061
X47.217Y-78.071
X48.277Y-56.801
X49.177Y-57.631
X49.977Y-55.781
X50.147Y-78.131
X52.102Y-75.301
X52.207Y-54.801
X52.267Y-78.871
X52.287Y-66.801
X52.817Y-76.421
X53.257Y-79.831
X54.097Y-100.731
X54.217Y-87.741
X54.227Y-80.571
X54.377Y-66.021
X57.747Y-107.271
X57.997Y-58.346
X59.297Y-86.251
X60.657Y-68.001
X61.887Y-106.701
X61.907Y-99.831
X61.967Y-68.681
X63.337Y-49.361
X64.617Y-65.651
X64.797Y-99.871
X66.787Y-66.681
X68.297Y-57.751
X71.147Y-59.301
X71.837Y-82.651
X73.067Y-88.891
X73.127Y-64.751
X73.157Y-104.331
X73.967Y-93.881
X74.387Y-60.026
X74.877Y-92.006
X75.157Y-104.561
X75.737Y-89.641
X75.857Y-93.151
X77.077Y-87.111
X77.187Y-105.931
X78.207Y-104.071
X79.357Y-76.471
X79.437Y-106.811
X79.777Y-105.651
X80.837Y-83.231
X80.907Y-76.461
X83.467Y-87.471
X86.037Y-69.281
X86.487Y-96.821
X87.237Y-83.701
X87.397Y-107.891
X87.487Y-88.491
X88.197Y-93.401
X88.467Y-90.641
X88.53Y-88.798
X88.537Y-92.211
X91.087Y-99.681
X92.937Y-80.271
X94.102Y-54.271
X94.897Y-64.181
X95.747Y-83.731
X96.197Y-64.283
X96.267Y-75.701
X97.477Y-63.951
X98.397Y-62.151
X101.457Y-106.861
X101.527Y-105.711
X103.057Y-66.171
X103.077Y-110.421
X104.197Y-102.351
X105.467Y-79.781
X105.747Y-102.751
X105.797Y-85.351
X106.597Y-68.651
X106.997Y-76.376
X107.597Y-84.551
X107.647Y-102.051
X108.097Y-78.401
X108.947Y-68.951
X109.227Y-105.651
X109.627Y-104.601
X110.507Y-79.921
X110.597Y-69.001
X110.797Y-107.051
X113.147Y-68.101
X113.157Y-77.926
X115.677Y-86.521
X116.237Y-87.471
X116.477Y-106.326
X117.537Y-103.671
X117.747Y-77.901
X118.397Y-106.326
X120.717Y-68.401
X123.217Y-87.471
X124.007Y-51.431
X126.197Y-62.151
X126.377Y-79.521
X128.747Y-108.051
X130.334Y-49.938
X131.047Y-102.701
X131.697Y-49.601
X133.197Y-49.076
X134.234Y-90.738
X134.297Y-91.951
X136.217Y-67.901
X136.997Y-92.806
X137.637Y-91.881
X137.647Y-59.401
X139.047Y-53.451
X139.117Y-92.871
X140.257Y-92.571
X140.527Y-58.341
X141.397Y-93.671
X141.947Y-52.901
X142.697Y-89.326
X143.457Y-57.571
X143.617Y-102.021
X143.797Y-89.876
X144.897Y-52.976
X145.727Y-92.961
X146.335Y-68.714
X146.747Y-56.776
X147.697Y-91.901
X147.707Y-94.221
X148.427Y-95.031
X149.537Y-57.421
X150.607Y-57.471
X150.647Y-74.701
X153.537Y-113.871
X153.847Y-60.801
X153.897Y-76.801
X154.747Y-62.451
X154.797Y-79.751
X154.817Y-54.661
X154.885Y-82.489
X154.897Y-66.901
X154.897Y-76.151
X154.917Y-89.641
X155.197Y-86.201
X156.197Y-89.951
X156.547Y-85.876
X157.697Y-107.651
X158.697Y-107.101
X159.497Y-106.351
X160.997Y-65.001
X164.897Y-98.151
X165.047Y-96.121
X166.097Y-95.476
X166.967Y-56.621
X168.667Y-88.381
X171.367Y-88.251
X172.397Y-66.801
X173.197Y-87.931
X176.147Y-66.351
X177.237Y-91.931
X180.047Y-48.976
X180.087Y-91.061
X182.607Y-90.271
X185.097Y-91.201
X186.297Y-49.401
X187.647Y-92.001
X192.247Y-66.501
X194.067Y-114.931
X195.047Y-67.251
X195.297Y-91.901
X211.847Y-79.226
X212.747Y-80.051
X212.847Y-82.051
X215.917Y-113.301
X217.027Y-113.531
X218.247Y-114.551
X218.247Y-115.651
X219.747Y-58.826
X223.687Y-87.556
X224.567Y-88.481
X228.647Y-55.726
X231.147Y-56.851
X231.917Y-57.576
X234.797Y-90.351
X235.697Y-91.321
X236.697Y-112.451
X240.347Y-78.101
X240.347Y-79.151
X240.947Y-75.551
X241.747Y-76.401
T2
X31.097Y-53.181
X31.097Y-60.801
X31.097Y-74.381
X31.097Y-82.001
X31.147Y-63.806
X31.147Y-71.426
X33.637Y-53.181
X33.637Y-60.801
X33.637Y-74.381
X33.637Y-82.001
X33.687Y-63.806
X33.687Y-71.426
X36.177Y-53.181
X36.177Y-60.801
X36.177Y-74.381
X36.177Y-82.001
X36.227Y-63.806
X36.227Y-71.426
X38.717Y-53.181
X38.717Y-60.801
X38.717Y-74.381
X38.717Y-82.001
X38.767Y-63.806
X38.767Y-71.426
X41.257Y-53.181
X41.257Y-60.801
X41.257Y-74.381
X41.257Y-82.001
X41.307Y-63.806
X41.307Y-71.426
X43.797Y-53.181
X43.797Y-60.801
X43.797Y-74.381
X43.797Y-82.001
X43.847Y-63.806
X43.847Y-71.426
X46.337Y-53.181
X46.337Y-60.801
X46.337Y-74.381
X46.337Y-82.001
X46.387Y-63.806
X46.387Y-71.426
X50.147Y-63.301
X50.147Y-73.301
X54.197Y-53.181
X54.197Y-60.801
X54.247Y-74.481
X54.247Y-82.101
X54.347Y-63.806
X54.347Y-71.426
X56.737Y-53.181
X56.737Y-60.801
X56.787Y-74.481
X56.787Y-82.101
X56.887Y-63.806
X56.887Y-71.426
X59.277Y-53.181
X59.277Y-60.801
X59.327Y-74.481
X59.327Y-82.101
X59.427Y-63.806
X59.427Y-71.426
X61.817Y-53.181
X61.817Y-60.801
X61.867Y-74.481
X61.867Y-82.101
X61.967Y-63.806
X61.967Y-71.426
X64.357Y-53.181
X64.357Y-60.801
X64.407Y-74.481
X64.407Y-82.101
X64.507Y-63.806
X64.507Y-71.426
X66.897Y-53.181
X66.897Y-60.801
X66.947Y-74.481
X66.947Y-82.101
X67.047Y-63.806
X67.047Y-71.426
X69.437Y-53.181
X69.437Y-60.801
X69.487Y-74.481
X69.487Y-82.101
X69.587Y-63.806
X69.587Y-71.426
X73.147Y-62.926
X73.147Y-72.926
X76.997Y-53.131
X76.997Y-60.751
X77.064Y-63.806
X77.064Y-71.426
X77.097Y-74.481
X77.097Y-82.101
X79.537Y-53.131
X79.537Y-60.751
X79.604Y-63.806
X79.604Y-71.426
X79.637Y-74.481
X79.637Y-82.101
X82.077Y-53.131
X82.077Y-60.751
X82.144Y-63.806
X82.144Y-71.426
X82.177Y-74.481
X82.177Y-82.101
X84.617Y-53.131
X84.617Y-60.751
X84.684Y-63.806
X84.684Y-71.426
X84.717Y-74.481
X84.717Y-82.101
X87.157Y-53.131
X87.157Y-60.751
X87.224Y-63.806
X87.224Y-71.426
X87.257Y-74.481
X87.257Y-82.101
X89.697Y-53.131
X89.697Y-60.751
X89.764Y-63.806
X89.764Y-71.426
X89.797Y-74.481
X89.797Y-82.101
X92.237Y-53.131
X92.237Y-60.751
X92.304Y-63.806
X92.304Y-71.426
X92.337Y-74.481
X92.337Y-82.101
X96.147Y-62.551
X96.147Y-72.551
X100.397Y-53.181
X100.397Y-60.801
X100.397Y-63.806
X100.397Y-71.426
X100.397Y-74.481
X100.397Y-82.101
X102.937Y-53.181
X102.937Y-60.801
X102.937Y-63.806
X102.937Y-71.426
X102.937Y-74.481
X102.937Y-82.101
X105.477Y-53.181
X105.477Y-60.801
X105.477Y-63.806
X105.477Y-71.426
X105.477Y-74.481
X105.477Y-82.101
X108.017Y-53.181
X108.017Y-60.801
X108.017Y-63.806
X108.017Y-71.426
X108.017Y-74.481
X108.017Y-82.101
X110.557Y-53.181
X110.557Y-60.801
X110.557Y-63.806
X110.557Y-71.426
X110.557Y-74.481
X110.557Y-82.101
X113.097Y-53.181
X113.097Y-60.801
X113.097Y-63.806
X113.097Y-71.426
X113.097Y-74.481
X113.097Y-82.101
X113.827Y-103.797
X113.827Y-113.797
X115.637Y-53.181
X115.637Y-60.801
X115.637Y-63.806
X115.637Y-71.426
X115.637Y-74.481
X115.637Y-82.101
X118.177Y-53.181
X118.177Y-60.801
X118.177Y-63.806
X118.177Y-71.426
X118.177Y-74.481
X118.177Y-82.101
X119.177Y-93.801
X119.177Y-113.801
X120.717Y-53.181
X120.717Y-60.801
X120.717Y-63.806
X120.717Y-71.426
X123.257Y-53.181
X123.257Y-60.801
X123.257Y-63.806
X123.257Y-71.426
X128.597Y-78.951
X128.647Y-83.076
X128.697Y-87.201
X128.783Y-103.637
X128.783Y-113.637
X128.897Y-51.921
X128.897Y-62.081
X128.897Y-65.391
X128.897Y-75.551
X131.137Y-78.951
X131.187Y-83.076
X131.237Y-87.201
X131.803Y-51.921
X131.803Y-62.081
X131.803Y-65.391
X131.803Y-75.551
X133.677Y-78.951
X133.727Y-83.076
X133.777Y-87.201
X134.71Y-51.921
X134.71Y-62.081
X134.71Y-65.391
X134.71Y-75.551
X136.217Y-78.951
X136.267Y-83.076
X136.317Y-87.201
X137.616Y-51.921
X137.616Y-62.081
X137.616Y-65.391
X137.616Y-75.551
X138.757Y-78.951
X138.807Y-83.076
X138.857Y-87.201
X140.522Y-51.921
X140.522Y-62.081
X140.522Y-65.391
X140.522Y-75.551
X141.297Y-78.951
X141.347Y-83.076
X141.397Y-87.201
X143.428Y-51.921
X143.428Y-62.081
X143.428Y-65.391
X143.428Y-75.551
X143.837Y-78.951
X143.887Y-83.076
X143.937Y-87.201
X146.335Y-51.921
X146.335Y-62.081
X146.335Y-65.391
X146.335Y-75.551
X146.377Y-78.951
X146.427Y-83.076
X146.477Y-87.201
X148.917Y-78.951
X148.967Y-83.076
X149.017Y-87.201
X149.241Y-51.921
X149.241Y-62.081
X149.241Y-65.391
X149.241Y-75.551
X151.457Y-78.951
X151.507Y-83.076
X151.557Y-87.201
X152.147Y-65.301
X152.147Y-75.301
X152.157Y-51.931
X152.157Y-62.091
X157.147Y-53.181
X157.147Y-60.801
X157.147Y-63.806
X157.147Y-71.426
X157.147Y-74.431
X157.147Y-82.051
X159.687Y-53.181
X159.687Y-60.801
X159.687Y-63.806
X159.687Y-71.426
X159.687Y-74.431
X159.687Y-82.051
X162.227Y-53.181
X162.227Y-60.801
X162.227Y-63.806
X162.227Y-71.426
X162.227Y-74.431
X162.227Y-82.051
X162.247Y-89.701
X162.247Y-97.201
X164.767Y-53.181
X164.767Y-60.801
X164.767Y-63.806
X164.767Y-71.426
X164.767Y-74.431
X164.767Y-82.051
X167.307Y-53.181
X167.307Y-60.801
X167.307Y-63.806
X167.307Y-71.426
X167.307Y-74.431
X167.307Y-82.051
X167.417Y-85.811
X167.417Y-101.051
X169.847Y-53.181
X169.847Y-60.801
X169.847Y-63.806
X169.847Y-71.426
X169.847Y-74.431
X169.847Y-82.051
X169.957Y-85.811
X169.957Y-101.051
X172.387Y-53.181
X172.387Y-60.801
X172.387Y-63.806
X172.387Y-71.426
X172.387Y-74.431
X172.387Y-82.051
X172.497Y-85.811
X172.497Y-101.051
X174.927Y-53.181
X174.927Y-60.801
X174.927Y-63.806
X174.927Y-71.426
X174.927Y-74.431
X174.927Y-82.051
X175.037Y-85.811
X175.037Y-101.051
X177.467Y-53.181
X177.467Y-60.801
X177.467Y-63.806
X177.467Y-71.426
X177.467Y-74.431
X177.467Y-82.051
X177.577Y-85.811
X177.577Y-101.051
X180.007Y-53.181
X180.007Y-60.801
X180.007Y-63.806
X180.007Y-71.426
X180.007Y-74.431
X180.007Y-82.051
X180.117Y-85.811
X180.117Y-101.051
X182.657Y-85.811
X182.657Y-101.051
X184.647Y-62.801
X184.647Y-72.801
X185.197Y-85.811
X185.197Y-101.051
X187.737Y-85.811
X187.737Y-101.051
X188.347Y-74.281
X188.347Y-81.901
X188.447Y-53.181
X188.447Y-60.801
X188.447Y-63.831
X188.447Y-71.451
X190.277Y-85.811
X190.277Y-101.051
X190.887Y-74.281
X190.887Y-81.901
X190.987Y-53.181
X190.987Y-60.801
X190.987Y-63.831
X190.987Y-71.451
X192.817Y-85.811
X192.817Y-101.051
X193.427Y-74.281
X193.427Y-81.901
X193.527Y-53.181
X193.527Y-60.801
X193.527Y-63.831
X193.527Y-71.451
X195.357Y-85.811
X195.357Y-101.051
X195.967Y-74.281
X195.967Y-81.901
X196.067Y-53.181
X196.067Y-60.801
X196.067Y-63.831
X196.067Y-71.451
X197.897Y-85.811
X197.897Y-101.051
X198.507Y-74.281
X198.507Y-81.901
X198.607Y-53.181
X198.607Y-60.801
X198.607Y-63.831
X198.607Y-71.451
X200.437Y-85.811
X200.437Y-101.051
X201.047Y-74.281
X201.047Y-81.901
X201.147Y-53.181
X201.147Y-60.801
X201.147Y-63.831
X201.147Y-71.451
X202.977Y-85.811
X202.977Y-101.051
X203.587Y-74.281
X203.587Y-81.901
X203.687Y-53.181
X203.687Y-60.801
X203.687Y-63.831
X203.687Y-71.451
X205.517Y-85.811
X205.517Y-101.051
X206.227Y-53.181
X206.227Y-60.801
X206.227Y-63.831
X206.227Y-71.451
X208.057Y-85.811
X208.057Y-101.051
X210.597Y-85.811
X210.597Y-101.051
X210.647Y-53.251
X210.647Y-60.751
X210.647Y-64.051
X210.647Y-71.551
X210.647Y-74.551
X210.647Y-82.051
X213.137Y-85.811
X213.137Y-101.051
X214.647Y-53.181
X214.647Y-60.801
X214.647Y-63.681
X214.647Y-71.301
X214.647Y-74.181
X214.647Y-81.801
X215.677Y-85.811
X215.677Y-101.051
X217.187Y-53.181
X217.187Y-60.801
X217.187Y-63.681
X217.187Y-71.301
X217.187Y-74.181
X217.187Y-81.801
X219.727Y-53.181
X219.727Y-60.801
X219.727Y-63.681
X219.727Y-71.301
X219.727Y-74.181
X219.727Y-81.801
X222.267Y-53.181
X222.267Y-60.801
X222.267Y-63.681
X222.267Y-71.301
X222.267Y-74.181
X222.267Y-81.801
X224.807Y-53.181
X224.807Y-60.801
X224.807Y-63.681
X224.807Y-71.301
X224.807Y-74.181
X224.807Y-81.801
X227.347Y-53.181
X227.347Y-60.801
X227.347Y-63.681
X227.347Y-71.301
X227.347Y-74.181
X227.347Y-81.801
X229.887Y-53.181
X229.887Y-60.801
X229.887Y-63.681
X229.887Y-71.301
X229.887Y-74.181
X229.887Y-81.801
X232.427Y-53.181
X232.427Y-60.801
X232.427Y-63.681
X232.427Y-71.301
X232.427Y-74.181
X232.427Y-81.801
X234.967Y-53.181
X234.967Y-60.801
X234.967Y-63.681
X234.967Y-71.301
X234.967Y-74.181
X234.967Y-81.801
X239.397Y-53.251
X239.397Y-60.751
X239.397Y-63.561
X239.397Y-71.061
X239.397Y-73.871
X239.397Y-81.371
X239.397Y-84.181
X239.397Y-91.681
X239.397Y-94.491
X239.397Y-101.991
X239.397Y-104.801
X239.397Y-112.301
X243.397Y-53.181
X243.397Y-60.801
X243.397Y-63.481
X243.397Y-71.101
X243.397Y-73.781
X243.397Y-81.401
X243.397Y-84.081
X243.397Y-91.701
X243.397Y-94.381
X243.397Y-102.001
X243.397Y-104.681
X243.397Y-112.301
X245.937Y-53.181
X245.937Y-60.801
X245.937Y-63.481
X245.937Y-71.101
X245.937Y-73.781
X245.937Y-81.401
X245.937Y-84.081
X245.937Y-91.701
X245.937Y-94.381
X245.937Y-102.001
X245.937Y-104.681
X245.937Y-112.301
X248.477Y-53.181
X248.477Y-60.801
X248.477Y-63.481
X248.477Y-71.101
X248.477Y-73.781
X248.477Y-81.401
X248.477Y-84.081
X248.477Y-91.701
X248.477Y-94.381
X248.477Y-102.001
X248.477Y-104.681
X248.477Y-112.301
X251.017Y-53.181
X251.017Y-60.801
X251.017Y-63.481
X251.017Y-71.101
X251.017Y-73.781
X251.017Y-81.401
X251.017Y-84.081
X251.017Y-91.701
X251.017Y-94.381
X251.017Y-102.001
X251.017Y-104.681
X251.017Y-112.301
X253.557Y-53.181
X253.557Y-60.801
X253.557Y-63.481
X253.557Y-71.101
X253.557Y-73.781
X253.557Y-81.401
X253.557Y-84.081
X253.557Y-91.701
X253.557Y-94.381
X253.557Y-102.001
X253.557Y-104.681
X253.557Y-112.301
X256.097Y-53.181
X256.097Y-60.801
X256.097Y-63.481
X256.097Y-71.101
X256.097Y-73.781
X256.097Y-81.401
X256.097Y-84.081
X256.097Y-91.701
X256.097Y-94.381
X256.097Y-102.001
X256.097Y-104.681
X256.097Y-112.301
X258.637Y-53.181
X258.637Y-60.801
X258.637Y-63.481
X258.637Y-71.101
X258.637Y-73.781
X258.637Y-81.401
X258.637Y-84.081
X258.637Y-91.701
X258.637Y-94.381
X258.637Y-102.001
X258.637Y-104.681
X258.637Y-112.301
X261.177Y-53.181
X261.177Y-60.801
X261.177Y-63.481
X261.177Y-71.101
X261.177Y-73.781
X261.177Y-81.401
X261.177Y-84.081
X261.177Y-91.701
X261.177Y-94.381
X261.177Y-102.001
X261.177Y-104.681
X261.177Y-112.301
X263.717Y-53.181
X263.717Y-60.801
X263.717Y-63.481
X263.717Y-71.101
X263.717Y-73.781
X263.717Y-81.401
X263.717Y-84.081
X263.717Y-91.701
X263.717Y-94.381
X263.717Y-102.001
X263.717Y-104.681
X263.717Y-112.301
T3
X93.837Y-87.621
X93.837Y-90.161
X96.567Y-87.621
X96.567Y-90.161
X124.327Y-93.801
X124.327Y-109.041
X167.417Y-105.651
X167.417Y-108.191
X169.957Y-105.651
X169.957Y-108.191
X172.497Y-105.651
X172.497Y-108.191
X175.037Y-105.651
X175.037Y-108.191
X177.577Y-105.651
X177.577Y-108.191
X180.117Y-105.651
X180.117Y-108.191
X182.657Y-105.651
X182.657Y-108.191
X185.197Y-105.651
X185.197Y-108.191
X187.737Y-105.651
X187.737Y-108.191
X190.277Y-105.651
X190.277Y-108.191
X192.817Y-105.651
X192.817Y-108.191
X195.357Y-105.651
X195.357Y-108.191
X197.897Y-105.651
X197.897Y-108.191
X200.437Y-105.651
X200.437Y-108.191
X202.977Y-105.651
X202.977Y-108.191
X205.517Y-105.651
X205.517Y-108.191
X208.057Y-105.651
X208.057Y-108.191
X210.597Y-105.651
X210.597Y-108.191
X213.137Y-105.651
X213.137Y-108.191
X215.677Y-105.651
X215.677Y-108.191
T4
X37.851Y-109.291
X37.851Y-111.831
X40.391Y-109.291
X40.391Y-111.831
X42.931Y-109.291
X42.931Y-111.831
X45.471Y-109.291
X45.471Y-111.831
X48.011Y-109.291
X48.011Y-111.831
X50.551Y-109.291
X50.551Y-111.831
X53.091Y-109.291
X53.091Y-111.831
X55.631Y-109.291
X55.631Y-111.831
X58.171Y-109.291
X58.171Y-111.831
X60.711Y-109.291
X60.711Y-111.831
X63.251Y-109.291
X63.251Y-111.831
X65.791Y-109.291
X65.791Y-111.831
X68.331Y-109.291
X68.331Y-111.831
X70.871Y-109.291
X70.871Y-111.831
X73.411Y-109.291
X73.411Y-111.831
X75.951Y-109.291
X75.951Y-111.831
X78.491Y-109.291
X78.491Y-111.831
X81.031Y-109.291
X81.031Y-111.831
X83.571Y-109.291
X83.571Y-111.831
X86.111Y-109.291
X86.111Y-111.831
X88.651Y-109.291
X88.651Y-111.831
X91.191Y-109.291
X91.191Y-111.831
X93.731Y-109.291
X93.731Y-111.831
X96.271Y-109.291
X96.271Y-111.831
X98.811Y-109.291
X98.811Y-111.831
X101.351Y-109.291
X101.351Y-111.831
T0
M30
