%FSLAX45Y45*%
G04 Gerber Fmt 4.5, Leading zero omitted, Abs format (unit mm)*
G04 Created by KiCad (PCBNEW (5.1.12)-1) date 2024-06-16 18:18:29*
%MOMM*%
%LPD*%
G01*
G04 APERTURE LIST*
%TA.AperFunction,Profile*%
%ADD10C,0.050000*%
%TD*%
%ADD11C,0.200000*%
%ADD12C,0.300000*%
G04 APERTURE END LIST*
D10*
X27534708Y-11990108D02*
X2134708Y-11990108D01*
X27534708Y-4590108D02*
X27534708Y-11990108D01*
X2134708Y-4590108D02*
X27534708Y-4590108D01*
X2134708Y-11990108D02*
X2134708Y-4590108D01*
D11*
X2843980Y-7951721D02*
X2883980Y-7991721D01*
X2883980Y-7951721D02*
X2843980Y-7991721D01*
X3050708Y-5114108D02*
X3090708Y-5154108D01*
X3090708Y-5114108D02*
X3050708Y-5154108D01*
X3086708Y-6664108D02*
X3126708Y-6704108D01*
X3126708Y-6664108D02*
X3086708Y-6704108D01*
X3734708Y-5645108D02*
X3774708Y-5685108D01*
X3774708Y-5645108D02*
X3734708Y-5685108D01*
X3765108Y-10597708D02*
X3805108Y-10637708D01*
X3805108Y-10597708D02*
X3765108Y-10637708D01*
X3974708Y-8474108D02*
X4014708Y-8514108D01*
X4014708Y-8474108D02*
X3974708Y-8514108D01*
X3995708Y-9826108D02*
X4035708Y-9866108D01*
X4035708Y-9826108D02*
X3995708Y-9866108D01*
X4019108Y-10597708D02*
X4059108Y-10637708D01*
X4059108Y-10597708D02*
X4019108Y-10637708D01*
X4154708Y-9706108D02*
X4194708Y-9746108D01*
X4194708Y-9706108D02*
X4154708Y-9746108D01*
X4158708Y-9831108D02*
X4198708Y-9871108D01*
X4198708Y-9831108D02*
X4158708Y-9871108D01*
X4498708Y-6822108D02*
X4538708Y-6862108D01*
X4538708Y-6822108D02*
X4498708Y-6862108D01*
X4604708Y-7660108D02*
X4644708Y-7700108D01*
X4644708Y-7660108D02*
X4604708Y-7700108D01*
X4610708Y-7886108D02*
X4650708Y-7926108D01*
X4650708Y-7886108D02*
X4610708Y-7926108D01*
X4701708Y-7787108D02*
X4741708Y-7827108D01*
X4741708Y-7787108D02*
X4701708Y-7827108D01*
X4807708Y-5660108D02*
X4847708Y-5700108D01*
X4847708Y-5660108D02*
X4807708Y-5700108D01*
X4897708Y-5743108D02*
X4937708Y-5783108D01*
X4937708Y-5743108D02*
X4897708Y-5783108D01*
X4977708Y-5558108D02*
X5017708Y-5598108D01*
X5017708Y-5558108D02*
X4977708Y-5598108D01*
X4994708Y-7793108D02*
X5034708Y-7833108D01*
X5034708Y-7793108D02*
X4994708Y-7833108D01*
X5190209Y-7510108D02*
X5230209Y-7550108D01*
X5230209Y-7510108D02*
X5190209Y-7550108D01*
X5200708Y-5460108D02*
X5240708Y-5500108D01*
X5240708Y-5460108D02*
X5200708Y-5500108D01*
X5206708Y-7867108D02*
X5246708Y-7907108D01*
X5246708Y-7867108D02*
X5206708Y-7907108D01*
X5208708Y-6660108D02*
X5248708Y-6700108D01*
X5248708Y-6660108D02*
X5208708Y-6700108D01*
X5261708Y-7622108D02*
X5301708Y-7662108D01*
X5301708Y-7622108D02*
X5261708Y-7662108D01*
X5305708Y-7963108D02*
X5345708Y-8003108D01*
X5345708Y-7963108D02*
X5305708Y-8003108D01*
X5389708Y-10053108D02*
X5429708Y-10093108D01*
X5429708Y-10053108D02*
X5389708Y-10093108D01*
X5401708Y-8754108D02*
X5441708Y-8794108D01*
X5441708Y-8754108D02*
X5401708Y-8794108D01*
X5402708Y-8037108D02*
X5442708Y-8077108D01*
X5442708Y-8037108D02*
X5402708Y-8077108D01*
X5417708Y-6582108D02*
X5457708Y-6622108D01*
X5457708Y-6582108D02*
X5417708Y-6622108D01*
X5754708Y-10707108D02*
X5794708Y-10747108D01*
X5794708Y-10707108D02*
X5754708Y-10747108D01*
X5779708Y-5814607D02*
X5819708Y-5854607D01*
X5819708Y-5814607D02*
X5779708Y-5854607D01*
X5909708Y-8605108D02*
X5949708Y-8645108D01*
X5949708Y-8605108D02*
X5909708Y-8645108D01*
X6045708Y-6780108D02*
X6085708Y-6820108D01*
X6085708Y-6780108D02*
X6045708Y-6820108D01*
X6168708Y-10650108D02*
X6208708Y-10690108D01*
X6208708Y-10650108D02*
X6168708Y-10690108D01*
X6170708Y-9963108D02*
X6210708Y-10003108D01*
X6210708Y-9963108D02*
X6170708Y-10003108D01*
X6176708Y-6848108D02*
X6216708Y-6888108D01*
X6216708Y-6848108D02*
X6176708Y-6888108D01*
X6313708Y-4916108D02*
X6353708Y-4956108D01*
X6353708Y-4916108D02*
X6313708Y-4956108D01*
X6441708Y-6545108D02*
X6481708Y-6585108D01*
X6481708Y-6545108D02*
X6441708Y-6585108D01*
X6459708Y-9967108D02*
X6499708Y-10007108D01*
X6499708Y-9967108D02*
X6459708Y-10007108D01*
X6658708Y-6648108D02*
X6698708Y-6688108D01*
X6698708Y-6648108D02*
X6658708Y-6688108D01*
X6809708Y-5755108D02*
X6849708Y-5795108D01*
X6849708Y-5755108D02*
X6809708Y-5795108D01*
X7094708Y-5910108D02*
X7134708Y-5950108D01*
X7134708Y-5910108D02*
X7094708Y-5950108D01*
X7163708Y-8245108D02*
X7203708Y-8285108D01*
X7203708Y-8245108D02*
X7163708Y-8285108D01*
X7286708Y-8869108D02*
X7326708Y-8909108D01*
X7326708Y-8869108D02*
X7286708Y-8909108D01*
X7292708Y-6455108D02*
X7332708Y-6495108D01*
X7332708Y-6455108D02*
X7292708Y-6495108D01*
X7295708Y-10413108D02*
X7335708Y-10453108D01*
X7335708Y-10413108D02*
X7295708Y-10453108D01*
X7376708Y-9368108D02*
X7416708Y-9408108D01*
X7416708Y-9368108D02*
X7376708Y-9408108D01*
X7418708Y-5982608D02*
X7458708Y-6022608D01*
X7458708Y-5982608D02*
X7418708Y-6022608D01*
X7467708Y-9180607D02*
X7507708Y-9220607D01*
X7507708Y-9180607D02*
X7467708Y-9220607D01*
X7495708Y-10436108D02*
X7535708Y-10476108D01*
X7535708Y-10436108D02*
X7495708Y-10476108D01*
X7553708Y-8944108D02*
X7593708Y-8984108D01*
X7593708Y-8944108D02*
X7553708Y-8984108D01*
X7565708Y-9295108D02*
X7605708Y-9335108D01*
X7605708Y-9295108D02*
X7565708Y-9335108D01*
X7687708Y-8691108D02*
X7727708Y-8731108D01*
X7727708Y-8691108D02*
X7687708Y-8731108D01*
X7698708Y-10573108D02*
X7738708Y-10613108D01*
X7738708Y-10573108D02*
X7698708Y-10613108D01*
X7800708Y-10387108D02*
X7840708Y-10427108D01*
X7840708Y-10387108D02*
X7800708Y-10427108D01*
X7915708Y-7627108D02*
X7955708Y-7667108D01*
X7955708Y-7627108D02*
X7915708Y-7667108D01*
X7923708Y-10661108D02*
X7963708Y-10701108D01*
X7963708Y-10661108D02*
X7923708Y-10701108D01*
X7957708Y-10545108D02*
X7997708Y-10585108D01*
X7997708Y-10545108D02*
X7957708Y-10585108D01*
X8063708Y-8303108D02*
X8103708Y-8343108D01*
X8103708Y-8303108D02*
X8063708Y-8343108D01*
X8070708Y-7626108D02*
X8110708Y-7666108D01*
X8110708Y-7626108D02*
X8070708Y-7666108D01*
X8326708Y-8727108D02*
X8366708Y-8767108D01*
X8366708Y-8727108D02*
X8326708Y-8767108D01*
X8583708Y-6908108D02*
X8623708Y-6948108D01*
X8623708Y-6908108D02*
X8583708Y-6948108D01*
X8628708Y-9662108D02*
X8668708Y-9702108D01*
X8668708Y-9662108D02*
X8628708Y-9702108D01*
X8703708Y-8350108D02*
X8743708Y-8390108D01*
X8743708Y-8350108D02*
X8703708Y-8390108D01*
X8719708Y-10769108D02*
X8759708Y-10809108D01*
X8759708Y-10769108D02*
X8719708Y-10809108D01*
X8728708Y-8829108D02*
X8768708Y-8869108D01*
X8768708Y-8829108D02*
X8728708Y-8869108D01*
X8799708Y-9320108D02*
X8839708Y-9360108D01*
X8839708Y-9320108D02*
X8799708Y-9360108D01*
X8826708Y-9044108D02*
X8866708Y-9084108D01*
X8866708Y-9044108D02*
X8826708Y-9084108D01*
X8832954Y-8859841D02*
X8872954Y-8899841D01*
X8872954Y-8859841D02*
X8832954Y-8899841D01*
X8833708Y-9201108D02*
X8873708Y-9241108D01*
X8873708Y-9201108D02*
X8833708Y-9241108D01*
X9088708Y-9948108D02*
X9128708Y-9988108D01*
X9128708Y-9948108D02*
X9088708Y-9988108D01*
X9273708Y-8007108D02*
X9313708Y-8047108D01*
X9313708Y-8007108D02*
X9273708Y-8047108D01*
X9390207Y-5407108D02*
X9430207Y-5447108D01*
X9430207Y-5407108D02*
X9390207Y-5447108D01*
X9469708Y-6398108D02*
X9509708Y-6438108D01*
X9509708Y-6398108D02*
X9469708Y-6438108D01*
X9554708Y-8353108D02*
X9594708Y-8393108D01*
X9594708Y-8353108D02*
X9554708Y-8393108D01*
X9599708Y-6408276D02*
X9639708Y-6448276D01*
X9639708Y-6408276D02*
X9599708Y-6448276D01*
X9606708Y-7550108D02*
X9646708Y-7590108D01*
X9646708Y-7550108D02*
X9606708Y-7590108D01*
X9727708Y-6375108D02*
X9767708Y-6415108D01*
X9767708Y-6375108D02*
X9727708Y-6415108D01*
X9819708Y-6195108D02*
X9859708Y-6235108D01*
X9859708Y-6195108D02*
X9819708Y-6235108D01*
X10125708Y-10666108D02*
X10165708Y-10706108D01*
X10165708Y-10666108D02*
X10125708Y-10706108D01*
X10132708Y-10551108D02*
X10172708Y-10591108D01*
X10172708Y-10551108D02*
X10132708Y-10591108D01*
X10285708Y-6597108D02*
X10325708Y-6637108D01*
X10325708Y-6597108D02*
X10285708Y-6637108D01*
X10287708Y-11022108D02*
X10327708Y-11062108D01*
X10327708Y-11022108D02*
X10287708Y-11062108D01*
X10399708Y-10215108D02*
X10439708Y-10255108D01*
X10439708Y-10215108D02*
X10399708Y-10255108D01*
X10526708Y-7958108D02*
X10566708Y-7998108D01*
X10566708Y-7958108D02*
X10526708Y-7998108D01*
X10554708Y-10255108D02*
X10594708Y-10295108D01*
X10594708Y-10255108D02*
X10554708Y-10295108D01*
X10559708Y-8515108D02*
X10599708Y-8555108D01*
X10599708Y-8515108D02*
X10559708Y-8555108D01*
X10639708Y-6845108D02*
X10679708Y-6885108D01*
X10679708Y-6845108D02*
X10639708Y-6885108D01*
X10679708Y-7617608D02*
X10719708Y-7657608D01*
X10719708Y-7617608D02*
X10679708Y-7657608D01*
X10739708Y-8435108D02*
X10779708Y-8475108D01*
X10779708Y-8435108D02*
X10739708Y-8475108D01*
X10744708Y-10185108D02*
X10784708Y-10225108D01*
X10784708Y-10185108D02*
X10744708Y-10225108D01*
X10789708Y-7820108D02*
X10829708Y-7860108D01*
X10829708Y-7820108D02*
X10789708Y-7860108D01*
X10874708Y-6875108D02*
X10914708Y-6915108D01*
X10914708Y-6875108D02*
X10874708Y-6915108D01*
X10902708Y-10545108D02*
X10942708Y-10585108D01*
X10942708Y-10545108D02*
X10902708Y-10585108D01*
X10942708Y-10440108D02*
X10982708Y-10480108D01*
X10982708Y-10440108D02*
X10942708Y-10480108D01*
X11030708Y-7972108D02*
X11070708Y-8012108D01*
X11070708Y-7972108D02*
X11030708Y-8012108D01*
X11039708Y-6880108D02*
X11079708Y-6920108D01*
X11079708Y-6880108D02*
X11039708Y-6920108D01*
X11059708Y-10685108D02*
X11099708Y-10725108D01*
X11099708Y-10685108D02*
X11059708Y-10725108D01*
X11294708Y-6790108D02*
X11334708Y-6830108D01*
X11334708Y-6790108D02*
X11294708Y-6830108D01*
X11295708Y-7772608D02*
X11335708Y-7812608D01*
X11335708Y-7772608D02*
X11295708Y-7812608D01*
X11547708Y-8632108D02*
X11587708Y-8672108D01*
X11587708Y-8632108D02*
X11547708Y-8672108D01*
X11603708Y-8727108D02*
X11643708Y-8767108D01*
X11643708Y-8727108D02*
X11603708Y-8767108D01*
X11627708Y-10612608D02*
X11667708Y-10652608D01*
X11667708Y-10612608D02*
X11627708Y-10652608D01*
X11733708Y-10347108D02*
X11773708Y-10387108D01*
X11773708Y-10347108D02*
X11733708Y-10387108D01*
X11754708Y-7770108D02*
X11794708Y-7810108D01*
X11794708Y-7770108D02*
X11754708Y-7810108D01*
X11819708Y-10612608D02*
X11859708Y-10652608D01*
X11859708Y-10612608D02*
X11819708Y-10652608D01*
X12051708Y-6820108D02*
X12091708Y-6860108D01*
X12091708Y-6820108D02*
X12051708Y-6860108D01*
X12301708Y-8727108D02*
X12341708Y-8767108D01*
X12341708Y-8727108D02*
X12301708Y-8767108D01*
X12380708Y-5123108D02*
X12420708Y-5163108D01*
X12420708Y-5123108D02*
X12380708Y-5163108D01*
X12599708Y-6195108D02*
X12639708Y-6235108D01*
X12639708Y-6195108D02*
X12599708Y-6235108D01*
X12617708Y-7932108D02*
X12657708Y-7972108D01*
X12657708Y-7932108D02*
X12617708Y-7972108D01*
X12854708Y-10785108D02*
X12894708Y-10825108D01*
X12894708Y-10785108D02*
X12854708Y-10825108D01*
X13013442Y-4973842D02*
X13053442Y-5013842D01*
X13053442Y-4973842D02*
X13013442Y-5013842D01*
X13084708Y-10250108D02*
X13124708Y-10290108D01*
X13124708Y-10250108D02*
X13084708Y-10290108D01*
X13149708Y-4940108D02*
X13189708Y-4980108D01*
X13189708Y-4940108D02*
X13149708Y-4980108D01*
X13299708Y-4887609D02*
X13339708Y-4927609D01*
X13339708Y-4887609D02*
X13299708Y-4927609D01*
X13403442Y-9053842D02*
X13443442Y-9093842D01*
X13443442Y-9053842D02*
X13403442Y-9093842D01*
X13409708Y-9175108D02*
X13449708Y-9215108D01*
X13449708Y-9175108D02*
X13409708Y-9215108D01*
X13601708Y-6770108D02*
X13641708Y-6810108D01*
X13641708Y-6770108D02*
X13601708Y-6810108D01*
X13679708Y-9260607D02*
X13719708Y-9300607D01*
X13719708Y-9260607D02*
X13679708Y-9300607D01*
X13743708Y-9168108D02*
X13783708Y-9208108D01*
X13783708Y-9168108D02*
X13743708Y-9208108D01*
X13744708Y-5920108D02*
X13784708Y-5960108D01*
X13784708Y-5920108D02*
X13744708Y-5960108D01*
X13884708Y-5325108D02*
X13924708Y-5365108D01*
X13924708Y-5325108D02*
X13884708Y-5365108D01*
X13891708Y-9267108D02*
X13931708Y-9307108D01*
X13931708Y-9267108D02*
X13891708Y-9307108D01*
X14005708Y-9237108D02*
X14045708Y-9277108D01*
X14045708Y-9237108D02*
X14005708Y-9277108D01*
X14032708Y-5814108D02*
X14072708Y-5854108D01*
X14072708Y-5814108D02*
X14032708Y-5854108D01*
X14119708Y-9347108D02*
X14159708Y-9387108D01*
X14159708Y-9347108D02*
X14119708Y-9387108D01*
X14174708Y-5270108D02*
X14214708Y-5310108D01*
X14214708Y-5270108D02*
X14174708Y-5310108D01*
X14249708Y-8912608D02*
X14289708Y-8952608D01*
X14289708Y-8912608D02*
X14249708Y-8952608D01*
X14325708Y-5737108D02*
X14365708Y-5777108D01*
X14365708Y-5737108D02*
X14325708Y-5777108D01*
X14341708Y-10182108D02*
X14381708Y-10222108D01*
X14381708Y-10182108D02*
X14341708Y-10222108D01*
X14359708Y-8967607D02*
X14399708Y-9007607D01*
X14399708Y-8967607D02*
X14359708Y-9007607D01*
X14469708Y-5277608D02*
X14509708Y-5317608D01*
X14509708Y-5277608D02*
X14469708Y-5317608D01*
X14552708Y-9276108D02*
X14592708Y-9316108D01*
X14592708Y-9276108D02*
X14552708Y-9316108D01*
X14613458Y-6851358D02*
X14653458Y-6891358D01*
X14653458Y-6851358D02*
X14613458Y-6891358D01*
X14654708Y-5657608D02*
X14694708Y-5697608D01*
X14694708Y-5657608D02*
X14654708Y-5697608D01*
X14749708Y-9170108D02*
X14789708Y-9210108D01*
X14789708Y-9170108D02*
X14749708Y-9210108D01*
X14750708Y-9402108D02*
X14790708Y-9442108D01*
X14790708Y-9402108D02*
X14750708Y-9442108D01*
X14822708Y-9483108D02*
X14862708Y-9523108D01*
X14862708Y-9483108D02*
X14822708Y-9523108D01*
X14933708Y-5722108D02*
X14973708Y-5762108D01*
X14973708Y-5722108D02*
X14933708Y-5762108D01*
X15040708Y-5727108D02*
X15080708Y-5767108D01*
X15080708Y-5727108D02*
X15040708Y-5767108D01*
X15044708Y-7450108D02*
X15084708Y-7490108D01*
X15084708Y-7450108D02*
X15044708Y-7490108D01*
X15333708Y-11367108D02*
X15373708Y-11407108D01*
X15373708Y-11367108D02*
X15333708Y-11407108D01*
X15364708Y-6060108D02*
X15404708Y-6100108D01*
X15404708Y-6060108D02*
X15364708Y-6100108D01*
X15369708Y-7660108D02*
X15409708Y-7700108D01*
X15409708Y-7660108D02*
X15369708Y-7700108D01*
X15454708Y-6225108D02*
X15494708Y-6265108D01*
X15494708Y-6225108D02*
X15454708Y-6265108D01*
X15459708Y-7955108D02*
X15499708Y-7995108D01*
X15499708Y-7955108D02*
X15459708Y-7995108D01*
X15461708Y-5446108D02*
X15501708Y-5486108D01*
X15501708Y-5446108D02*
X15461708Y-5486108D01*
X15468474Y-8228874D02*
X15508474Y-8268874D01*
X15508474Y-8228874D02*
X15468474Y-8268874D01*
X15469708Y-6670107D02*
X15509708Y-6710107D01*
X15509708Y-6670107D02*
X15469708Y-6710107D01*
X15469708Y-7595108D02*
X15509708Y-7635108D01*
X15509708Y-7595108D02*
X15469708Y-7635108D01*
X15471708Y-8944108D02*
X15511708Y-8984108D01*
X15511708Y-8944108D02*
X15471708Y-8984108D01*
X15499708Y-8600108D02*
X15539708Y-8640108D01*
X15539708Y-8600108D02*
X15499708Y-8640108D01*
X15599708Y-8975108D02*
X15639708Y-9015108D01*
X15639708Y-8975108D02*
X15599708Y-9015108D01*
X15634708Y-8567608D02*
X15674708Y-8607608D01*
X15674708Y-8567608D02*
X15634708Y-8607608D01*
X15749708Y-10745108D02*
X15789708Y-10785108D01*
X15789708Y-10745108D02*
X15749708Y-10785108D01*
X15849708Y-10690108D02*
X15889708Y-10730108D01*
X15889708Y-10690108D02*
X15849708Y-10730108D01*
X15929708Y-10615108D02*
X15969708Y-10655108D01*
X15969708Y-10615108D02*
X15929708Y-10655108D01*
X16079708Y-6480108D02*
X16119708Y-6520108D01*
X16119708Y-6480108D02*
X16079708Y-6520108D01*
X16469708Y-9795108D02*
X16509708Y-9835108D01*
X16509708Y-9795108D02*
X16469708Y-9835108D01*
X16484708Y-9592108D02*
X16524708Y-9632108D01*
X16524708Y-9592108D02*
X16484708Y-9632108D01*
X16589708Y-9527609D02*
X16629708Y-9567609D01*
X16629708Y-9527609D02*
X16589708Y-9567609D01*
X16676708Y-5642108D02*
X16716708Y-5682108D01*
X16716708Y-5642108D02*
X16676708Y-5682108D01*
X16846708Y-8818108D02*
X16886708Y-8858108D01*
X16886708Y-8818108D02*
X16846708Y-8858108D01*
X17116708Y-8805108D02*
X17156708Y-8845108D01*
X17156708Y-8805108D02*
X17116708Y-8845108D01*
X17219708Y-6660108D02*
X17259708Y-6700108D01*
X17259708Y-6660108D02*
X17219708Y-6700108D01*
X17299708Y-8773108D02*
X17339708Y-8813108D01*
X17339708Y-8773108D02*
X17299708Y-8813108D01*
X17594708Y-6615108D02*
X17634708Y-6655108D01*
X17634708Y-6615108D02*
X17594708Y-6655108D01*
X17703708Y-9173108D02*
X17743708Y-9213108D01*
X17743708Y-9173108D02*
X17703708Y-9213108D01*
X17984708Y-4877608D02*
X18024708Y-4917608D01*
X18024708Y-4877608D02*
X17984708Y-4917608D01*
X17988708Y-9086108D02*
X18028708Y-9126108D01*
X18028708Y-9086108D02*
X17988708Y-9126108D01*
X18240708Y-9007108D02*
X18280708Y-9047108D01*
X18280708Y-9007108D02*
X18240708Y-9047108D01*
X18489708Y-9100108D02*
X18529708Y-9140108D01*
X18529708Y-9100108D02*
X18489708Y-9140108D01*
X18609708Y-4920108D02*
X18649708Y-4960108D01*
X18649708Y-4920108D02*
X18609708Y-4960108D01*
X18744708Y-9180108D02*
X18784708Y-9220108D01*
X18784708Y-9180108D02*
X18744708Y-9220108D01*
X19204708Y-6630108D02*
X19244708Y-6670108D01*
X19244708Y-6630108D02*
X19204708Y-6670108D01*
X19386708Y-11473108D02*
X19426708Y-11513108D01*
X19426708Y-11473108D02*
X19386708Y-11513108D01*
X19484708Y-6705108D02*
X19524708Y-6745108D01*
X19524708Y-6705108D02*
X19484708Y-6745108D01*
X19509708Y-9170108D02*
X19549708Y-9210108D01*
X19549708Y-9170108D02*
X19509708Y-9210108D01*
X21164708Y-7902609D02*
X21204708Y-7942609D01*
X21204708Y-7902609D02*
X21164708Y-7942609D01*
X21254708Y-7985108D02*
X21294708Y-8025108D01*
X21294708Y-7985108D02*
X21254708Y-8025108D01*
X21264708Y-8185108D02*
X21304708Y-8225108D01*
X21304708Y-8185108D02*
X21264708Y-8225108D01*
X21571708Y-11310108D02*
X21611708Y-11350108D01*
X21611708Y-11310108D02*
X21571708Y-11350108D01*
X21682708Y-11333108D02*
X21722708Y-11373108D01*
X21722708Y-11333108D02*
X21682708Y-11373108D01*
X21804708Y-11435108D02*
X21844708Y-11475108D01*
X21844708Y-11435108D02*
X21804708Y-11475108D01*
X21804708Y-11545108D02*
X21844708Y-11585108D01*
X21844708Y-11545108D02*
X21804708Y-11585108D01*
X21954708Y-5862607D02*
X21994708Y-5902607D01*
X21994708Y-5862607D02*
X21954708Y-5902607D01*
X22348708Y-8735607D02*
X22388708Y-8775607D01*
X22388708Y-8735607D02*
X22348708Y-8775607D01*
X22436708Y-8828108D02*
X22476708Y-8868108D01*
X22476708Y-8828108D02*
X22436708Y-8868108D01*
X22844708Y-5552607D02*
X22884708Y-5592607D01*
X22884708Y-5552607D02*
X22844708Y-5592607D01*
X23094708Y-5665108D02*
X23134708Y-5705108D01*
X23134708Y-5665108D02*
X23094708Y-5705108D01*
X23171708Y-5737608D02*
X23211708Y-5777608D01*
X23211708Y-5737608D02*
X23171708Y-5777608D01*
X23459708Y-9015108D02*
X23499708Y-9055108D01*
X23499708Y-9015108D02*
X23459708Y-9055108D01*
X23549708Y-9112108D02*
X23589708Y-9152108D01*
X23589708Y-9112108D02*
X23549708Y-9152108D01*
X23649708Y-11225108D02*
X23689708Y-11265108D01*
X23689708Y-11225108D02*
X23649708Y-11265108D01*
X24014708Y-7790108D02*
X24054708Y-7830108D01*
X24054708Y-7790108D02*
X24014708Y-7830108D01*
X24014708Y-7895108D02*
X24054708Y-7935108D01*
X24054708Y-7895108D02*
X24014708Y-7935108D01*
X24074708Y-7535108D02*
X24114708Y-7575108D01*
X24114708Y-7535108D02*
X24074708Y-7575108D01*
X24154708Y-7620108D02*
X24194708Y-7660108D01*
X24194708Y-7620108D02*
X24154708Y-7660108D01*
X3149708Y-5318108D02*
G75*
G03*
X3149708Y-5318108I-40000J0D01*
G01*
X3149708Y-6080108D02*
G75*
G03*
X3149708Y-6080108I-40000J0D01*
G01*
X3149708Y-7438108D02*
G75*
G03*
X3149708Y-7438108I-40000J0D01*
G01*
X3149708Y-8200108D02*
G75*
G03*
X3149708Y-8200108I-40000J0D01*
G01*
X3154708Y-6380608D02*
G75*
G03*
X3154708Y-6380608I-40000J0D01*
G01*
X3154708Y-7142608D02*
G75*
G03*
X3154708Y-7142608I-40000J0D01*
G01*
X3403708Y-5318108D02*
G75*
G03*
X3403708Y-5318108I-40000J0D01*
G01*
X3403708Y-6080108D02*
G75*
G03*
X3403708Y-6080108I-40000J0D01*
G01*
X3403708Y-7438108D02*
G75*
G03*
X3403708Y-7438108I-40000J0D01*
G01*
X3403708Y-8200108D02*
G75*
G03*
X3403708Y-8200108I-40000J0D01*
G01*
X3408708Y-6380608D02*
G75*
G03*
X3408708Y-6380608I-40000J0D01*
G01*
X3408708Y-7142608D02*
G75*
G03*
X3408708Y-7142608I-40000J0D01*
G01*
X3657708Y-5318108D02*
G75*
G03*
X3657708Y-5318108I-40000J0D01*
G01*
X3657708Y-6080108D02*
G75*
G03*
X3657708Y-6080108I-40000J0D01*
G01*
X3657708Y-7438108D02*
G75*
G03*
X3657708Y-7438108I-40000J0D01*
G01*
X3657708Y-8200108D02*
G75*
G03*
X3657708Y-8200108I-40000J0D01*
G01*
X3662708Y-6380608D02*
G75*
G03*
X3662708Y-6380608I-40000J0D01*
G01*
X3662708Y-7142608D02*
G75*
G03*
X3662708Y-7142608I-40000J0D01*
G01*
X3911708Y-5318108D02*
G75*
G03*
X3911708Y-5318108I-40000J0D01*
G01*
X3911708Y-6080108D02*
G75*
G03*
X3911708Y-6080108I-40000J0D01*
G01*
X3911708Y-7438108D02*
G75*
G03*
X3911708Y-7438108I-40000J0D01*
G01*
X3911708Y-8200108D02*
G75*
G03*
X3911708Y-8200108I-40000J0D01*
G01*
X3916708Y-6380608D02*
G75*
G03*
X3916708Y-6380608I-40000J0D01*
G01*
X3916708Y-7142608D02*
G75*
G03*
X3916708Y-7142608I-40000J0D01*
G01*
X4165708Y-5318108D02*
G75*
G03*
X4165708Y-5318108I-40000J0D01*
G01*
X4165708Y-6080108D02*
G75*
G03*
X4165708Y-6080108I-40000J0D01*
G01*
X4165708Y-7438108D02*
G75*
G03*
X4165708Y-7438108I-40000J0D01*
G01*
X4165708Y-8200108D02*
G75*
G03*
X4165708Y-8200108I-40000J0D01*
G01*
X4170708Y-6380608D02*
G75*
G03*
X4170708Y-6380608I-40000J0D01*
G01*
X4170708Y-7142608D02*
G75*
G03*
X4170708Y-7142608I-40000J0D01*
G01*
X4419708Y-5318108D02*
G75*
G03*
X4419708Y-5318108I-40000J0D01*
G01*
X4419708Y-6080108D02*
G75*
G03*
X4419708Y-6080108I-40000J0D01*
G01*
X4419708Y-7438108D02*
G75*
G03*
X4419708Y-7438108I-40000J0D01*
G01*
X4419708Y-8200108D02*
G75*
G03*
X4419708Y-8200108I-40000J0D01*
G01*
X4424708Y-6380608D02*
G75*
G03*
X4424708Y-6380608I-40000J0D01*
G01*
X4424708Y-7142608D02*
G75*
G03*
X4424708Y-7142608I-40000J0D01*
G01*
X4673708Y-5318108D02*
G75*
G03*
X4673708Y-5318108I-40000J0D01*
G01*
X4673708Y-6080108D02*
G75*
G03*
X4673708Y-6080108I-40000J0D01*
G01*
X4673708Y-7438108D02*
G75*
G03*
X4673708Y-7438108I-40000J0D01*
G01*
X4673708Y-8200108D02*
G75*
G03*
X4673708Y-8200108I-40000J0D01*
G01*
X4678708Y-6380608D02*
G75*
G03*
X4678708Y-6380608I-40000J0D01*
G01*
X4678708Y-7142608D02*
G75*
G03*
X4678708Y-7142608I-40000J0D01*
G01*
X5054708Y-6330108D02*
G75*
G03*
X5054708Y-6330108I-40000J0D01*
G01*
X5054708Y-7330108D02*
G75*
G03*
X5054708Y-7330108I-40000J0D01*
G01*
X5459708Y-5318108D02*
G75*
G03*
X5459708Y-5318108I-40000J0D01*
G01*
X5459708Y-6080108D02*
G75*
G03*
X5459708Y-6080108I-40000J0D01*
G01*
X5464708Y-7448108D02*
G75*
G03*
X5464708Y-7448108I-40000J0D01*
G01*
X5464708Y-8210108D02*
G75*
G03*
X5464708Y-8210108I-40000J0D01*
G01*
X5474708Y-6380608D02*
G75*
G03*
X5474708Y-6380608I-40000J0D01*
G01*
X5474708Y-7142608D02*
G75*
G03*
X5474708Y-7142608I-40000J0D01*
G01*
X5713708Y-5318108D02*
G75*
G03*
X5713708Y-5318108I-40000J0D01*
G01*
X5713708Y-6080108D02*
G75*
G03*
X5713708Y-6080108I-40000J0D01*
G01*
X5718708Y-7448108D02*
G75*
G03*
X5718708Y-7448108I-40000J0D01*
G01*
X5718708Y-8210108D02*
G75*
G03*
X5718708Y-8210108I-40000J0D01*
G01*
X5728708Y-6380608D02*
G75*
G03*
X5728708Y-6380608I-40000J0D01*
G01*
X5728708Y-7142608D02*
G75*
G03*
X5728708Y-7142608I-40000J0D01*
G01*
X5967708Y-5318108D02*
G75*
G03*
X5967708Y-5318108I-40000J0D01*
G01*
X5967708Y-6080108D02*
G75*
G03*
X5967708Y-6080108I-40000J0D01*
G01*
X5972708Y-7448108D02*
G75*
G03*
X5972708Y-7448108I-40000J0D01*
G01*
X5972708Y-8210108D02*
G75*
G03*
X5972708Y-8210108I-40000J0D01*
G01*
X5982708Y-6380608D02*
G75*
G03*
X5982708Y-6380608I-40000J0D01*
G01*
X5982708Y-7142608D02*
G75*
G03*
X5982708Y-7142608I-40000J0D01*
G01*
X6221708Y-5318108D02*
G75*
G03*
X6221708Y-5318108I-40000J0D01*
G01*
X6221708Y-6080108D02*
G75*
G03*
X6221708Y-6080108I-40000J0D01*
G01*
X6226708Y-7448108D02*
G75*
G03*
X6226708Y-7448108I-40000J0D01*
G01*
X6226708Y-8210108D02*
G75*
G03*
X6226708Y-8210108I-40000J0D01*
G01*
X6236708Y-6380608D02*
G75*
G03*
X6236708Y-6380608I-40000J0D01*
G01*
X6236708Y-7142608D02*
G75*
G03*
X6236708Y-7142608I-40000J0D01*
G01*
X6475708Y-5318108D02*
G75*
G03*
X6475708Y-5318108I-40000J0D01*
G01*
X6475708Y-6080108D02*
G75*
G03*
X6475708Y-6080108I-40000J0D01*
G01*
X6480708Y-7448108D02*
G75*
G03*
X6480708Y-7448108I-40000J0D01*
G01*
X6480708Y-8210108D02*
G75*
G03*
X6480708Y-8210108I-40000J0D01*
G01*
X6490708Y-6380608D02*
G75*
G03*
X6490708Y-6380608I-40000J0D01*
G01*
X6490708Y-7142608D02*
G75*
G03*
X6490708Y-7142608I-40000J0D01*
G01*
X6729708Y-5318108D02*
G75*
G03*
X6729708Y-5318108I-40000J0D01*
G01*
X6729708Y-6080108D02*
G75*
G03*
X6729708Y-6080108I-40000J0D01*
G01*
X6734708Y-7448108D02*
G75*
G03*
X6734708Y-7448108I-40000J0D01*
G01*
X6734708Y-8210108D02*
G75*
G03*
X6734708Y-8210108I-40000J0D01*
G01*
X6744708Y-6380608D02*
G75*
G03*
X6744708Y-6380608I-40000J0D01*
G01*
X6744708Y-7142608D02*
G75*
G03*
X6744708Y-7142608I-40000J0D01*
G01*
X6983708Y-5318108D02*
G75*
G03*
X6983708Y-5318108I-40000J0D01*
G01*
X6983708Y-6080108D02*
G75*
G03*
X6983708Y-6080108I-40000J0D01*
G01*
X6988708Y-7448108D02*
G75*
G03*
X6988708Y-7448108I-40000J0D01*
G01*
X6988708Y-8210108D02*
G75*
G03*
X6988708Y-8210108I-40000J0D01*
G01*
X6998708Y-6380608D02*
G75*
G03*
X6998708Y-6380608I-40000J0D01*
G01*
X6998708Y-7142608D02*
G75*
G03*
X6998708Y-7142608I-40000J0D01*
G01*
X7354708Y-6292608D02*
G75*
G03*
X7354708Y-6292608I-40000J0D01*
G01*
X7354708Y-7292608D02*
G75*
G03*
X7354708Y-7292608I-40000J0D01*
G01*
X7739708Y-5313108D02*
G75*
G03*
X7739708Y-5313108I-40000J0D01*
G01*
X7739708Y-6075108D02*
G75*
G03*
X7739708Y-6075108I-40000J0D01*
G01*
X7746375Y-6380608D02*
G75*
G03*
X7746375Y-6380608I-40000J0D01*
G01*
X7746375Y-7142608D02*
G75*
G03*
X7746375Y-7142608I-40000J0D01*
G01*
X7749708Y-7448108D02*
G75*
G03*
X7749708Y-7448108I-40000J0D01*
G01*
X7749708Y-8210108D02*
G75*
G03*
X7749708Y-8210108I-40000J0D01*
G01*
X7993708Y-5313108D02*
G75*
G03*
X7993708Y-5313108I-40000J0D01*
G01*
X7993708Y-6075108D02*
G75*
G03*
X7993708Y-6075108I-40000J0D01*
G01*
X8000375Y-6380608D02*
G75*
G03*
X8000375Y-6380608I-40000J0D01*
G01*
X8000375Y-7142608D02*
G75*
G03*
X8000375Y-7142608I-40000J0D01*
G01*
X8003708Y-7448108D02*
G75*
G03*
X8003708Y-7448108I-40000J0D01*
G01*
X8003708Y-8210108D02*
G75*
G03*
X8003708Y-8210108I-40000J0D01*
G01*
X8247708Y-5313108D02*
G75*
G03*
X8247708Y-5313108I-40000J0D01*
G01*
X8247708Y-6075108D02*
G75*
G03*
X8247708Y-6075108I-40000J0D01*
G01*
X8254375Y-6380608D02*
G75*
G03*
X8254375Y-6380608I-40000J0D01*
G01*
X8254375Y-7142608D02*
G75*
G03*
X8254375Y-7142608I-40000J0D01*
G01*
X8257708Y-7448108D02*
G75*
G03*
X8257708Y-7448108I-40000J0D01*
G01*
X8257708Y-8210108D02*
G75*
G03*
X8257708Y-8210108I-40000J0D01*
G01*
X8501708Y-5313108D02*
G75*
G03*
X8501708Y-5313108I-40000J0D01*
G01*
X8501708Y-6075108D02*
G75*
G03*
X8501708Y-6075108I-40000J0D01*
G01*
X8508375Y-6380608D02*
G75*
G03*
X8508375Y-6380608I-40000J0D01*
G01*
X8508375Y-7142608D02*
G75*
G03*
X8508375Y-7142608I-40000J0D01*
G01*
X8511708Y-7448108D02*
G75*
G03*
X8511708Y-7448108I-40000J0D01*
G01*
X8511708Y-8210108D02*
G75*
G03*
X8511708Y-8210108I-40000J0D01*
G01*
X8755708Y-5313108D02*
G75*
G03*
X8755708Y-5313108I-40000J0D01*
G01*
X8755708Y-6075108D02*
G75*
G03*
X8755708Y-6075108I-40000J0D01*
G01*
X8762375Y-6380608D02*
G75*
G03*
X8762375Y-6380608I-40000J0D01*
G01*
X8762375Y-7142608D02*
G75*
G03*
X8762375Y-7142608I-40000J0D01*
G01*
X8765708Y-7448108D02*
G75*
G03*
X8765708Y-7448108I-40000J0D01*
G01*
X8765708Y-8210108D02*
G75*
G03*
X8765708Y-8210108I-40000J0D01*
G01*
X9009708Y-5313108D02*
G75*
G03*
X9009708Y-5313108I-40000J0D01*
G01*
X9009708Y-6075108D02*
G75*
G03*
X9009708Y-6075108I-40000J0D01*
G01*
X9016375Y-6380608D02*
G75*
G03*
X9016375Y-6380608I-40000J0D01*
G01*
X9016375Y-7142608D02*
G75*
G03*
X9016375Y-7142608I-40000J0D01*
G01*
X9019708Y-7448108D02*
G75*
G03*
X9019708Y-7448108I-40000J0D01*
G01*
X9019708Y-8210108D02*
G75*
G03*
X9019708Y-8210108I-40000J0D01*
G01*
X9263708Y-5313108D02*
G75*
G03*
X9263708Y-5313108I-40000J0D01*
G01*
X9263708Y-6075108D02*
G75*
G03*
X9263708Y-6075108I-40000J0D01*
G01*
X9270375Y-6380608D02*
G75*
G03*
X9270375Y-6380608I-40000J0D01*
G01*
X9270375Y-7142608D02*
G75*
G03*
X9270375Y-7142608I-40000J0D01*
G01*
X9273708Y-7448108D02*
G75*
G03*
X9273708Y-7448108I-40000J0D01*
G01*
X9273708Y-8210108D02*
G75*
G03*
X9273708Y-8210108I-40000J0D01*
G01*
X9654708Y-6255108D02*
G75*
G03*
X9654708Y-6255108I-40000J0D01*
G01*
X9654708Y-7255108D02*
G75*
G03*
X9654708Y-7255108I-40000J0D01*
G01*
X10079708Y-5318108D02*
G75*
G03*
X10079708Y-5318108I-40000J0D01*
G01*
X10079708Y-6080108D02*
G75*
G03*
X10079708Y-6080108I-40000J0D01*
G01*
X10079708Y-6380608D02*
G75*
G03*
X10079708Y-6380608I-40000J0D01*
G01*
X10079708Y-7142608D02*
G75*
G03*
X10079708Y-7142608I-40000J0D01*
G01*
X10079708Y-7448108D02*
G75*
G03*
X10079708Y-7448108I-40000J0D01*
G01*
X10079708Y-8210108D02*
G75*
G03*
X10079708Y-8210108I-40000J0D01*
G01*
X10333708Y-5318108D02*
G75*
G03*
X10333708Y-5318108I-40000J0D01*
G01*
X10333708Y-6080108D02*
G75*
G03*
X10333708Y-6080108I-40000J0D01*
G01*
X10333708Y-6380608D02*
G75*
G03*
X10333708Y-6380608I-40000J0D01*
G01*
X10333708Y-7142608D02*
G75*
G03*
X10333708Y-7142608I-40000J0D01*
G01*
X10333708Y-7448108D02*
G75*
G03*
X10333708Y-7448108I-40000J0D01*
G01*
X10333708Y-8210108D02*
G75*
G03*
X10333708Y-8210108I-40000J0D01*
G01*
X10587708Y-5318108D02*
G75*
G03*
X10587708Y-5318108I-40000J0D01*
G01*
X10587708Y-6080108D02*
G75*
G03*
X10587708Y-6080108I-40000J0D01*
G01*
X10587708Y-6380608D02*
G75*
G03*
X10587708Y-6380608I-40000J0D01*
G01*
X10587708Y-7142608D02*
G75*
G03*
X10587708Y-7142608I-40000J0D01*
G01*
X10587708Y-7448108D02*
G75*
G03*
X10587708Y-7448108I-40000J0D01*
G01*
X10587708Y-8210108D02*
G75*
G03*
X10587708Y-8210108I-40000J0D01*
G01*
X10841708Y-5318108D02*
G75*
G03*
X10841708Y-5318108I-40000J0D01*
G01*
X10841708Y-6080108D02*
G75*
G03*
X10841708Y-6080108I-40000J0D01*
G01*
X10841708Y-6380608D02*
G75*
G03*
X10841708Y-6380608I-40000J0D01*
G01*
X10841708Y-7142608D02*
G75*
G03*
X10841708Y-7142608I-40000J0D01*
G01*
X10841708Y-7448108D02*
G75*
G03*
X10841708Y-7448108I-40000J0D01*
G01*
X10841708Y-8210108D02*
G75*
G03*
X10841708Y-8210108I-40000J0D01*
G01*
X11095708Y-5318108D02*
G75*
G03*
X11095708Y-5318108I-40000J0D01*
G01*
X11095708Y-6080108D02*
G75*
G03*
X11095708Y-6080108I-40000J0D01*
G01*
X11095708Y-6380608D02*
G75*
G03*
X11095708Y-6380608I-40000J0D01*
G01*
X11095708Y-7142608D02*
G75*
G03*
X11095708Y-7142608I-40000J0D01*
G01*
X11095708Y-7448108D02*
G75*
G03*
X11095708Y-7448108I-40000J0D01*
G01*
X11095708Y-8210108D02*
G75*
G03*
X11095708Y-8210108I-40000J0D01*
G01*
X11349708Y-5318108D02*
G75*
G03*
X11349708Y-5318108I-40000J0D01*
G01*
X11349708Y-6080108D02*
G75*
G03*
X11349708Y-6080108I-40000J0D01*
G01*
X11349708Y-6380608D02*
G75*
G03*
X11349708Y-6380608I-40000J0D01*
G01*
X11349708Y-7142608D02*
G75*
G03*
X11349708Y-7142608I-40000J0D01*
G01*
X11349708Y-7448108D02*
G75*
G03*
X11349708Y-7448108I-40000J0D01*
G01*
X11349708Y-8210108D02*
G75*
G03*
X11349708Y-8210108I-40000J0D01*
G01*
X11422708Y-10379708D02*
G75*
G03*
X11422708Y-10379708I-40000J0D01*
G01*
X11422708Y-11379708D02*
G75*
G03*
X11422708Y-11379708I-40000J0D01*
G01*
X11603708Y-5318108D02*
G75*
G03*
X11603708Y-5318108I-40000J0D01*
G01*
X11603708Y-6080108D02*
G75*
G03*
X11603708Y-6080108I-40000J0D01*
G01*
X11603708Y-6380608D02*
G75*
G03*
X11603708Y-6380608I-40000J0D01*
G01*
X11603708Y-7142608D02*
G75*
G03*
X11603708Y-7142608I-40000J0D01*
G01*
X11603708Y-7448108D02*
G75*
G03*
X11603708Y-7448108I-40000J0D01*
G01*
X11603708Y-8210108D02*
G75*
G03*
X11603708Y-8210108I-40000J0D01*
G01*
X11857708Y-5318108D02*
G75*
G03*
X11857708Y-5318108I-40000J0D01*
G01*
X11857708Y-6080108D02*
G75*
G03*
X11857708Y-6080108I-40000J0D01*
G01*
X11857708Y-6380608D02*
G75*
G03*
X11857708Y-6380608I-40000J0D01*
G01*
X11857708Y-7142608D02*
G75*
G03*
X11857708Y-7142608I-40000J0D01*
G01*
X11857708Y-7448108D02*
G75*
G03*
X11857708Y-7448108I-40000J0D01*
G01*
X11857708Y-8210108D02*
G75*
G03*
X11857708Y-8210108I-40000J0D01*
G01*
X11957708Y-9380108D02*
G75*
G03*
X11957708Y-9380108I-40000J0D01*
G01*
X11957708Y-11380108D02*
G75*
G03*
X11957708Y-11380108I-40000J0D01*
G01*
X12111708Y-5318108D02*
G75*
G03*
X12111708Y-5318108I-40000J0D01*
G01*
X12111708Y-6080108D02*
G75*
G03*
X12111708Y-6080108I-40000J0D01*
G01*
X12111708Y-6380608D02*
G75*
G03*
X12111708Y-6380608I-40000J0D01*
G01*
X12111708Y-7142608D02*
G75*
G03*
X12111708Y-7142608I-40000J0D01*
G01*
X12365708Y-5318108D02*
G75*
G03*
X12365708Y-5318108I-40000J0D01*
G01*
X12365708Y-6080108D02*
G75*
G03*
X12365708Y-6080108I-40000J0D01*
G01*
X12365708Y-6380608D02*
G75*
G03*
X12365708Y-6380608I-40000J0D01*
G01*
X12365708Y-7142608D02*
G75*
G03*
X12365708Y-7142608I-40000J0D01*
G01*
X12899708Y-7895108D02*
G75*
G03*
X12899708Y-7895108I-40000J0D01*
G01*
X12904708Y-8307608D02*
G75*
G03*
X12904708Y-8307608I-40000J0D01*
G01*
X12909708Y-8720108D02*
G75*
G03*
X12909708Y-8720108I-40000J0D01*
G01*
X12918308Y-10363708D02*
G75*
G03*
X12918308Y-10363708I-40000J0D01*
G01*
X12918308Y-11363708D02*
G75*
G03*
X12918308Y-11363708I-40000J0D01*
G01*
X12929708Y-5192108D02*
G75*
G03*
X12929708Y-5192108I-40000J0D01*
G01*
X12929708Y-6208108D02*
G75*
G03*
X12929708Y-6208108I-40000J0D01*
G01*
X12929708Y-6539108D02*
G75*
G03*
X12929708Y-6539108I-40000J0D01*
G01*
X12929708Y-7555108D02*
G75*
G03*
X12929708Y-7555108I-40000J0D01*
G01*
X13153708Y-7895108D02*
G75*
G03*
X13153708Y-7895108I-40000J0D01*
G01*
X13158708Y-8307608D02*
G75*
G03*
X13158708Y-8307608I-40000J0D01*
G01*
X13163708Y-8720108D02*
G75*
G03*
X13163708Y-8720108I-40000J0D01*
G01*
X13220333Y-5192108D02*
G75*
G03*
X13220333Y-5192108I-40000J0D01*
G01*
X13220333Y-6208108D02*
G75*
G03*
X13220333Y-6208108I-40000J0D01*
G01*
X13220333Y-6539108D02*
G75*
G03*
X13220333Y-6539108I-40000J0D01*
G01*
X13220333Y-7555108D02*
G75*
G03*
X13220333Y-7555108I-40000J0D01*
G01*
X13407708Y-7895108D02*
G75*
G03*
X13407708Y-7895108I-40000J0D01*
G01*
X13412708Y-8307608D02*
G75*
G03*
X13412708Y-8307608I-40000J0D01*
G01*
X13417708Y-8720108D02*
G75*
G03*
X13417708Y-8720108I-40000J0D01*
G01*
X13510958Y-5192108D02*
G75*
G03*
X13510958Y-5192108I-40000J0D01*
G01*
X13510958Y-6208108D02*
G75*
G03*
X13510958Y-6208108I-40000J0D01*
G01*
X13510958Y-6539108D02*
G75*
G03*
X13510958Y-6539108I-40000J0D01*
G01*
X13510958Y-7555108D02*
G75*
G03*
X13510958Y-7555108I-40000J0D01*
G01*
X13661708Y-7895108D02*
G75*
G03*
X13661708Y-7895108I-40000J0D01*
G01*
X13666708Y-8307608D02*
G75*
G03*
X13666708Y-8307608I-40000J0D01*
G01*
X13671708Y-8720108D02*
G75*
G03*
X13671708Y-8720108I-40000J0D01*
G01*
X13801583Y-5192108D02*
G75*
G03*
X13801583Y-5192108I-40000J0D01*
G01*
X13801583Y-6208108D02*
G75*
G03*
X13801583Y-6208108I-40000J0D01*
G01*
X13801583Y-6539108D02*
G75*
G03*
X13801583Y-6539108I-40000J0D01*
G01*
X13801583Y-7555108D02*
G75*
G03*
X13801583Y-7555108I-40000J0D01*
G01*
X13915708Y-7895108D02*
G75*
G03*
X13915708Y-7895108I-40000J0D01*
G01*
X13920708Y-8307608D02*
G75*
G03*
X13920708Y-8307608I-40000J0D01*
G01*
X13925708Y-8720108D02*
G75*
G03*
X13925708Y-8720108I-40000J0D01*
G01*
X14092208Y-5192108D02*
G75*
G03*
X14092208Y-5192108I-40000J0D01*
G01*
X14092208Y-6208108D02*
G75*
G03*
X14092208Y-6208108I-40000J0D01*
G01*
X14092208Y-6539108D02*
G75*
G03*
X14092208Y-6539108I-40000J0D01*
G01*
X14092208Y-7555108D02*
G75*
G03*
X14092208Y-7555108I-40000J0D01*
G01*
X14169708Y-7895108D02*
G75*
G03*
X14169708Y-7895108I-40000J0D01*
G01*
X14174708Y-8307608D02*
G75*
G03*
X14174708Y-8307608I-40000J0D01*
G01*
X14179708Y-8720108D02*
G75*
G03*
X14179708Y-8720108I-40000J0D01*
G01*
X14382833Y-5192108D02*
G75*
G03*
X14382833Y-5192108I-40000J0D01*
G01*
X14382833Y-6208108D02*
G75*
G03*
X14382833Y-6208108I-40000J0D01*
G01*
X14382833Y-6539108D02*
G75*
G03*
X14382833Y-6539108I-40000J0D01*
G01*
X14382833Y-7555108D02*
G75*
G03*
X14382833Y-7555108I-40000J0D01*
G01*
X14423708Y-7895108D02*
G75*
G03*
X14423708Y-7895108I-40000J0D01*
G01*
X14428708Y-8307608D02*
G75*
G03*
X14428708Y-8307608I-40000J0D01*
G01*
X14433708Y-8720108D02*
G75*
G03*
X14433708Y-8720108I-40000J0D01*
G01*
X14673458Y-5192108D02*
G75*
G03*
X14673458Y-5192108I-40000J0D01*
G01*
X14673458Y-6208108D02*
G75*
G03*
X14673458Y-6208108I-40000J0D01*
G01*
X14673458Y-6539108D02*
G75*
G03*
X14673458Y-6539108I-40000J0D01*
G01*
X14673458Y-7555108D02*
G75*
G03*
X14673458Y-7555108I-40000J0D01*
G01*
X14677708Y-7895108D02*
G75*
G03*
X14677708Y-7895108I-40000J0D01*
G01*
X14682708Y-8307608D02*
G75*
G03*
X14682708Y-8307608I-40000J0D01*
G01*
X14687708Y-8720108D02*
G75*
G03*
X14687708Y-8720108I-40000J0D01*
G01*
X14931708Y-7895108D02*
G75*
G03*
X14931708Y-7895108I-40000J0D01*
G01*
X14936708Y-8307608D02*
G75*
G03*
X14936708Y-8307608I-40000J0D01*
G01*
X14941708Y-8720108D02*
G75*
G03*
X14941708Y-8720108I-40000J0D01*
G01*
X14964083Y-5192108D02*
G75*
G03*
X14964083Y-5192108I-40000J0D01*
G01*
X14964083Y-6208108D02*
G75*
G03*
X14964083Y-6208108I-40000J0D01*
G01*
X14964083Y-6539108D02*
G75*
G03*
X14964083Y-6539108I-40000J0D01*
G01*
X14964083Y-7555108D02*
G75*
G03*
X14964083Y-7555108I-40000J0D01*
G01*
X15185708Y-7895108D02*
G75*
G03*
X15185708Y-7895108I-40000J0D01*
G01*
X15190708Y-8307608D02*
G75*
G03*
X15190708Y-8307608I-40000J0D01*
G01*
X15195708Y-8720108D02*
G75*
G03*
X15195708Y-8720108I-40000J0D01*
G01*
X15254708Y-6530108D02*
G75*
G03*
X15254708Y-6530108I-40000J0D01*
G01*
X15254708Y-7530108D02*
G75*
G03*
X15254708Y-7530108I-40000J0D01*
G01*
X15255708Y-5193108D02*
G75*
G03*
X15255708Y-5193108I-40000J0D01*
G01*
X15255708Y-6209108D02*
G75*
G03*
X15255708Y-6209108I-40000J0D01*
G01*
X15754708Y-5318108D02*
G75*
G03*
X15754708Y-5318108I-40000J0D01*
G01*
X15754708Y-6080108D02*
G75*
G03*
X15754708Y-6080108I-40000J0D01*
G01*
X15754708Y-6380608D02*
G75*
G03*
X15754708Y-6380608I-40000J0D01*
G01*
X15754708Y-7142608D02*
G75*
G03*
X15754708Y-7142608I-40000J0D01*
G01*
X15754708Y-7443108D02*
G75*
G03*
X15754708Y-7443108I-40000J0D01*
G01*
X15754708Y-8205108D02*
G75*
G03*
X15754708Y-8205108I-40000J0D01*
G01*
X16008708Y-5318108D02*
G75*
G03*
X16008708Y-5318108I-40000J0D01*
G01*
X16008708Y-6080108D02*
G75*
G03*
X16008708Y-6080108I-40000J0D01*
G01*
X16008708Y-6380608D02*
G75*
G03*
X16008708Y-6380608I-40000J0D01*
G01*
X16008708Y-7142608D02*
G75*
G03*
X16008708Y-7142608I-40000J0D01*
G01*
X16008708Y-7443108D02*
G75*
G03*
X16008708Y-7443108I-40000J0D01*
G01*
X16008708Y-8205108D02*
G75*
G03*
X16008708Y-8205108I-40000J0D01*
G01*
X16262708Y-5318108D02*
G75*
G03*
X16262708Y-5318108I-40000J0D01*
G01*
X16262708Y-6080108D02*
G75*
G03*
X16262708Y-6080108I-40000J0D01*
G01*
X16262708Y-6380608D02*
G75*
G03*
X16262708Y-6380608I-40000J0D01*
G01*
X16262708Y-7142608D02*
G75*
G03*
X16262708Y-7142608I-40000J0D01*
G01*
X16262708Y-7443108D02*
G75*
G03*
X16262708Y-7443108I-40000J0D01*
G01*
X16262708Y-8205108D02*
G75*
G03*
X16262708Y-8205108I-40000J0D01*
G01*
X16264708Y-8970108D02*
G75*
G03*
X16264708Y-8970108I-40000J0D01*
G01*
X16264708Y-9720108D02*
G75*
G03*
X16264708Y-9720108I-40000J0D01*
G01*
X16516708Y-5318108D02*
G75*
G03*
X16516708Y-5318108I-40000J0D01*
G01*
X16516708Y-6080108D02*
G75*
G03*
X16516708Y-6080108I-40000J0D01*
G01*
X16516708Y-6380608D02*
G75*
G03*
X16516708Y-6380608I-40000J0D01*
G01*
X16516708Y-7142608D02*
G75*
G03*
X16516708Y-7142608I-40000J0D01*
G01*
X16516708Y-7443108D02*
G75*
G03*
X16516708Y-7443108I-40000J0D01*
G01*
X16516708Y-8205108D02*
G75*
G03*
X16516708Y-8205108I-40000J0D01*
G01*
X16770708Y-5318108D02*
G75*
G03*
X16770708Y-5318108I-40000J0D01*
G01*
X16770708Y-6080108D02*
G75*
G03*
X16770708Y-6080108I-40000J0D01*
G01*
X16770708Y-6380608D02*
G75*
G03*
X16770708Y-6380608I-40000J0D01*
G01*
X16770708Y-7142608D02*
G75*
G03*
X16770708Y-7142608I-40000J0D01*
G01*
X16770708Y-7443108D02*
G75*
G03*
X16770708Y-7443108I-40000J0D01*
G01*
X16770708Y-8205108D02*
G75*
G03*
X16770708Y-8205108I-40000J0D01*
G01*
X16781708Y-8581108D02*
G75*
G03*
X16781708Y-8581108I-40000J0D01*
G01*
X16781708Y-10105108D02*
G75*
G03*
X16781708Y-10105108I-40000J0D01*
G01*
X17024708Y-5318108D02*
G75*
G03*
X17024708Y-5318108I-40000J0D01*
G01*
X17024708Y-6080108D02*
G75*
G03*
X17024708Y-6080108I-40000J0D01*
G01*
X17024708Y-6380608D02*
G75*
G03*
X17024708Y-6380608I-40000J0D01*
G01*
X17024708Y-7142608D02*
G75*
G03*
X17024708Y-7142608I-40000J0D01*
G01*
X17024708Y-7443108D02*
G75*
G03*
X17024708Y-7443108I-40000J0D01*
G01*
X17024708Y-8205108D02*
G75*
G03*
X17024708Y-8205108I-40000J0D01*
G01*
X17035708Y-8581108D02*
G75*
G03*
X17035708Y-8581108I-40000J0D01*
G01*
X17035708Y-10105108D02*
G75*
G03*
X17035708Y-10105108I-40000J0D01*
G01*
X17278708Y-5318108D02*
G75*
G03*
X17278708Y-5318108I-40000J0D01*
G01*
X17278708Y-6080108D02*
G75*
G03*
X17278708Y-6080108I-40000J0D01*
G01*
X17278708Y-6380608D02*
G75*
G03*
X17278708Y-6380608I-40000J0D01*
G01*
X17278708Y-7142608D02*
G75*
G03*
X17278708Y-7142608I-40000J0D01*
G01*
X17278708Y-7443108D02*
G75*
G03*
X17278708Y-7443108I-40000J0D01*
G01*
X17278708Y-8205108D02*
G75*
G03*
X17278708Y-8205108I-40000J0D01*
G01*
X17289708Y-8581108D02*
G75*
G03*
X17289708Y-8581108I-40000J0D01*
G01*
X17289708Y-10105108D02*
G75*
G03*
X17289708Y-10105108I-40000J0D01*
G01*
X17532708Y-5318108D02*
G75*
G03*
X17532708Y-5318108I-40000J0D01*
G01*
X17532708Y-6080108D02*
G75*
G03*
X17532708Y-6080108I-40000J0D01*
G01*
X17532708Y-6380608D02*
G75*
G03*
X17532708Y-6380608I-40000J0D01*
G01*
X17532708Y-7142608D02*
G75*
G03*
X17532708Y-7142608I-40000J0D01*
G01*
X17532708Y-7443108D02*
G75*
G03*
X17532708Y-7443108I-40000J0D01*
G01*
X17532708Y-8205108D02*
G75*
G03*
X17532708Y-8205108I-40000J0D01*
G01*
X17543708Y-8581108D02*
G75*
G03*
X17543708Y-8581108I-40000J0D01*
G01*
X17543708Y-10105108D02*
G75*
G03*
X17543708Y-10105108I-40000J0D01*
G01*
X17786708Y-5318108D02*
G75*
G03*
X17786708Y-5318108I-40000J0D01*
G01*
X17786708Y-6080108D02*
G75*
G03*
X17786708Y-6080108I-40000J0D01*
G01*
X17786708Y-6380608D02*
G75*
G03*
X17786708Y-6380608I-40000J0D01*
G01*
X17786708Y-7142608D02*
G75*
G03*
X17786708Y-7142608I-40000J0D01*
G01*
X17786708Y-7443108D02*
G75*
G03*
X17786708Y-7443108I-40000J0D01*
G01*
X17786708Y-8205108D02*
G75*
G03*
X17786708Y-8205108I-40000J0D01*
G01*
X17797708Y-8581108D02*
G75*
G03*
X17797708Y-8581108I-40000J0D01*
G01*
X17797708Y-10105108D02*
G75*
G03*
X17797708Y-10105108I-40000J0D01*
G01*
X18040708Y-5318108D02*
G75*
G03*
X18040708Y-5318108I-40000J0D01*
G01*
X18040708Y-6080108D02*
G75*
G03*
X18040708Y-6080108I-40000J0D01*
G01*
X18040708Y-6380608D02*
G75*
G03*
X18040708Y-6380608I-40000J0D01*
G01*
X18040708Y-7142608D02*
G75*
G03*
X18040708Y-7142608I-40000J0D01*
G01*
X18040708Y-7443108D02*
G75*
G03*
X18040708Y-7443108I-40000J0D01*
G01*
X18040708Y-8205108D02*
G75*
G03*
X18040708Y-8205108I-40000J0D01*
G01*
X18051708Y-8581108D02*
G75*
G03*
X18051708Y-8581108I-40000J0D01*
G01*
X18051708Y-10105108D02*
G75*
G03*
X18051708Y-10105108I-40000J0D01*
G01*
X18305708Y-8581108D02*
G75*
G03*
X18305708Y-8581108I-40000J0D01*
G01*
X18305708Y-10105108D02*
G75*
G03*
X18305708Y-10105108I-40000J0D01*
G01*
X18504708Y-6280108D02*
G75*
G03*
X18504708Y-6280108I-40000J0D01*
G01*
X18504708Y-7280108D02*
G75*
G03*
X18504708Y-7280108I-40000J0D01*
G01*
X18559708Y-8581108D02*
G75*
G03*
X18559708Y-8581108I-40000J0D01*
G01*
X18559708Y-10105108D02*
G75*
G03*
X18559708Y-10105108I-40000J0D01*
G01*
X18813708Y-8581108D02*
G75*
G03*
X18813708Y-8581108I-40000J0D01*
G01*
X18813708Y-10105108D02*
G75*
G03*
X18813708Y-10105108I-40000J0D01*
G01*
X18874708Y-7428108D02*
G75*
G03*
X18874708Y-7428108I-40000J0D01*
G01*
X18874708Y-8190108D02*
G75*
G03*
X18874708Y-8190108I-40000J0D01*
G01*
X18884708Y-5318108D02*
G75*
G03*
X18884708Y-5318108I-40000J0D01*
G01*
X18884708Y-6080108D02*
G75*
G03*
X18884708Y-6080108I-40000J0D01*
G01*
X18884708Y-6383108D02*
G75*
G03*
X18884708Y-6383108I-40000J0D01*
G01*
X18884708Y-7145108D02*
G75*
G03*
X18884708Y-7145108I-40000J0D01*
G01*
X19067708Y-8581108D02*
G75*
G03*
X19067708Y-8581108I-40000J0D01*
G01*
X19067708Y-10105108D02*
G75*
G03*
X19067708Y-10105108I-40000J0D01*
G01*
X19128708Y-7428108D02*
G75*
G03*
X19128708Y-7428108I-40000J0D01*
G01*
X19128708Y-8190108D02*
G75*
G03*
X19128708Y-8190108I-40000J0D01*
G01*
X19138708Y-5318108D02*
G75*
G03*
X19138708Y-5318108I-40000J0D01*
G01*
X19138708Y-6080108D02*
G75*
G03*
X19138708Y-6080108I-40000J0D01*
G01*
X19138708Y-6383108D02*
G75*
G03*
X19138708Y-6383108I-40000J0D01*
G01*
X19138708Y-7145108D02*
G75*
G03*
X19138708Y-7145108I-40000J0D01*
G01*
X19321708Y-8581108D02*
G75*
G03*
X19321708Y-8581108I-40000J0D01*
G01*
X19321708Y-10105108D02*
G75*
G03*
X19321708Y-10105108I-40000J0D01*
G01*
X19382708Y-7428108D02*
G75*
G03*
X19382708Y-7428108I-40000J0D01*
G01*
X19382708Y-8190108D02*
G75*
G03*
X19382708Y-8190108I-40000J0D01*
G01*
X19392708Y-5318108D02*
G75*
G03*
X19392708Y-5318108I-40000J0D01*
G01*
X19392708Y-6080108D02*
G75*
G03*
X19392708Y-6080108I-40000J0D01*
G01*
X19392708Y-6383108D02*
G75*
G03*
X19392708Y-6383108I-40000J0D01*
G01*
X19392708Y-7145108D02*
G75*
G03*
X19392708Y-7145108I-40000J0D01*
G01*
X19575708Y-8581108D02*
G75*
G03*
X19575708Y-8581108I-40000J0D01*
G01*
X19575708Y-10105108D02*
G75*
G03*
X19575708Y-10105108I-40000J0D01*
G01*
X19636708Y-7428108D02*
G75*
G03*
X19636708Y-7428108I-40000J0D01*
G01*
X19636708Y-8190108D02*
G75*
G03*
X19636708Y-8190108I-40000J0D01*
G01*
X19646708Y-5318108D02*
G75*
G03*
X19646708Y-5318108I-40000J0D01*
G01*
X19646708Y-6080108D02*
G75*
G03*
X19646708Y-6080108I-40000J0D01*
G01*
X19646708Y-6383108D02*
G75*
G03*
X19646708Y-6383108I-40000J0D01*
G01*
X19646708Y-7145108D02*
G75*
G03*
X19646708Y-7145108I-40000J0D01*
G01*
X19829708Y-8581108D02*
G75*
G03*
X19829708Y-8581108I-40000J0D01*
G01*
X19829708Y-10105108D02*
G75*
G03*
X19829708Y-10105108I-40000J0D01*
G01*
X19890708Y-7428108D02*
G75*
G03*
X19890708Y-7428108I-40000J0D01*
G01*
X19890708Y-8190108D02*
G75*
G03*
X19890708Y-8190108I-40000J0D01*
G01*
X19900708Y-5318108D02*
G75*
G03*
X19900708Y-5318108I-40000J0D01*
G01*
X19900708Y-6080108D02*
G75*
G03*
X19900708Y-6080108I-40000J0D01*
G01*
X19900708Y-6383108D02*
G75*
G03*
X19900708Y-6383108I-40000J0D01*
G01*
X19900708Y-7145108D02*
G75*
G03*
X19900708Y-7145108I-40000J0D01*
G01*
X20083708Y-8581108D02*
G75*
G03*
X20083708Y-8581108I-40000J0D01*
G01*
X20083708Y-10105108D02*
G75*
G03*
X20083708Y-10105108I-40000J0D01*
G01*
X20144708Y-7428108D02*
G75*
G03*
X20144708Y-7428108I-40000J0D01*
G01*
X20144708Y-8190108D02*
G75*
G03*
X20144708Y-8190108I-40000J0D01*
G01*
X20154708Y-5318108D02*
G75*
G03*
X20154708Y-5318108I-40000J0D01*
G01*
X20154708Y-6080108D02*
G75*
G03*
X20154708Y-6080108I-40000J0D01*
G01*
X20154708Y-6383108D02*
G75*
G03*
X20154708Y-6383108I-40000J0D01*
G01*
X20154708Y-7145108D02*
G75*
G03*
X20154708Y-7145108I-40000J0D01*
G01*
X20337708Y-8581108D02*
G75*
G03*
X20337708Y-8581108I-40000J0D01*
G01*
X20337708Y-10105108D02*
G75*
G03*
X20337708Y-10105108I-40000J0D01*
G01*
X20398708Y-7428108D02*
G75*
G03*
X20398708Y-7428108I-40000J0D01*
G01*
X20398708Y-8190108D02*
G75*
G03*
X20398708Y-8190108I-40000J0D01*
G01*
X20408708Y-5318108D02*
G75*
G03*
X20408708Y-5318108I-40000J0D01*
G01*
X20408708Y-6080108D02*
G75*
G03*
X20408708Y-6080108I-40000J0D01*
G01*
X20408708Y-6383108D02*
G75*
G03*
X20408708Y-6383108I-40000J0D01*
G01*
X20408708Y-7145108D02*
G75*
G03*
X20408708Y-7145108I-40000J0D01*
G01*
X20591708Y-8581108D02*
G75*
G03*
X20591708Y-8581108I-40000J0D01*
G01*
X20591708Y-10105108D02*
G75*
G03*
X20591708Y-10105108I-40000J0D01*
G01*
X20662708Y-5318108D02*
G75*
G03*
X20662708Y-5318108I-40000J0D01*
G01*
X20662708Y-6080108D02*
G75*
G03*
X20662708Y-6080108I-40000J0D01*
G01*
X20662708Y-6383108D02*
G75*
G03*
X20662708Y-6383108I-40000J0D01*
G01*
X20662708Y-7145108D02*
G75*
G03*
X20662708Y-7145108I-40000J0D01*
G01*
X20845708Y-8581108D02*
G75*
G03*
X20845708Y-8581108I-40000J0D01*
G01*
X20845708Y-10105108D02*
G75*
G03*
X20845708Y-10105108I-40000J0D01*
G01*
X21099708Y-8581108D02*
G75*
G03*
X21099708Y-8581108I-40000J0D01*
G01*
X21099708Y-10105108D02*
G75*
G03*
X21099708Y-10105108I-40000J0D01*
G01*
X21104708Y-5325108D02*
G75*
G03*
X21104708Y-5325108I-40000J0D01*
G01*
X21104708Y-6075108D02*
G75*
G03*
X21104708Y-6075108I-40000J0D01*
G01*
X21104708Y-6405108D02*
G75*
G03*
X21104708Y-6405108I-40000J0D01*
G01*
X21104708Y-7155108D02*
G75*
G03*
X21104708Y-7155108I-40000J0D01*
G01*
X21104708Y-7455108D02*
G75*
G03*
X21104708Y-7455108I-40000J0D01*
G01*
X21104708Y-8205108D02*
G75*
G03*
X21104708Y-8205108I-40000J0D01*
G01*
X21353708Y-8581108D02*
G75*
G03*
X21353708Y-8581108I-40000J0D01*
G01*
X21353708Y-10105108D02*
G75*
G03*
X21353708Y-10105108I-40000J0D01*
G01*
X21504708Y-5318108D02*
G75*
G03*
X21504708Y-5318108I-40000J0D01*
G01*
X21504708Y-6080108D02*
G75*
G03*
X21504708Y-6080108I-40000J0D01*
G01*
X21504708Y-6368108D02*
G75*
G03*
X21504708Y-6368108I-40000J0D01*
G01*
X21504708Y-7130108D02*
G75*
G03*
X21504708Y-7130108I-40000J0D01*
G01*
X21504708Y-7418108D02*
G75*
G03*
X21504708Y-7418108I-40000J0D01*
G01*
X21504708Y-8180108D02*
G75*
G03*
X21504708Y-8180108I-40000J0D01*
G01*
X21607708Y-8581108D02*
G75*
G03*
X21607708Y-8581108I-40000J0D01*
G01*
X21607708Y-10105108D02*
G75*
G03*
X21607708Y-10105108I-40000J0D01*
G01*
X21758708Y-5318108D02*
G75*
G03*
X21758708Y-5318108I-40000J0D01*
G01*
X21758708Y-6080108D02*
G75*
G03*
X21758708Y-6080108I-40000J0D01*
G01*
X21758708Y-6368108D02*
G75*
G03*
X21758708Y-6368108I-40000J0D01*
G01*
X21758708Y-7130108D02*
G75*
G03*
X21758708Y-7130108I-40000J0D01*
G01*
X21758708Y-7418108D02*
G75*
G03*
X21758708Y-7418108I-40000J0D01*
G01*
X21758708Y-8180108D02*
G75*
G03*
X21758708Y-8180108I-40000J0D01*
G01*
X22012708Y-5318108D02*
G75*
G03*
X22012708Y-5318108I-40000J0D01*
G01*
X22012708Y-6080108D02*
G75*
G03*
X22012708Y-6080108I-40000J0D01*
G01*
X22012708Y-6368108D02*
G75*
G03*
X22012708Y-6368108I-40000J0D01*
G01*
X22012708Y-7130108D02*
G75*
G03*
X22012708Y-7130108I-40000J0D01*
G01*
X22012708Y-7418108D02*
G75*
G03*
X22012708Y-7418108I-40000J0D01*
G01*
X22012708Y-8180108D02*
G75*
G03*
X22012708Y-8180108I-40000J0D01*
G01*
X22266708Y-5318108D02*
G75*
G03*
X22266708Y-5318108I-40000J0D01*
G01*
X22266708Y-6080108D02*
G75*
G03*
X22266708Y-6080108I-40000J0D01*
G01*
X22266708Y-6368108D02*
G75*
G03*
X22266708Y-6368108I-40000J0D01*
G01*
X22266708Y-7130108D02*
G75*
G03*
X22266708Y-7130108I-40000J0D01*
G01*
X22266708Y-7418108D02*
G75*
G03*
X22266708Y-7418108I-40000J0D01*
G01*
X22266708Y-8180108D02*
G75*
G03*
X22266708Y-8180108I-40000J0D01*
G01*
X22520708Y-5318108D02*
G75*
G03*
X22520708Y-5318108I-40000J0D01*
G01*
X22520708Y-6080108D02*
G75*
G03*
X22520708Y-6080108I-40000J0D01*
G01*
X22520708Y-6368108D02*
G75*
G03*
X22520708Y-6368108I-40000J0D01*
G01*
X22520708Y-7130108D02*
G75*
G03*
X22520708Y-7130108I-40000J0D01*
G01*
X22520708Y-7418108D02*
G75*
G03*
X22520708Y-7418108I-40000J0D01*
G01*
X22520708Y-8180108D02*
G75*
G03*
X22520708Y-8180108I-40000J0D01*
G01*
X22774708Y-5318108D02*
G75*
G03*
X22774708Y-5318108I-40000J0D01*
G01*
X22774708Y-6080108D02*
G75*
G03*
X22774708Y-6080108I-40000J0D01*
G01*
X22774708Y-6368108D02*
G75*
G03*
X22774708Y-6368108I-40000J0D01*
G01*
X22774708Y-7130108D02*
G75*
G03*
X22774708Y-7130108I-40000J0D01*
G01*
X22774708Y-7418108D02*
G75*
G03*
X22774708Y-7418108I-40000J0D01*
G01*
X22774708Y-8180108D02*
G75*
G03*
X22774708Y-8180108I-40000J0D01*
G01*
X23028708Y-5318108D02*
G75*
G03*
X23028708Y-5318108I-40000J0D01*
G01*
X23028708Y-6080108D02*
G75*
G03*
X23028708Y-6080108I-40000J0D01*
G01*
X23028708Y-6368108D02*
G75*
G03*
X23028708Y-6368108I-40000J0D01*
G01*
X23028708Y-7130108D02*
G75*
G03*
X23028708Y-7130108I-40000J0D01*
G01*
X23028708Y-7418108D02*
G75*
G03*
X23028708Y-7418108I-40000J0D01*
G01*
X23028708Y-8180108D02*
G75*
G03*
X23028708Y-8180108I-40000J0D01*
G01*
X23282708Y-5318108D02*
G75*
G03*
X23282708Y-5318108I-40000J0D01*
G01*
X23282708Y-6080108D02*
G75*
G03*
X23282708Y-6080108I-40000J0D01*
G01*
X23282708Y-6368108D02*
G75*
G03*
X23282708Y-6368108I-40000J0D01*
G01*
X23282708Y-7130108D02*
G75*
G03*
X23282708Y-7130108I-40000J0D01*
G01*
X23282708Y-7418108D02*
G75*
G03*
X23282708Y-7418108I-40000J0D01*
G01*
X23282708Y-8180108D02*
G75*
G03*
X23282708Y-8180108I-40000J0D01*
G01*
X23536708Y-5318108D02*
G75*
G03*
X23536708Y-5318108I-40000J0D01*
G01*
X23536708Y-6080108D02*
G75*
G03*
X23536708Y-6080108I-40000J0D01*
G01*
X23536708Y-6368108D02*
G75*
G03*
X23536708Y-6368108I-40000J0D01*
G01*
X23536708Y-7130108D02*
G75*
G03*
X23536708Y-7130108I-40000J0D01*
G01*
X23536708Y-7418108D02*
G75*
G03*
X23536708Y-7418108I-40000J0D01*
G01*
X23536708Y-8180108D02*
G75*
G03*
X23536708Y-8180108I-40000J0D01*
G01*
X23979708Y-5325108D02*
G75*
G03*
X23979708Y-5325108I-40000J0D01*
G01*
X23979708Y-6075108D02*
G75*
G03*
X23979708Y-6075108I-40000J0D01*
G01*
X23979708Y-6356108D02*
G75*
G03*
X23979708Y-6356108I-40000J0D01*
G01*
X23979708Y-7106108D02*
G75*
G03*
X23979708Y-7106108I-40000J0D01*
G01*
X23979708Y-7387108D02*
G75*
G03*
X23979708Y-7387108I-40000J0D01*
G01*
X23979708Y-8137108D02*
G75*
G03*
X23979708Y-8137108I-40000J0D01*
G01*
X23979708Y-8418108D02*
G75*
G03*
X23979708Y-8418108I-40000J0D01*
G01*
X23979708Y-9168108D02*
G75*
G03*
X23979708Y-9168108I-40000J0D01*
G01*
X23979708Y-9449108D02*
G75*
G03*
X23979708Y-9449108I-40000J0D01*
G01*
X23979708Y-10199108D02*
G75*
G03*
X23979708Y-10199108I-40000J0D01*
G01*
X23979708Y-10480108D02*
G75*
G03*
X23979708Y-10480108I-40000J0D01*
G01*
X23979708Y-11230108D02*
G75*
G03*
X23979708Y-11230108I-40000J0D01*
G01*
X24379708Y-5318108D02*
G75*
G03*
X24379708Y-5318108I-40000J0D01*
G01*
X24379708Y-6080108D02*
G75*
G03*
X24379708Y-6080108I-40000J0D01*
G01*
X24379708Y-6348108D02*
G75*
G03*
X24379708Y-6348108I-40000J0D01*
G01*
X24379708Y-7110108D02*
G75*
G03*
X24379708Y-7110108I-40000J0D01*
G01*
X24379708Y-7378108D02*
G75*
G03*
X24379708Y-7378108I-40000J0D01*
G01*
X24379708Y-8140108D02*
G75*
G03*
X24379708Y-8140108I-40000J0D01*
G01*
X24379708Y-8408108D02*
G75*
G03*
X24379708Y-8408108I-40000J0D01*
G01*
X24379708Y-9170108D02*
G75*
G03*
X24379708Y-9170108I-40000J0D01*
G01*
X24379708Y-9438108D02*
G75*
G03*
X24379708Y-9438108I-40000J0D01*
G01*
X24379708Y-10200108D02*
G75*
G03*
X24379708Y-10200108I-40000J0D01*
G01*
X24379708Y-10468108D02*
G75*
G03*
X24379708Y-10468108I-40000J0D01*
G01*
X24379708Y-11230108D02*
G75*
G03*
X24379708Y-11230108I-40000J0D01*
G01*
X24633708Y-5318108D02*
G75*
G03*
X24633708Y-5318108I-40000J0D01*
G01*
X24633708Y-6080108D02*
G75*
G03*
X24633708Y-6080108I-40000J0D01*
G01*
X24633708Y-6348108D02*
G75*
G03*
X24633708Y-6348108I-40000J0D01*
G01*
X24633708Y-7110108D02*
G75*
G03*
X24633708Y-7110108I-40000J0D01*
G01*
X24633708Y-7378108D02*
G75*
G03*
X24633708Y-7378108I-40000J0D01*
G01*
X24633708Y-8140108D02*
G75*
G03*
X24633708Y-8140108I-40000J0D01*
G01*
X24633708Y-8408108D02*
G75*
G03*
X24633708Y-8408108I-40000J0D01*
G01*
X24633708Y-9170108D02*
G75*
G03*
X24633708Y-9170108I-40000J0D01*
G01*
X24633708Y-9438108D02*
G75*
G03*
X24633708Y-9438108I-40000J0D01*
G01*
X24633708Y-10200108D02*
G75*
G03*
X24633708Y-10200108I-40000J0D01*
G01*
X24633708Y-10468108D02*
G75*
G03*
X24633708Y-10468108I-40000J0D01*
G01*
X24633708Y-11230108D02*
G75*
G03*
X24633708Y-11230108I-40000J0D01*
G01*
X24887708Y-5318108D02*
G75*
G03*
X24887708Y-5318108I-40000J0D01*
G01*
X24887708Y-6080108D02*
G75*
G03*
X24887708Y-6080108I-40000J0D01*
G01*
X24887708Y-6348108D02*
G75*
G03*
X24887708Y-6348108I-40000J0D01*
G01*
X24887708Y-7110108D02*
G75*
G03*
X24887708Y-7110108I-40000J0D01*
G01*
X24887708Y-7378108D02*
G75*
G03*
X24887708Y-7378108I-40000J0D01*
G01*
X24887708Y-8140108D02*
G75*
G03*
X24887708Y-8140108I-40000J0D01*
G01*
X24887708Y-8408108D02*
G75*
G03*
X24887708Y-8408108I-40000J0D01*
G01*
X24887708Y-9170108D02*
G75*
G03*
X24887708Y-9170108I-40000J0D01*
G01*
X24887708Y-9438108D02*
G75*
G03*
X24887708Y-9438108I-40000J0D01*
G01*
X24887708Y-10200108D02*
G75*
G03*
X24887708Y-10200108I-40000J0D01*
G01*
X24887708Y-10468108D02*
G75*
G03*
X24887708Y-10468108I-40000J0D01*
G01*
X24887708Y-11230108D02*
G75*
G03*
X24887708Y-11230108I-40000J0D01*
G01*
X25141708Y-5318108D02*
G75*
G03*
X25141708Y-5318108I-40000J0D01*
G01*
X25141708Y-6080108D02*
G75*
G03*
X25141708Y-6080108I-40000J0D01*
G01*
X25141708Y-6348108D02*
G75*
G03*
X25141708Y-6348108I-40000J0D01*
G01*
X25141708Y-7110108D02*
G75*
G03*
X25141708Y-7110108I-40000J0D01*
G01*
X25141708Y-7378108D02*
G75*
G03*
X25141708Y-7378108I-40000J0D01*
G01*
X25141708Y-8140108D02*
G75*
G03*
X25141708Y-8140108I-40000J0D01*
G01*
X25141708Y-8408108D02*
G75*
G03*
X25141708Y-8408108I-40000J0D01*
G01*
X25141708Y-9170108D02*
G75*
G03*
X25141708Y-9170108I-40000J0D01*
G01*
X25141708Y-9438108D02*
G75*
G03*
X25141708Y-9438108I-40000J0D01*
G01*
X25141708Y-10200108D02*
G75*
G03*
X25141708Y-10200108I-40000J0D01*
G01*
X25141708Y-10468108D02*
G75*
G03*
X25141708Y-10468108I-40000J0D01*
G01*
X25141708Y-11230108D02*
G75*
G03*
X25141708Y-11230108I-40000J0D01*
G01*
X25395708Y-5318108D02*
G75*
G03*
X25395708Y-5318108I-40000J0D01*
G01*
X25395708Y-6080108D02*
G75*
G03*
X25395708Y-6080108I-40000J0D01*
G01*
X25395708Y-6348108D02*
G75*
G03*
X25395708Y-6348108I-40000J0D01*
G01*
X25395708Y-7110108D02*
G75*
G03*
X25395708Y-7110108I-40000J0D01*
G01*
X25395708Y-7378108D02*
G75*
G03*
X25395708Y-7378108I-40000J0D01*
G01*
X25395708Y-8140108D02*
G75*
G03*
X25395708Y-8140108I-40000J0D01*
G01*
X25395708Y-8408108D02*
G75*
G03*
X25395708Y-8408108I-40000J0D01*
G01*
X25395708Y-9170108D02*
G75*
G03*
X25395708Y-9170108I-40000J0D01*
G01*
X25395708Y-9438108D02*
G75*
G03*
X25395708Y-9438108I-40000J0D01*
G01*
X25395708Y-10200108D02*
G75*
G03*
X25395708Y-10200108I-40000J0D01*
G01*
X25395708Y-10468108D02*
G75*
G03*
X25395708Y-10468108I-40000J0D01*
G01*
X25395708Y-11230108D02*
G75*
G03*
X25395708Y-11230108I-40000J0D01*
G01*
X25649708Y-5318108D02*
G75*
G03*
X25649708Y-5318108I-40000J0D01*
G01*
X25649708Y-6080108D02*
G75*
G03*
X25649708Y-6080108I-40000J0D01*
G01*
X25649708Y-6348108D02*
G75*
G03*
X25649708Y-6348108I-40000J0D01*
G01*
X25649708Y-7110108D02*
G75*
G03*
X25649708Y-7110108I-40000J0D01*
G01*
X25649708Y-7378108D02*
G75*
G03*
X25649708Y-7378108I-40000J0D01*
G01*
X25649708Y-8140108D02*
G75*
G03*
X25649708Y-8140108I-40000J0D01*
G01*
X25649708Y-8408108D02*
G75*
G03*
X25649708Y-8408108I-40000J0D01*
G01*
X25649708Y-9170108D02*
G75*
G03*
X25649708Y-9170108I-40000J0D01*
G01*
X25649708Y-9438108D02*
G75*
G03*
X25649708Y-9438108I-40000J0D01*
G01*
X25649708Y-10200108D02*
G75*
G03*
X25649708Y-10200108I-40000J0D01*
G01*
X25649708Y-10468108D02*
G75*
G03*
X25649708Y-10468108I-40000J0D01*
G01*
X25649708Y-11230108D02*
G75*
G03*
X25649708Y-11230108I-40000J0D01*
G01*
X25903708Y-5318108D02*
G75*
G03*
X25903708Y-5318108I-40000J0D01*
G01*
X25903708Y-6080108D02*
G75*
G03*
X25903708Y-6080108I-40000J0D01*
G01*
X25903708Y-6348108D02*
G75*
G03*
X25903708Y-6348108I-40000J0D01*
G01*
X25903708Y-7110108D02*
G75*
G03*
X25903708Y-7110108I-40000J0D01*
G01*
X25903708Y-7378108D02*
G75*
G03*
X25903708Y-7378108I-40000J0D01*
G01*
X25903708Y-8140108D02*
G75*
G03*
X25903708Y-8140108I-40000J0D01*
G01*
X25903708Y-8408108D02*
G75*
G03*
X25903708Y-8408108I-40000J0D01*
G01*
X25903708Y-9170108D02*
G75*
G03*
X25903708Y-9170108I-40000J0D01*
G01*
X25903708Y-9438108D02*
G75*
G03*
X25903708Y-9438108I-40000J0D01*
G01*
X25903708Y-10200108D02*
G75*
G03*
X25903708Y-10200108I-40000J0D01*
G01*
X25903708Y-10468108D02*
G75*
G03*
X25903708Y-10468108I-40000J0D01*
G01*
X25903708Y-11230108D02*
G75*
G03*
X25903708Y-11230108I-40000J0D01*
G01*
X26157708Y-5318108D02*
G75*
G03*
X26157708Y-5318108I-40000J0D01*
G01*
X26157708Y-6080108D02*
G75*
G03*
X26157708Y-6080108I-40000J0D01*
G01*
X26157708Y-6348108D02*
G75*
G03*
X26157708Y-6348108I-40000J0D01*
G01*
X26157708Y-7110108D02*
G75*
G03*
X26157708Y-7110108I-40000J0D01*
G01*
X26157708Y-7378108D02*
G75*
G03*
X26157708Y-7378108I-40000J0D01*
G01*
X26157708Y-8140108D02*
G75*
G03*
X26157708Y-8140108I-40000J0D01*
G01*
X26157708Y-8408108D02*
G75*
G03*
X26157708Y-8408108I-40000J0D01*
G01*
X26157708Y-9170108D02*
G75*
G03*
X26157708Y-9170108I-40000J0D01*
G01*
X26157708Y-9438108D02*
G75*
G03*
X26157708Y-9438108I-40000J0D01*
G01*
X26157708Y-10200108D02*
G75*
G03*
X26157708Y-10200108I-40000J0D01*
G01*
X26157708Y-10468108D02*
G75*
G03*
X26157708Y-10468108I-40000J0D01*
G01*
X26157708Y-11230108D02*
G75*
G03*
X26157708Y-11230108I-40000J0D01*
G01*
X26411708Y-5318108D02*
G75*
G03*
X26411708Y-5318108I-40000J0D01*
G01*
X26411708Y-6080108D02*
G75*
G03*
X26411708Y-6080108I-40000J0D01*
G01*
X26411708Y-6348108D02*
G75*
G03*
X26411708Y-6348108I-40000J0D01*
G01*
X26411708Y-7110108D02*
G75*
G03*
X26411708Y-7110108I-40000J0D01*
G01*
X26411708Y-7378108D02*
G75*
G03*
X26411708Y-7378108I-40000J0D01*
G01*
X26411708Y-8140108D02*
G75*
G03*
X26411708Y-8140108I-40000J0D01*
G01*
X26411708Y-8408108D02*
G75*
G03*
X26411708Y-8408108I-40000J0D01*
G01*
X26411708Y-9170108D02*
G75*
G03*
X26411708Y-9170108I-40000J0D01*
G01*
X26411708Y-9438108D02*
G75*
G03*
X26411708Y-9438108I-40000J0D01*
G01*
X26411708Y-10200108D02*
G75*
G03*
X26411708Y-10200108I-40000J0D01*
G01*
X26411708Y-10468108D02*
G75*
G03*
X26411708Y-10468108I-40000J0D01*
G01*
X26411708Y-11230108D02*
G75*
G03*
X26411708Y-11230108I-40000J0D01*
G01*
X9383708Y-8712108D02*
X9383708Y-8812108D01*
X9333708Y-8762108D02*
X9433708Y-8762108D01*
X9383708Y-8966108D02*
X9383708Y-9066108D01*
X9333708Y-9016108D02*
X9433708Y-9016108D01*
X9656708Y-8712108D02*
X9656708Y-8812108D01*
X9606708Y-8762108D02*
X9706708Y-8762108D01*
X9656708Y-8966108D02*
X9656708Y-9066108D01*
X9606708Y-9016108D02*
X9706708Y-9016108D01*
X12432708Y-9330108D02*
X12432708Y-9430108D01*
X12382708Y-9380108D02*
X12482708Y-9380108D01*
X12432708Y-10854108D02*
X12432708Y-10954108D01*
X12382708Y-10904108D02*
X12482708Y-10904108D01*
X16741708Y-10515108D02*
X16741708Y-10615108D01*
X16691708Y-10565108D02*
X16791708Y-10565108D01*
X16741708Y-10769108D02*
X16741708Y-10869108D01*
X16691708Y-10819108D02*
X16791708Y-10819108D01*
X16995708Y-10515108D02*
X16995708Y-10615108D01*
X16945708Y-10565108D02*
X17045708Y-10565108D01*
X16995708Y-10769108D02*
X16995708Y-10869108D01*
X16945708Y-10819108D02*
X17045708Y-10819108D01*
X17249708Y-10515108D02*
X17249708Y-10615108D01*
X17199708Y-10565108D02*
X17299708Y-10565108D01*
X17249708Y-10769108D02*
X17249708Y-10869108D01*
X17199708Y-10819108D02*
X17299708Y-10819108D01*
X17503708Y-10515108D02*
X17503708Y-10615108D01*
X17453708Y-10565108D02*
X17553708Y-10565108D01*
X17503708Y-10769108D02*
X17503708Y-10869108D01*
X17453708Y-10819108D02*
X17553708Y-10819108D01*
X17757708Y-10515108D02*
X17757708Y-10615108D01*
X17707708Y-10565108D02*
X17807708Y-10565108D01*
X17757708Y-10769108D02*
X17757708Y-10869108D01*
X17707708Y-10819108D02*
X17807708Y-10819108D01*
X18011708Y-10515108D02*
X18011708Y-10615108D01*
X17961708Y-10565108D02*
X18061708Y-10565108D01*
X18011708Y-10769108D02*
X18011708Y-10869108D01*
X17961708Y-10819108D02*
X18061708Y-10819108D01*
X18265708Y-10515108D02*
X18265708Y-10615108D01*
X18215708Y-10565108D02*
X18315708Y-10565108D01*
X18265708Y-10769108D02*
X18265708Y-10869108D01*
X18215708Y-10819108D02*
X18315708Y-10819108D01*
X18519708Y-10515108D02*
X18519708Y-10615108D01*
X18469708Y-10565108D02*
X18569708Y-10565108D01*
X18519708Y-10769108D02*
X18519708Y-10869108D01*
X18469708Y-10819108D02*
X18569708Y-10819108D01*
X18773708Y-10515108D02*
X18773708Y-10615108D01*
X18723708Y-10565108D02*
X18823708Y-10565108D01*
X18773708Y-10769108D02*
X18773708Y-10869108D01*
X18723708Y-10819108D02*
X18823708Y-10819108D01*
X19027708Y-10515108D02*
X19027708Y-10615108D01*
X18977708Y-10565108D02*
X19077708Y-10565108D01*
X19027708Y-10769108D02*
X19027708Y-10869108D01*
X18977708Y-10819108D02*
X19077708Y-10819108D01*
X19281708Y-10515108D02*
X19281708Y-10615108D01*
X19231708Y-10565108D02*
X19331708Y-10565108D01*
X19281708Y-10769108D02*
X19281708Y-10869108D01*
X19231708Y-10819108D02*
X19331708Y-10819108D01*
X19535708Y-10515108D02*
X19535708Y-10615108D01*
X19485708Y-10565108D02*
X19585708Y-10565108D01*
X19535708Y-10769108D02*
X19535708Y-10869108D01*
X19485708Y-10819108D02*
X19585708Y-10819108D01*
X19789708Y-10515108D02*
X19789708Y-10615108D01*
X19739708Y-10565108D02*
X19839708Y-10565108D01*
X19789708Y-10769108D02*
X19789708Y-10869108D01*
X19739708Y-10819108D02*
X19839708Y-10819108D01*
X20043708Y-10515108D02*
X20043708Y-10615108D01*
X19993708Y-10565108D02*
X20093708Y-10565108D01*
X20043708Y-10769108D02*
X20043708Y-10869108D01*
X19993708Y-10819108D02*
X20093708Y-10819108D01*
X20297708Y-10515108D02*
X20297708Y-10615108D01*
X20247708Y-10565108D02*
X20347708Y-10565108D01*
X20297708Y-10769108D02*
X20297708Y-10869108D01*
X20247708Y-10819108D02*
X20347708Y-10819108D01*
X20551708Y-10515108D02*
X20551708Y-10615108D01*
X20501708Y-10565108D02*
X20601708Y-10565108D01*
X20551708Y-10769108D02*
X20551708Y-10869108D01*
X20501708Y-10819108D02*
X20601708Y-10819108D01*
X20805708Y-10515108D02*
X20805708Y-10615108D01*
X20755708Y-10565108D02*
X20855708Y-10565108D01*
X20805708Y-10769108D02*
X20805708Y-10869108D01*
X20755708Y-10819108D02*
X20855708Y-10819108D01*
X21059708Y-10515108D02*
X21059708Y-10615108D01*
X21009708Y-10565108D02*
X21109708Y-10565108D01*
X21059708Y-10769108D02*
X21059708Y-10869108D01*
X21009708Y-10819108D02*
X21109708Y-10819108D01*
X21313708Y-10515108D02*
X21313708Y-10615108D01*
X21263708Y-10565108D02*
X21363708Y-10565108D01*
X21313708Y-10769108D02*
X21313708Y-10869108D01*
X21263708Y-10819108D02*
X21363708Y-10819108D01*
X21567708Y-10515108D02*
X21567708Y-10615108D01*
X21517708Y-10565108D02*
X21617708Y-10565108D01*
X21567708Y-10769108D02*
X21567708Y-10869108D01*
X21517708Y-10819108D02*
X21617708Y-10819108D01*
X3821029Y-10965029D02*
X3821029Y-10893187D01*
X3749187Y-10893187D01*
X3749187Y-10965029D01*
X3821029Y-10965029D01*
X3821029Y-11219029D02*
X3821029Y-11147187D01*
X3749187Y-11147187D01*
X3749187Y-11219029D01*
X3821029Y-11219029D01*
X4075029Y-10965029D02*
X4075029Y-10893187D01*
X4003187Y-10893187D01*
X4003187Y-10965029D01*
X4075029Y-10965029D01*
X4075029Y-11219029D02*
X4075029Y-11147187D01*
X4003187Y-11147187D01*
X4003187Y-11219029D01*
X4075029Y-11219029D01*
X4329029Y-10965029D02*
X4329029Y-10893187D01*
X4257187Y-10893187D01*
X4257187Y-10965029D01*
X4329029Y-10965029D01*
X4329029Y-11219029D02*
X4329029Y-11147187D01*
X4257187Y-11147187D01*
X4257187Y-11219029D01*
X4329029Y-11219029D01*
X4583029Y-10965029D02*
X4583029Y-10893187D01*
X4511187Y-10893187D01*
X4511187Y-10965029D01*
X4583029Y-10965029D01*
X4583029Y-11219029D02*
X4583029Y-11147187D01*
X4511187Y-11147187D01*
X4511187Y-11219029D01*
X4583029Y-11219029D01*
X4837029Y-10965029D02*
X4837029Y-10893187D01*
X4765187Y-10893187D01*
X4765187Y-10965029D01*
X4837029Y-10965029D01*
X4837029Y-11219029D02*
X4837029Y-11147187D01*
X4765187Y-11147187D01*
X4765187Y-11219029D01*
X4837029Y-11219029D01*
X5091029Y-10965029D02*
X5091029Y-10893187D01*
X5019187Y-10893187D01*
X5019187Y-10965029D01*
X5091029Y-10965029D01*
X5091029Y-11219029D02*
X5091029Y-11147187D01*
X5019187Y-11147187D01*
X5019187Y-11219029D01*
X5091029Y-11219029D01*
X5345029Y-10965029D02*
X5345029Y-10893187D01*
X5273187Y-10893187D01*
X5273187Y-10965029D01*
X5345029Y-10965029D01*
X5345029Y-11219029D02*
X5345029Y-11147187D01*
X5273187Y-11147187D01*
X5273187Y-11219029D01*
X5345029Y-11219029D01*
X5599029Y-10965029D02*
X5599029Y-10893187D01*
X5527187Y-10893187D01*
X5527187Y-10965029D01*
X5599029Y-10965029D01*
X5599029Y-11219029D02*
X5599029Y-11147187D01*
X5527187Y-11147187D01*
X5527187Y-11219029D01*
X5599029Y-11219029D01*
X5853029Y-10965029D02*
X5853029Y-10893187D01*
X5781187Y-10893187D01*
X5781187Y-10965029D01*
X5853029Y-10965029D01*
X5853029Y-11219029D02*
X5853029Y-11147187D01*
X5781187Y-11147187D01*
X5781187Y-11219029D01*
X5853029Y-11219029D01*
X6107029Y-10965029D02*
X6107029Y-10893187D01*
X6035187Y-10893187D01*
X6035187Y-10965029D01*
X6107029Y-10965029D01*
X6107029Y-11219029D02*
X6107029Y-11147187D01*
X6035187Y-11147187D01*
X6035187Y-11219029D01*
X6107029Y-11219029D01*
X6361029Y-10965029D02*
X6361029Y-10893187D01*
X6289187Y-10893187D01*
X6289187Y-10965029D01*
X6361029Y-10965029D01*
X6361029Y-11219029D02*
X6361029Y-11147187D01*
X6289187Y-11147187D01*
X6289187Y-11219029D01*
X6361029Y-11219029D01*
X6615029Y-10965029D02*
X6615029Y-10893187D01*
X6543187Y-10893187D01*
X6543187Y-10965029D01*
X6615029Y-10965029D01*
X6615029Y-11219029D02*
X6615029Y-11147187D01*
X6543187Y-11147187D01*
X6543187Y-11219029D01*
X6615029Y-11219029D01*
X6869029Y-10965029D02*
X6869029Y-10893187D01*
X6797187Y-10893187D01*
X6797187Y-10965029D01*
X6869029Y-10965029D01*
X6869029Y-11219029D02*
X6869029Y-11147187D01*
X6797187Y-11147187D01*
X6797187Y-11219029D01*
X6869029Y-11219029D01*
X7123029Y-10965029D02*
X7123029Y-10893187D01*
X7051187Y-10893187D01*
X7051187Y-10965029D01*
X7123029Y-10965029D01*
X7123029Y-11219029D02*
X7123029Y-11147187D01*
X7051187Y-11147187D01*
X7051187Y-11219029D01*
X7123029Y-11219029D01*
X7377029Y-10965029D02*
X7377029Y-10893187D01*
X7305187Y-10893187D01*
X7305187Y-10965029D01*
X7377029Y-10965029D01*
X7377029Y-11219029D02*
X7377029Y-11147187D01*
X7305187Y-11147187D01*
X7305187Y-11219029D01*
X7377029Y-11219029D01*
X7631029Y-10965029D02*
X7631029Y-10893187D01*
X7559187Y-10893187D01*
X7559187Y-10965029D01*
X7631029Y-10965029D01*
X7631029Y-11219029D02*
X7631029Y-11147187D01*
X7559187Y-11147187D01*
X7559187Y-11219029D01*
X7631029Y-11219029D01*
X7885029Y-10965029D02*
X7885029Y-10893187D01*
X7813187Y-10893187D01*
X7813187Y-10965029D01*
X7885029Y-10965029D01*
X7885029Y-11219029D02*
X7885029Y-11147187D01*
X7813187Y-11147187D01*
X7813187Y-11219029D01*
X7885029Y-11219029D01*
X8139029Y-10965029D02*
X8139029Y-10893187D01*
X8067187Y-10893187D01*
X8067187Y-10965029D01*
X8139029Y-10965029D01*
X8139029Y-11219029D02*
X8139029Y-11147187D01*
X8067187Y-11147187D01*
X8067187Y-11219029D01*
X8139029Y-11219029D01*
X8393029Y-10965029D02*
X8393029Y-10893187D01*
X8321187Y-10893187D01*
X8321187Y-10965029D01*
X8393029Y-10965029D01*
X8393029Y-11219029D02*
X8393029Y-11147187D01*
X8321187Y-11147187D01*
X8321187Y-11219029D01*
X8393029Y-11219029D01*
X8647029Y-10965029D02*
X8647029Y-10893187D01*
X8575187Y-10893187D01*
X8575187Y-10965029D01*
X8647029Y-10965029D01*
X8647029Y-11219029D02*
X8647029Y-11147187D01*
X8575187Y-11147187D01*
X8575187Y-11219029D01*
X8647029Y-11219029D01*
X8901029Y-10965029D02*
X8901029Y-10893187D01*
X8829187Y-10893187D01*
X8829187Y-10965029D01*
X8901029Y-10965029D01*
X8901029Y-11219029D02*
X8901029Y-11147187D01*
X8829187Y-11147187D01*
X8829187Y-11219029D01*
X8901029Y-11219029D01*
X9155029Y-10965029D02*
X9155029Y-10893187D01*
X9083187Y-10893187D01*
X9083187Y-10965029D01*
X9155029Y-10965029D01*
X9155029Y-11219029D02*
X9155029Y-11147187D01*
X9083187Y-11147187D01*
X9083187Y-11219029D01*
X9155029Y-11219029D01*
X9409029Y-10965029D02*
X9409029Y-10893187D01*
X9337187Y-10893187D01*
X9337187Y-10965029D01*
X9409029Y-10965029D01*
X9409029Y-11219029D02*
X9409029Y-11147187D01*
X9337187Y-11147187D01*
X9337187Y-11219029D01*
X9409029Y-11219029D01*
X9663029Y-10965029D02*
X9663029Y-10893187D01*
X9591187Y-10893187D01*
X9591187Y-10965029D01*
X9663029Y-10965029D01*
X9663029Y-11219029D02*
X9663029Y-11147187D01*
X9591187Y-11147187D01*
X9591187Y-11219029D01*
X9663029Y-11219029D01*
X9917029Y-10965029D02*
X9917029Y-10893187D01*
X9845187Y-10893187D01*
X9845187Y-10965029D01*
X9917029Y-10965029D01*
X9917029Y-11219029D02*
X9917029Y-11147187D01*
X9845187Y-11147187D01*
X9845187Y-11219029D01*
X9917029Y-11219029D01*
X10171029Y-10965029D02*
X10171029Y-10893187D01*
X10099187Y-10893187D01*
X10099187Y-10965029D01*
X10171029Y-10965029D01*
X10171029Y-11219029D02*
X10171029Y-11147187D01*
X10099187Y-11147187D01*
X10099187Y-11219029D01*
X10171029Y-11219029D01*
D12*
X2418636Y-12458322D02*
X2418636Y-12158322D01*
X2490065Y-12158322D01*
X2532922Y-12172608D01*
X2561494Y-12201179D01*
X2575779Y-12229751D01*
X2590065Y-12286894D01*
X2590065Y-12329751D01*
X2575779Y-12386894D01*
X2561494Y-12415465D01*
X2532922Y-12444037D01*
X2490065Y-12458322D01*
X2418636Y-12458322D01*
X2718636Y-12458322D02*
X2718636Y-12258322D01*
X2718636Y-12315465D02*
X2732922Y-12286894D01*
X2747208Y-12272608D01*
X2775779Y-12258322D01*
X2804351Y-12258322D01*
X2904351Y-12458322D02*
X2904351Y-12258322D01*
X2904351Y-12158322D02*
X2890065Y-12172608D01*
X2904351Y-12186894D01*
X2918636Y-12172608D01*
X2904351Y-12158322D01*
X2904351Y-12186894D01*
X3090065Y-12458322D02*
X3061494Y-12444037D01*
X3047208Y-12415465D01*
X3047208Y-12158322D01*
X3247208Y-12458322D02*
X3218636Y-12444037D01*
X3204351Y-12415465D01*
X3204351Y-12158322D01*
X3590065Y-12458322D02*
X3590065Y-12158322D01*
X3690065Y-12372608D01*
X3790065Y-12158322D01*
X3790065Y-12458322D01*
X4061494Y-12458322D02*
X4061494Y-12301179D01*
X4047208Y-12272608D01*
X4018636Y-12258322D01*
X3961494Y-12258322D01*
X3932922Y-12272608D01*
X4061494Y-12444037D02*
X4032922Y-12458322D01*
X3961494Y-12458322D01*
X3932922Y-12444037D01*
X3918636Y-12415465D01*
X3918636Y-12386894D01*
X3932922Y-12358322D01*
X3961494Y-12344037D01*
X4032922Y-12344037D01*
X4061494Y-12329751D01*
X4204351Y-12258322D02*
X4204351Y-12558322D01*
X4204351Y-12272608D02*
X4232922Y-12258322D01*
X4290065Y-12258322D01*
X4318636Y-12272608D01*
X4332922Y-12286894D01*
X4347208Y-12315465D01*
X4347208Y-12401179D01*
X4332922Y-12429751D01*
X4318636Y-12444037D01*
X4290065Y-12458322D01*
X4232922Y-12458322D01*
X4204351Y-12444037D01*
X4475779Y-12429751D02*
X4490065Y-12444037D01*
X4475779Y-12458322D01*
X4461494Y-12444037D01*
X4475779Y-12429751D01*
X4475779Y-12458322D01*
X4475779Y-12272608D02*
X4490065Y-12286894D01*
X4475779Y-12301179D01*
X4461494Y-12286894D01*
X4475779Y-12272608D01*
X4475779Y-12301179D01*
X2092208Y-12932608D02*
X2132208Y-12972608D01*
X2132208Y-12932608D02*
X2092208Y-12972608D01*
X2475779Y-12788322D02*
X2504351Y-12788322D01*
X2532922Y-12802608D01*
X2547208Y-12816894D01*
X2561494Y-12845465D01*
X2575779Y-12902608D01*
X2575779Y-12974037D01*
X2561494Y-13031179D01*
X2547208Y-13059751D01*
X2532922Y-13074037D01*
X2504351Y-13088322D01*
X2475779Y-13088322D01*
X2447208Y-13074037D01*
X2432922Y-13059751D01*
X2418636Y-13031179D01*
X2404351Y-12974037D01*
X2404351Y-12902608D01*
X2418636Y-12845465D01*
X2432922Y-12816894D01*
X2447208Y-12802608D01*
X2475779Y-12788322D01*
X2704351Y-13059751D02*
X2718636Y-13074037D01*
X2704351Y-13088322D01*
X2690065Y-13074037D01*
X2704351Y-13059751D01*
X2704351Y-13088322D01*
X2975779Y-12888322D02*
X2975779Y-13088322D01*
X2904351Y-12774037D02*
X2832922Y-12988322D01*
X3018636Y-12988322D01*
X3190065Y-12788322D02*
X3218636Y-12788322D01*
X3247208Y-12802608D01*
X3261494Y-12816894D01*
X3275779Y-12845465D01*
X3290065Y-12902608D01*
X3290065Y-12974037D01*
X3275779Y-13031179D01*
X3261494Y-13059751D01*
X3247208Y-13074037D01*
X3218636Y-13088322D01*
X3190065Y-13088322D01*
X3161494Y-13074037D01*
X3147208Y-13059751D01*
X3132922Y-13031179D01*
X3118636Y-12974037D01*
X3118636Y-12902608D01*
X3132922Y-12845465D01*
X3147208Y-12816894D01*
X3161494Y-12802608D01*
X3190065Y-12788322D01*
X3475779Y-12788322D02*
X3504351Y-12788322D01*
X3532922Y-12802608D01*
X3547208Y-12816894D01*
X3561494Y-12845465D01*
X3575779Y-12902608D01*
X3575779Y-12974037D01*
X3561494Y-13031179D01*
X3547208Y-13059751D01*
X3532922Y-13074037D01*
X3504351Y-13088322D01*
X3475779Y-13088322D01*
X3447208Y-13074037D01*
X3432922Y-13059751D01*
X3418636Y-13031179D01*
X3404351Y-12974037D01*
X3404351Y-12902608D01*
X3418636Y-12845465D01*
X3432922Y-12816894D01*
X3447208Y-12802608D01*
X3475779Y-12788322D01*
X3704351Y-13088322D02*
X3704351Y-12888322D01*
X3704351Y-12916894D02*
X3718636Y-12902608D01*
X3747208Y-12888322D01*
X3790065Y-12888322D01*
X3818636Y-12902608D01*
X3832922Y-12931179D01*
X3832922Y-13088322D01*
X3832922Y-12931179D02*
X3847208Y-12902608D01*
X3875779Y-12888322D01*
X3918636Y-12888322D01*
X3947208Y-12902608D01*
X3961494Y-12931179D01*
X3961494Y-13088322D01*
X4104351Y-13088322D02*
X4104351Y-12888322D01*
X4104351Y-12916894D02*
X4118636Y-12902608D01*
X4147208Y-12888322D01*
X4190065Y-12888322D01*
X4218636Y-12902608D01*
X4232922Y-12931179D01*
X4232922Y-13088322D01*
X4232922Y-12931179D02*
X4247208Y-12902608D01*
X4275779Y-12888322D01*
X4318636Y-12888322D01*
X4347208Y-12902608D01*
X4361494Y-12931179D01*
X4361494Y-13088322D01*
X4947208Y-12774037D02*
X4690065Y-13159751D01*
X5332922Y-12788322D02*
X5361494Y-12788322D01*
X5390065Y-12802608D01*
X5404351Y-12816894D01*
X5418636Y-12845465D01*
X5432922Y-12902608D01*
X5432922Y-12974037D01*
X5418636Y-13031179D01*
X5404351Y-13059751D01*
X5390065Y-13074037D01*
X5361494Y-13088322D01*
X5332922Y-13088322D01*
X5304351Y-13074037D01*
X5290065Y-13059751D01*
X5275779Y-13031179D01*
X5261494Y-12974037D01*
X5261494Y-12902608D01*
X5275779Y-12845465D01*
X5290065Y-12816894D01*
X5304351Y-12802608D01*
X5332922Y-12788322D01*
X5561494Y-13059751D02*
X5575779Y-13074037D01*
X5561494Y-13088322D01*
X5547208Y-13074037D01*
X5561494Y-13059751D01*
X5561494Y-13088322D01*
X5761494Y-12788322D02*
X5790065Y-12788322D01*
X5818636Y-12802608D01*
X5832922Y-12816894D01*
X5847208Y-12845465D01*
X5861494Y-12902608D01*
X5861494Y-12974037D01*
X5847208Y-13031179D01*
X5832922Y-13059751D01*
X5818636Y-13074037D01*
X5790065Y-13088322D01*
X5761494Y-13088322D01*
X5732922Y-13074037D01*
X5718636Y-13059751D01*
X5704351Y-13031179D01*
X5690065Y-12974037D01*
X5690065Y-12902608D01*
X5704351Y-12845465D01*
X5718636Y-12816894D01*
X5732922Y-12802608D01*
X5761494Y-12788322D01*
X6147208Y-13088322D02*
X5975779Y-13088322D01*
X6061494Y-13088322D02*
X6061494Y-12788322D01*
X6032922Y-12831179D01*
X6004351Y-12859751D01*
X5975779Y-12874037D01*
X6418636Y-12788322D02*
X6275779Y-12788322D01*
X6261494Y-12931179D01*
X6275779Y-12916894D01*
X6304351Y-12902608D01*
X6375779Y-12902608D01*
X6404351Y-12916894D01*
X6418636Y-12931179D01*
X6432922Y-12959751D01*
X6432922Y-13031179D01*
X6418636Y-13059751D01*
X6404351Y-13074037D01*
X6375779Y-13088322D01*
X6304351Y-13088322D01*
X6275779Y-13074037D01*
X6261494Y-13059751D01*
X6532922Y-12788322D02*
X6732922Y-12788322D01*
X6604351Y-13088322D01*
X6832922Y-12788322D02*
X6832922Y-12845465D01*
X6947208Y-12788322D02*
X6947208Y-12845465D01*
X7390065Y-13202608D02*
X7375779Y-13188322D01*
X7347208Y-13145465D01*
X7332922Y-13116894D01*
X7318636Y-13074037D01*
X7304351Y-13002608D01*
X7304351Y-12945465D01*
X7318636Y-12874037D01*
X7332922Y-12831179D01*
X7347208Y-12802608D01*
X7375779Y-12759751D01*
X7390065Y-12745465D01*
X7661494Y-13088322D02*
X7490065Y-13088322D01*
X7575779Y-13088322D02*
X7575779Y-12788322D01*
X7547208Y-12831179D01*
X7518636Y-12859751D01*
X7490065Y-12874037D01*
X7804351Y-13088322D02*
X7861494Y-13088322D01*
X7890065Y-13074037D01*
X7904351Y-13059751D01*
X7932922Y-13016894D01*
X7947208Y-12959751D01*
X7947208Y-12845465D01*
X7932922Y-12816894D01*
X7918636Y-12802608D01*
X7890065Y-12788322D01*
X7832922Y-12788322D01*
X7804351Y-12802608D01*
X7790065Y-12816894D01*
X7775779Y-12845465D01*
X7775779Y-12916894D01*
X7790065Y-12945465D01*
X7804351Y-12959751D01*
X7832922Y-12974037D01*
X7890065Y-12974037D01*
X7918636Y-12959751D01*
X7932922Y-12945465D01*
X7947208Y-12916894D01*
X8118636Y-12916894D02*
X8090065Y-12902608D01*
X8075779Y-12888322D01*
X8061494Y-12859751D01*
X8061494Y-12845465D01*
X8075779Y-12816894D01*
X8090065Y-12802608D01*
X8118636Y-12788322D01*
X8175779Y-12788322D01*
X8204351Y-12802608D01*
X8218636Y-12816894D01*
X8232922Y-12845465D01*
X8232922Y-12859751D01*
X8218636Y-12888322D01*
X8204351Y-12902608D01*
X8175779Y-12916894D01*
X8118636Y-12916894D01*
X8090065Y-12931179D01*
X8075779Y-12945465D01*
X8061494Y-12974037D01*
X8061494Y-13031179D01*
X8075779Y-13059751D01*
X8090065Y-13074037D01*
X8118636Y-13088322D01*
X8175779Y-13088322D01*
X8204351Y-13074037D01*
X8218636Y-13059751D01*
X8232922Y-13031179D01*
X8232922Y-12974037D01*
X8218636Y-12945465D01*
X8204351Y-12931179D01*
X8175779Y-12916894D01*
X8590065Y-13088322D02*
X8590065Y-12788322D01*
X8718636Y-13088322D02*
X8718636Y-12931179D01*
X8704351Y-12902608D01*
X8675779Y-12888322D01*
X8632922Y-12888322D01*
X8604351Y-12902608D01*
X8590065Y-12916894D01*
X8904351Y-13088322D02*
X8875779Y-13074037D01*
X8861494Y-13059751D01*
X8847208Y-13031179D01*
X8847208Y-12945465D01*
X8861494Y-12916894D01*
X8875779Y-12902608D01*
X8904351Y-12888322D01*
X8947208Y-12888322D01*
X8975779Y-12902608D01*
X8990065Y-12916894D01*
X9004351Y-12945465D01*
X9004351Y-13031179D01*
X8990065Y-13059751D01*
X8975779Y-13074037D01*
X8947208Y-13088322D01*
X8904351Y-13088322D01*
X9175779Y-13088322D02*
X9147208Y-13074037D01*
X9132922Y-13045465D01*
X9132922Y-12788322D01*
X9404351Y-13074037D02*
X9375779Y-13088322D01*
X9318636Y-13088322D01*
X9290065Y-13074037D01*
X9275779Y-13045465D01*
X9275779Y-12931179D01*
X9290065Y-12902608D01*
X9318636Y-12888322D01*
X9375779Y-12888322D01*
X9404351Y-12902608D01*
X9418636Y-12931179D01*
X9418636Y-12959751D01*
X9275779Y-12988322D01*
X9532922Y-13074037D02*
X9561494Y-13088322D01*
X9618636Y-13088322D01*
X9647208Y-13074037D01*
X9661494Y-13045465D01*
X9661494Y-13031179D01*
X9647208Y-13002608D01*
X9618636Y-12988322D01*
X9575779Y-12988322D01*
X9547208Y-12974037D01*
X9532922Y-12945465D01*
X9532922Y-12931179D01*
X9547208Y-12902608D01*
X9575779Y-12888322D01*
X9618636Y-12888322D01*
X9647208Y-12902608D01*
X9761494Y-13202608D02*
X9775779Y-13188322D01*
X9804351Y-13145465D01*
X9818636Y-13116894D01*
X9832922Y-13074037D01*
X9847208Y-13002608D01*
X9847208Y-12945465D01*
X9832922Y-12874037D01*
X9818636Y-12831179D01*
X9804351Y-12802608D01*
X9775779Y-12759751D01*
X9761494Y-12745465D01*
X2132208Y-13348608D02*
G75*
G03*
X2132208Y-13348608I-40000J0D01*
G01*
X2475779Y-13184322D02*
X2504351Y-13184322D01*
X2532922Y-13198608D01*
X2547208Y-13212894D01*
X2561494Y-13241465D01*
X2575779Y-13298608D01*
X2575779Y-13370037D01*
X2561494Y-13427179D01*
X2547208Y-13455751D01*
X2532922Y-13470037D01*
X2504351Y-13484322D01*
X2475779Y-13484322D01*
X2447208Y-13470037D01*
X2432922Y-13455751D01*
X2418636Y-13427179D01*
X2404351Y-13370037D01*
X2404351Y-13298608D01*
X2418636Y-13241465D01*
X2432922Y-13212894D01*
X2447208Y-13198608D01*
X2475779Y-13184322D01*
X2704351Y-13455751D02*
X2718636Y-13470037D01*
X2704351Y-13484322D01*
X2690065Y-13470037D01*
X2704351Y-13455751D01*
X2704351Y-13484322D01*
X2890065Y-13312894D02*
X2861494Y-13298608D01*
X2847208Y-13284322D01*
X2832922Y-13255751D01*
X2832922Y-13241465D01*
X2847208Y-13212894D01*
X2861494Y-13198608D01*
X2890065Y-13184322D01*
X2947208Y-13184322D01*
X2975779Y-13198608D01*
X2990065Y-13212894D01*
X3004351Y-13241465D01*
X3004351Y-13255751D01*
X2990065Y-13284322D01*
X2975779Y-13298608D01*
X2947208Y-13312894D01*
X2890065Y-13312894D01*
X2861494Y-13327179D01*
X2847208Y-13341465D01*
X2832922Y-13370037D01*
X2832922Y-13427179D01*
X2847208Y-13455751D01*
X2861494Y-13470037D01*
X2890065Y-13484322D01*
X2947208Y-13484322D01*
X2975779Y-13470037D01*
X2990065Y-13455751D01*
X3004351Y-13427179D01*
X3004351Y-13370037D01*
X2990065Y-13341465D01*
X2975779Y-13327179D01*
X2947208Y-13312894D01*
X3190065Y-13184322D02*
X3218636Y-13184322D01*
X3247208Y-13198608D01*
X3261494Y-13212894D01*
X3275779Y-13241465D01*
X3290065Y-13298608D01*
X3290065Y-13370037D01*
X3275779Y-13427179D01*
X3261494Y-13455751D01*
X3247208Y-13470037D01*
X3218636Y-13484322D01*
X3190065Y-13484322D01*
X3161494Y-13470037D01*
X3147208Y-13455751D01*
X3132922Y-13427179D01*
X3118636Y-13370037D01*
X3118636Y-13298608D01*
X3132922Y-13241465D01*
X3147208Y-13212894D01*
X3161494Y-13198608D01*
X3190065Y-13184322D01*
X3475779Y-13184322D02*
X3504351Y-13184322D01*
X3532922Y-13198608D01*
X3547208Y-13212894D01*
X3561494Y-13241465D01*
X3575779Y-13298608D01*
X3575779Y-13370037D01*
X3561494Y-13427179D01*
X3547208Y-13455751D01*
X3532922Y-13470037D01*
X3504351Y-13484322D01*
X3475779Y-13484322D01*
X3447208Y-13470037D01*
X3432922Y-13455751D01*
X3418636Y-13427179D01*
X3404351Y-13370037D01*
X3404351Y-13298608D01*
X3418636Y-13241465D01*
X3432922Y-13212894D01*
X3447208Y-13198608D01*
X3475779Y-13184322D01*
X3704351Y-13484322D02*
X3704351Y-13284322D01*
X3704351Y-13312894D02*
X3718636Y-13298608D01*
X3747208Y-13284322D01*
X3790065Y-13284322D01*
X3818636Y-13298608D01*
X3832922Y-13327179D01*
X3832922Y-13484322D01*
X3832922Y-13327179D02*
X3847208Y-13298608D01*
X3875779Y-13284322D01*
X3918636Y-13284322D01*
X3947208Y-13298608D01*
X3961494Y-13327179D01*
X3961494Y-13484322D01*
X4104351Y-13484322D02*
X4104351Y-13284322D01*
X4104351Y-13312894D02*
X4118636Y-13298608D01*
X4147208Y-13284322D01*
X4190065Y-13284322D01*
X4218636Y-13298608D01*
X4232922Y-13327179D01*
X4232922Y-13484322D01*
X4232922Y-13327179D02*
X4247208Y-13298608D01*
X4275779Y-13284322D01*
X4318636Y-13284322D01*
X4347208Y-13298608D01*
X4361494Y-13327179D01*
X4361494Y-13484322D01*
X4947208Y-13170037D02*
X4690065Y-13555751D01*
X5332922Y-13184322D02*
X5361494Y-13184322D01*
X5390065Y-13198608D01*
X5404351Y-13212894D01*
X5418636Y-13241465D01*
X5432922Y-13298608D01*
X5432922Y-13370037D01*
X5418636Y-13427179D01*
X5404351Y-13455751D01*
X5390065Y-13470037D01*
X5361494Y-13484322D01*
X5332922Y-13484322D01*
X5304351Y-13470037D01*
X5290065Y-13455751D01*
X5275779Y-13427179D01*
X5261494Y-13370037D01*
X5261494Y-13298608D01*
X5275779Y-13241465D01*
X5290065Y-13212894D01*
X5304351Y-13198608D01*
X5332922Y-13184322D01*
X5561494Y-13455751D02*
X5575779Y-13470037D01*
X5561494Y-13484322D01*
X5547208Y-13470037D01*
X5561494Y-13455751D01*
X5561494Y-13484322D01*
X5761494Y-13184322D02*
X5790065Y-13184322D01*
X5818636Y-13198608D01*
X5832922Y-13212894D01*
X5847208Y-13241465D01*
X5861494Y-13298608D01*
X5861494Y-13370037D01*
X5847208Y-13427179D01*
X5832922Y-13455751D01*
X5818636Y-13470037D01*
X5790065Y-13484322D01*
X5761494Y-13484322D01*
X5732922Y-13470037D01*
X5718636Y-13455751D01*
X5704351Y-13427179D01*
X5690065Y-13370037D01*
X5690065Y-13298608D01*
X5704351Y-13241465D01*
X5718636Y-13212894D01*
X5732922Y-13198608D01*
X5761494Y-13184322D01*
X5961494Y-13184322D02*
X6147208Y-13184322D01*
X6047208Y-13298608D01*
X6090065Y-13298608D01*
X6118636Y-13312894D01*
X6132922Y-13327179D01*
X6147208Y-13355751D01*
X6147208Y-13427179D01*
X6132922Y-13455751D01*
X6118636Y-13470037D01*
X6090065Y-13484322D01*
X6004351Y-13484322D01*
X5975779Y-13470037D01*
X5961494Y-13455751D01*
X6432922Y-13484322D02*
X6261494Y-13484322D01*
X6347208Y-13484322D02*
X6347208Y-13184322D01*
X6318636Y-13227179D01*
X6290065Y-13255751D01*
X6261494Y-13270037D01*
X6704351Y-13184322D02*
X6561494Y-13184322D01*
X6547208Y-13327179D01*
X6561494Y-13312894D01*
X6590065Y-13298608D01*
X6661494Y-13298608D01*
X6690065Y-13312894D01*
X6704351Y-13327179D01*
X6718636Y-13355751D01*
X6718636Y-13427179D01*
X6704351Y-13455751D01*
X6690065Y-13470037D01*
X6661494Y-13484322D01*
X6590065Y-13484322D01*
X6561494Y-13470037D01*
X6547208Y-13455751D01*
X6832922Y-13184322D02*
X6832922Y-13241465D01*
X6947208Y-13184322D02*
X6947208Y-13241465D01*
X7390065Y-13598608D02*
X7375779Y-13584322D01*
X7347208Y-13541465D01*
X7332922Y-13512894D01*
X7318636Y-13470037D01*
X7304351Y-13398608D01*
X7304351Y-13341465D01*
X7318636Y-13270037D01*
X7332922Y-13227179D01*
X7347208Y-13198608D01*
X7375779Y-13155751D01*
X7390065Y-13141465D01*
X7647208Y-13184322D02*
X7504351Y-13184322D01*
X7490065Y-13327179D01*
X7504351Y-13312894D01*
X7532922Y-13298608D01*
X7604351Y-13298608D01*
X7632922Y-13312894D01*
X7647208Y-13327179D01*
X7661494Y-13355751D01*
X7661494Y-13427179D01*
X7647208Y-13455751D01*
X7632922Y-13470037D01*
X7604351Y-13484322D01*
X7532922Y-13484322D01*
X7504351Y-13470037D01*
X7490065Y-13455751D01*
X7804351Y-13484322D02*
X7861494Y-13484322D01*
X7890065Y-13470037D01*
X7904351Y-13455751D01*
X7932922Y-13412894D01*
X7947208Y-13355751D01*
X7947208Y-13241465D01*
X7932922Y-13212894D01*
X7918636Y-13198608D01*
X7890065Y-13184322D01*
X7832922Y-13184322D01*
X7804351Y-13198608D01*
X7790065Y-13212894D01*
X7775779Y-13241465D01*
X7775779Y-13312894D01*
X7790065Y-13341465D01*
X7804351Y-13355751D01*
X7832922Y-13370037D01*
X7890065Y-13370037D01*
X7918636Y-13355751D01*
X7932922Y-13341465D01*
X7947208Y-13312894D01*
X8132922Y-13184322D02*
X8161494Y-13184322D01*
X8190065Y-13198608D01*
X8204351Y-13212894D01*
X8218636Y-13241465D01*
X8232922Y-13298608D01*
X8232922Y-13370037D01*
X8218636Y-13427179D01*
X8204351Y-13455751D01*
X8190065Y-13470037D01*
X8161494Y-13484322D01*
X8132922Y-13484322D01*
X8104351Y-13470037D01*
X8090065Y-13455751D01*
X8075779Y-13427179D01*
X8061494Y-13370037D01*
X8061494Y-13298608D01*
X8075779Y-13241465D01*
X8090065Y-13212894D01*
X8104351Y-13198608D01*
X8132922Y-13184322D01*
X8590065Y-13484322D02*
X8590065Y-13184322D01*
X8718636Y-13484322D02*
X8718636Y-13327179D01*
X8704351Y-13298608D01*
X8675779Y-13284322D01*
X8632922Y-13284322D01*
X8604351Y-13298608D01*
X8590065Y-13312894D01*
X8904351Y-13484322D02*
X8875779Y-13470037D01*
X8861494Y-13455751D01*
X8847208Y-13427179D01*
X8847208Y-13341465D01*
X8861494Y-13312894D01*
X8875779Y-13298608D01*
X8904351Y-13284322D01*
X8947208Y-13284322D01*
X8975779Y-13298608D01*
X8990065Y-13312894D01*
X9004351Y-13341465D01*
X9004351Y-13427179D01*
X8990065Y-13455751D01*
X8975779Y-13470037D01*
X8947208Y-13484322D01*
X8904351Y-13484322D01*
X9175779Y-13484322D02*
X9147208Y-13470037D01*
X9132922Y-13441465D01*
X9132922Y-13184322D01*
X9404351Y-13470037D02*
X9375779Y-13484322D01*
X9318636Y-13484322D01*
X9290065Y-13470037D01*
X9275779Y-13441465D01*
X9275779Y-13327179D01*
X9290065Y-13298608D01*
X9318636Y-13284322D01*
X9375779Y-13284322D01*
X9404351Y-13298608D01*
X9418636Y-13327179D01*
X9418636Y-13355751D01*
X9275779Y-13384322D01*
X9532922Y-13470037D02*
X9561494Y-13484322D01*
X9618636Y-13484322D01*
X9647208Y-13470037D01*
X9661494Y-13441465D01*
X9661494Y-13427179D01*
X9647208Y-13398608D01*
X9618636Y-13384322D01*
X9575779Y-13384322D01*
X9547208Y-13370037D01*
X9532922Y-13341465D01*
X9532922Y-13327179D01*
X9547208Y-13298608D01*
X9575779Y-13284322D01*
X9618636Y-13284322D01*
X9647208Y-13298608D01*
X9761494Y-13598608D02*
X9775779Y-13584322D01*
X9804351Y-13541465D01*
X9818636Y-13512894D01*
X9832922Y-13470037D01*
X9847208Y-13398608D01*
X9847208Y-13341465D01*
X9832922Y-13270037D01*
X9818636Y-13227179D01*
X9804351Y-13198608D01*
X9775779Y-13155751D01*
X9761494Y-13141465D01*
X2082208Y-13694608D02*
X2082208Y-13794608D01*
X2032208Y-13744608D02*
X2132208Y-13744608D01*
X2575779Y-13880322D02*
X2404351Y-13880322D01*
X2490065Y-13880322D02*
X2490065Y-13580322D01*
X2461494Y-13623179D01*
X2432922Y-13651751D01*
X2404351Y-13666037D01*
X2704351Y-13851751D02*
X2718636Y-13866037D01*
X2704351Y-13880322D01*
X2690065Y-13866037D01*
X2704351Y-13851751D01*
X2704351Y-13880322D01*
X2904351Y-13580322D02*
X2932922Y-13580322D01*
X2961494Y-13594608D01*
X2975779Y-13608894D01*
X2990065Y-13637465D01*
X3004351Y-13694608D01*
X3004351Y-13766037D01*
X2990065Y-13823179D01*
X2975779Y-13851751D01*
X2961494Y-13866037D01*
X2932922Y-13880322D01*
X2904351Y-13880322D01*
X2875779Y-13866037D01*
X2861494Y-13851751D01*
X2847208Y-13823179D01*
X2832922Y-13766037D01*
X2832922Y-13694608D01*
X2847208Y-13637465D01*
X2861494Y-13608894D01*
X2875779Y-13594608D01*
X2904351Y-13580322D01*
X3190065Y-13580322D02*
X3218636Y-13580322D01*
X3247208Y-13594608D01*
X3261494Y-13608894D01*
X3275779Y-13637465D01*
X3290065Y-13694608D01*
X3290065Y-13766037D01*
X3275779Y-13823179D01*
X3261494Y-13851751D01*
X3247208Y-13866037D01*
X3218636Y-13880322D01*
X3190065Y-13880322D01*
X3161494Y-13866037D01*
X3147208Y-13851751D01*
X3132922Y-13823179D01*
X3118636Y-13766037D01*
X3118636Y-13694608D01*
X3132922Y-13637465D01*
X3147208Y-13608894D01*
X3161494Y-13594608D01*
X3190065Y-13580322D01*
X3475779Y-13580322D02*
X3504351Y-13580322D01*
X3532922Y-13594608D01*
X3547208Y-13608894D01*
X3561494Y-13637465D01*
X3575779Y-13694608D01*
X3575779Y-13766037D01*
X3561494Y-13823179D01*
X3547208Y-13851751D01*
X3532922Y-13866037D01*
X3504351Y-13880322D01*
X3475779Y-13880322D01*
X3447208Y-13866037D01*
X3432922Y-13851751D01*
X3418636Y-13823179D01*
X3404351Y-13766037D01*
X3404351Y-13694608D01*
X3418636Y-13637465D01*
X3432922Y-13608894D01*
X3447208Y-13594608D01*
X3475779Y-13580322D01*
X3704351Y-13880322D02*
X3704351Y-13680322D01*
X3704351Y-13708894D02*
X3718636Y-13694608D01*
X3747208Y-13680322D01*
X3790065Y-13680322D01*
X3818636Y-13694608D01*
X3832922Y-13723179D01*
X3832922Y-13880322D01*
X3832922Y-13723179D02*
X3847208Y-13694608D01*
X3875779Y-13680322D01*
X3918636Y-13680322D01*
X3947208Y-13694608D01*
X3961494Y-13723179D01*
X3961494Y-13880322D01*
X4104351Y-13880322D02*
X4104351Y-13680322D01*
X4104351Y-13708894D02*
X4118636Y-13694608D01*
X4147208Y-13680322D01*
X4190065Y-13680322D01*
X4218636Y-13694608D01*
X4232922Y-13723179D01*
X4232922Y-13880322D01*
X4232922Y-13723179D02*
X4247208Y-13694608D01*
X4275779Y-13680322D01*
X4318636Y-13680322D01*
X4347208Y-13694608D01*
X4361494Y-13723179D01*
X4361494Y-13880322D01*
X4947208Y-13566037D02*
X4690065Y-13951751D01*
X5332922Y-13580322D02*
X5361494Y-13580322D01*
X5390065Y-13594608D01*
X5404351Y-13608894D01*
X5418636Y-13637465D01*
X5432922Y-13694608D01*
X5432922Y-13766037D01*
X5418636Y-13823179D01*
X5404351Y-13851751D01*
X5390065Y-13866037D01*
X5361494Y-13880322D01*
X5332922Y-13880322D01*
X5304351Y-13866037D01*
X5290065Y-13851751D01*
X5275779Y-13823179D01*
X5261494Y-13766037D01*
X5261494Y-13694608D01*
X5275779Y-13637465D01*
X5290065Y-13608894D01*
X5304351Y-13594608D01*
X5332922Y-13580322D01*
X5561494Y-13851751D02*
X5575779Y-13866037D01*
X5561494Y-13880322D01*
X5547208Y-13866037D01*
X5561494Y-13851751D01*
X5561494Y-13880322D01*
X5761494Y-13580322D02*
X5790065Y-13580322D01*
X5818636Y-13594608D01*
X5832922Y-13608894D01*
X5847208Y-13637465D01*
X5861494Y-13694608D01*
X5861494Y-13766037D01*
X5847208Y-13823179D01*
X5832922Y-13851751D01*
X5818636Y-13866037D01*
X5790065Y-13880322D01*
X5761494Y-13880322D01*
X5732922Y-13866037D01*
X5718636Y-13851751D01*
X5704351Y-13823179D01*
X5690065Y-13766037D01*
X5690065Y-13694608D01*
X5704351Y-13637465D01*
X5718636Y-13608894D01*
X5732922Y-13594608D01*
X5761494Y-13580322D01*
X5961494Y-13580322D02*
X6147208Y-13580322D01*
X6047208Y-13694608D01*
X6090065Y-13694608D01*
X6118636Y-13708894D01*
X6132922Y-13723179D01*
X6147208Y-13751751D01*
X6147208Y-13823179D01*
X6132922Y-13851751D01*
X6118636Y-13866037D01*
X6090065Y-13880322D01*
X6004351Y-13880322D01*
X5975779Y-13866037D01*
X5961494Y-13851751D01*
X6290065Y-13880322D02*
X6347208Y-13880322D01*
X6375779Y-13866037D01*
X6390065Y-13851751D01*
X6418636Y-13808894D01*
X6432922Y-13751751D01*
X6432922Y-13637465D01*
X6418636Y-13608894D01*
X6404351Y-13594608D01*
X6375779Y-13580322D01*
X6318636Y-13580322D01*
X6290065Y-13594608D01*
X6275779Y-13608894D01*
X6261494Y-13637465D01*
X6261494Y-13708894D01*
X6275779Y-13737465D01*
X6290065Y-13751751D01*
X6318636Y-13766037D01*
X6375779Y-13766037D01*
X6404351Y-13751751D01*
X6418636Y-13737465D01*
X6432922Y-13708894D01*
X6690065Y-13680322D02*
X6690065Y-13880322D01*
X6618636Y-13566037D02*
X6547208Y-13780322D01*
X6732922Y-13780322D01*
X6832922Y-13580322D02*
X6832922Y-13637465D01*
X6947208Y-13580322D02*
X6947208Y-13637465D01*
X7390065Y-13994608D02*
X7375779Y-13980322D01*
X7347208Y-13937465D01*
X7332922Y-13908894D01*
X7318636Y-13866037D01*
X7304351Y-13794608D01*
X7304351Y-13737465D01*
X7318636Y-13666037D01*
X7332922Y-13623179D01*
X7347208Y-13594608D01*
X7375779Y-13551751D01*
X7390065Y-13537465D01*
X7632922Y-13680322D02*
X7632922Y-13880322D01*
X7561494Y-13566037D02*
X7490065Y-13780322D01*
X7675779Y-13780322D01*
X7918636Y-13580322D02*
X7861494Y-13580322D01*
X7832922Y-13594608D01*
X7818636Y-13608894D01*
X7790065Y-13651751D01*
X7775779Y-13708894D01*
X7775779Y-13823179D01*
X7790065Y-13851751D01*
X7804351Y-13866037D01*
X7832922Y-13880322D01*
X7890065Y-13880322D01*
X7918636Y-13866037D01*
X7932922Y-13851751D01*
X7947208Y-13823179D01*
X7947208Y-13751751D01*
X7932922Y-13723179D01*
X7918636Y-13708894D01*
X7890065Y-13694608D01*
X7832922Y-13694608D01*
X7804351Y-13708894D01*
X7790065Y-13723179D01*
X7775779Y-13751751D01*
X8304351Y-13880322D02*
X8304351Y-13580322D01*
X8432922Y-13880322D02*
X8432922Y-13723179D01*
X8418636Y-13694608D01*
X8390065Y-13680322D01*
X8347208Y-13680322D01*
X8318636Y-13694608D01*
X8304351Y-13708894D01*
X8618636Y-13880322D02*
X8590065Y-13866037D01*
X8575779Y-13851751D01*
X8561494Y-13823179D01*
X8561494Y-13737465D01*
X8575779Y-13708894D01*
X8590065Y-13694608D01*
X8618636Y-13680322D01*
X8661494Y-13680322D01*
X8690065Y-13694608D01*
X8704351Y-13708894D01*
X8718636Y-13737465D01*
X8718636Y-13823179D01*
X8704351Y-13851751D01*
X8690065Y-13866037D01*
X8661494Y-13880322D01*
X8618636Y-13880322D01*
X8890065Y-13880322D02*
X8861494Y-13866037D01*
X8847208Y-13837465D01*
X8847208Y-13580322D01*
X9118636Y-13866037D02*
X9090065Y-13880322D01*
X9032922Y-13880322D01*
X9004351Y-13866037D01*
X8990065Y-13837465D01*
X8990065Y-13723179D01*
X9004351Y-13694608D01*
X9032922Y-13680322D01*
X9090065Y-13680322D01*
X9118636Y-13694608D01*
X9132922Y-13723179D01*
X9132922Y-13751751D01*
X8990065Y-13780322D01*
X9247208Y-13866037D02*
X9275779Y-13880322D01*
X9332922Y-13880322D01*
X9361494Y-13866037D01*
X9375779Y-13837465D01*
X9375779Y-13823179D01*
X9361494Y-13794608D01*
X9332922Y-13780322D01*
X9290065Y-13780322D01*
X9261494Y-13766037D01*
X9247208Y-13737465D01*
X9247208Y-13723179D01*
X9261494Y-13694608D01*
X9290065Y-13680322D01*
X9332922Y-13680322D01*
X9361494Y-13694608D01*
X9475779Y-13994608D02*
X9490065Y-13980322D01*
X9518636Y-13937465D01*
X9532922Y-13908894D01*
X9547208Y-13866037D01*
X9561494Y-13794608D01*
X9561494Y-13737465D01*
X9547208Y-13666037D01*
X9532922Y-13623179D01*
X9518636Y-13594608D01*
X9490065Y-13551751D01*
X9475779Y-13537465D01*
X2117329Y-14176529D02*
X2117329Y-14104687D01*
X2045486Y-14104687D01*
X2045486Y-14176529D01*
X2117329Y-14176529D01*
X2575779Y-14276322D02*
X2404351Y-14276322D01*
X2490065Y-14276322D02*
X2490065Y-13976322D01*
X2461494Y-14019179D01*
X2432922Y-14047751D01*
X2404351Y-14062037D01*
X2704351Y-14247751D02*
X2718636Y-14262037D01*
X2704351Y-14276322D01*
X2690065Y-14262037D01*
X2704351Y-14247751D01*
X2704351Y-14276322D01*
X2904351Y-13976322D02*
X2932922Y-13976322D01*
X2961494Y-13990608D01*
X2975779Y-14004894D01*
X2990065Y-14033465D01*
X3004351Y-14090608D01*
X3004351Y-14162037D01*
X2990065Y-14219179D01*
X2975779Y-14247751D01*
X2961494Y-14262037D01*
X2932922Y-14276322D01*
X2904351Y-14276322D01*
X2875779Y-14262037D01*
X2861494Y-14247751D01*
X2847208Y-14219179D01*
X2832922Y-14162037D01*
X2832922Y-14090608D01*
X2847208Y-14033465D01*
X2861494Y-14004894D01*
X2875779Y-13990608D01*
X2904351Y-13976322D01*
X3290065Y-14276322D02*
X3118636Y-14276322D01*
X3204351Y-14276322D02*
X3204351Y-13976322D01*
X3175779Y-14019179D01*
X3147208Y-14047751D01*
X3118636Y-14062037D01*
X3547208Y-13976322D02*
X3490065Y-13976322D01*
X3461494Y-13990608D01*
X3447208Y-14004894D01*
X3418636Y-14047751D01*
X3404351Y-14104894D01*
X3404351Y-14219179D01*
X3418636Y-14247751D01*
X3432922Y-14262037D01*
X3461494Y-14276322D01*
X3518636Y-14276322D01*
X3547208Y-14262037D01*
X3561494Y-14247751D01*
X3575779Y-14219179D01*
X3575779Y-14147751D01*
X3561494Y-14119179D01*
X3547208Y-14104894D01*
X3518636Y-14090608D01*
X3461494Y-14090608D01*
X3432922Y-14104894D01*
X3418636Y-14119179D01*
X3404351Y-14147751D01*
X3704351Y-14276322D02*
X3704351Y-14076322D01*
X3704351Y-14104894D02*
X3718636Y-14090608D01*
X3747208Y-14076322D01*
X3790065Y-14076322D01*
X3818636Y-14090608D01*
X3832922Y-14119179D01*
X3832922Y-14276322D01*
X3832922Y-14119179D02*
X3847208Y-14090608D01*
X3875779Y-14076322D01*
X3918636Y-14076322D01*
X3947208Y-14090608D01*
X3961494Y-14119179D01*
X3961494Y-14276322D01*
X4104351Y-14276322D02*
X4104351Y-14076322D01*
X4104351Y-14104894D02*
X4118636Y-14090608D01*
X4147208Y-14076322D01*
X4190065Y-14076322D01*
X4218636Y-14090608D01*
X4232922Y-14119179D01*
X4232922Y-14276322D01*
X4232922Y-14119179D02*
X4247208Y-14090608D01*
X4275779Y-14076322D01*
X4318636Y-14076322D01*
X4347208Y-14090608D01*
X4361494Y-14119179D01*
X4361494Y-14276322D01*
X4947208Y-13962037D02*
X4690065Y-14347751D01*
X5332922Y-13976322D02*
X5361494Y-13976322D01*
X5390065Y-13990608D01*
X5404351Y-14004894D01*
X5418636Y-14033465D01*
X5432922Y-14090608D01*
X5432922Y-14162037D01*
X5418636Y-14219179D01*
X5404351Y-14247751D01*
X5390065Y-14262037D01*
X5361494Y-14276322D01*
X5332922Y-14276322D01*
X5304351Y-14262037D01*
X5290065Y-14247751D01*
X5275779Y-14219179D01*
X5261494Y-14162037D01*
X5261494Y-14090608D01*
X5275779Y-14033465D01*
X5290065Y-14004894D01*
X5304351Y-13990608D01*
X5332922Y-13976322D01*
X5561494Y-14247751D02*
X5575779Y-14262037D01*
X5561494Y-14276322D01*
X5547208Y-14262037D01*
X5561494Y-14247751D01*
X5561494Y-14276322D01*
X5761494Y-13976322D02*
X5790065Y-13976322D01*
X5818636Y-13990608D01*
X5832922Y-14004894D01*
X5847208Y-14033465D01*
X5861494Y-14090608D01*
X5861494Y-14162037D01*
X5847208Y-14219179D01*
X5832922Y-14247751D01*
X5818636Y-14262037D01*
X5790065Y-14276322D01*
X5761494Y-14276322D01*
X5732922Y-14262037D01*
X5718636Y-14247751D01*
X5704351Y-14219179D01*
X5690065Y-14162037D01*
X5690065Y-14090608D01*
X5704351Y-14033465D01*
X5718636Y-14004894D01*
X5732922Y-13990608D01*
X5761494Y-13976322D01*
X6118636Y-14076322D02*
X6118636Y-14276322D01*
X6047208Y-13962037D02*
X5975779Y-14176322D01*
X6161494Y-14176322D01*
X6332922Y-13976322D02*
X6361494Y-13976322D01*
X6390065Y-13990608D01*
X6404351Y-14004894D01*
X6418636Y-14033465D01*
X6432922Y-14090608D01*
X6432922Y-14162037D01*
X6418636Y-14219179D01*
X6404351Y-14247751D01*
X6390065Y-14262037D01*
X6361494Y-14276322D01*
X6332922Y-14276322D01*
X6304351Y-14262037D01*
X6290065Y-14247751D01*
X6275779Y-14219179D01*
X6261494Y-14162037D01*
X6261494Y-14090608D01*
X6275779Y-14033465D01*
X6290065Y-14004894D01*
X6304351Y-13990608D01*
X6332922Y-13976322D01*
X6618636Y-13976322D02*
X6647208Y-13976322D01*
X6675779Y-13990608D01*
X6690065Y-14004894D01*
X6704351Y-14033465D01*
X6718636Y-14090608D01*
X6718636Y-14162037D01*
X6704351Y-14219179D01*
X6690065Y-14247751D01*
X6675779Y-14262037D01*
X6647208Y-14276322D01*
X6618636Y-14276322D01*
X6590065Y-14262037D01*
X6575779Y-14247751D01*
X6561494Y-14219179D01*
X6547208Y-14162037D01*
X6547208Y-14090608D01*
X6561494Y-14033465D01*
X6575779Y-14004894D01*
X6590065Y-13990608D01*
X6618636Y-13976322D01*
X6832922Y-13976322D02*
X6832922Y-14033465D01*
X6947208Y-13976322D02*
X6947208Y-14033465D01*
X7390065Y-14390608D02*
X7375779Y-14376322D01*
X7347208Y-14333465D01*
X7332922Y-14304894D01*
X7318636Y-14262037D01*
X7304351Y-14190608D01*
X7304351Y-14133465D01*
X7318636Y-14062037D01*
X7332922Y-14019179D01*
X7347208Y-13990608D01*
X7375779Y-13947751D01*
X7390065Y-13933465D01*
X7647208Y-13976322D02*
X7504351Y-13976322D01*
X7490065Y-14119179D01*
X7504351Y-14104894D01*
X7532922Y-14090608D01*
X7604351Y-14090608D01*
X7632922Y-14104894D01*
X7647208Y-14119179D01*
X7661494Y-14147751D01*
X7661494Y-14219179D01*
X7647208Y-14247751D01*
X7632922Y-14262037D01*
X7604351Y-14276322D01*
X7532922Y-14276322D01*
X7504351Y-14262037D01*
X7490065Y-14247751D01*
X7775779Y-14004894D02*
X7790065Y-13990608D01*
X7818636Y-13976322D01*
X7890065Y-13976322D01*
X7918636Y-13990608D01*
X7932922Y-14004894D01*
X7947208Y-14033465D01*
X7947208Y-14062037D01*
X7932922Y-14104894D01*
X7761494Y-14276322D01*
X7947208Y-14276322D01*
X8304351Y-14276322D02*
X8304351Y-13976322D01*
X8432922Y-14276322D02*
X8432922Y-14119179D01*
X8418636Y-14090608D01*
X8390065Y-14076322D01*
X8347208Y-14076322D01*
X8318636Y-14090608D01*
X8304351Y-14104894D01*
X8618636Y-14276322D02*
X8590065Y-14262037D01*
X8575779Y-14247751D01*
X8561494Y-14219179D01*
X8561494Y-14133465D01*
X8575779Y-14104894D01*
X8590065Y-14090608D01*
X8618636Y-14076322D01*
X8661494Y-14076322D01*
X8690065Y-14090608D01*
X8704351Y-14104894D01*
X8718636Y-14133465D01*
X8718636Y-14219179D01*
X8704351Y-14247751D01*
X8690065Y-14262037D01*
X8661494Y-14276322D01*
X8618636Y-14276322D01*
X8890065Y-14276322D02*
X8861494Y-14262037D01*
X8847208Y-14233465D01*
X8847208Y-13976322D01*
X9118636Y-14262037D02*
X9090065Y-14276322D01*
X9032922Y-14276322D01*
X9004351Y-14262037D01*
X8990065Y-14233465D01*
X8990065Y-14119179D01*
X9004351Y-14090608D01*
X9032922Y-14076322D01*
X9090065Y-14076322D01*
X9118636Y-14090608D01*
X9132922Y-14119179D01*
X9132922Y-14147751D01*
X8990065Y-14176322D01*
X9247208Y-14262037D02*
X9275779Y-14276322D01*
X9332922Y-14276322D01*
X9361494Y-14262037D01*
X9375779Y-14233465D01*
X9375779Y-14219179D01*
X9361494Y-14190608D01*
X9332922Y-14176322D01*
X9290065Y-14176322D01*
X9261494Y-14162037D01*
X9247208Y-14133465D01*
X9247208Y-14119179D01*
X9261494Y-14090608D01*
X9290065Y-14076322D01*
X9332922Y-14076322D01*
X9361494Y-14090608D01*
X9475779Y-14390608D02*
X9490065Y-14376322D01*
X9518636Y-14333465D01*
X9532922Y-14304894D01*
X9547208Y-14262037D01*
X9561494Y-14190608D01*
X9561494Y-14133465D01*
X9547208Y-14062037D01*
X9532922Y-14019179D01*
X9518636Y-13990608D01*
X9490065Y-13947751D01*
X9475779Y-13933465D01*
M02*
